%TF.GenerationSoftware,KiCad,Pcbnew,7.0.7*%
%TF.CreationDate,2024-05-31T20:05:00-04:00*%
%TF.ProjectId,HVHF_IIB,48564846-5f49-4494-922e-6b696361645f,rev?*%
%TF.SameCoordinates,Original*%
%TF.FileFunction,Legend,Bot*%
%TF.FilePolarity,Positive*%
%FSLAX46Y46*%
G04 Gerber Fmt 4.6, Leading zero omitted, Abs format (unit mm)*
G04 Created by KiCad (PCBNEW 7.0.7) date 2024-05-31 20:05:00*
%MOMM*%
%LPD*%
G01*
G04 APERTURE LIST*
%ADD10C,0.300000*%
%ADD11C,0.508000*%
G04 APERTURE END LIST*
D10*
X169571428Y-117678328D02*
X170285714Y-117678328D01*
X170285714Y-117678328D02*
X170285714Y-116178328D01*
X168785713Y-116178328D02*
X168499999Y-116178328D01*
X168499999Y-116178328D02*
X168357142Y-116249757D01*
X168357142Y-116249757D02*
X168214285Y-116392614D01*
X168214285Y-116392614D02*
X168142856Y-116678328D01*
X168142856Y-116678328D02*
X168142856Y-117178328D01*
X168142856Y-117178328D02*
X168214285Y-117464042D01*
X168214285Y-117464042D02*
X168357142Y-117606900D01*
X168357142Y-117606900D02*
X168499999Y-117678328D01*
X168499999Y-117678328D02*
X168785713Y-117678328D01*
X168785713Y-117678328D02*
X168928571Y-117606900D01*
X168928571Y-117606900D02*
X169071428Y-117464042D01*
X169071428Y-117464042D02*
X169142856Y-117178328D01*
X169142856Y-117178328D02*
X169142856Y-116678328D01*
X169142856Y-116678328D02*
X169071428Y-116392614D01*
X169071428Y-116392614D02*
X168928571Y-116249757D01*
X168928571Y-116249757D02*
X168785713Y-116178328D01*
X166714284Y-116249757D02*
X166857142Y-116178328D01*
X166857142Y-116178328D02*
X167071427Y-116178328D01*
X167071427Y-116178328D02*
X167285713Y-116249757D01*
X167285713Y-116249757D02*
X167428570Y-116392614D01*
X167428570Y-116392614D02*
X167499999Y-116535471D01*
X167499999Y-116535471D02*
X167571427Y-116821185D01*
X167571427Y-116821185D02*
X167571427Y-117035471D01*
X167571427Y-117035471D02*
X167499999Y-117321185D01*
X167499999Y-117321185D02*
X167428570Y-117464042D01*
X167428570Y-117464042D02*
X167285713Y-117606900D01*
X167285713Y-117606900D02*
X167071427Y-117678328D01*
X167071427Y-117678328D02*
X166928570Y-117678328D01*
X166928570Y-117678328D02*
X166714284Y-117606900D01*
X166714284Y-117606900D02*
X166642856Y-117535471D01*
X166642856Y-117535471D02*
X166642856Y-117035471D01*
X166642856Y-117035471D02*
X166928570Y-117035471D01*
X165714284Y-116178328D02*
X165428570Y-116178328D01*
X165428570Y-116178328D02*
X165285713Y-116249757D01*
X165285713Y-116249757D02*
X165142856Y-116392614D01*
X165142856Y-116392614D02*
X165071427Y-116678328D01*
X165071427Y-116678328D02*
X165071427Y-117178328D01*
X165071427Y-117178328D02*
X165142856Y-117464042D01*
X165142856Y-117464042D02*
X165285713Y-117606900D01*
X165285713Y-117606900D02*
X165428570Y-117678328D01*
X165428570Y-117678328D02*
X165714284Y-117678328D01*
X165714284Y-117678328D02*
X165857142Y-117606900D01*
X165857142Y-117606900D02*
X165999999Y-117464042D01*
X165999999Y-117464042D02*
X166071427Y-117178328D01*
X166071427Y-117178328D02*
X166071427Y-116678328D01*
X166071427Y-116678328D02*
X165999999Y-116392614D01*
X165999999Y-116392614D02*
X165857142Y-116249757D01*
X165857142Y-116249757D02*
X165714284Y-116178328D01*
X163642855Y-117678328D02*
X164499998Y-117678328D01*
X164071427Y-117678328D02*
X164071427Y-116178328D01*
X164071427Y-116178328D02*
X164214284Y-116392614D01*
X164214284Y-116392614D02*
X164357141Y-116535471D01*
X164357141Y-116535471D02*
X164499998Y-116606900D01*
D11*
%TO.C,J2*%
X115001600Y-104440700D02*
G75*
G03*
X115001600Y-104440700I-381000J0D01*
G01*
%TO.C,J1*%
X114381000Y-66332299D02*
G75*
G03*
X114381000Y-66332299I-381000J0D01*
G01*
%TO.C,LOGO1*%
G36*
X147877582Y-112156753D02*
G01*
X149875654Y-112606921D01*
X151651535Y-113454543D01*
X152989585Y-114648665D01*
X153714407Y-115583291D01*
X153958387Y-113933074D01*
X154052120Y-113425872D01*
X154311537Y-112606310D01*
X154587967Y-112282857D01*
X154986906Y-112309862D01*
X155972376Y-112397911D01*
X157369736Y-112532581D01*
X159019178Y-112698868D01*
X160435966Y-112853489D01*
X161754781Y-113036738D01*
X162557543Y-113223143D01*
X162956723Y-113441059D01*
X163064789Y-113718842D01*
X163012964Y-113933673D01*
X162468426Y-114380988D01*
X161276057Y-114787792D01*
X159487324Y-115252779D01*
X159487324Y-123947927D01*
X159487324Y-132643076D01*
X161276057Y-133397059D01*
X161977477Y-133732667D01*
X162760300Y-134242685D01*
X163064789Y-134646950D01*
X163064647Y-134654150D01*
X162933129Y-134827944D01*
X162499295Y-134956971D01*
X161680542Y-135047105D01*
X160394265Y-135104215D01*
X158557863Y-135134175D01*
X156088733Y-135142857D01*
X155174938Y-135142084D01*
X152959366Y-135129016D01*
X151342101Y-135094659D01*
X150235971Y-135032373D01*
X149553804Y-134935519D01*
X149208430Y-134797459D01*
X149112677Y-134611553D01*
X149246053Y-134356715D01*
X149996252Y-133897149D01*
X151348592Y-133410006D01*
X153584508Y-132739764D01*
X153565681Y-126230596D01*
X153533416Y-123540130D01*
X153442308Y-121140592D01*
X153294783Y-119406257D01*
X153092600Y-118366389D01*
X153061997Y-118277407D01*
X152215822Y-116776009D01*
X150960924Y-115861428D01*
X149332741Y-115560112D01*
X148723660Y-115585637D01*
X147738789Y-115817037D01*
X146905906Y-116406199D01*
X145980389Y-117494258D01*
X145190258Y-118532802D01*
X144795820Y-117494258D01*
X144662966Y-117144088D01*
X144230315Y-116001519D01*
X143760129Y-114757702D01*
X143118876Y-113059690D01*
X144237608Y-112580560D01*
X145872962Y-112154997D01*
X147877582Y-112156753D01*
G37*
G36*
X143350395Y-128597886D02*
G01*
X142458671Y-131116212D01*
X141084804Y-133125106D01*
X139214464Y-134648193D01*
X136833324Y-135709098D01*
X134788415Y-136131808D01*
X132427140Y-136082567D01*
X130240786Y-135479408D01*
X128361668Y-134361588D01*
X126922100Y-132768368D01*
X126315535Y-131830504D01*
X126087345Y-132987752D01*
X125930647Y-134006942D01*
X125859155Y-134962214D01*
X125856523Y-135111458D01*
X125736103Y-135541461D01*
X125294666Y-135691641D01*
X124338733Y-135649450D01*
X124114161Y-135630648D01*
X122895178Y-135534536D01*
X121318978Y-135416181D01*
X119668298Y-135296925D01*
X119371881Y-135275500D01*
X117942403Y-135145339D01*
X117088558Y-134994345D01*
X116690268Y-134791236D01*
X116627453Y-134504727D01*
X116786146Y-134257609D01*
X117479980Y-133777779D01*
X118525353Y-133328418D01*
X120314085Y-132721758D01*
X120368921Y-122489277D01*
X126284784Y-122489277D01*
X126337388Y-125594986D01*
X126803771Y-128456263D01*
X127697088Y-130739615D01*
X129016480Y-132442918D01*
X130761090Y-133564050D01*
X131288217Y-133782812D01*
X132018182Y-133995613D01*
X132649021Y-133917292D01*
X133550705Y-133545373D01*
X134313559Y-133140754D01*
X135292849Y-132291550D01*
X136014607Y-131093156D01*
X136545124Y-129420879D01*
X136950691Y-127150025D01*
X137081255Y-125575269D01*
X137053451Y-123294813D01*
X136829850Y-120966032D01*
X136437254Y-118843775D01*
X135902465Y-117182885D01*
X135578849Y-116514477D01*
X134521705Y-115032166D01*
X133229970Y-114185189D01*
X131627981Y-113915715D01*
X130360939Y-114033758D01*
X128919334Y-114608163D01*
X127817416Y-115698395D01*
X127028685Y-117346976D01*
X126526642Y-119596430D01*
X126284784Y-122489277D01*
X120368921Y-122489277D01*
X120407019Y-115380101D01*
X120499953Y-98038444D01*
X124163357Y-98284668D01*
X125185809Y-98356070D01*
X127200085Y-98523625D01*
X128618951Y-98695584D01*
X129527310Y-98887691D01*
X130010063Y-99115695D01*
X130152113Y-99395339D01*
X129994693Y-99622543D01*
X129312610Y-100012690D01*
X128273944Y-100382442D01*
X126395775Y-100912113D01*
X126298713Y-107838864D01*
X126201650Y-114765615D01*
X127310670Y-113714836D01*
X127391673Y-113639423D01*
X128852803Y-112660710D01*
X130692950Y-112101439D01*
X133038590Y-111922024D01*
X134143432Y-111957200D01*
X136633303Y-112393080D01*
X138767497Y-113370185D01*
X140685331Y-114943563D01*
X141189844Y-115484401D01*
X142429848Y-117199374D01*
X143245561Y-119118671D01*
X143689949Y-121398831D01*
X143815975Y-124196395D01*
X143774304Y-125546505D01*
X143770308Y-125575269D01*
X143350395Y-128597886D01*
G37*
G36*
X188546209Y-128623255D02*
G01*
X188564222Y-130602675D01*
X187959267Y-132472568D01*
X186802586Y-134078464D01*
X185165419Y-135265895D01*
X184317469Y-135567890D01*
X182665572Y-135821268D01*
X180802311Y-135839111D01*
X179005642Y-135624532D01*
X177553522Y-135180644D01*
X177351262Y-135079684D01*
X176115303Y-134281221D01*
X175049296Y-133346161D01*
X173976057Y-132183667D01*
X173797184Y-133935405D01*
X173694861Y-134693226D01*
X173452744Y-135435469D01*
X173081691Y-135624004D01*
X172578912Y-135582876D01*
X171502735Y-135509775D01*
X170029333Y-135416889D01*
X168322346Y-135314848D01*
X168127280Y-135303401D01*
X166376982Y-135186677D01*
X165221013Y-135067883D01*
X164548755Y-134924339D01*
X164249587Y-134733364D01*
X164212889Y-134472277D01*
X164302151Y-134284606D01*
X164976433Y-133793988D01*
X166199698Y-133334706D01*
X168073240Y-132793690D01*
X168073240Y-125248048D01*
X168074667Y-124214976D01*
X168077837Y-123894286D01*
X174154930Y-123894286D01*
X174155486Y-126525000D01*
X174223857Y-128063522D01*
X174614738Y-129952539D01*
X175397230Y-131391563D01*
X176622624Y-132504910D01*
X176670469Y-132536722D01*
X178021539Y-133113962D01*
X179539424Y-133313091D01*
X180870204Y-133085714D01*
X181475830Y-132540355D01*
X181978383Y-131453715D01*
X182289958Y-130057654D01*
X182382582Y-128562168D01*
X182228280Y-127177252D01*
X181799078Y-126112901D01*
X181280777Y-125540282D01*
X179919272Y-124686868D01*
X178164628Y-124115124D01*
X176211972Y-123902255D01*
X174154930Y-123894286D01*
X168077837Y-123894286D01*
X168100880Y-121562885D01*
X168172663Y-119497756D01*
X168306308Y-117915842D01*
X168518105Y-116713398D01*
X168824348Y-115786676D01*
X169241327Y-115031931D01*
X169785335Y-114345417D01*
X170504013Y-113716635D01*
X172143021Y-112901290D01*
X174192979Y-112384317D01*
X176505752Y-112158681D01*
X178933201Y-112217351D01*
X181327189Y-112553295D01*
X183539581Y-113159479D01*
X185422238Y-114028871D01*
X186827025Y-115154439D01*
X186897629Y-115234482D01*
X187167227Y-115633861D01*
X187158316Y-116054474D01*
X186817639Y-116680452D01*
X186091940Y-117695923D01*
X185420163Y-118571841D01*
X184824106Y-119271689D01*
X184510639Y-119540000D01*
X184249708Y-119297607D01*
X183879473Y-118633514D01*
X183579659Y-118114671D01*
X182871043Y-117140733D01*
X181996295Y-116102912D01*
X181367618Y-115476451D01*
X179793379Y-114436949D01*
X178204927Y-114098198D01*
X176651498Y-114464272D01*
X175182330Y-115539242D01*
X175162651Y-115559237D01*
X174619043Y-116185815D01*
X174315545Y-116826036D01*
X174183669Y-117716973D01*
X174154930Y-119095700D01*
X174154930Y-121610080D01*
X177154603Y-121843947D01*
X178269767Y-121952289D01*
X181412373Y-122531783D01*
X184037936Y-123462711D01*
X186109580Y-124724450D01*
X187590427Y-126296374D01*
X188443601Y-128157857D01*
X188532741Y-128562168D01*
X188546209Y-128623255D01*
G37*
G36*
X212791550Y-118411801D02*
G01*
X212791550Y-132463126D01*
X214298009Y-132951888D01*
X215026405Y-133188212D01*
X215885331Y-133496735D01*
X216948292Y-134031415D01*
X217376380Y-134519604D01*
X217384557Y-134642856D01*
X217271000Y-134831384D01*
X216909764Y-134970778D01*
X216207292Y-135072068D01*
X215070025Y-135146286D01*
X213404406Y-135204462D01*
X211116876Y-135257627D01*
X210938314Y-135261296D01*
X207405445Y-135322586D01*
X204498418Y-135345059D01*
X202132267Y-135324100D01*
X200222027Y-135255095D01*
X198682730Y-135133430D01*
X197429412Y-134954491D01*
X196377106Y-134713663D01*
X195440846Y-134406333D01*
X193351688Y-133350976D01*
X191463470Y-131739447D01*
X190114465Y-129758672D01*
X189360377Y-127493137D01*
X189312553Y-126353393D01*
X196049337Y-126353393D01*
X196505675Y-128832367D01*
X196532716Y-128922834D01*
X197446393Y-130840548D01*
X198869112Y-132250700D01*
X200815324Y-133167827D01*
X201385517Y-133331382D01*
X203127863Y-133643485D01*
X204384508Y-133513093D01*
X204875052Y-133376015D01*
X205726057Y-133171969D01*
X206709860Y-132951888D01*
X206709860Y-125730489D01*
X206709860Y-118509091D01*
X205622214Y-118266791D01*
X204401769Y-118135236D01*
X202520407Y-118298823D01*
X200612173Y-118795590D01*
X198920897Y-119556503D01*
X197690405Y-120512526D01*
X196746413Y-121968064D01*
X196135936Y-124020683D01*
X196049337Y-126353393D01*
X189312553Y-126353393D01*
X189256912Y-125027329D01*
X189271168Y-124886633D01*
X189794107Y-122658084D01*
X190865932Y-120766182D01*
X192521252Y-119177172D01*
X194794675Y-117857303D01*
X197720811Y-116772823D01*
X197751901Y-116758049D01*
X197620441Y-116501856D01*
X196979422Y-116036905D01*
X195948170Y-115452100D01*
X194654960Y-114700355D01*
X192951244Y-113278976D01*
X191884572Y-111656400D01*
X191410889Y-109777529D01*
X191380240Y-109380000D01*
X198125837Y-109380000D01*
X198236771Y-111184052D01*
X198705481Y-112879340D01*
X199597232Y-114142662D01*
X200972282Y-115095000D01*
X202512343Y-115675495D01*
X204639184Y-115911429D01*
X206709860Y-115911429D01*
X206709860Y-109963108D01*
X206711378Y-108369065D01*
X206697304Y-106500456D01*
X206620895Y-105192095D01*
X206434099Y-104344562D01*
X206088863Y-103858435D01*
X205537134Y-103634294D01*
X204730861Y-103572718D01*
X203621990Y-103574286D01*
X201903319Y-103727251D01*
X200223472Y-104359069D01*
X199046307Y-105498740D01*
X198353277Y-107165854D01*
X198125837Y-109380000D01*
X191380240Y-109380000D01*
X191362878Y-109154805D01*
X191427048Y-107137601D01*
X191909969Y-105555727D01*
X192849972Y-104262282D01*
X193171023Y-103949506D01*
X194096452Y-103201942D01*
X195145841Y-102613360D01*
X196403318Y-102169919D01*
X197953014Y-101857780D01*
X199879059Y-101663102D01*
X202265582Y-101572043D01*
X205196715Y-101570764D01*
X208756586Y-101645424D01*
X209041179Y-101653344D01*
X211665904Y-101732682D01*
X213662431Y-101809727D01*
X215110421Y-101891985D01*
X216089534Y-101986966D01*
X216679430Y-102102177D01*
X216959771Y-102245127D01*
X217010216Y-102423322D01*
X216753805Y-102736193D01*
X215967715Y-103207843D01*
X214848592Y-103665170D01*
X212791550Y-104360476D01*
X212791550Y-108369065D01*
X212791550Y-118411801D01*
G37*
%TD*%
M02*
