%TF.GenerationSoftware,KiCad,Pcbnew,7.0.7*%
%TF.CreationDate,2024-05-31T20:09:08-04:00*%
%TF.ProjectId,HVHF_IIB,48564846-5f49-4494-922e-6b696361645f,rev?*%
%TF.SameCoordinates,Original*%
%TF.FileFunction,Drillmap*%
%TF.FilePolarity,Positive*%
%FSLAX45Y45*%
G04 Gerber Fmt 4.5, Leading zero omitted, Abs format (unit mm)*
G04 Created by KiCad (PCBNEW 7.0.7) date 2024-05-31 20:09:08*
%MOMM*%
%LPD*%
G01*
G04 APERTURE LIST*
%ADD10C,0.100000*%
%ADD11C,0.200000*%
%ADD12C,0.081280*%
%ADD13C,0.099060*%
%ADD14C,0.101600*%
%ADD15C,0.130000*%
%ADD16C,0.140000*%
%ADD17C,0.150000*%
%ADD18C,0.190500*%
G04 APERTURE END LIST*
D10*
X22400000Y-14200000D02*
X10700000Y-14200000D01*
X10700000Y-6300000D01*
X22400000Y-6300000D01*
X22400000Y-14200000D01*
D11*
D12*
X16559360Y-12651360D02*
X16640640Y-12732640D01*
X16640640Y-12651360D02*
X16559360Y-12732640D01*
X16559360Y-12905360D02*
X16640640Y-12986640D01*
X16640640Y-12905360D02*
X16559360Y-12986640D01*
X16559360Y-13159360D02*
X16640640Y-13240640D01*
X16640640Y-13159360D02*
X16559360Y-13240640D01*
D13*
X11449530Y-7050000D02*
G75*
G03*
X11449530Y-7050000I-49530J0D01*
G01*
X11449530Y-7400000D02*
G75*
G03*
X11449530Y-7400000I-49530J0D01*
G01*
X11511590Y-10860840D02*
G75*
G03*
X11511590Y-10860840I-49530J0D01*
G01*
X11511590Y-11210840D02*
G75*
G03*
X11511590Y-11210840I-49530J0D01*
G01*
D14*
X12200000Y-12349200D02*
X12200000Y-12450800D01*
X12149200Y-12400000D02*
X12250800Y-12400000D01*
X12200000Y-12603200D02*
X12200000Y-12704800D01*
X12149200Y-12654000D02*
X12250800Y-12654000D01*
X13000000Y-6849200D02*
X13000000Y-6950800D01*
X12949200Y-6900000D02*
X13050800Y-6900000D01*
X13000000Y-7349580D02*
X13000000Y-7451180D01*
X12949200Y-7400380D02*
X13050800Y-7400380D01*
X14671400Y-10322200D02*
X14671400Y-10423800D01*
X14620600Y-10373000D02*
X14722200Y-10373000D01*
X14900000Y-10322200D02*
X14900000Y-10423800D01*
X14849200Y-10373000D02*
X14950800Y-10373000D01*
X15128600Y-10322200D02*
X15128600Y-10423800D01*
X15077800Y-10373000D02*
X15179400Y-10373000D01*
X16371400Y-10322200D02*
X16371400Y-10423800D01*
X16320600Y-10373000D02*
X16422200Y-10373000D01*
X16600000Y-10322200D02*
X16600000Y-10423800D01*
X16549200Y-10373000D02*
X16650800Y-10373000D01*
X16828600Y-10322200D02*
X16828600Y-10423800D01*
X16777800Y-10373000D02*
X16879400Y-10373000D01*
X18171400Y-8822200D02*
X18171400Y-8923800D01*
X18120600Y-8873000D02*
X18222200Y-8873000D01*
X18171400Y-10322200D02*
X18171400Y-10423800D01*
X18120600Y-10373000D02*
X18222200Y-10373000D01*
X18171400Y-11822200D02*
X18171400Y-11923800D01*
X18120600Y-11873000D02*
X18222200Y-11873000D01*
X18171400Y-13322200D02*
X18171400Y-13423800D01*
X18120600Y-13373000D02*
X18222200Y-13373000D01*
X18400000Y-8822200D02*
X18400000Y-8923800D01*
X18349200Y-8873000D02*
X18450800Y-8873000D01*
X18400000Y-10322200D02*
X18400000Y-10423800D01*
X18349200Y-10373000D02*
X18450800Y-10373000D01*
X18400000Y-11822200D02*
X18400000Y-11923800D01*
X18349200Y-11873000D02*
X18450800Y-11873000D01*
X18400000Y-13322200D02*
X18400000Y-13423800D01*
X18349200Y-13373000D02*
X18450800Y-13373000D01*
X18628600Y-8822200D02*
X18628600Y-8923800D01*
X18577800Y-8873000D02*
X18679400Y-8873000D01*
X18628600Y-10322200D02*
X18628600Y-10423800D01*
X18577800Y-10373000D02*
X18679400Y-10373000D01*
X18628600Y-11822200D02*
X18628600Y-11923800D01*
X18577800Y-11873000D02*
X18679400Y-11873000D01*
X18628600Y-13322200D02*
X18628600Y-13423800D01*
X18577800Y-13373000D02*
X18679400Y-13373000D01*
X19871400Y-8822200D02*
X19871400Y-8923800D01*
X19820600Y-8873000D02*
X19922200Y-8873000D01*
X19871400Y-10322200D02*
X19871400Y-10423800D01*
X19820600Y-10373000D02*
X19922200Y-10373000D01*
X19871400Y-11822200D02*
X19871400Y-11923800D01*
X19820600Y-11873000D02*
X19922200Y-11873000D01*
X19871400Y-13322200D02*
X19871400Y-13423800D01*
X19820600Y-13373000D02*
X19922200Y-13373000D01*
X20100000Y-8822200D02*
X20100000Y-8923800D01*
X20049200Y-8873000D02*
X20150800Y-8873000D01*
X20100000Y-10322200D02*
X20100000Y-10423800D01*
X20049200Y-10373000D02*
X20150800Y-10373000D01*
X20100000Y-11822200D02*
X20100000Y-11923800D01*
X20049200Y-11873000D02*
X20150800Y-11873000D01*
X20100000Y-13322200D02*
X20100000Y-13423800D01*
X20049200Y-13373000D02*
X20150800Y-13373000D01*
X20328600Y-8822200D02*
X20328600Y-8923800D01*
X20277800Y-8873000D02*
X20379400Y-8873000D01*
X20328600Y-10322200D02*
X20328600Y-10423800D01*
X20277800Y-10373000D02*
X20379400Y-10373000D01*
X20328600Y-11822200D02*
X20328600Y-11923800D01*
X20277800Y-11873000D02*
X20379400Y-11873000D01*
X20328600Y-13322200D02*
X20328600Y-13423800D01*
X20277800Y-13373000D02*
X20379400Y-13373000D01*
D15*
X11345962Y-8745962D02*
X11345962Y-8654038D01*
X11254038Y-8654038D01*
X11254038Y-8745962D01*
X11345962Y-8745962D01*
X13541962Y-13241962D02*
X13541962Y-13150038D01*
X13450038Y-13150038D01*
X13450038Y-13241962D01*
X13541962Y-13241962D01*
X13795962Y-14003962D02*
X13795962Y-13912038D01*
X13704038Y-13912038D01*
X13704038Y-14003962D01*
X13795962Y-14003962D01*
X14049962Y-13241962D02*
X14049962Y-13150038D01*
X13958038Y-13150038D01*
X13958038Y-13241962D01*
X14049962Y-13241962D01*
X17345962Y-8745962D02*
X17345962Y-8654038D01*
X17254038Y-8654038D01*
X17254038Y-8745962D01*
X17345962Y-8745962D01*
D16*
X21884000Y-11170000D02*
X21954000Y-11100000D01*
X21884000Y-11030000D01*
X21814000Y-11100000D01*
X21884000Y-11170000D01*
D17*
X21554000Y-10770000D02*
X21704000Y-10920000D01*
X21704000Y-10770000D02*
X21554000Y-10920000D01*
X21704000Y-10845000D02*
G75*
G03*
X21704000Y-10845000I-75000J0D01*
G01*
X21554000Y-11280000D02*
X21704000Y-11430000D01*
X21704000Y-11280000D02*
X21554000Y-11430000D01*
X21704000Y-11355000D02*
G75*
G03*
X21704000Y-11355000I-75000J0D01*
G01*
X22064000Y-10770000D02*
X22214000Y-10920000D01*
X22214000Y-10770000D02*
X22064000Y-10920000D01*
X22214000Y-10845000D02*
G75*
G03*
X22214000Y-10845000I-75000J0D01*
G01*
X22064000Y-11280000D02*
X22214000Y-11430000D01*
X22214000Y-11280000D02*
X22064000Y-11430000D01*
X22214000Y-11355000D02*
G75*
G03*
X22214000Y-11355000I-75000J0D01*
G01*
D18*
X11596739Y-11796750D02*
X11787239Y-11987250D01*
X11787239Y-11796750D02*
X11596739Y-11987250D01*
X11691989Y-11796750D02*
X11691989Y-11987250D01*
X11596739Y-11892000D02*
X11787239Y-11892000D01*
X11596739Y-12812750D02*
X11787239Y-13003250D01*
X11787239Y-12812750D02*
X11596739Y-13003250D01*
X11691989Y-12812750D02*
X11691989Y-13003250D01*
X11596739Y-12908000D02*
X11787239Y-12908000D01*
D11*
X10955777Y-14516484D02*
X10955777Y-14316484D01*
X10955777Y-14316484D02*
X11003396Y-14316484D01*
X11003396Y-14316484D02*
X11031967Y-14326008D01*
X11031967Y-14326008D02*
X11051015Y-14345055D01*
X11051015Y-14345055D02*
X11060539Y-14364103D01*
X11060539Y-14364103D02*
X11070063Y-14402198D01*
X11070063Y-14402198D02*
X11070063Y-14430769D01*
X11070063Y-14430769D02*
X11060539Y-14468865D01*
X11060539Y-14468865D02*
X11051015Y-14487912D01*
X11051015Y-14487912D02*
X11031967Y-14506960D01*
X11031967Y-14506960D02*
X11003396Y-14516484D01*
X11003396Y-14516484D02*
X10955777Y-14516484D01*
X11155777Y-14516484D02*
X11155777Y-14383150D01*
X11155777Y-14421246D02*
X11165301Y-14402198D01*
X11165301Y-14402198D02*
X11174824Y-14392674D01*
X11174824Y-14392674D02*
X11193872Y-14383150D01*
X11193872Y-14383150D02*
X11212920Y-14383150D01*
X11279586Y-14516484D02*
X11279586Y-14383150D01*
X11279586Y-14316484D02*
X11270062Y-14326008D01*
X11270062Y-14326008D02*
X11279586Y-14335531D01*
X11279586Y-14335531D02*
X11289110Y-14326008D01*
X11289110Y-14326008D02*
X11279586Y-14316484D01*
X11279586Y-14316484D02*
X11279586Y-14335531D01*
X11403396Y-14516484D02*
X11384348Y-14506960D01*
X11384348Y-14506960D02*
X11374824Y-14487912D01*
X11374824Y-14487912D02*
X11374824Y-14316484D01*
X11508158Y-14516484D02*
X11489110Y-14506960D01*
X11489110Y-14506960D02*
X11479586Y-14487912D01*
X11479586Y-14487912D02*
X11479586Y-14316484D01*
X11736729Y-14516484D02*
X11736729Y-14316484D01*
X11736729Y-14316484D02*
X11803396Y-14459341D01*
X11803396Y-14459341D02*
X11870062Y-14316484D01*
X11870062Y-14316484D02*
X11870062Y-14516484D01*
X12051015Y-14516484D02*
X12051015Y-14411722D01*
X12051015Y-14411722D02*
X12041491Y-14392674D01*
X12041491Y-14392674D02*
X12022443Y-14383150D01*
X12022443Y-14383150D02*
X11984348Y-14383150D01*
X11984348Y-14383150D02*
X11965301Y-14392674D01*
X12051015Y-14506960D02*
X12031967Y-14516484D01*
X12031967Y-14516484D02*
X11984348Y-14516484D01*
X11984348Y-14516484D02*
X11965301Y-14506960D01*
X11965301Y-14506960D02*
X11955777Y-14487912D01*
X11955777Y-14487912D02*
X11955777Y-14468865D01*
X11955777Y-14468865D02*
X11965301Y-14449817D01*
X11965301Y-14449817D02*
X11984348Y-14440293D01*
X11984348Y-14440293D02*
X12031967Y-14440293D01*
X12031967Y-14440293D02*
X12051015Y-14430769D01*
X12146253Y-14383150D02*
X12146253Y-14583150D01*
X12146253Y-14392674D02*
X12165301Y-14383150D01*
X12165301Y-14383150D02*
X12203396Y-14383150D01*
X12203396Y-14383150D02*
X12222443Y-14392674D01*
X12222443Y-14392674D02*
X12231967Y-14402198D01*
X12231967Y-14402198D02*
X12241491Y-14421246D01*
X12241491Y-14421246D02*
X12241491Y-14478388D01*
X12241491Y-14478388D02*
X12231967Y-14497436D01*
X12231967Y-14497436D02*
X12222443Y-14506960D01*
X12222443Y-14506960D02*
X12203396Y-14516484D01*
X12203396Y-14516484D02*
X12165301Y-14516484D01*
X12165301Y-14516484D02*
X12146253Y-14506960D01*
X12327205Y-14497436D02*
X12336729Y-14506960D01*
X12336729Y-14506960D02*
X12327205Y-14516484D01*
X12327205Y-14516484D02*
X12317682Y-14506960D01*
X12317682Y-14506960D02*
X12327205Y-14497436D01*
X12327205Y-14497436D02*
X12327205Y-14516484D01*
X12327205Y-14392674D02*
X12336729Y-14402198D01*
X12336729Y-14402198D02*
X12327205Y-14411722D01*
X12327205Y-14411722D02*
X12317682Y-14402198D01*
X12317682Y-14402198D02*
X12327205Y-14392674D01*
X12327205Y-14392674D02*
X12327205Y-14411722D01*
D12*
X10613720Y-14804360D02*
X10695000Y-14885640D01*
X10695000Y-14804360D02*
X10613720Y-14885640D01*
D11*
X10993872Y-14736484D02*
X11012920Y-14736484D01*
X11012920Y-14736484D02*
X11031967Y-14746008D01*
X11031967Y-14746008D02*
X11041491Y-14755531D01*
X11041491Y-14755531D02*
X11051015Y-14774579D01*
X11051015Y-14774579D02*
X11060539Y-14812674D01*
X11060539Y-14812674D02*
X11060539Y-14860293D01*
X11060539Y-14860293D02*
X11051015Y-14898388D01*
X11051015Y-14898388D02*
X11041491Y-14917436D01*
X11041491Y-14917436D02*
X11031967Y-14926960D01*
X11031967Y-14926960D02*
X11012920Y-14936484D01*
X11012920Y-14936484D02*
X10993872Y-14936484D01*
X10993872Y-14936484D02*
X10974824Y-14926960D01*
X10974824Y-14926960D02*
X10965301Y-14917436D01*
X10965301Y-14917436D02*
X10955777Y-14898388D01*
X10955777Y-14898388D02*
X10946253Y-14860293D01*
X10946253Y-14860293D02*
X10946253Y-14812674D01*
X10946253Y-14812674D02*
X10955777Y-14774579D01*
X10955777Y-14774579D02*
X10965301Y-14755531D01*
X10965301Y-14755531D02*
X10974824Y-14746008D01*
X10974824Y-14746008D02*
X10993872Y-14736484D01*
X11146253Y-14917436D02*
X11155777Y-14926960D01*
X11155777Y-14926960D02*
X11146253Y-14936484D01*
X11146253Y-14936484D02*
X11136729Y-14926960D01*
X11136729Y-14926960D02*
X11146253Y-14917436D01*
X11146253Y-14917436D02*
X11146253Y-14936484D01*
X11270062Y-14822198D02*
X11251015Y-14812674D01*
X11251015Y-14812674D02*
X11241491Y-14803150D01*
X11241491Y-14803150D02*
X11231967Y-14784103D01*
X11231967Y-14784103D02*
X11231967Y-14774579D01*
X11231967Y-14774579D02*
X11241491Y-14755531D01*
X11241491Y-14755531D02*
X11251015Y-14746008D01*
X11251015Y-14746008D02*
X11270062Y-14736484D01*
X11270062Y-14736484D02*
X11308158Y-14736484D01*
X11308158Y-14736484D02*
X11327205Y-14746008D01*
X11327205Y-14746008D02*
X11336729Y-14755531D01*
X11336729Y-14755531D02*
X11346253Y-14774579D01*
X11346253Y-14774579D02*
X11346253Y-14784103D01*
X11346253Y-14784103D02*
X11336729Y-14803150D01*
X11336729Y-14803150D02*
X11327205Y-14812674D01*
X11327205Y-14812674D02*
X11308158Y-14822198D01*
X11308158Y-14822198D02*
X11270062Y-14822198D01*
X11270062Y-14822198D02*
X11251015Y-14831722D01*
X11251015Y-14831722D02*
X11241491Y-14841246D01*
X11241491Y-14841246D02*
X11231967Y-14860293D01*
X11231967Y-14860293D02*
X11231967Y-14898388D01*
X11231967Y-14898388D02*
X11241491Y-14917436D01*
X11241491Y-14917436D02*
X11251015Y-14926960D01*
X11251015Y-14926960D02*
X11270062Y-14936484D01*
X11270062Y-14936484D02*
X11308158Y-14936484D01*
X11308158Y-14936484D02*
X11327205Y-14926960D01*
X11327205Y-14926960D02*
X11336729Y-14917436D01*
X11336729Y-14917436D02*
X11346253Y-14898388D01*
X11346253Y-14898388D02*
X11346253Y-14860293D01*
X11346253Y-14860293D02*
X11336729Y-14841246D01*
X11336729Y-14841246D02*
X11327205Y-14831722D01*
X11327205Y-14831722D02*
X11308158Y-14822198D01*
X11536729Y-14936484D02*
X11422443Y-14936484D01*
X11479586Y-14936484D02*
X11479586Y-14736484D01*
X11479586Y-14736484D02*
X11460539Y-14765055D01*
X11460539Y-14765055D02*
X11441491Y-14784103D01*
X11441491Y-14784103D02*
X11422443Y-14793627D01*
X11603396Y-14736484D02*
X11727205Y-14736484D01*
X11727205Y-14736484D02*
X11660539Y-14812674D01*
X11660539Y-14812674D02*
X11689110Y-14812674D01*
X11689110Y-14812674D02*
X11708158Y-14822198D01*
X11708158Y-14822198D02*
X11717682Y-14831722D01*
X11717682Y-14831722D02*
X11727205Y-14850769D01*
X11727205Y-14850769D02*
X11727205Y-14898388D01*
X11727205Y-14898388D02*
X11717682Y-14917436D01*
X11717682Y-14917436D02*
X11708158Y-14926960D01*
X11708158Y-14926960D02*
X11689110Y-14936484D01*
X11689110Y-14936484D02*
X11631967Y-14936484D01*
X11631967Y-14936484D02*
X11612920Y-14926960D01*
X11612920Y-14926960D02*
X11603396Y-14917436D01*
X11812920Y-14936484D02*
X11812920Y-14803150D01*
X11812920Y-14822198D02*
X11822443Y-14812674D01*
X11822443Y-14812674D02*
X11841491Y-14803150D01*
X11841491Y-14803150D02*
X11870063Y-14803150D01*
X11870063Y-14803150D02*
X11889110Y-14812674D01*
X11889110Y-14812674D02*
X11898634Y-14831722D01*
X11898634Y-14831722D02*
X11898634Y-14936484D01*
X11898634Y-14831722D02*
X11908158Y-14812674D01*
X11908158Y-14812674D02*
X11927205Y-14803150D01*
X11927205Y-14803150D02*
X11955777Y-14803150D01*
X11955777Y-14803150D02*
X11974824Y-14812674D01*
X11974824Y-14812674D02*
X11984348Y-14831722D01*
X11984348Y-14831722D02*
X11984348Y-14936484D01*
X12079586Y-14936484D02*
X12079586Y-14803150D01*
X12079586Y-14822198D02*
X12089110Y-14812674D01*
X12089110Y-14812674D02*
X12108158Y-14803150D01*
X12108158Y-14803150D02*
X12136729Y-14803150D01*
X12136729Y-14803150D02*
X12155777Y-14812674D01*
X12155777Y-14812674D02*
X12165301Y-14831722D01*
X12165301Y-14831722D02*
X12165301Y-14936484D01*
X12165301Y-14831722D02*
X12174824Y-14812674D01*
X12174824Y-14812674D02*
X12193872Y-14803150D01*
X12193872Y-14803150D02*
X12222443Y-14803150D01*
X12222443Y-14803150D02*
X12241491Y-14812674D01*
X12241491Y-14812674D02*
X12251015Y-14831722D01*
X12251015Y-14831722D02*
X12251015Y-14936484D01*
X12641491Y-14726960D02*
X12470063Y-14984103D01*
X12898634Y-14736484D02*
X12917682Y-14736484D01*
X12917682Y-14736484D02*
X12936729Y-14746008D01*
X12936729Y-14746008D02*
X12946253Y-14755531D01*
X12946253Y-14755531D02*
X12955777Y-14774579D01*
X12955777Y-14774579D02*
X12965301Y-14812674D01*
X12965301Y-14812674D02*
X12965301Y-14860293D01*
X12965301Y-14860293D02*
X12955777Y-14898388D01*
X12955777Y-14898388D02*
X12946253Y-14917436D01*
X12946253Y-14917436D02*
X12936729Y-14926960D01*
X12936729Y-14926960D02*
X12917682Y-14936484D01*
X12917682Y-14936484D02*
X12898634Y-14936484D01*
X12898634Y-14936484D02*
X12879586Y-14926960D01*
X12879586Y-14926960D02*
X12870063Y-14917436D01*
X12870063Y-14917436D02*
X12860539Y-14898388D01*
X12860539Y-14898388D02*
X12851015Y-14860293D01*
X12851015Y-14860293D02*
X12851015Y-14812674D01*
X12851015Y-14812674D02*
X12860539Y-14774579D01*
X12860539Y-14774579D02*
X12870063Y-14755531D01*
X12870063Y-14755531D02*
X12879586Y-14746008D01*
X12879586Y-14746008D02*
X12898634Y-14736484D01*
X13051015Y-14917436D02*
X13060539Y-14926960D01*
X13060539Y-14926960D02*
X13051015Y-14936484D01*
X13051015Y-14936484D02*
X13041491Y-14926960D01*
X13041491Y-14926960D02*
X13051015Y-14917436D01*
X13051015Y-14917436D02*
X13051015Y-14936484D01*
X13184348Y-14736484D02*
X13203396Y-14736484D01*
X13203396Y-14736484D02*
X13222444Y-14746008D01*
X13222444Y-14746008D02*
X13231967Y-14755531D01*
X13231967Y-14755531D02*
X13241491Y-14774579D01*
X13241491Y-14774579D02*
X13251015Y-14812674D01*
X13251015Y-14812674D02*
X13251015Y-14860293D01*
X13251015Y-14860293D02*
X13241491Y-14898388D01*
X13241491Y-14898388D02*
X13231967Y-14917436D01*
X13231967Y-14917436D02*
X13222444Y-14926960D01*
X13222444Y-14926960D02*
X13203396Y-14936484D01*
X13203396Y-14936484D02*
X13184348Y-14936484D01*
X13184348Y-14936484D02*
X13165301Y-14926960D01*
X13165301Y-14926960D02*
X13155777Y-14917436D01*
X13155777Y-14917436D02*
X13146253Y-14898388D01*
X13146253Y-14898388D02*
X13136729Y-14860293D01*
X13136729Y-14860293D02*
X13136729Y-14812674D01*
X13136729Y-14812674D02*
X13146253Y-14774579D01*
X13146253Y-14774579D02*
X13155777Y-14755531D01*
X13155777Y-14755531D02*
X13165301Y-14746008D01*
X13165301Y-14746008D02*
X13184348Y-14736484D01*
X13317682Y-14736484D02*
X13441491Y-14736484D01*
X13441491Y-14736484D02*
X13374825Y-14812674D01*
X13374825Y-14812674D02*
X13403396Y-14812674D01*
X13403396Y-14812674D02*
X13422444Y-14822198D01*
X13422444Y-14822198D02*
X13431967Y-14831722D01*
X13431967Y-14831722D02*
X13441491Y-14850769D01*
X13441491Y-14850769D02*
X13441491Y-14898388D01*
X13441491Y-14898388D02*
X13431967Y-14917436D01*
X13431967Y-14917436D02*
X13422444Y-14926960D01*
X13422444Y-14926960D02*
X13403396Y-14936484D01*
X13403396Y-14936484D02*
X13346253Y-14936484D01*
X13346253Y-14936484D02*
X13327206Y-14926960D01*
X13327206Y-14926960D02*
X13317682Y-14917436D01*
X13517682Y-14755531D02*
X13527206Y-14746008D01*
X13527206Y-14746008D02*
X13546253Y-14736484D01*
X13546253Y-14736484D02*
X13593872Y-14736484D01*
X13593872Y-14736484D02*
X13612920Y-14746008D01*
X13612920Y-14746008D02*
X13622444Y-14755531D01*
X13622444Y-14755531D02*
X13631967Y-14774579D01*
X13631967Y-14774579D02*
X13631967Y-14793627D01*
X13631967Y-14793627D02*
X13622444Y-14822198D01*
X13622444Y-14822198D02*
X13508158Y-14936484D01*
X13508158Y-14936484D02*
X13631967Y-14936484D01*
X13755777Y-14736484D02*
X13774825Y-14736484D01*
X13774825Y-14736484D02*
X13793872Y-14746008D01*
X13793872Y-14746008D02*
X13803396Y-14755531D01*
X13803396Y-14755531D02*
X13812920Y-14774579D01*
X13812920Y-14774579D02*
X13822444Y-14812674D01*
X13822444Y-14812674D02*
X13822444Y-14860293D01*
X13822444Y-14860293D02*
X13812920Y-14898388D01*
X13812920Y-14898388D02*
X13803396Y-14917436D01*
X13803396Y-14917436D02*
X13793872Y-14926960D01*
X13793872Y-14926960D02*
X13774825Y-14936484D01*
X13774825Y-14936484D02*
X13755777Y-14936484D01*
X13755777Y-14936484D02*
X13736729Y-14926960D01*
X13736729Y-14926960D02*
X13727206Y-14917436D01*
X13727206Y-14917436D02*
X13717682Y-14898388D01*
X13717682Y-14898388D02*
X13708158Y-14860293D01*
X13708158Y-14860293D02*
X13708158Y-14812674D01*
X13708158Y-14812674D02*
X13717682Y-14774579D01*
X13717682Y-14774579D02*
X13727206Y-14755531D01*
X13727206Y-14755531D02*
X13736729Y-14746008D01*
X13736729Y-14746008D02*
X13755777Y-14736484D01*
X13898634Y-14736484D02*
X13898634Y-14774579D01*
X13974825Y-14736484D02*
X13974825Y-14774579D01*
X14270063Y-15012674D02*
X14260539Y-15003150D01*
X14260539Y-15003150D02*
X14241491Y-14974579D01*
X14241491Y-14974579D02*
X14231968Y-14955531D01*
X14231968Y-14955531D02*
X14222444Y-14926960D01*
X14222444Y-14926960D02*
X14212920Y-14879341D01*
X14212920Y-14879341D02*
X14212920Y-14841246D01*
X14212920Y-14841246D02*
X14222444Y-14793627D01*
X14222444Y-14793627D02*
X14231968Y-14765055D01*
X14231968Y-14765055D02*
X14241491Y-14746008D01*
X14241491Y-14746008D02*
X14260539Y-14717436D01*
X14260539Y-14717436D02*
X14270063Y-14707912D01*
X14327206Y-14736484D02*
X14451015Y-14736484D01*
X14451015Y-14736484D02*
X14384348Y-14812674D01*
X14384348Y-14812674D02*
X14412920Y-14812674D01*
X14412920Y-14812674D02*
X14431968Y-14822198D01*
X14431968Y-14822198D02*
X14441491Y-14831722D01*
X14441491Y-14831722D02*
X14451015Y-14850769D01*
X14451015Y-14850769D02*
X14451015Y-14898388D01*
X14451015Y-14898388D02*
X14441491Y-14917436D01*
X14441491Y-14917436D02*
X14431968Y-14926960D01*
X14431968Y-14926960D02*
X14412920Y-14936484D01*
X14412920Y-14936484D02*
X14355777Y-14936484D01*
X14355777Y-14936484D02*
X14336729Y-14926960D01*
X14336729Y-14926960D02*
X14327206Y-14917436D01*
X14689110Y-14936484D02*
X14689110Y-14736484D01*
X14774825Y-14936484D02*
X14774825Y-14831722D01*
X14774825Y-14831722D02*
X14765301Y-14812674D01*
X14765301Y-14812674D02*
X14746253Y-14803150D01*
X14746253Y-14803150D02*
X14717682Y-14803150D01*
X14717682Y-14803150D02*
X14698634Y-14812674D01*
X14698634Y-14812674D02*
X14689110Y-14822198D01*
X14898634Y-14936484D02*
X14879587Y-14926960D01*
X14879587Y-14926960D02*
X14870063Y-14917436D01*
X14870063Y-14917436D02*
X14860539Y-14898388D01*
X14860539Y-14898388D02*
X14860539Y-14841246D01*
X14860539Y-14841246D02*
X14870063Y-14822198D01*
X14870063Y-14822198D02*
X14879587Y-14812674D01*
X14879587Y-14812674D02*
X14898634Y-14803150D01*
X14898634Y-14803150D02*
X14927206Y-14803150D01*
X14927206Y-14803150D02*
X14946253Y-14812674D01*
X14946253Y-14812674D02*
X14955777Y-14822198D01*
X14955777Y-14822198D02*
X14965301Y-14841246D01*
X14965301Y-14841246D02*
X14965301Y-14898388D01*
X14965301Y-14898388D02*
X14955777Y-14917436D01*
X14955777Y-14917436D02*
X14946253Y-14926960D01*
X14946253Y-14926960D02*
X14927206Y-14936484D01*
X14927206Y-14936484D02*
X14898634Y-14936484D01*
X15079587Y-14936484D02*
X15060539Y-14926960D01*
X15060539Y-14926960D02*
X15051015Y-14907912D01*
X15051015Y-14907912D02*
X15051015Y-14736484D01*
X15231968Y-14926960D02*
X15212920Y-14936484D01*
X15212920Y-14936484D02*
X15174825Y-14936484D01*
X15174825Y-14936484D02*
X15155777Y-14926960D01*
X15155777Y-14926960D02*
X15146253Y-14907912D01*
X15146253Y-14907912D02*
X15146253Y-14831722D01*
X15146253Y-14831722D02*
X15155777Y-14812674D01*
X15155777Y-14812674D02*
X15174825Y-14803150D01*
X15174825Y-14803150D02*
X15212920Y-14803150D01*
X15212920Y-14803150D02*
X15231968Y-14812674D01*
X15231968Y-14812674D02*
X15241491Y-14831722D01*
X15241491Y-14831722D02*
X15241491Y-14850769D01*
X15241491Y-14850769D02*
X15146253Y-14869817D01*
X15317682Y-14926960D02*
X15336730Y-14936484D01*
X15336730Y-14936484D02*
X15374825Y-14936484D01*
X15374825Y-14936484D02*
X15393872Y-14926960D01*
X15393872Y-14926960D02*
X15403396Y-14907912D01*
X15403396Y-14907912D02*
X15403396Y-14898388D01*
X15403396Y-14898388D02*
X15393872Y-14879341D01*
X15393872Y-14879341D02*
X15374825Y-14869817D01*
X15374825Y-14869817D02*
X15346253Y-14869817D01*
X15346253Y-14869817D02*
X15327206Y-14860293D01*
X15327206Y-14860293D02*
X15317682Y-14841246D01*
X15317682Y-14841246D02*
X15317682Y-14831722D01*
X15317682Y-14831722D02*
X15327206Y-14812674D01*
X15327206Y-14812674D02*
X15346253Y-14803150D01*
X15346253Y-14803150D02*
X15374825Y-14803150D01*
X15374825Y-14803150D02*
X15393872Y-14812674D01*
X15470063Y-15012674D02*
X15479587Y-15003150D01*
X15479587Y-15003150D02*
X15498634Y-14974579D01*
X15498634Y-14974579D02*
X15508158Y-14955531D01*
X15508158Y-14955531D02*
X15517682Y-14926960D01*
X15517682Y-14926960D02*
X15527206Y-14879341D01*
X15527206Y-14879341D02*
X15527206Y-14841246D01*
X15527206Y-14841246D02*
X15517682Y-14793627D01*
X15517682Y-14793627D02*
X15508158Y-14765055D01*
X15508158Y-14765055D02*
X15498634Y-14746008D01*
X15498634Y-14746008D02*
X15479587Y-14717436D01*
X15479587Y-14717436D02*
X15470063Y-14707912D01*
D13*
X10695000Y-15109000D02*
G75*
G03*
X10695000Y-15109000I-49530J0D01*
G01*
D11*
X10993872Y-15000484D02*
X11012920Y-15000484D01*
X11012920Y-15000484D02*
X11031967Y-15010008D01*
X11031967Y-15010008D02*
X11041491Y-15019531D01*
X11041491Y-15019531D02*
X11051015Y-15038579D01*
X11051015Y-15038579D02*
X11060539Y-15076674D01*
X11060539Y-15076674D02*
X11060539Y-15124293D01*
X11060539Y-15124293D02*
X11051015Y-15162388D01*
X11051015Y-15162388D02*
X11041491Y-15181436D01*
X11041491Y-15181436D02*
X11031967Y-15190960D01*
X11031967Y-15190960D02*
X11012920Y-15200484D01*
X11012920Y-15200484D02*
X10993872Y-15200484D01*
X10993872Y-15200484D02*
X10974824Y-15190960D01*
X10974824Y-15190960D02*
X10965301Y-15181436D01*
X10965301Y-15181436D02*
X10955777Y-15162388D01*
X10955777Y-15162388D02*
X10946253Y-15124293D01*
X10946253Y-15124293D02*
X10946253Y-15076674D01*
X10946253Y-15076674D02*
X10955777Y-15038579D01*
X10955777Y-15038579D02*
X10965301Y-15019531D01*
X10965301Y-15019531D02*
X10974824Y-15010008D01*
X10974824Y-15010008D02*
X10993872Y-15000484D01*
X11146253Y-15181436D02*
X11155777Y-15190960D01*
X11155777Y-15190960D02*
X11146253Y-15200484D01*
X11146253Y-15200484D02*
X11136729Y-15190960D01*
X11136729Y-15190960D02*
X11146253Y-15181436D01*
X11146253Y-15181436D02*
X11146253Y-15200484D01*
X11251015Y-15200484D02*
X11289110Y-15200484D01*
X11289110Y-15200484D02*
X11308158Y-15190960D01*
X11308158Y-15190960D02*
X11317682Y-15181436D01*
X11317682Y-15181436D02*
X11336729Y-15152865D01*
X11336729Y-15152865D02*
X11346253Y-15114769D01*
X11346253Y-15114769D02*
X11346253Y-15038579D01*
X11346253Y-15038579D02*
X11336729Y-15019531D01*
X11336729Y-15019531D02*
X11327205Y-15010008D01*
X11327205Y-15010008D02*
X11308158Y-15000484D01*
X11308158Y-15000484D02*
X11270062Y-15000484D01*
X11270062Y-15000484D02*
X11251015Y-15010008D01*
X11251015Y-15010008D02*
X11241491Y-15019531D01*
X11241491Y-15019531D02*
X11231967Y-15038579D01*
X11231967Y-15038579D02*
X11231967Y-15086198D01*
X11231967Y-15086198D02*
X11241491Y-15105246D01*
X11241491Y-15105246D02*
X11251015Y-15114769D01*
X11251015Y-15114769D02*
X11270062Y-15124293D01*
X11270062Y-15124293D02*
X11308158Y-15124293D01*
X11308158Y-15124293D02*
X11327205Y-15114769D01*
X11327205Y-15114769D02*
X11336729Y-15105246D01*
X11336729Y-15105246D02*
X11346253Y-15086198D01*
X11441491Y-15200484D02*
X11479586Y-15200484D01*
X11479586Y-15200484D02*
X11498634Y-15190960D01*
X11498634Y-15190960D02*
X11508158Y-15181436D01*
X11508158Y-15181436D02*
X11527205Y-15152865D01*
X11527205Y-15152865D02*
X11536729Y-15114769D01*
X11536729Y-15114769D02*
X11536729Y-15038579D01*
X11536729Y-15038579D02*
X11527205Y-15019531D01*
X11527205Y-15019531D02*
X11517682Y-15010008D01*
X11517682Y-15010008D02*
X11498634Y-15000484D01*
X11498634Y-15000484D02*
X11460539Y-15000484D01*
X11460539Y-15000484D02*
X11441491Y-15010008D01*
X11441491Y-15010008D02*
X11431967Y-15019531D01*
X11431967Y-15019531D02*
X11422443Y-15038579D01*
X11422443Y-15038579D02*
X11422443Y-15086198D01*
X11422443Y-15086198D02*
X11431967Y-15105246D01*
X11431967Y-15105246D02*
X11441491Y-15114769D01*
X11441491Y-15114769D02*
X11460539Y-15124293D01*
X11460539Y-15124293D02*
X11498634Y-15124293D01*
X11498634Y-15124293D02*
X11517682Y-15114769D01*
X11517682Y-15114769D02*
X11527205Y-15105246D01*
X11527205Y-15105246D02*
X11536729Y-15086198D01*
X11727205Y-15200484D02*
X11612920Y-15200484D01*
X11670062Y-15200484D02*
X11670062Y-15000484D01*
X11670062Y-15000484D02*
X11651015Y-15029055D01*
X11651015Y-15029055D02*
X11631967Y-15048103D01*
X11631967Y-15048103D02*
X11612920Y-15057627D01*
X11812920Y-15200484D02*
X11812920Y-15067150D01*
X11812920Y-15086198D02*
X11822443Y-15076674D01*
X11822443Y-15076674D02*
X11841491Y-15067150D01*
X11841491Y-15067150D02*
X11870063Y-15067150D01*
X11870063Y-15067150D02*
X11889110Y-15076674D01*
X11889110Y-15076674D02*
X11898634Y-15095722D01*
X11898634Y-15095722D02*
X11898634Y-15200484D01*
X11898634Y-15095722D02*
X11908158Y-15076674D01*
X11908158Y-15076674D02*
X11927205Y-15067150D01*
X11927205Y-15067150D02*
X11955777Y-15067150D01*
X11955777Y-15067150D02*
X11974824Y-15076674D01*
X11974824Y-15076674D02*
X11984348Y-15095722D01*
X11984348Y-15095722D02*
X11984348Y-15200484D01*
X12079586Y-15200484D02*
X12079586Y-15067150D01*
X12079586Y-15086198D02*
X12089110Y-15076674D01*
X12089110Y-15076674D02*
X12108158Y-15067150D01*
X12108158Y-15067150D02*
X12136729Y-15067150D01*
X12136729Y-15067150D02*
X12155777Y-15076674D01*
X12155777Y-15076674D02*
X12165301Y-15095722D01*
X12165301Y-15095722D02*
X12165301Y-15200484D01*
X12165301Y-15095722D02*
X12174824Y-15076674D01*
X12174824Y-15076674D02*
X12193872Y-15067150D01*
X12193872Y-15067150D02*
X12222443Y-15067150D01*
X12222443Y-15067150D02*
X12241491Y-15076674D01*
X12241491Y-15076674D02*
X12251015Y-15095722D01*
X12251015Y-15095722D02*
X12251015Y-15200484D01*
X12641491Y-14990960D02*
X12470063Y-15248103D01*
X12898634Y-15000484D02*
X12917682Y-15000484D01*
X12917682Y-15000484D02*
X12936729Y-15010008D01*
X12936729Y-15010008D02*
X12946253Y-15019531D01*
X12946253Y-15019531D02*
X12955777Y-15038579D01*
X12955777Y-15038579D02*
X12965301Y-15076674D01*
X12965301Y-15076674D02*
X12965301Y-15124293D01*
X12965301Y-15124293D02*
X12955777Y-15162388D01*
X12955777Y-15162388D02*
X12946253Y-15181436D01*
X12946253Y-15181436D02*
X12936729Y-15190960D01*
X12936729Y-15190960D02*
X12917682Y-15200484D01*
X12917682Y-15200484D02*
X12898634Y-15200484D01*
X12898634Y-15200484D02*
X12879586Y-15190960D01*
X12879586Y-15190960D02*
X12870063Y-15181436D01*
X12870063Y-15181436D02*
X12860539Y-15162388D01*
X12860539Y-15162388D02*
X12851015Y-15124293D01*
X12851015Y-15124293D02*
X12851015Y-15076674D01*
X12851015Y-15076674D02*
X12860539Y-15038579D01*
X12860539Y-15038579D02*
X12870063Y-15019531D01*
X12870063Y-15019531D02*
X12879586Y-15010008D01*
X12879586Y-15010008D02*
X12898634Y-15000484D01*
X13051015Y-15181436D02*
X13060539Y-15190960D01*
X13060539Y-15190960D02*
X13051015Y-15200484D01*
X13051015Y-15200484D02*
X13041491Y-15190960D01*
X13041491Y-15190960D02*
X13051015Y-15181436D01*
X13051015Y-15181436D02*
X13051015Y-15200484D01*
X13184348Y-15000484D02*
X13203396Y-15000484D01*
X13203396Y-15000484D02*
X13222444Y-15010008D01*
X13222444Y-15010008D02*
X13231967Y-15019531D01*
X13231967Y-15019531D02*
X13241491Y-15038579D01*
X13241491Y-15038579D02*
X13251015Y-15076674D01*
X13251015Y-15076674D02*
X13251015Y-15124293D01*
X13251015Y-15124293D02*
X13241491Y-15162388D01*
X13241491Y-15162388D02*
X13231967Y-15181436D01*
X13231967Y-15181436D02*
X13222444Y-15190960D01*
X13222444Y-15190960D02*
X13203396Y-15200484D01*
X13203396Y-15200484D02*
X13184348Y-15200484D01*
X13184348Y-15200484D02*
X13165301Y-15190960D01*
X13165301Y-15190960D02*
X13155777Y-15181436D01*
X13155777Y-15181436D02*
X13146253Y-15162388D01*
X13146253Y-15162388D02*
X13136729Y-15124293D01*
X13136729Y-15124293D02*
X13136729Y-15076674D01*
X13136729Y-15076674D02*
X13146253Y-15038579D01*
X13146253Y-15038579D02*
X13155777Y-15019531D01*
X13155777Y-15019531D02*
X13165301Y-15010008D01*
X13165301Y-15010008D02*
X13184348Y-15000484D01*
X13317682Y-15000484D02*
X13441491Y-15000484D01*
X13441491Y-15000484D02*
X13374825Y-15076674D01*
X13374825Y-15076674D02*
X13403396Y-15076674D01*
X13403396Y-15076674D02*
X13422444Y-15086198D01*
X13422444Y-15086198D02*
X13431967Y-15095722D01*
X13431967Y-15095722D02*
X13441491Y-15114769D01*
X13441491Y-15114769D02*
X13441491Y-15162388D01*
X13441491Y-15162388D02*
X13431967Y-15181436D01*
X13431967Y-15181436D02*
X13422444Y-15190960D01*
X13422444Y-15190960D02*
X13403396Y-15200484D01*
X13403396Y-15200484D02*
X13346253Y-15200484D01*
X13346253Y-15200484D02*
X13327206Y-15190960D01*
X13327206Y-15190960D02*
X13317682Y-15181436D01*
X13536729Y-15200484D02*
X13574825Y-15200484D01*
X13574825Y-15200484D02*
X13593872Y-15190960D01*
X13593872Y-15190960D02*
X13603396Y-15181436D01*
X13603396Y-15181436D02*
X13622444Y-15152865D01*
X13622444Y-15152865D02*
X13631967Y-15114769D01*
X13631967Y-15114769D02*
X13631967Y-15038579D01*
X13631967Y-15038579D02*
X13622444Y-15019531D01*
X13622444Y-15019531D02*
X13612920Y-15010008D01*
X13612920Y-15010008D02*
X13593872Y-15000484D01*
X13593872Y-15000484D02*
X13555777Y-15000484D01*
X13555777Y-15000484D02*
X13536729Y-15010008D01*
X13536729Y-15010008D02*
X13527206Y-15019531D01*
X13527206Y-15019531D02*
X13517682Y-15038579D01*
X13517682Y-15038579D02*
X13517682Y-15086198D01*
X13517682Y-15086198D02*
X13527206Y-15105246D01*
X13527206Y-15105246D02*
X13536729Y-15114769D01*
X13536729Y-15114769D02*
X13555777Y-15124293D01*
X13555777Y-15124293D02*
X13593872Y-15124293D01*
X13593872Y-15124293D02*
X13612920Y-15114769D01*
X13612920Y-15114769D02*
X13622444Y-15105246D01*
X13622444Y-15105246D02*
X13631967Y-15086198D01*
X13755777Y-15000484D02*
X13774825Y-15000484D01*
X13774825Y-15000484D02*
X13793872Y-15010008D01*
X13793872Y-15010008D02*
X13803396Y-15019531D01*
X13803396Y-15019531D02*
X13812920Y-15038579D01*
X13812920Y-15038579D02*
X13822444Y-15076674D01*
X13822444Y-15076674D02*
X13822444Y-15124293D01*
X13822444Y-15124293D02*
X13812920Y-15162388D01*
X13812920Y-15162388D02*
X13803396Y-15181436D01*
X13803396Y-15181436D02*
X13793872Y-15190960D01*
X13793872Y-15190960D02*
X13774825Y-15200484D01*
X13774825Y-15200484D02*
X13755777Y-15200484D01*
X13755777Y-15200484D02*
X13736729Y-15190960D01*
X13736729Y-15190960D02*
X13727206Y-15181436D01*
X13727206Y-15181436D02*
X13717682Y-15162388D01*
X13717682Y-15162388D02*
X13708158Y-15124293D01*
X13708158Y-15124293D02*
X13708158Y-15076674D01*
X13708158Y-15076674D02*
X13717682Y-15038579D01*
X13717682Y-15038579D02*
X13727206Y-15019531D01*
X13727206Y-15019531D02*
X13736729Y-15010008D01*
X13736729Y-15010008D02*
X13755777Y-15000484D01*
X13898634Y-15000484D02*
X13898634Y-15038579D01*
X13974825Y-15000484D02*
X13974825Y-15038579D01*
X14270063Y-15276674D02*
X14260539Y-15267150D01*
X14260539Y-15267150D02*
X14241491Y-15238579D01*
X14241491Y-15238579D02*
X14231968Y-15219531D01*
X14231968Y-15219531D02*
X14222444Y-15190960D01*
X14222444Y-15190960D02*
X14212920Y-15143341D01*
X14212920Y-15143341D02*
X14212920Y-15105246D01*
X14212920Y-15105246D02*
X14222444Y-15057627D01*
X14222444Y-15057627D02*
X14231968Y-15029055D01*
X14231968Y-15029055D02*
X14241491Y-15010008D01*
X14241491Y-15010008D02*
X14260539Y-14981436D01*
X14260539Y-14981436D02*
X14270063Y-14971912D01*
X14431968Y-15067150D02*
X14431968Y-15200484D01*
X14384348Y-14990960D02*
X14336729Y-15133817D01*
X14336729Y-15133817D02*
X14460539Y-15133817D01*
X14689110Y-15200484D02*
X14689110Y-15000484D01*
X14774825Y-15200484D02*
X14774825Y-15095722D01*
X14774825Y-15095722D02*
X14765301Y-15076674D01*
X14765301Y-15076674D02*
X14746253Y-15067150D01*
X14746253Y-15067150D02*
X14717682Y-15067150D01*
X14717682Y-15067150D02*
X14698634Y-15076674D01*
X14698634Y-15076674D02*
X14689110Y-15086198D01*
X14898634Y-15200484D02*
X14879587Y-15190960D01*
X14879587Y-15190960D02*
X14870063Y-15181436D01*
X14870063Y-15181436D02*
X14860539Y-15162388D01*
X14860539Y-15162388D02*
X14860539Y-15105246D01*
X14860539Y-15105246D02*
X14870063Y-15086198D01*
X14870063Y-15086198D02*
X14879587Y-15076674D01*
X14879587Y-15076674D02*
X14898634Y-15067150D01*
X14898634Y-15067150D02*
X14927206Y-15067150D01*
X14927206Y-15067150D02*
X14946253Y-15076674D01*
X14946253Y-15076674D02*
X14955777Y-15086198D01*
X14955777Y-15086198D02*
X14965301Y-15105246D01*
X14965301Y-15105246D02*
X14965301Y-15162388D01*
X14965301Y-15162388D02*
X14955777Y-15181436D01*
X14955777Y-15181436D02*
X14946253Y-15190960D01*
X14946253Y-15190960D02*
X14927206Y-15200484D01*
X14927206Y-15200484D02*
X14898634Y-15200484D01*
X15079587Y-15200484D02*
X15060539Y-15190960D01*
X15060539Y-15190960D02*
X15051015Y-15171912D01*
X15051015Y-15171912D02*
X15051015Y-15000484D01*
X15231968Y-15190960D02*
X15212920Y-15200484D01*
X15212920Y-15200484D02*
X15174825Y-15200484D01*
X15174825Y-15200484D02*
X15155777Y-15190960D01*
X15155777Y-15190960D02*
X15146253Y-15171912D01*
X15146253Y-15171912D02*
X15146253Y-15095722D01*
X15146253Y-15095722D02*
X15155777Y-15076674D01*
X15155777Y-15076674D02*
X15174825Y-15067150D01*
X15174825Y-15067150D02*
X15212920Y-15067150D01*
X15212920Y-15067150D02*
X15231968Y-15076674D01*
X15231968Y-15076674D02*
X15241491Y-15095722D01*
X15241491Y-15095722D02*
X15241491Y-15114769D01*
X15241491Y-15114769D02*
X15146253Y-15133817D01*
X15317682Y-15190960D02*
X15336730Y-15200484D01*
X15336730Y-15200484D02*
X15374825Y-15200484D01*
X15374825Y-15200484D02*
X15393872Y-15190960D01*
X15393872Y-15190960D02*
X15403396Y-15171912D01*
X15403396Y-15171912D02*
X15403396Y-15162388D01*
X15403396Y-15162388D02*
X15393872Y-15143341D01*
X15393872Y-15143341D02*
X15374825Y-15133817D01*
X15374825Y-15133817D02*
X15346253Y-15133817D01*
X15346253Y-15133817D02*
X15327206Y-15124293D01*
X15327206Y-15124293D02*
X15317682Y-15105246D01*
X15317682Y-15105246D02*
X15317682Y-15095722D01*
X15317682Y-15095722D02*
X15327206Y-15076674D01*
X15327206Y-15076674D02*
X15346253Y-15067150D01*
X15346253Y-15067150D02*
X15374825Y-15067150D01*
X15374825Y-15067150D02*
X15393872Y-15076674D01*
X15470063Y-15276674D02*
X15479587Y-15267150D01*
X15479587Y-15267150D02*
X15498634Y-15238579D01*
X15498634Y-15238579D02*
X15508158Y-15219531D01*
X15508158Y-15219531D02*
X15517682Y-15190960D01*
X15517682Y-15190960D02*
X15527206Y-15143341D01*
X15527206Y-15143341D02*
X15527206Y-15105246D01*
X15527206Y-15105246D02*
X15517682Y-15057627D01*
X15517682Y-15057627D02*
X15508158Y-15029055D01*
X15508158Y-15029055D02*
X15498634Y-15010008D01*
X15498634Y-15010008D02*
X15479587Y-14981436D01*
X15479587Y-14981436D02*
X15470063Y-14971912D01*
D14*
X10644200Y-15322200D02*
X10644200Y-15423800D01*
X10593400Y-15373000D02*
X10695000Y-15373000D01*
D11*
X11060539Y-15464484D02*
X10946253Y-15464484D01*
X11003396Y-15464484D02*
X11003396Y-15264484D01*
X11003396Y-15264484D02*
X10984348Y-15293055D01*
X10984348Y-15293055D02*
X10965301Y-15312103D01*
X10965301Y-15312103D02*
X10946253Y-15321627D01*
X11146253Y-15445436D02*
X11155777Y-15454960D01*
X11155777Y-15454960D02*
X11146253Y-15464484D01*
X11146253Y-15464484D02*
X11136729Y-15454960D01*
X11136729Y-15454960D02*
X11146253Y-15445436D01*
X11146253Y-15445436D02*
X11146253Y-15464484D01*
X11279586Y-15264484D02*
X11298634Y-15264484D01*
X11298634Y-15264484D02*
X11317682Y-15274008D01*
X11317682Y-15274008D02*
X11327205Y-15283531D01*
X11327205Y-15283531D02*
X11336729Y-15302579D01*
X11336729Y-15302579D02*
X11346253Y-15340674D01*
X11346253Y-15340674D02*
X11346253Y-15388293D01*
X11346253Y-15388293D02*
X11336729Y-15426388D01*
X11336729Y-15426388D02*
X11327205Y-15445436D01*
X11327205Y-15445436D02*
X11317682Y-15454960D01*
X11317682Y-15454960D02*
X11298634Y-15464484D01*
X11298634Y-15464484D02*
X11279586Y-15464484D01*
X11279586Y-15464484D02*
X11260539Y-15454960D01*
X11260539Y-15454960D02*
X11251015Y-15445436D01*
X11251015Y-15445436D02*
X11241491Y-15426388D01*
X11241491Y-15426388D02*
X11231967Y-15388293D01*
X11231967Y-15388293D02*
X11231967Y-15340674D01*
X11231967Y-15340674D02*
X11241491Y-15302579D01*
X11241491Y-15302579D02*
X11251015Y-15283531D01*
X11251015Y-15283531D02*
X11260539Y-15274008D01*
X11260539Y-15274008D02*
X11279586Y-15264484D01*
X11536729Y-15464484D02*
X11422443Y-15464484D01*
X11479586Y-15464484D02*
X11479586Y-15264484D01*
X11479586Y-15264484D02*
X11460539Y-15293055D01*
X11460539Y-15293055D02*
X11441491Y-15312103D01*
X11441491Y-15312103D02*
X11422443Y-15321627D01*
X11708158Y-15264484D02*
X11670062Y-15264484D01*
X11670062Y-15264484D02*
X11651015Y-15274008D01*
X11651015Y-15274008D02*
X11641491Y-15283531D01*
X11641491Y-15283531D02*
X11622443Y-15312103D01*
X11622443Y-15312103D02*
X11612920Y-15350198D01*
X11612920Y-15350198D02*
X11612920Y-15426388D01*
X11612920Y-15426388D02*
X11622443Y-15445436D01*
X11622443Y-15445436D02*
X11631967Y-15454960D01*
X11631967Y-15454960D02*
X11651015Y-15464484D01*
X11651015Y-15464484D02*
X11689110Y-15464484D01*
X11689110Y-15464484D02*
X11708158Y-15454960D01*
X11708158Y-15454960D02*
X11717682Y-15445436D01*
X11717682Y-15445436D02*
X11727205Y-15426388D01*
X11727205Y-15426388D02*
X11727205Y-15378769D01*
X11727205Y-15378769D02*
X11717682Y-15359722D01*
X11717682Y-15359722D02*
X11708158Y-15350198D01*
X11708158Y-15350198D02*
X11689110Y-15340674D01*
X11689110Y-15340674D02*
X11651015Y-15340674D01*
X11651015Y-15340674D02*
X11631967Y-15350198D01*
X11631967Y-15350198D02*
X11622443Y-15359722D01*
X11622443Y-15359722D02*
X11612920Y-15378769D01*
X11812920Y-15464484D02*
X11812920Y-15331150D01*
X11812920Y-15350198D02*
X11822443Y-15340674D01*
X11822443Y-15340674D02*
X11841491Y-15331150D01*
X11841491Y-15331150D02*
X11870063Y-15331150D01*
X11870063Y-15331150D02*
X11889110Y-15340674D01*
X11889110Y-15340674D02*
X11898634Y-15359722D01*
X11898634Y-15359722D02*
X11898634Y-15464484D01*
X11898634Y-15359722D02*
X11908158Y-15340674D01*
X11908158Y-15340674D02*
X11927205Y-15331150D01*
X11927205Y-15331150D02*
X11955777Y-15331150D01*
X11955777Y-15331150D02*
X11974824Y-15340674D01*
X11974824Y-15340674D02*
X11984348Y-15359722D01*
X11984348Y-15359722D02*
X11984348Y-15464484D01*
X12079586Y-15464484D02*
X12079586Y-15331150D01*
X12079586Y-15350198D02*
X12089110Y-15340674D01*
X12089110Y-15340674D02*
X12108158Y-15331150D01*
X12108158Y-15331150D02*
X12136729Y-15331150D01*
X12136729Y-15331150D02*
X12155777Y-15340674D01*
X12155777Y-15340674D02*
X12165301Y-15359722D01*
X12165301Y-15359722D02*
X12165301Y-15464484D01*
X12165301Y-15359722D02*
X12174824Y-15340674D01*
X12174824Y-15340674D02*
X12193872Y-15331150D01*
X12193872Y-15331150D02*
X12222443Y-15331150D01*
X12222443Y-15331150D02*
X12241491Y-15340674D01*
X12241491Y-15340674D02*
X12251015Y-15359722D01*
X12251015Y-15359722D02*
X12251015Y-15464484D01*
X12641491Y-15254960D02*
X12470063Y-15512103D01*
X12898634Y-15264484D02*
X12917682Y-15264484D01*
X12917682Y-15264484D02*
X12936729Y-15274008D01*
X12936729Y-15274008D02*
X12946253Y-15283531D01*
X12946253Y-15283531D02*
X12955777Y-15302579D01*
X12955777Y-15302579D02*
X12965301Y-15340674D01*
X12965301Y-15340674D02*
X12965301Y-15388293D01*
X12965301Y-15388293D02*
X12955777Y-15426388D01*
X12955777Y-15426388D02*
X12946253Y-15445436D01*
X12946253Y-15445436D02*
X12936729Y-15454960D01*
X12936729Y-15454960D02*
X12917682Y-15464484D01*
X12917682Y-15464484D02*
X12898634Y-15464484D01*
X12898634Y-15464484D02*
X12879586Y-15454960D01*
X12879586Y-15454960D02*
X12870063Y-15445436D01*
X12870063Y-15445436D02*
X12860539Y-15426388D01*
X12860539Y-15426388D02*
X12851015Y-15388293D01*
X12851015Y-15388293D02*
X12851015Y-15340674D01*
X12851015Y-15340674D02*
X12860539Y-15302579D01*
X12860539Y-15302579D02*
X12870063Y-15283531D01*
X12870063Y-15283531D02*
X12879586Y-15274008D01*
X12879586Y-15274008D02*
X12898634Y-15264484D01*
X13051015Y-15445436D02*
X13060539Y-15454960D01*
X13060539Y-15454960D02*
X13051015Y-15464484D01*
X13051015Y-15464484D02*
X13041491Y-15454960D01*
X13041491Y-15454960D02*
X13051015Y-15445436D01*
X13051015Y-15445436D02*
X13051015Y-15464484D01*
X13184348Y-15264484D02*
X13203396Y-15264484D01*
X13203396Y-15264484D02*
X13222444Y-15274008D01*
X13222444Y-15274008D02*
X13231967Y-15283531D01*
X13231967Y-15283531D02*
X13241491Y-15302579D01*
X13241491Y-15302579D02*
X13251015Y-15340674D01*
X13251015Y-15340674D02*
X13251015Y-15388293D01*
X13251015Y-15388293D02*
X13241491Y-15426388D01*
X13241491Y-15426388D02*
X13231967Y-15445436D01*
X13231967Y-15445436D02*
X13222444Y-15454960D01*
X13222444Y-15454960D02*
X13203396Y-15464484D01*
X13203396Y-15464484D02*
X13184348Y-15464484D01*
X13184348Y-15464484D02*
X13165301Y-15454960D01*
X13165301Y-15454960D02*
X13155777Y-15445436D01*
X13155777Y-15445436D02*
X13146253Y-15426388D01*
X13146253Y-15426388D02*
X13136729Y-15388293D01*
X13136729Y-15388293D02*
X13136729Y-15340674D01*
X13136729Y-15340674D02*
X13146253Y-15302579D01*
X13146253Y-15302579D02*
X13155777Y-15283531D01*
X13155777Y-15283531D02*
X13165301Y-15274008D01*
X13165301Y-15274008D02*
X13184348Y-15264484D01*
X13422444Y-15331150D02*
X13422444Y-15464484D01*
X13374825Y-15254960D02*
X13327206Y-15397817D01*
X13327206Y-15397817D02*
X13451015Y-15397817D01*
X13565301Y-15264484D02*
X13584348Y-15264484D01*
X13584348Y-15264484D02*
X13603396Y-15274008D01*
X13603396Y-15274008D02*
X13612920Y-15283531D01*
X13612920Y-15283531D02*
X13622444Y-15302579D01*
X13622444Y-15302579D02*
X13631967Y-15340674D01*
X13631967Y-15340674D02*
X13631967Y-15388293D01*
X13631967Y-15388293D02*
X13622444Y-15426388D01*
X13622444Y-15426388D02*
X13612920Y-15445436D01*
X13612920Y-15445436D02*
X13603396Y-15454960D01*
X13603396Y-15454960D02*
X13584348Y-15464484D01*
X13584348Y-15464484D02*
X13565301Y-15464484D01*
X13565301Y-15464484D02*
X13546253Y-15454960D01*
X13546253Y-15454960D02*
X13536729Y-15445436D01*
X13536729Y-15445436D02*
X13527206Y-15426388D01*
X13527206Y-15426388D02*
X13517682Y-15388293D01*
X13517682Y-15388293D02*
X13517682Y-15340674D01*
X13517682Y-15340674D02*
X13527206Y-15302579D01*
X13527206Y-15302579D02*
X13536729Y-15283531D01*
X13536729Y-15283531D02*
X13546253Y-15274008D01*
X13546253Y-15274008D02*
X13565301Y-15264484D01*
X13755777Y-15264484D02*
X13774825Y-15264484D01*
X13774825Y-15264484D02*
X13793872Y-15274008D01*
X13793872Y-15274008D02*
X13803396Y-15283531D01*
X13803396Y-15283531D02*
X13812920Y-15302579D01*
X13812920Y-15302579D02*
X13822444Y-15340674D01*
X13822444Y-15340674D02*
X13822444Y-15388293D01*
X13822444Y-15388293D02*
X13812920Y-15426388D01*
X13812920Y-15426388D02*
X13803396Y-15445436D01*
X13803396Y-15445436D02*
X13793872Y-15454960D01*
X13793872Y-15454960D02*
X13774825Y-15464484D01*
X13774825Y-15464484D02*
X13755777Y-15464484D01*
X13755777Y-15464484D02*
X13736729Y-15454960D01*
X13736729Y-15454960D02*
X13727206Y-15445436D01*
X13727206Y-15445436D02*
X13717682Y-15426388D01*
X13717682Y-15426388D02*
X13708158Y-15388293D01*
X13708158Y-15388293D02*
X13708158Y-15340674D01*
X13708158Y-15340674D02*
X13717682Y-15302579D01*
X13717682Y-15302579D02*
X13727206Y-15283531D01*
X13727206Y-15283531D02*
X13736729Y-15274008D01*
X13736729Y-15274008D02*
X13755777Y-15264484D01*
X13898634Y-15264484D02*
X13898634Y-15302579D01*
X13974825Y-15264484D02*
X13974825Y-15302579D01*
X14270063Y-15540674D02*
X14260539Y-15531150D01*
X14260539Y-15531150D02*
X14241491Y-15502579D01*
X14241491Y-15502579D02*
X14231968Y-15483531D01*
X14231968Y-15483531D02*
X14222444Y-15454960D01*
X14222444Y-15454960D02*
X14212920Y-15407341D01*
X14212920Y-15407341D02*
X14212920Y-15369246D01*
X14212920Y-15369246D02*
X14222444Y-15321627D01*
X14222444Y-15321627D02*
X14231968Y-15293055D01*
X14231968Y-15293055D02*
X14241491Y-15274008D01*
X14241491Y-15274008D02*
X14260539Y-15245436D01*
X14260539Y-15245436D02*
X14270063Y-15235912D01*
X14327206Y-15264484D02*
X14451015Y-15264484D01*
X14451015Y-15264484D02*
X14384348Y-15340674D01*
X14384348Y-15340674D02*
X14412920Y-15340674D01*
X14412920Y-15340674D02*
X14431968Y-15350198D01*
X14431968Y-15350198D02*
X14441491Y-15359722D01*
X14441491Y-15359722D02*
X14451015Y-15378769D01*
X14451015Y-15378769D02*
X14451015Y-15426388D01*
X14451015Y-15426388D02*
X14441491Y-15445436D01*
X14441491Y-15445436D02*
X14431968Y-15454960D01*
X14431968Y-15454960D02*
X14412920Y-15464484D01*
X14412920Y-15464484D02*
X14355777Y-15464484D01*
X14355777Y-15464484D02*
X14336729Y-15454960D01*
X14336729Y-15454960D02*
X14327206Y-15445436D01*
X14622444Y-15331150D02*
X14622444Y-15464484D01*
X14574825Y-15254960D02*
X14527206Y-15397817D01*
X14527206Y-15397817D02*
X14651015Y-15397817D01*
X14879587Y-15464484D02*
X14879587Y-15264484D01*
X14965301Y-15464484D02*
X14965301Y-15359722D01*
X14965301Y-15359722D02*
X14955777Y-15340674D01*
X14955777Y-15340674D02*
X14936730Y-15331150D01*
X14936730Y-15331150D02*
X14908158Y-15331150D01*
X14908158Y-15331150D02*
X14889110Y-15340674D01*
X14889110Y-15340674D02*
X14879587Y-15350198D01*
X15089110Y-15464484D02*
X15070063Y-15454960D01*
X15070063Y-15454960D02*
X15060539Y-15445436D01*
X15060539Y-15445436D02*
X15051015Y-15426388D01*
X15051015Y-15426388D02*
X15051015Y-15369246D01*
X15051015Y-15369246D02*
X15060539Y-15350198D01*
X15060539Y-15350198D02*
X15070063Y-15340674D01*
X15070063Y-15340674D02*
X15089110Y-15331150D01*
X15089110Y-15331150D02*
X15117682Y-15331150D01*
X15117682Y-15331150D02*
X15136730Y-15340674D01*
X15136730Y-15340674D02*
X15146253Y-15350198D01*
X15146253Y-15350198D02*
X15155777Y-15369246D01*
X15155777Y-15369246D02*
X15155777Y-15426388D01*
X15155777Y-15426388D02*
X15146253Y-15445436D01*
X15146253Y-15445436D02*
X15136730Y-15454960D01*
X15136730Y-15454960D02*
X15117682Y-15464484D01*
X15117682Y-15464484D02*
X15089110Y-15464484D01*
X15270063Y-15464484D02*
X15251015Y-15454960D01*
X15251015Y-15454960D02*
X15241491Y-15435912D01*
X15241491Y-15435912D02*
X15241491Y-15264484D01*
X15422444Y-15454960D02*
X15403396Y-15464484D01*
X15403396Y-15464484D02*
X15365301Y-15464484D01*
X15365301Y-15464484D02*
X15346253Y-15454960D01*
X15346253Y-15454960D02*
X15336730Y-15435912D01*
X15336730Y-15435912D02*
X15336730Y-15359722D01*
X15336730Y-15359722D02*
X15346253Y-15340674D01*
X15346253Y-15340674D02*
X15365301Y-15331150D01*
X15365301Y-15331150D02*
X15403396Y-15331150D01*
X15403396Y-15331150D02*
X15422444Y-15340674D01*
X15422444Y-15340674D02*
X15431968Y-15359722D01*
X15431968Y-15359722D02*
X15431968Y-15378769D01*
X15431968Y-15378769D02*
X15336730Y-15397817D01*
X15508158Y-15454960D02*
X15527206Y-15464484D01*
X15527206Y-15464484D02*
X15565301Y-15464484D01*
X15565301Y-15464484D02*
X15584349Y-15454960D01*
X15584349Y-15454960D02*
X15593872Y-15435912D01*
X15593872Y-15435912D02*
X15593872Y-15426388D01*
X15593872Y-15426388D02*
X15584349Y-15407341D01*
X15584349Y-15407341D02*
X15565301Y-15397817D01*
X15565301Y-15397817D02*
X15536730Y-15397817D01*
X15536730Y-15397817D02*
X15517682Y-15388293D01*
X15517682Y-15388293D02*
X15508158Y-15369246D01*
X15508158Y-15369246D02*
X15508158Y-15359722D01*
X15508158Y-15359722D02*
X15517682Y-15340674D01*
X15517682Y-15340674D02*
X15536730Y-15331150D01*
X15536730Y-15331150D02*
X15565301Y-15331150D01*
X15565301Y-15331150D02*
X15584349Y-15340674D01*
X15660539Y-15540674D02*
X15670063Y-15531150D01*
X15670063Y-15531150D02*
X15689111Y-15502579D01*
X15689111Y-15502579D02*
X15698634Y-15483531D01*
X15698634Y-15483531D02*
X15708158Y-15454960D01*
X15708158Y-15454960D02*
X15717682Y-15407341D01*
X15717682Y-15407341D02*
X15717682Y-15369246D01*
X15717682Y-15369246D02*
X15708158Y-15321627D01*
X15708158Y-15321627D02*
X15698634Y-15293055D01*
X15698634Y-15293055D02*
X15689111Y-15274008D01*
X15689111Y-15274008D02*
X15670063Y-15245436D01*
X15670063Y-15245436D02*
X15660539Y-15235912D01*
D15*
X10675962Y-15682962D02*
X10675962Y-15591038D01*
X10584038Y-15591038D01*
X10584038Y-15682962D01*
X10675962Y-15682962D01*
D11*
X11060539Y-15728484D02*
X10946253Y-15728484D01*
X11003396Y-15728484D02*
X11003396Y-15528484D01*
X11003396Y-15528484D02*
X10984348Y-15557055D01*
X10984348Y-15557055D02*
X10965301Y-15576103D01*
X10965301Y-15576103D02*
X10946253Y-15585627D01*
X11146253Y-15709436D02*
X11155777Y-15718960D01*
X11155777Y-15718960D02*
X11146253Y-15728484D01*
X11146253Y-15728484D02*
X11136729Y-15718960D01*
X11136729Y-15718960D02*
X11146253Y-15709436D01*
X11146253Y-15709436D02*
X11146253Y-15728484D01*
X11222443Y-15528484D02*
X11346253Y-15528484D01*
X11346253Y-15528484D02*
X11279586Y-15604674D01*
X11279586Y-15604674D02*
X11308158Y-15604674D01*
X11308158Y-15604674D02*
X11327205Y-15614198D01*
X11327205Y-15614198D02*
X11336729Y-15623722D01*
X11336729Y-15623722D02*
X11346253Y-15642769D01*
X11346253Y-15642769D02*
X11346253Y-15690388D01*
X11346253Y-15690388D02*
X11336729Y-15709436D01*
X11336729Y-15709436D02*
X11327205Y-15718960D01*
X11327205Y-15718960D02*
X11308158Y-15728484D01*
X11308158Y-15728484D02*
X11251015Y-15728484D01*
X11251015Y-15728484D02*
X11231967Y-15718960D01*
X11231967Y-15718960D02*
X11222443Y-15709436D01*
X11470062Y-15528484D02*
X11489110Y-15528484D01*
X11489110Y-15528484D02*
X11508158Y-15538008D01*
X11508158Y-15538008D02*
X11517682Y-15547531D01*
X11517682Y-15547531D02*
X11527205Y-15566579D01*
X11527205Y-15566579D02*
X11536729Y-15604674D01*
X11536729Y-15604674D02*
X11536729Y-15652293D01*
X11536729Y-15652293D02*
X11527205Y-15690388D01*
X11527205Y-15690388D02*
X11517682Y-15709436D01*
X11517682Y-15709436D02*
X11508158Y-15718960D01*
X11508158Y-15718960D02*
X11489110Y-15728484D01*
X11489110Y-15728484D02*
X11470062Y-15728484D01*
X11470062Y-15728484D02*
X11451015Y-15718960D01*
X11451015Y-15718960D02*
X11441491Y-15709436D01*
X11441491Y-15709436D02*
X11431967Y-15690388D01*
X11431967Y-15690388D02*
X11422443Y-15652293D01*
X11422443Y-15652293D02*
X11422443Y-15604674D01*
X11422443Y-15604674D02*
X11431967Y-15566579D01*
X11431967Y-15566579D02*
X11441491Y-15547531D01*
X11441491Y-15547531D02*
X11451015Y-15538008D01*
X11451015Y-15538008D02*
X11470062Y-15528484D01*
X11660539Y-15528484D02*
X11679586Y-15528484D01*
X11679586Y-15528484D02*
X11698634Y-15538008D01*
X11698634Y-15538008D02*
X11708158Y-15547531D01*
X11708158Y-15547531D02*
X11717682Y-15566579D01*
X11717682Y-15566579D02*
X11727205Y-15604674D01*
X11727205Y-15604674D02*
X11727205Y-15652293D01*
X11727205Y-15652293D02*
X11717682Y-15690388D01*
X11717682Y-15690388D02*
X11708158Y-15709436D01*
X11708158Y-15709436D02*
X11698634Y-15718960D01*
X11698634Y-15718960D02*
X11679586Y-15728484D01*
X11679586Y-15728484D02*
X11660539Y-15728484D01*
X11660539Y-15728484D02*
X11641491Y-15718960D01*
X11641491Y-15718960D02*
X11631967Y-15709436D01*
X11631967Y-15709436D02*
X11622443Y-15690388D01*
X11622443Y-15690388D02*
X11612920Y-15652293D01*
X11612920Y-15652293D02*
X11612920Y-15604674D01*
X11612920Y-15604674D02*
X11622443Y-15566579D01*
X11622443Y-15566579D02*
X11631967Y-15547531D01*
X11631967Y-15547531D02*
X11641491Y-15538008D01*
X11641491Y-15538008D02*
X11660539Y-15528484D01*
X11812920Y-15728484D02*
X11812920Y-15595150D01*
X11812920Y-15614198D02*
X11822443Y-15604674D01*
X11822443Y-15604674D02*
X11841491Y-15595150D01*
X11841491Y-15595150D02*
X11870063Y-15595150D01*
X11870063Y-15595150D02*
X11889110Y-15604674D01*
X11889110Y-15604674D02*
X11898634Y-15623722D01*
X11898634Y-15623722D02*
X11898634Y-15728484D01*
X11898634Y-15623722D02*
X11908158Y-15604674D01*
X11908158Y-15604674D02*
X11927205Y-15595150D01*
X11927205Y-15595150D02*
X11955777Y-15595150D01*
X11955777Y-15595150D02*
X11974824Y-15604674D01*
X11974824Y-15604674D02*
X11984348Y-15623722D01*
X11984348Y-15623722D02*
X11984348Y-15728484D01*
X12079586Y-15728484D02*
X12079586Y-15595150D01*
X12079586Y-15614198D02*
X12089110Y-15604674D01*
X12089110Y-15604674D02*
X12108158Y-15595150D01*
X12108158Y-15595150D02*
X12136729Y-15595150D01*
X12136729Y-15595150D02*
X12155777Y-15604674D01*
X12155777Y-15604674D02*
X12165301Y-15623722D01*
X12165301Y-15623722D02*
X12165301Y-15728484D01*
X12165301Y-15623722D02*
X12174824Y-15604674D01*
X12174824Y-15604674D02*
X12193872Y-15595150D01*
X12193872Y-15595150D02*
X12222443Y-15595150D01*
X12222443Y-15595150D02*
X12241491Y-15604674D01*
X12241491Y-15604674D02*
X12251015Y-15623722D01*
X12251015Y-15623722D02*
X12251015Y-15728484D01*
X12641491Y-15518960D02*
X12470063Y-15776103D01*
X12898634Y-15528484D02*
X12917682Y-15528484D01*
X12917682Y-15528484D02*
X12936729Y-15538008D01*
X12936729Y-15538008D02*
X12946253Y-15547531D01*
X12946253Y-15547531D02*
X12955777Y-15566579D01*
X12955777Y-15566579D02*
X12965301Y-15604674D01*
X12965301Y-15604674D02*
X12965301Y-15652293D01*
X12965301Y-15652293D02*
X12955777Y-15690388D01*
X12955777Y-15690388D02*
X12946253Y-15709436D01*
X12946253Y-15709436D02*
X12936729Y-15718960D01*
X12936729Y-15718960D02*
X12917682Y-15728484D01*
X12917682Y-15728484D02*
X12898634Y-15728484D01*
X12898634Y-15728484D02*
X12879586Y-15718960D01*
X12879586Y-15718960D02*
X12870063Y-15709436D01*
X12870063Y-15709436D02*
X12860539Y-15690388D01*
X12860539Y-15690388D02*
X12851015Y-15652293D01*
X12851015Y-15652293D02*
X12851015Y-15604674D01*
X12851015Y-15604674D02*
X12860539Y-15566579D01*
X12860539Y-15566579D02*
X12870063Y-15547531D01*
X12870063Y-15547531D02*
X12879586Y-15538008D01*
X12879586Y-15538008D02*
X12898634Y-15528484D01*
X13051015Y-15709436D02*
X13060539Y-15718960D01*
X13060539Y-15718960D02*
X13051015Y-15728484D01*
X13051015Y-15728484D02*
X13041491Y-15718960D01*
X13041491Y-15718960D02*
X13051015Y-15709436D01*
X13051015Y-15709436D02*
X13051015Y-15728484D01*
X13184348Y-15528484D02*
X13203396Y-15528484D01*
X13203396Y-15528484D02*
X13222444Y-15538008D01*
X13222444Y-15538008D02*
X13231967Y-15547531D01*
X13231967Y-15547531D02*
X13241491Y-15566579D01*
X13241491Y-15566579D02*
X13251015Y-15604674D01*
X13251015Y-15604674D02*
X13251015Y-15652293D01*
X13251015Y-15652293D02*
X13241491Y-15690388D01*
X13241491Y-15690388D02*
X13231967Y-15709436D01*
X13231967Y-15709436D02*
X13222444Y-15718960D01*
X13222444Y-15718960D02*
X13203396Y-15728484D01*
X13203396Y-15728484D02*
X13184348Y-15728484D01*
X13184348Y-15728484D02*
X13165301Y-15718960D01*
X13165301Y-15718960D02*
X13155777Y-15709436D01*
X13155777Y-15709436D02*
X13146253Y-15690388D01*
X13146253Y-15690388D02*
X13136729Y-15652293D01*
X13136729Y-15652293D02*
X13136729Y-15604674D01*
X13136729Y-15604674D02*
X13146253Y-15566579D01*
X13146253Y-15566579D02*
X13155777Y-15547531D01*
X13155777Y-15547531D02*
X13165301Y-15538008D01*
X13165301Y-15538008D02*
X13184348Y-15528484D01*
X13431967Y-15528484D02*
X13336729Y-15528484D01*
X13336729Y-15528484D02*
X13327206Y-15623722D01*
X13327206Y-15623722D02*
X13336729Y-15614198D01*
X13336729Y-15614198D02*
X13355777Y-15604674D01*
X13355777Y-15604674D02*
X13403396Y-15604674D01*
X13403396Y-15604674D02*
X13422444Y-15614198D01*
X13422444Y-15614198D02*
X13431967Y-15623722D01*
X13431967Y-15623722D02*
X13441491Y-15642769D01*
X13441491Y-15642769D02*
X13441491Y-15690388D01*
X13441491Y-15690388D02*
X13431967Y-15709436D01*
X13431967Y-15709436D02*
X13422444Y-15718960D01*
X13422444Y-15718960D02*
X13403396Y-15728484D01*
X13403396Y-15728484D02*
X13355777Y-15728484D01*
X13355777Y-15728484D02*
X13336729Y-15718960D01*
X13336729Y-15718960D02*
X13327206Y-15709436D01*
X13631967Y-15728484D02*
X13517682Y-15728484D01*
X13574825Y-15728484D02*
X13574825Y-15528484D01*
X13574825Y-15528484D02*
X13555777Y-15557055D01*
X13555777Y-15557055D02*
X13536729Y-15576103D01*
X13536729Y-15576103D02*
X13517682Y-15585627D01*
X13708158Y-15547531D02*
X13717682Y-15538008D01*
X13717682Y-15538008D02*
X13736729Y-15528484D01*
X13736729Y-15528484D02*
X13784348Y-15528484D01*
X13784348Y-15528484D02*
X13803396Y-15538008D01*
X13803396Y-15538008D02*
X13812920Y-15547531D01*
X13812920Y-15547531D02*
X13822444Y-15566579D01*
X13822444Y-15566579D02*
X13822444Y-15585627D01*
X13822444Y-15585627D02*
X13812920Y-15614198D01*
X13812920Y-15614198D02*
X13698634Y-15728484D01*
X13698634Y-15728484D02*
X13822444Y-15728484D01*
X13898634Y-15528484D02*
X13898634Y-15566579D01*
X13974825Y-15528484D02*
X13974825Y-15566579D01*
X14270063Y-15804674D02*
X14260539Y-15795150D01*
X14260539Y-15795150D02*
X14241491Y-15766579D01*
X14241491Y-15766579D02*
X14231968Y-15747531D01*
X14231968Y-15747531D02*
X14222444Y-15718960D01*
X14222444Y-15718960D02*
X14212920Y-15671341D01*
X14212920Y-15671341D02*
X14212920Y-15633246D01*
X14212920Y-15633246D02*
X14222444Y-15585627D01*
X14222444Y-15585627D02*
X14231968Y-15557055D01*
X14231968Y-15557055D02*
X14241491Y-15538008D01*
X14241491Y-15538008D02*
X14260539Y-15509436D01*
X14260539Y-15509436D02*
X14270063Y-15499912D01*
X14441491Y-15528484D02*
X14346253Y-15528484D01*
X14346253Y-15528484D02*
X14336729Y-15623722D01*
X14336729Y-15623722D02*
X14346253Y-15614198D01*
X14346253Y-15614198D02*
X14365301Y-15604674D01*
X14365301Y-15604674D02*
X14412920Y-15604674D01*
X14412920Y-15604674D02*
X14431968Y-15614198D01*
X14431968Y-15614198D02*
X14441491Y-15623722D01*
X14441491Y-15623722D02*
X14451015Y-15642769D01*
X14451015Y-15642769D02*
X14451015Y-15690388D01*
X14451015Y-15690388D02*
X14441491Y-15709436D01*
X14441491Y-15709436D02*
X14431968Y-15718960D01*
X14431968Y-15718960D02*
X14412920Y-15728484D01*
X14412920Y-15728484D02*
X14365301Y-15728484D01*
X14365301Y-15728484D02*
X14346253Y-15718960D01*
X14346253Y-15718960D02*
X14336729Y-15709436D01*
X14689110Y-15728484D02*
X14689110Y-15528484D01*
X14774825Y-15728484D02*
X14774825Y-15623722D01*
X14774825Y-15623722D02*
X14765301Y-15604674D01*
X14765301Y-15604674D02*
X14746253Y-15595150D01*
X14746253Y-15595150D02*
X14717682Y-15595150D01*
X14717682Y-15595150D02*
X14698634Y-15604674D01*
X14698634Y-15604674D02*
X14689110Y-15614198D01*
X14898634Y-15728484D02*
X14879587Y-15718960D01*
X14879587Y-15718960D02*
X14870063Y-15709436D01*
X14870063Y-15709436D02*
X14860539Y-15690388D01*
X14860539Y-15690388D02*
X14860539Y-15633246D01*
X14860539Y-15633246D02*
X14870063Y-15614198D01*
X14870063Y-15614198D02*
X14879587Y-15604674D01*
X14879587Y-15604674D02*
X14898634Y-15595150D01*
X14898634Y-15595150D02*
X14927206Y-15595150D01*
X14927206Y-15595150D02*
X14946253Y-15604674D01*
X14946253Y-15604674D02*
X14955777Y-15614198D01*
X14955777Y-15614198D02*
X14965301Y-15633246D01*
X14965301Y-15633246D02*
X14965301Y-15690388D01*
X14965301Y-15690388D02*
X14955777Y-15709436D01*
X14955777Y-15709436D02*
X14946253Y-15718960D01*
X14946253Y-15718960D02*
X14927206Y-15728484D01*
X14927206Y-15728484D02*
X14898634Y-15728484D01*
X15079587Y-15728484D02*
X15060539Y-15718960D01*
X15060539Y-15718960D02*
X15051015Y-15699912D01*
X15051015Y-15699912D02*
X15051015Y-15528484D01*
X15231968Y-15718960D02*
X15212920Y-15728484D01*
X15212920Y-15728484D02*
X15174825Y-15728484D01*
X15174825Y-15728484D02*
X15155777Y-15718960D01*
X15155777Y-15718960D02*
X15146253Y-15699912D01*
X15146253Y-15699912D02*
X15146253Y-15623722D01*
X15146253Y-15623722D02*
X15155777Y-15604674D01*
X15155777Y-15604674D02*
X15174825Y-15595150D01*
X15174825Y-15595150D02*
X15212920Y-15595150D01*
X15212920Y-15595150D02*
X15231968Y-15604674D01*
X15231968Y-15604674D02*
X15241491Y-15623722D01*
X15241491Y-15623722D02*
X15241491Y-15642769D01*
X15241491Y-15642769D02*
X15146253Y-15661817D01*
X15317682Y-15718960D02*
X15336730Y-15728484D01*
X15336730Y-15728484D02*
X15374825Y-15728484D01*
X15374825Y-15728484D02*
X15393872Y-15718960D01*
X15393872Y-15718960D02*
X15403396Y-15699912D01*
X15403396Y-15699912D02*
X15403396Y-15690388D01*
X15403396Y-15690388D02*
X15393872Y-15671341D01*
X15393872Y-15671341D02*
X15374825Y-15661817D01*
X15374825Y-15661817D02*
X15346253Y-15661817D01*
X15346253Y-15661817D02*
X15327206Y-15652293D01*
X15327206Y-15652293D02*
X15317682Y-15633246D01*
X15317682Y-15633246D02*
X15317682Y-15623722D01*
X15317682Y-15623722D02*
X15327206Y-15604674D01*
X15327206Y-15604674D02*
X15346253Y-15595150D01*
X15346253Y-15595150D02*
X15374825Y-15595150D01*
X15374825Y-15595150D02*
X15393872Y-15604674D01*
X15470063Y-15804674D02*
X15479587Y-15795150D01*
X15479587Y-15795150D02*
X15498634Y-15766579D01*
X15498634Y-15766579D02*
X15508158Y-15747531D01*
X15508158Y-15747531D02*
X15517682Y-15718960D01*
X15517682Y-15718960D02*
X15527206Y-15671341D01*
X15527206Y-15671341D02*
X15527206Y-15633246D01*
X15527206Y-15633246D02*
X15517682Y-15585627D01*
X15517682Y-15585627D02*
X15508158Y-15557055D01*
X15508158Y-15557055D02*
X15498634Y-15538008D01*
X15498634Y-15538008D02*
X15479587Y-15509436D01*
X15479587Y-15509436D02*
X15470063Y-15499912D01*
D16*
X10625000Y-15971000D02*
X10695000Y-15901000D01*
X10625000Y-15831000D01*
X10555000Y-15901000D01*
X10625000Y-15971000D01*
D11*
X11060539Y-15992484D02*
X10946253Y-15992484D01*
X11003396Y-15992484D02*
X11003396Y-15792484D01*
X11003396Y-15792484D02*
X10984348Y-15821055D01*
X10984348Y-15821055D02*
X10965301Y-15840103D01*
X10965301Y-15840103D02*
X10946253Y-15849627D01*
X11146253Y-15973436D02*
X11155777Y-15982960D01*
X11155777Y-15982960D02*
X11146253Y-15992484D01*
X11146253Y-15992484D02*
X11136729Y-15982960D01*
X11136729Y-15982960D02*
X11146253Y-15973436D01*
X11146253Y-15973436D02*
X11146253Y-15992484D01*
X11327205Y-15859150D02*
X11327205Y-15992484D01*
X11279586Y-15782960D02*
X11231967Y-15925817D01*
X11231967Y-15925817D02*
X11355777Y-15925817D01*
X11470062Y-15792484D02*
X11489110Y-15792484D01*
X11489110Y-15792484D02*
X11508158Y-15802008D01*
X11508158Y-15802008D02*
X11517682Y-15811531D01*
X11517682Y-15811531D02*
X11527205Y-15830579D01*
X11527205Y-15830579D02*
X11536729Y-15868674D01*
X11536729Y-15868674D02*
X11536729Y-15916293D01*
X11536729Y-15916293D02*
X11527205Y-15954388D01*
X11527205Y-15954388D02*
X11517682Y-15973436D01*
X11517682Y-15973436D02*
X11508158Y-15982960D01*
X11508158Y-15982960D02*
X11489110Y-15992484D01*
X11489110Y-15992484D02*
X11470062Y-15992484D01*
X11470062Y-15992484D02*
X11451015Y-15982960D01*
X11451015Y-15982960D02*
X11441491Y-15973436D01*
X11441491Y-15973436D02*
X11431967Y-15954388D01*
X11431967Y-15954388D02*
X11422443Y-15916293D01*
X11422443Y-15916293D02*
X11422443Y-15868674D01*
X11422443Y-15868674D02*
X11431967Y-15830579D01*
X11431967Y-15830579D02*
X11441491Y-15811531D01*
X11441491Y-15811531D02*
X11451015Y-15802008D01*
X11451015Y-15802008D02*
X11470062Y-15792484D01*
X11660539Y-15792484D02*
X11679586Y-15792484D01*
X11679586Y-15792484D02*
X11698634Y-15802008D01*
X11698634Y-15802008D02*
X11708158Y-15811531D01*
X11708158Y-15811531D02*
X11717682Y-15830579D01*
X11717682Y-15830579D02*
X11727205Y-15868674D01*
X11727205Y-15868674D02*
X11727205Y-15916293D01*
X11727205Y-15916293D02*
X11717682Y-15954388D01*
X11717682Y-15954388D02*
X11708158Y-15973436D01*
X11708158Y-15973436D02*
X11698634Y-15982960D01*
X11698634Y-15982960D02*
X11679586Y-15992484D01*
X11679586Y-15992484D02*
X11660539Y-15992484D01*
X11660539Y-15992484D02*
X11641491Y-15982960D01*
X11641491Y-15982960D02*
X11631967Y-15973436D01*
X11631967Y-15973436D02*
X11622443Y-15954388D01*
X11622443Y-15954388D02*
X11612920Y-15916293D01*
X11612920Y-15916293D02*
X11612920Y-15868674D01*
X11612920Y-15868674D02*
X11622443Y-15830579D01*
X11622443Y-15830579D02*
X11631967Y-15811531D01*
X11631967Y-15811531D02*
X11641491Y-15802008D01*
X11641491Y-15802008D02*
X11660539Y-15792484D01*
X11812920Y-15992484D02*
X11812920Y-15859150D01*
X11812920Y-15878198D02*
X11822443Y-15868674D01*
X11822443Y-15868674D02*
X11841491Y-15859150D01*
X11841491Y-15859150D02*
X11870063Y-15859150D01*
X11870063Y-15859150D02*
X11889110Y-15868674D01*
X11889110Y-15868674D02*
X11898634Y-15887722D01*
X11898634Y-15887722D02*
X11898634Y-15992484D01*
X11898634Y-15887722D02*
X11908158Y-15868674D01*
X11908158Y-15868674D02*
X11927205Y-15859150D01*
X11927205Y-15859150D02*
X11955777Y-15859150D01*
X11955777Y-15859150D02*
X11974824Y-15868674D01*
X11974824Y-15868674D02*
X11984348Y-15887722D01*
X11984348Y-15887722D02*
X11984348Y-15992484D01*
X12079586Y-15992484D02*
X12079586Y-15859150D01*
X12079586Y-15878198D02*
X12089110Y-15868674D01*
X12089110Y-15868674D02*
X12108158Y-15859150D01*
X12108158Y-15859150D02*
X12136729Y-15859150D01*
X12136729Y-15859150D02*
X12155777Y-15868674D01*
X12155777Y-15868674D02*
X12165301Y-15887722D01*
X12165301Y-15887722D02*
X12165301Y-15992484D01*
X12165301Y-15887722D02*
X12174824Y-15868674D01*
X12174824Y-15868674D02*
X12193872Y-15859150D01*
X12193872Y-15859150D02*
X12222443Y-15859150D01*
X12222443Y-15859150D02*
X12241491Y-15868674D01*
X12241491Y-15868674D02*
X12251015Y-15887722D01*
X12251015Y-15887722D02*
X12251015Y-15992484D01*
X12641491Y-15782960D02*
X12470063Y-16040103D01*
X12898634Y-15792484D02*
X12917682Y-15792484D01*
X12917682Y-15792484D02*
X12936729Y-15802008D01*
X12936729Y-15802008D02*
X12946253Y-15811531D01*
X12946253Y-15811531D02*
X12955777Y-15830579D01*
X12955777Y-15830579D02*
X12965301Y-15868674D01*
X12965301Y-15868674D02*
X12965301Y-15916293D01*
X12965301Y-15916293D02*
X12955777Y-15954388D01*
X12955777Y-15954388D02*
X12946253Y-15973436D01*
X12946253Y-15973436D02*
X12936729Y-15982960D01*
X12936729Y-15982960D02*
X12917682Y-15992484D01*
X12917682Y-15992484D02*
X12898634Y-15992484D01*
X12898634Y-15992484D02*
X12879586Y-15982960D01*
X12879586Y-15982960D02*
X12870063Y-15973436D01*
X12870063Y-15973436D02*
X12860539Y-15954388D01*
X12860539Y-15954388D02*
X12851015Y-15916293D01*
X12851015Y-15916293D02*
X12851015Y-15868674D01*
X12851015Y-15868674D02*
X12860539Y-15830579D01*
X12860539Y-15830579D02*
X12870063Y-15811531D01*
X12870063Y-15811531D02*
X12879586Y-15802008D01*
X12879586Y-15802008D02*
X12898634Y-15792484D01*
X13051015Y-15973436D02*
X13060539Y-15982960D01*
X13060539Y-15982960D02*
X13051015Y-15992484D01*
X13051015Y-15992484D02*
X13041491Y-15982960D01*
X13041491Y-15982960D02*
X13051015Y-15973436D01*
X13051015Y-15973436D02*
X13051015Y-15992484D01*
X13184348Y-15792484D02*
X13203396Y-15792484D01*
X13203396Y-15792484D02*
X13222444Y-15802008D01*
X13222444Y-15802008D02*
X13231967Y-15811531D01*
X13231967Y-15811531D02*
X13241491Y-15830579D01*
X13241491Y-15830579D02*
X13251015Y-15868674D01*
X13251015Y-15868674D02*
X13251015Y-15916293D01*
X13251015Y-15916293D02*
X13241491Y-15954388D01*
X13241491Y-15954388D02*
X13231967Y-15973436D01*
X13231967Y-15973436D02*
X13222444Y-15982960D01*
X13222444Y-15982960D02*
X13203396Y-15992484D01*
X13203396Y-15992484D02*
X13184348Y-15992484D01*
X13184348Y-15992484D02*
X13165301Y-15982960D01*
X13165301Y-15982960D02*
X13155777Y-15973436D01*
X13155777Y-15973436D02*
X13146253Y-15954388D01*
X13146253Y-15954388D02*
X13136729Y-15916293D01*
X13136729Y-15916293D02*
X13136729Y-15868674D01*
X13136729Y-15868674D02*
X13146253Y-15830579D01*
X13146253Y-15830579D02*
X13155777Y-15811531D01*
X13155777Y-15811531D02*
X13165301Y-15802008D01*
X13165301Y-15802008D02*
X13184348Y-15792484D01*
X13431967Y-15792484D02*
X13336729Y-15792484D01*
X13336729Y-15792484D02*
X13327206Y-15887722D01*
X13327206Y-15887722D02*
X13336729Y-15878198D01*
X13336729Y-15878198D02*
X13355777Y-15868674D01*
X13355777Y-15868674D02*
X13403396Y-15868674D01*
X13403396Y-15868674D02*
X13422444Y-15878198D01*
X13422444Y-15878198D02*
X13431967Y-15887722D01*
X13431967Y-15887722D02*
X13441491Y-15906769D01*
X13441491Y-15906769D02*
X13441491Y-15954388D01*
X13441491Y-15954388D02*
X13431967Y-15973436D01*
X13431967Y-15973436D02*
X13422444Y-15982960D01*
X13422444Y-15982960D02*
X13403396Y-15992484D01*
X13403396Y-15992484D02*
X13355777Y-15992484D01*
X13355777Y-15992484D02*
X13336729Y-15982960D01*
X13336729Y-15982960D02*
X13327206Y-15973436D01*
X13622444Y-15792484D02*
X13527206Y-15792484D01*
X13527206Y-15792484D02*
X13517682Y-15887722D01*
X13517682Y-15887722D02*
X13527206Y-15878198D01*
X13527206Y-15878198D02*
X13546253Y-15868674D01*
X13546253Y-15868674D02*
X13593872Y-15868674D01*
X13593872Y-15868674D02*
X13612920Y-15878198D01*
X13612920Y-15878198D02*
X13622444Y-15887722D01*
X13622444Y-15887722D02*
X13631967Y-15906769D01*
X13631967Y-15906769D02*
X13631967Y-15954388D01*
X13631967Y-15954388D02*
X13622444Y-15973436D01*
X13622444Y-15973436D02*
X13612920Y-15982960D01*
X13612920Y-15982960D02*
X13593872Y-15992484D01*
X13593872Y-15992484D02*
X13546253Y-15992484D01*
X13546253Y-15992484D02*
X13527206Y-15982960D01*
X13527206Y-15982960D02*
X13517682Y-15973436D01*
X13822444Y-15992484D02*
X13708158Y-15992484D01*
X13765301Y-15992484D02*
X13765301Y-15792484D01*
X13765301Y-15792484D02*
X13746253Y-15821055D01*
X13746253Y-15821055D02*
X13727206Y-15840103D01*
X13727206Y-15840103D02*
X13708158Y-15849627D01*
X13898634Y-15792484D02*
X13898634Y-15830579D01*
X13974825Y-15792484D02*
X13974825Y-15830579D01*
X14270063Y-16068674D02*
X14260539Y-16059150D01*
X14260539Y-16059150D02*
X14241491Y-16030579D01*
X14241491Y-16030579D02*
X14231968Y-16011531D01*
X14231968Y-16011531D02*
X14222444Y-15982960D01*
X14222444Y-15982960D02*
X14212920Y-15935341D01*
X14212920Y-15935341D02*
X14212920Y-15897246D01*
X14212920Y-15897246D02*
X14222444Y-15849627D01*
X14222444Y-15849627D02*
X14231968Y-15821055D01*
X14231968Y-15821055D02*
X14241491Y-15802008D01*
X14241491Y-15802008D02*
X14260539Y-15773436D01*
X14260539Y-15773436D02*
X14270063Y-15763912D01*
X14451015Y-15992484D02*
X14336729Y-15992484D01*
X14393872Y-15992484D02*
X14393872Y-15792484D01*
X14393872Y-15792484D02*
X14374825Y-15821055D01*
X14374825Y-15821055D02*
X14355777Y-15840103D01*
X14355777Y-15840103D02*
X14336729Y-15849627D01*
X14689110Y-15992484D02*
X14689110Y-15792484D01*
X14774825Y-15992484D02*
X14774825Y-15887722D01*
X14774825Y-15887722D02*
X14765301Y-15868674D01*
X14765301Y-15868674D02*
X14746253Y-15859150D01*
X14746253Y-15859150D02*
X14717682Y-15859150D01*
X14717682Y-15859150D02*
X14698634Y-15868674D01*
X14698634Y-15868674D02*
X14689110Y-15878198D01*
X14898634Y-15992484D02*
X14879587Y-15982960D01*
X14879587Y-15982960D02*
X14870063Y-15973436D01*
X14870063Y-15973436D02*
X14860539Y-15954388D01*
X14860539Y-15954388D02*
X14860539Y-15897246D01*
X14860539Y-15897246D02*
X14870063Y-15878198D01*
X14870063Y-15878198D02*
X14879587Y-15868674D01*
X14879587Y-15868674D02*
X14898634Y-15859150D01*
X14898634Y-15859150D02*
X14927206Y-15859150D01*
X14927206Y-15859150D02*
X14946253Y-15868674D01*
X14946253Y-15868674D02*
X14955777Y-15878198D01*
X14955777Y-15878198D02*
X14965301Y-15897246D01*
X14965301Y-15897246D02*
X14965301Y-15954388D01*
X14965301Y-15954388D02*
X14955777Y-15973436D01*
X14955777Y-15973436D02*
X14946253Y-15982960D01*
X14946253Y-15982960D02*
X14927206Y-15992484D01*
X14927206Y-15992484D02*
X14898634Y-15992484D01*
X15079587Y-15992484D02*
X15060539Y-15982960D01*
X15060539Y-15982960D02*
X15051015Y-15963912D01*
X15051015Y-15963912D02*
X15051015Y-15792484D01*
X15231968Y-15982960D02*
X15212920Y-15992484D01*
X15212920Y-15992484D02*
X15174825Y-15992484D01*
X15174825Y-15992484D02*
X15155777Y-15982960D01*
X15155777Y-15982960D02*
X15146253Y-15963912D01*
X15146253Y-15963912D02*
X15146253Y-15887722D01*
X15146253Y-15887722D02*
X15155777Y-15868674D01*
X15155777Y-15868674D02*
X15174825Y-15859150D01*
X15174825Y-15859150D02*
X15212920Y-15859150D01*
X15212920Y-15859150D02*
X15231968Y-15868674D01*
X15231968Y-15868674D02*
X15241491Y-15887722D01*
X15241491Y-15887722D02*
X15241491Y-15906769D01*
X15241491Y-15906769D02*
X15146253Y-15925817D01*
X15308158Y-16068674D02*
X15317682Y-16059150D01*
X15317682Y-16059150D02*
X15336730Y-16030579D01*
X15336730Y-16030579D02*
X15346253Y-16011531D01*
X15346253Y-16011531D02*
X15355777Y-15982960D01*
X15355777Y-15982960D02*
X15365301Y-15935341D01*
X15365301Y-15935341D02*
X15365301Y-15897246D01*
X15365301Y-15897246D02*
X15355777Y-15849627D01*
X15355777Y-15849627D02*
X15346253Y-15821055D01*
X15346253Y-15821055D02*
X15336730Y-15802008D01*
X15336730Y-15802008D02*
X15317682Y-15773436D01*
X15317682Y-15773436D02*
X15308158Y-15763912D01*
D17*
X10545000Y-16090000D02*
X10695000Y-16240000D01*
X10695000Y-16090000D02*
X10545000Y-16240000D01*
X10695000Y-16165000D02*
G75*
G03*
X10695000Y-16165000I-75000J0D01*
G01*
D11*
X11060539Y-16256484D02*
X10946253Y-16256484D01*
X11003396Y-16256484D02*
X11003396Y-16056484D01*
X11003396Y-16056484D02*
X10984348Y-16085055D01*
X10984348Y-16085055D02*
X10965301Y-16104103D01*
X10965301Y-16104103D02*
X10946253Y-16113627D01*
X11146253Y-16237436D02*
X11155777Y-16246960D01*
X11155777Y-16246960D02*
X11146253Y-16256484D01*
X11146253Y-16256484D02*
X11136729Y-16246960D01*
X11136729Y-16246960D02*
X11146253Y-16237436D01*
X11146253Y-16237436D02*
X11146253Y-16256484D01*
X11336729Y-16056484D02*
X11241491Y-16056484D01*
X11241491Y-16056484D02*
X11231967Y-16151722D01*
X11231967Y-16151722D02*
X11241491Y-16142198D01*
X11241491Y-16142198D02*
X11260539Y-16132674D01*
X11260539Y-16132674D02*
X11308158Y-16132674D01*
X11308158Y-16132674D02*
X11327205Y-16142198D01*
X11327205Y-16142198D02*
X11336729Y-16151722D01*
X11336729Y-16151722D02*
X11346253Y-16170769D01*
X11346253Y-16170769D02*
X11346253Y-16218388D01*
X11346253Y-16218388D02*
X11336729Y-16237436D01*
X11336729Y-16237436D02*
X11327205Y-16246960D01*
X11327205Y-16246960D02*
X11308158Y-16256484D01*
X11308158Y-16256484D02*
X11260539Y-16256484D01*
X11260539Y-16256484D02*
X11241491Y-16246960D01*
X11241491Y-16246960D02*
X11231967Y-16237436D01*
X11470062Y-16056484D02*
X11489110Y-16056484D01*
X11489110Y-16056484D02*
X11508158Y-16066008D01*
X11508158Y-16066008D02*
X11517682Y-16075531D01*
X11517682Y-16075531D02*
X11527205Y-16094579D01*
X11527205Y-16094579D02*
X11536729Y-16132674D01*
X11536729Y-16132674D02*
X11536729Y-16180293D01*
X11536729Y-16180293D02*
X11527205Y-16218388D01*
X11527205Y-16218388D02*
X11517682Y-16237436D01*
X11517682Y-16237436D02*
X11508158Y-16246960D01*
X11508158Y-16246960D02*
X11489110Y-16256484D01*
X11489110Y-16256484D02*
X11470062Y-16256484D01*
X11470062Y-16256484D02*
X11451015Y-16246960D01*
X11451015Y-16246960D02*
X11441491Y-16237436D01*
X11441491Y-16237436D02*
X11431967Y-16218388D01*
X11431967Y-16218388D02*
X11422443Y-16180293D01*
X11422443Y-16180293D02*
X11422443Y-16132674D01*
X11422443Y-16132674D02*
X11431967Y-16094579D01*
X11431967Y-16094579D02*
X11441491Y-16075531D01*
X11441491Y-16075531D02*
X11451015Y-16066008D01*
X11451015Y-16066008D02*
X11470062Y-16056484D01*
X11660539Y-16056484D02*
X11679586Y-16056484D01*
X11679586Y-16056484D02*
X11698634Y-16066008D01*
X11698634Y-16066008D02*
X11708158Y-16075531D01*
X11708158Y-16075531D02*
X11717682Y-16094579D01*
X11717682Y-16094579D02*
X11727205Y-16132674D01*
X11727205Y-16132674D02*
X11727205Y-16180293D01*
X11727205Y-16180293D02*
X11717682Y-16218388D01*
X11717682Y-16218388D02*
X11708158Y-16237436D01*
X11708158Y-16237436D02*
X11698634Y-16246960D01*
X11698634Y-16246960D02*
X11679586Y-16256484D01*
X11679586Y-16256484D02*
X11660539Y-16256484D01*
X11660539Y-16256484D02*
X11641491Y-16246960D01*
X11641491Y-16246960D02*
X11631967Y-16237436D01*
X11631967Y-16237436D02*
X11622443Y-16218388D01*
X11622443Y-16218388D02*
X11612920Y-16180293D01*
X11612920Y-16180293D02*
X11612920Y-16132674D01*
X11612920Y-16132674D02*
X11622443Y-16094579D01*
X11622443Y-16094579D02*
X11631967Y-16075531D01*
X11631967Y-16075531D02*
X11641491Y-16066008D01*
X11641491Y-16066008D02*
X11660539Y-16056484D01*
X11812920Y-16256484D02*
X11812920Y-16123150D01*
X11812920Y-16142198D02*
X11822443Y-16132674D01*
X11822443Y-16132674D02*
X11841491Y-16123150D01*
X11841491Y-16123150D02*
X11870063Y-16123150D01*
X11870063Y-16123150D02*
X11889110Y-16132674D01*
X11889110Y-16132674D02*
X11898634Y-16151722D01*
X11898634Y-16151722D02*
X11898634Y-16256484D01*
X11898634Y-16151722D02*
X11908158Y-16132674D01*
X11908158Y-16132674D02*
X11927205Y-16123150D01*
X11927205Y-16123150D02*
X11955777Y-16123150D01*
X11955777Y-16123150D02*
X11974824Y-16132674D01*
X11974824Y-16132674D02*
X11984348Y-16151722D01*
X11984348Y-16151722D02*
X11984348Y-16256484D01*
X12079586Y-16256484D02*
X12079586Y-16123150D01*
X12079586Y-16142198D02*
X12089110Y-16132674D01*
X12089110Y-16132674D02*
X12108158Y-16123150D01*
X12108158Y-16123150D02*
X12136729Y-16123150D01*
X12136729Y-16123150D02*
X12155777Y-16132674D01*
X12155777Y-16132674D02*
X12165301Y-16151722D01*
X12165301Y-16151722D02*
X12165301Y-16256484D01*
X12165301Y-16151722D02*
X12174824Y-16132674D01*
X12174824Y-16132674D02*
X12193872Y-16123150D01*
X12193872Y-16123150D02*
X12222443Y-16123150D01*
X12222443Y-16123150D02*
X12241491Y-16132674D01*
X12241491Y-16132674D02*
X12251015Y-16151722D01*
X12251015Y-16151722D02*
X12251015Y-16256484D01*
X12641491Y-16046960D02*
X12470063Y-16304103D01*
X12898634Y-16056484D02*
X12917682Y-16056484D01*
X12917682Y-16056484D02*
X12936729Y-16066008D01*
X12936729Y-16066008D02*
X12946253Y-16075531D01*
X12946253Y-16075531D02*
X12955777Y-16094579D01*
X12955777Y-16094579D02*
X12965301Y-16132674D01*
X12965301Y-16132674D02*
X12965301Y-16180293D01*
X12965301Y-16180293D02*
X12955777Y-16218388D01*
X12955777Y-16218388D02*
X12946253Y-16237436D01*
X12946253Y-16237436D02*
X12936729Y-16246960D01*
X12936729Y-16246960D02*
X12917682Y-16256484D01*
X12917682Y-16256484D02*
X12898634Y-16256484D01*
X12898634Y-16256484D02*
X12879586Y-16246960D01*
X12879586Y-16246960D02*
X12870063Y-16237436D01*
X12870063Y-16237436D02*
X12860539Y-16218388D01*
X12860539Y-16218388D02*
X12851015Y-16180293D01*
X12851015Y-16180293D02*
X12851015Y-16132674D01*
X12851015Y-16132674D02*
X12860539Y-16094579D01*
X12860539Y-16094579D02*
X12870063Y-16075531D01*
X12870063Y-16075531D02*
X12879586Y-16066008D01*
X12879586Y-16066008D02*
X12898634Y-16056484D01*
X13051015Y-16237436D02*
X13060539Y-16246960D01*
X13060539Y-16246960D02*
X13051015Y-16256484D01*
X13051015Y-16256484D02*
X13041491Y-16246960D01*
X13041491Y-16246960D02*
X13051015Y-16237436D01*
X13051015Y-16237436D02*
X13051015Y-16256484D01*
X13184348Y-16056484D02*
X13203396Y-16056484D01*
X13203396Y-16056484D02*
X13222444Y-16066008D01*
X13222444Y-16066008D02*
X13231967Y-16075531D01*
X13231967Y-16075531D02*
X13241491Y-16094579D01*
X13241491Y-16094579D02*
X13251015Y-16132674D01*
X13251015Y-16132674D02*
X13251015Y-16180293D01*
X13251015Y-16180293D02*
X13241491Y-16218388D01*
X13241491Y-16218388D02*
X13231967Y-16237436D01*
X13231967Y-16237436D02*
X13222444Y-16246960D01*
X13222444Y-16246960D02*
X13203396Y-16256484D01*
X13203396Y-16256484D02*
X13184348Y-16256484D01*
X13184348Y-16256484D02*
X13165301Y-16246960D01*
X13165301Y-16246960D02*
X13155777Y-16237436D01*
X13155777Y-16237436D02*
X13146253Y-16218388D01*
X13146253Y-16218388D02*
X13136729Y-16180293D01*
X13136729Y-16180293D02*
X13136729Y-16132674D01*
X13136729Y-16132674D02*
X13146253Y-16094579D01*
X13146253Y-16094579D02*
X13155777Y-16075531D01*
X13155777Y-16075531D02*
X13165301Y-16066008D01*
X13165301Y-16066008D02*
X13184348Y-16056484D01*
X13431967Y-16056484D02*
X13336729Y-16056484D01*
X13336729Y-16056484D02*
X13327206Y-16151722D01*
X13327206Y-16151722D02*
X13336729Y-16142198D01*
X13336729Y-16142198D02*
X13355777Y-16132674D01*
X13355777Y-16132674D02*
X13403396Y-16132674D01*
X13403396Y-16132674D02*
X13422444Y-16142198D01*
X13422444Y-16142198D02*
X13431967Y-16151722D01*
X13431967Y-16151722D02*
X13441491Y-16170769D01*
X13441491Y-16170769D02*
X13441491Y-16218388D01*
X13441491Y-16218388D02*
X13431967Y-16237436D01*
X13431967Y-16237436D02*
X13422444Y-16246960D01*
X13422444Y-16246960D02*
X13403396Y-16256484D01*
X13403396Y-16256484D02*
X13355777Y-16256484D01*
X13355777Y-16256484D02*
X13336729Y-16246960D01*
X13336729Y-16246960D02*
X13327206Y-16237436D01*
X13536729Y-16256484D02*
X13574825Y-16256484D01*
X13574825Y-16256484D02*
X13593872Y-16246960D01*
X13593872Y-16246960D02*
X13603396Y-16237436D01*
X13603396Y-16237436D02*
X13622444Y-16208865D01*
X13622444Y-16208865D02*
X13631967Y-16170769D01*
X13631967Y-16170769D02*
X13631967Y-16094579D01*
X13631967Y-16094579D02*
X13622444Y-16075531D01*
X13622444Y-16075531D02*
X13612920Y-16066008D01*
X13612920Y-16066008D02*
X13593872Y-16056484D01*
X13593872Y-16056484D02*
X13555777Y-16056484D01*
X13555777Y-16056484D02*
X13536729Y-16066008D01*
X13536729Y-16066008D02*
X13527206Y-16075531D01*
X13527206Y-16075531D02*
X13517682Y-16094579D01*
X13517682Y-16094579D02*
X13517682Y-16142198D01*
X13517682Y-16142198D02*
X13527206Y-16161246D01*
X13527206Y-16161246D02*
X13536729Y-16170769D01*
X13536729Y-16170769D02*
X13555777Y-16180293D01*
X13555777Y-16180293D02*
X13593872Y-16180293D01*
X13593872Y-16180293D02*
X13612920Y-16170769D01*
X13612920Y-16170769D02*
X13622444Y-16161246D01*
X13622444Y-16161246D02*
X13631967Y-16142198D01*
X13822444Y-16256484D02*
X13708158Y-16256484D01*
X13765301Y-16256484D02*
X13765301Y-16056484D01*
X13765301Y-16056484D02*
X13746253Y-16085055D01*
X13746253Y-16085055D02*
X13727206Y-16104103D01*
X13727206Y-16104103D02*
X13708158Y-16113627D01*
X13898634Y-16056484D02*
X13898634Y-16094579D01*
X13974825Y-16056484D02*
X13974825Y-16094579D01*
X14270063Y-16332674D02*
X14260539Y-16323150D01*
X14260539Y-16323150D02*
X14241491Y-16294579D01*
X14241491Y-16294579D02*
X14231968Y-16275531D01*
X14231968Y-16275531D02*
X14222444Y-16246960D01*
X14222444Y-16246960D02*
X14212920Y-16199341D01*
X14212920Y-16199341D02*
X14212920Y-16161246D01*
X14212920Y-16161246D02*
X14222444Y-16113627D01*
X14222444Y-16113627D02*
X14231968Y-16085055D01*
X14231968Y-16085055D02*
X14241491Y-16066008D01*
X14241491Y-16066008D02*
X14260539Y-16037436D01*
X14260539Y-16037436D02*
X14270063Y-16027912D01*
X14431968Y-16123150D02*
X14431968Y-16256484D01*
X14384348Y-16046960D02*
X14336729Y-16189817D01*
X14336729Y-16189817D02*
X14460539Y-16189817D01*
X14689110Y-16256484D02*
X14689110Y-16056484D01*
X14774825Y-16256484D02*
X14774825Y-16151722D01*
X14774825Y-16151722D02*
X14765301Y-16132674D01*
X14765301Y-16132674D02*
X14746253Y-16123150D01*
X14746253Y-16123150D02*
X14717682Y-16123150D01*
X14717682Y-16123150D02*
X14698634Y-16132674D01*
X14698634Y-16132674D02*
X14689110Y-16142198D01*
X14898634Y-16256484D02*
X14879587Y-16246960D01*
X14879587Y-16246960D02*
X14870063Y-16237436D01*
X14870063Y-16237436D02*
X14860539Y-16218388D01*
X14860539Y-16218388D02*
X14860539Y-16161246D01*
X14860539Y-16161246D02*
X14870063Y-16142198D01*
X14870063Y-16142198D02*
X14879587Y-16132674D01*
X14879587Y-16132674D02*
X14898634Y-16123150D01*
X14898634Y-16123150D02*
X14927206Y-16123150D01*
X14927206Y-16123150D02*
X14946253Y-16132674D01*
X14946253Y-16132674D02*
X14955777Y-16142198D01*
X14955777Y-16142198D02*
X14965301Y-16161246D01*
X14965301Y-16161246D02*
X14965301Y-16218388D01*
X14965301Y-16218388D02*
X14955777Y-16237436D01*
X14955777Y-16237436D02*
X14946253Y-16246960D01*
X14946253Y-16246960D02*
X14927206Y-16256484D01*
X14927206Y-16256484D02*
X14898634Y-16256484D01*
X15079587Y-16256484D02*
X15060539Y-16246960D01*
X15060539Y-16246960D02*
X15051015Y-16227912D01*
X15051015Y-16227912D02*
X15051015Y-16056484D01*
X15231968Y-16246960D02*
X15212920Y-16256484D01*
X15212920Y-16256484D02*
X15174825Y-16256484D01*
X15174825Y-16256484D02*
X15155777Y-16246960D01*
X15155777Y-16246960D02*
X15146253Y-16227912D01*
X15146253Y-16227912D02*
X15146253Y-16151722D01*
X15146253Y-16151722D02*
X15155777Y-16132674D01*
X15155777Y-16132674D02*
X15174825Y-16123150D01*
X15174825Y-16123150D02*
X15212920Y-16123150D01*
X15212920Y-16123150D02*
X15231968Y-16132674D01*
X15231968Y-16132674D02*
X15241491Y-16151722D01*
X15241491Y-16151722D02*
X15241491Y-16170769D01*
X15241491Y-16170769D02*
X15146253Y-16189817D01*
X15317682Y-16246960D02*
X15336730Y-16256484D01*
X15336730Y-16256484D02*
X15374825Y-16256484D01*
X15374825Y-16256484D02*
X15393872Y-16246960D01*
X15393872Y-16246960D02*
X15403396Y-16227912D01*
X15403396Y-16227912D02*
X15403396Y-16218388D01*
X15403396Y-16218388D02*
X15393872Y-16199341D01*
X15393872Y-16199341D02*
X15374825Y-16189817D01*
X15374825Y-16189817D02*
X15346253Y-16189817D01*
X15346253Y-16189817D02*
X15327206Y-16180293D01*
X15327206Y-16180293D02*
X15317682Y-16161246D01*
X15317682Y-16161246D02*
X15317682Y-16151722D01*
X15317682Y-16151722D02*
X15327206Y-16132674D01*
X15327206Y-16132674D02*
X15346253Y-16123150D01*
X15346253Y-16123150D02*
X15374825Y-16123150D01*
X15374825Y-16123150D02*
X15393872Y-16132674D01*
X15470063Y-16332674D02*
X15479587Y-16323150D01*
X15479587Y-16323150D02*
X15498634Y-16294579D01*
X15498634Y-16294579D02*
X15508158Y-16275531D01*
X15508158Y-16275531D02*
X15517682Y-16246960D01*
X15517682Y-16246960D02*
X15527206Y-16199341D01*
X15527206Y-16199341D02*
X15527206Y-16161246D01*
X15527206Y-16161246D02*
X15517682Y-16113627D01*
X15517682Y-16113627D02*
X15508158Y-16085055D01*
X15508158Y-16085055D02*
X15498634Y-16066008D01*
X15498634Y-16066008D02*
X15479587Y-16037436D01*
X15479587Y-16037436D02*
X15470063Y-16027912D01*
D18*
X10504500Y-16339750D02*
X10695000Y-16530250D01*
X10695000Y-16339750D02*
X10504500Y-16530250D01*
X10599750Y-16339750D02*
X10599750Y-16530250D01*
X10504500Y-16435000D02*
X10695000Y-16435000D01*
D11*
X11060539Y-16526484D02*
X10946253Y-16526484D01*
X11003396Y-16526484D02*
X11003396Y-16326484D01*
X11003396Y-16326484D02*
X10984348Y-16355055D01*
X10984348Y-16355055D02*
X10965301Y-16374103D01*
X10965301Y-16374103D02*
X10946253Y-16383627D01*
X11146253Y-16507436D02*
X11155777Y-16516960D01*
X11155777Y-16516960D02*
X11146253Y-16526484D01*
X11146253Y-16526484D02*
X11136729Y-16516960D01*
X11136729Y-16516960D02*
X11146253Y-16507436D01*
X11146253Y-16507436D02*
X11146253Y-16526484D01*
X11251015Y-16526484D02*
X11289110Y-16526484D01*
X11289110Y-16526484D02*
X11308158Y-16516960D01*
X11308158Y-16516960D02*
X11317682Y-16507436D01*
X11317682Y-16507436D02*
X11336729Y-16478865D01*
X11336729Y-16478865D02*
X11346253Y-16440769D01*
X11346253Y-16440769D02*
X11346253Y-16364579D01*
X11346253Y-16364579D02*
X11336729Y-16345531D01*
X11336729Y-16345531D02*
X11327205Y-16336008D01*
X11327205Y-16336008D02*
X11308158Y-16326484D01*
X11308158Y-16326484D02*
X11270062Y-16326484D01*
X11270062Y-16326484D02*
X11251015Y-16336008D01*
X11251015Y-16336008D02*
X11241491Y-16345531D01*
X11241491Y-16345531D02*
X11231967Y-16364579D01*
X11231967Y-16364579D02*
X11231967Y-16412198D01*
X11231967Y-16412198D02*
X11241491Y-16431246D01*
X11241491Y-16431246D02*
X11251015Y-16440769D01*
X11251015Y-16440769D02*
X11270062Y-16450293D01*
X11270062Y-16450293D02*
X11308158Y-16450293D01*
X11308158Y-16450293D02*
X11327205Y-16440769D01*
X11327205Y-16440769D02*
X11336729Y-16431246D01*
X11336729Y-16431246D02*
X11346253Y-16412198D01*
X11470062Y-16326484D02*
X11489110Y-16326484D01*
X11489110Y-16326484D02*
X11508158Y-16336008D01*
X11508158Y-16336008D02*
X11517682Y-16345531D01*
X11517682Y-16345531D02*
X11527205Y-16364579D01*
X11527205Y-16364579D02*
X11536729Y-16402674D01*
X11536729Y-16402674D02*
X11536729Y-16450293D01*
X11536729Y-16450293D02*
X11527205Y-16488388D01*
X11527205Y-16488388D02*
X11517682Y-16507436D01*
X11517682Y-16507436D02*
X11508158Y-16516960D01*
X11508158Y-16516960D02*
X11489110Y-16526484D01*
X11489110Y-16526484D02*
X11470062Y-16526484D01*
X11470062Y-16526484D02*
X11451015Y-16516960D01*
X11451015Y-16516960D02*
X11441491Y-16507436D01*
X11441491Y-16507436D02*
X11431967Y-16488388D01*
X11431967Y-16488388D02*
X11422443Y-16450293D01*
X11422443Y-16450293D02*
X11422443Y-16402674D01*
X11422443Y-16402674D02*
X11431967Y-16364579D01*
X11431967Y-16364579D02*
X11441491Y-16345531D01*
X11441491Y-16345531D02*
X11451015Y-16336008D01*
X11451015Y-16336008D02*
X11470062Y-16326484D01*
X11717682Y-16326484D02*
X11622443Y-16326484D01*
X11622443Y-16326484D02*
X11612920Y-16421722D01*
X11612920Y-16421722D02*
X11622443Y-16412198D01*
X11622443Y-16412198D02*
X11641491Y-16402674D01*
X11641491Y-16402674D02*
X11689110Y-16402674D01*
X11689110Y-16402674D02*
X11708158Y-16412198D01*
X11708158Y-16412198D02*
X11717682Y-16421722D01*
X11717682Y-16421722D02*
X11727205Y-16440769D01*
X11727205Y-16440769D02*
X11727205Y-16488388D01*
X11727205Y-16488388D02*
X11717682Y-16507436D01*
X11717682Y-16507436D02*
X11708158Y-16516960D01*
X11708158Y-16516960D02*
X11689110Y-16526484D01*
X11689110Y-16526484D02*
X11641491Y-16526484D01*
X11641491Y-16526484D02*
X11622443Y-16516960D01*
X11622443Y-16516960D02*
X11612920Y-16507436D01*
X11812920Y-16526484D02*
X11812920Y-16393150D01*
X11812920Y-16412198D02*
X11822443Y-16402674D01*
X11822443Y-16402674D02*
X11841491Y-16393150D01*
X11841491Y-16393150D02*
X11870063Y-16393150D01*
X11870063Y-16393150D02*
X11889110Y-16402674D01*
X11889110Y-16402674D02*
X11898634Y-16421722D01*
X11898634Y-16421722D02*
X11898634Y-16526484D01*
X11898634Y-16421722D02*
X11908158Y-16402674D01*
X11908158Y-16402674D02*
X11927205Y-16393150D01*
X11927205Y-16393150D02*
X11955777Y-16393150D01*
X11955777Y-16393150D02*
X11974824Y-16402674D01*
X11974824Y-16402674D02*
X11984348Y-16421722D01*
X11984348Y-16421722D02*
X11984348Y-16526484D01*
X12079586Y-16526484D02*
X12079586Y-16393150D01*
X12079586Y-16412198D02*
X12089110Y-16402674D01*
X12089110Y-16402674D02*
X12108158Y-16393150D01*
X12108158Y-16393150D02*
X12136729Y-16393150D01*
X12136729Y-16393150D02*
X12155777Y-16402674D01*
X12155777Y-16402674D02*
X12165301Y-16421722D01*
X12165301Y-16421722D02*
X12165301Y-16526484D01*
X12165301Y-16421722D02*
X12174824Y-16402674D01*
X12174824Y-16402674D02*
X12193872Y-16393150D01*
X12193872Y-16393150D02*
X12222443Y-16393150D01*
X12222443Y-16393150D02*
X12241491Y-16402674D01*
X12241491Y-16402674D02*
X12251015Y-16421722D01*
X12251015Y-16421722D02*
X12251015Y-16526484D01*
X12641491Y-16316960D02*
X12470063Y-16574103D01*
X12898634Y-16326484D02*
X12917682Y-16326484D01*
X12917682Y-16326484D02*
X12936729Y-16336008D01*
X12936729Y-16336008D02*
X12946253Y-16345531D01*
X12946253Y-16345531D02*
X12955777Y-16364579D01*
X12955777Y-16364579D02*
X12965301Y-16402674D01*
X12965301Y-16402674D02*
X12965301Y-16450293D01*
X12965301Y-16450293D02*
X12955777Y-16488388D01*
X12955777Y-16488388D02*
X12946253Y-16507436D01*
X12946253Y-16507436D02*
X12936729Y-16516960D01*
X12936729Y-16516960D02*
X12917682Y-16526484D01*
X12917682Y-16526484D02*
X12898634Y-16526484D01*
X12898634Y-16526484D02*
X12879586Y-16516960D01*
X12879586Y-16516960D02*
X12870063Y-16507436D01*
X12870063Y-16507436D02*
X12860539Y-16488388D01*
X12860539Y-16488388D02*
X12851015Y-16450293D01*
X12851015Y-16450293D02*
X12851015Y-16402674D01*
X12851015Y-16402674D02*
X12860539Y-16364579D01*
X12860539Y-16364579D02*
X12870063Y-16345531D01*
X12870063Y-16345531D02*
X12879586Y-16336008D01*
X12879586Y-16336008D02*
X12898634Y-16326484D01*
X13051015Y-16507436D02*
X13060539Y-16516960D01*
X13060539Y-16516960D02*
X13051015Y-16526484D01*
X13051015Y-16526484D02*
X13041491Y-16516960D01*
X13041491Y-16516960D02*
X13051015Y-16507436D01*
X13051015Y-16507436D02*
X13051015Y-16526484D01*
X13184348Y-16326484D02*
X13203396Y-16326484D01*
X13203396Y-16326484D02*
X13222444Y-16336008D01*
X13222444Y-16336008D02*
X13231967Y-16345531D01*
X13231967Y-16345531D02*
X13241491Y-16364579D01*
X13241491Y-16364579D02*
X13251015Y-16402674D01*
X13251015Y-16402674D02*
X13251015Y-16450293D01*
X13251015Y-16450293D02*
X13241491Y-16488388D01*
X13241491Y-16488388D02*
X13231967Y-16507436D01*
X13231967Y-16507436D02*
X13222444Y-16516960D01*
X13222444Y-16516960D02*
X13203396Y-16526484D01*
X13203396Y-16526484D02*
X13184348Y-16526484D01*
X13184348Y-16526484D02*
X13165301Y-16516960D01*
X13165301Y-16516960D02*
X13155777Y-16507436D01*
X13155777Y-16507436D02*
X13146253Y-16488388D01*
X13146253Y-16488388D02*
X13136729Y-16450293D01*
X13136729Y-16450293D02*
X13136729Y-16402674D01*
X13136729Y-16402674D02*
X13146253Y-16364579D01*
X13146253Y-16364579D02*
X13155777Y-16345531D01*
X13155777Y-16345531D02*
X13165301Y-16336008D01*
X13165301Y-16336008D02*
X13184348Y-16326484D01*
X13317682Y-16326484D02*
X13451015Y-16326484D01*
X13451015Y-16326484D02*
X13365301Y-16526484D01*
X13622444Y-16326484D02*
X13527206Y-16326484D01*
X13527206Y-16326484D02*
X13517682Y-16421722D01*
X13517682Y-16421722D02*
X13527206Y-16412198D01*
X13527206Y-16412198D02*
X13546253Y-16402674D01*
X13546253Y-16402674D02*
X13593872Y-16402674D01*
X13593872Y-16402674D02*
X13612920Y-16412198D01*
X13612920Y-16412198D02*
X13622444Y-16421722D01*
X13622444Y-16421722D02*
X13631967Y-16440769D01*
X13631967Y-16440769D02*
X13631967Y-16488388D01*
X13631967Y-16488388D02*
X13622444Y-16507436D01*
X13622444Y-16507436D02*
X13612920Y-16516960D01*
X13612920Y-16516960D02*
X13593872Y-16526484D01*
X13593872Y-16526484D02*
X13546253Y-16526484D01*
X13546253Y-16526484D02*
X13527206Y-16516960D01*
X13527206Y-16516960D02*
X13517682Y-16507436D01*
X13755777Y-16326484D02*
X13774825Y-16326484D01*
X13774825Y-16326484D02*
X13793872Y-16336008D01*
X13793872Y-16336008D02*
X13803396Y-16345531D01*
X13803396Y-16345531D02*
X13812920Y-16364579D01*
X13812920Y-16364579D02*
X13822444Y-16402674D01*
X13822444Y-16402674D02*
X13822444Y-16450293D01*
X13822444Y-16450293D02*
X13812920Y-16488388D01*
X13812920Y-16488388D02*
X13803396Y-16507436D01*
X13803396Y-16507436D02*
X13793872Y-16516960D01*
X13793872Y-16516960D02*
X13774825Y-16526484D01*
X13774825Y-16526484D02*
X13755777Y-16526484D01*
X13755777Y-16526484D02*
X13736729Y-16516960D01*
X13736729Y-16516960D02*
X13727206Y-16507436D01*
X13727206Y-16507436D02*
X13717682Y-16488388D01*
X13717682Y-16488388D02*
X13708158Y-16450293D01*
X13708158Y-16450293D02*
X13708158Y-16402674D01*
X13708158Y-16402674D02*
X13717682Y-16364579D01*
X13717682Y-16364579D02*
X13727206Y-16345531D01*
X13727206Y-16345531D02*
X13736729Y-16336008D01*
X13736729Y-16336008D02*
X13755777Y-16326484D01*
X13898634Y-16326484D02*
X13898634Y-16364579D01*
X13974825Y-16326484D02*
X13974825Y-16364579D01*
X14270063Y-16602674D02*
X14260539Y-16593150D01*
X14260539Y-16593150D02*
X14241491Y-16564579D01*
X14241491Y-16564579D02*
X14231968Y-16545531D01*
X14231968Y-16545531D02*
X14222444Y-16516960D01*
X14222444Y-16516960D02*
X14212920Y-16469341D01*
X14212920Y-16469341D02*
X14212920Y-16431246D01*
X14212920Y-16431246D02*
X14222444Y-16383627D01*
X14222444Y-16383627D02*
X14231968Y-16355055D01*
X14231968Y-16355055D02*
X14241491Y-16336008D01*
X14241491Y-16336008D02*
X14260539Y-16307436D01*
X14260539Y-16307436D02*
X14270063Y-16297912D01*
X14336729Y-16345531D02*
X14346253Y-16336008D01*
X14346253Y-16336008D02*
X14365301Y-16326484D01*
X14365301Y-16326484D02*
X14412920Y-16326484D01*
X14412920Y-16326484D02*
X14431968Y-16336008D01*
X14431968Y-16336008D02*
X14441491Y-16345531D01*
X14441491Y-16345531D02*
X14451015Y-16364579D01*
X14451015Y-16364579D02*
X14451015Y-16383627D01*
X14451015Y-16383627D02*
X14441491Y-16412198D01*
X14441491Y-16412198D02*
X14327206Y-16526484D01*
X14327206Y-16526484D02*
X14451015Y-16526484D01*
X14689110Y-16526484D02*
X14689110Y-16326484D01*
X14774825Y-16526484D02*
X14774825Y-16421722D01*
X14774825Y-16421722D02*
X14765301Y-16402674D01*
X14765301Y-16402674D02*
X14746253Y-16393150D01*
X14746253Y-16393150D02*
X14717682Y-16393150D01*
X14717682Y-16393150D02*
X14698634Y-16402674D01*
X14698634Y-16402674D02*
X14689110Y-16412198D01*
X14898634Y-16526484D02*
X14879587Y-16516960D01*
X14879587Y-16516960D02*
X14870063Y-16507436D01*
X14870063Y-16507436D02*
X14860539Y-16488388D01*
X14860539Y-16488388D02*
X14860539Y-16431246D01*
X14860539Y-16431246D02*
X14870063Y-16412198D01*
X14870063Y-16412198D02*
X14879587Y-16402674D01*
X14879587Y-16402674D02*
X14898634Y-16393150D01*
X14898634Y-16393150D02*
X14927206Y-16393150D01*
X14927206Y-16393150D02*
X14946253Y-16402674D01*
X14946253Y-16402674D02*
X14955777Y-16412198D01*
X14955777Y-16412198D02*
X14965301Y-16431246D01*
X14965301Y-16431246D02*
X14965301Y-16488388D01*
X14965301Y-16488388D02*
X14955777Y-16507436D01*
X14955777Y-16507436D02*
X14946253Y-16516960D01*
X14946253Y-16516960D02*
X14927206Y-16526484D01*
X14927206Y-16526484D02*
X14898634Y-16526484D01*
X15079587Y-16526484D02*
X15060539Y-16516960D01*
X15060539Y-16516960D02*
X15051015Y-16497912D01*
X15051015Y-16497912D02*
X15051015Y-16326484D01*
X15231968Y-16516960D02*
X15212920Y-16526484D01*
X15212920Y-16526484D02*
X15174825Y-16526484D01*
X15174825Y-16526484D02*
X15155777Y-16516960D01*
X15155777Y-16516960D02*
X15146253Y-16497912D01*
X15146253Y-16497912D02*
X15146253Y-16421722D01*
X15146253Y-16421722D02*
X15155777Y-16402674D01*
X15155777Y-16402674D02*
X15174825Y-16393150D01*
X15174825Y-16393150D02*
X15212920Y-16393150D01*
X15212920Y-16393150D02*
X15231968Y-16402674D01*
X15231968Y-16402674D02*
X15241491Y-16421722D01*
X15241491Y-16421722D02*
X15241491Y-16440769D01*
X15241491Y-16440769D02*
X15146253Y-16459817D01*
X15317682Y-16516960D02*
X15336730Y-16526484D01*
X15336730Y-16526484D02*
X15374825Y-16526484D01*
X15374825Y-16526484D02*
X15393872Y-16516960D01*
X15393872Y-16516960D02*
X15403396Y-16497912D01*
X15403396Y-16497912D02*
X15403396Y-16488388D01*
X15403396Y-16488388D02*
X15393872Y-16469341D01*
X15393872Y-16469341D02*
X15374825Y-16459817D01*
X15374825Y-16459817D02*
X15346253Y-16459817D01*
X15346253Y-16459817D02*
X15327206Y-16450293D01*
X15327206Y-16450293D02*
X15317682Y-16431246D01*
X15317682Y-16431246D02*
X15317682Y-16421722D01*
X15317682Y-16421722D02*
X15327206Y-16402674D01*
X15327206Y-16402674D02*
X15346253Y-16393150D01*
X15346253Y-16393150D02*
X15374825Y-16393150D01*
X15374825Y-16393150D02*
X15393872Y-16402674D01*
X15470063Y-16602674D02*
X15479587Y-16593150D01*
X15479587Y-16593150D02*
X15498634Y-16564579D01*
X15498634Y-16564579D02*
X15508158Y-16545531D01*
X15508158Y-16545531D02*
X15517682Y-16516960D01*
X15517682Y-16516960D02*
X15527206Y-16469341D01*
X15527206Y-16469341D02*
X15527206Y-16431246D01*
X15527206Y-16431246D02*
X15517682Y-16383627D01*
X15517682Y-16383627D02*
X15508158Y-16355055D01*
X15508158Y-16355055D02*
X15498634Y-16336008D01*
X15498634Y-16336008D02*
X15479587Y-16307436D01*
X15479587Y-16307436D02*
X15470063Y-16297912D01*
M02*
