%TF.GenerationSoftware,KiCad,Pcbnew,7.0.7*%
%TF.CreationDate,2024-05-31T20:05:00-04:00*%
%TF.ProjectId,HVHF_IIB,48564846-5f49-4494-922e-6b696361645f,rev?*%
%TF.SameCoordinates,Original*%
%TF.FileFunction,Soldermask,Top*%
%TF.FilePolarity,Negative*%
%FSLAX46Y46*%
G04 Gerber Fmt 4.6, Leading zero omitted, Abs format (unit mm)*
G04 Created by KiCad (PCBNEW 7.0.7) date 2024-05-31 20:05:00*
%MOMM*%
%LPD*%
G01*
G04 APERTURE LIST*
G04 Aperture macros list*
%AMRoundRect*
0 Rectangle with rounded corners*
0 $1 Rounding radius*
0 $2 $3 $4 $5 $6 $7 $8 $9 X,Y pos of 4 corners*
0 Add a 4 corners polygon primitive as box body*
4,1,4,$2,$3,$4,$5,$6,$7,$8,$9,$2,$3,0*
0 Add four circle primitives for the rounded corners*
1,1,$1+$1,$2,$3*
1,1,$1+$1,$4,$5*
1,1,$1+$1,$6,$7*
1,1,$1+$1,$8,$9*
0 Add four rect primitives between the rounded corners*
20,1,$1+$1,$2,$3,$4,$5,0*
20,1,$1+$1,$4,$5,$6,$7,0*
20,1,$1+$1,$6,$7,$8,$9,0*
20,1,$1+$1,$8,$9,$2,$3,0*%
G04 Aperture macros list end*
%ADD10RoundRect,0.250000X-0.475000X0.337500X-0.475000X-0.337500X0.475000X-0.337500X0.475000X0.337500X0*%
%ADD11RoundRect,0.250000X-0.450000X0.350000X-0.450000X-0.350000X0.450000X-0.350000X0.450000X0.350000X0*%
%ADD12O,1.728000X3.252000*%
%ADD13C,1.498600*%
%ADD14C,2.304000*%
%ADD15C,2.454000*%
%ADD16RoundRect,0.250000X0.350000X0.450000X-0.350000X0.450000X-0.350000X-0.450000X0.350000X-0.450000X0*%
%ADD17RoundRect,0.225000X-0.225000X-0.375000X0.225000X-0.375000X0.225000X0.375000X-0.225000X0.375000X0*%
%ADD18RoundRect,0.250000X-0.337500X-0.475000X0.337500X-0.475000X0.337500X0.475000X-0.337500X0.475000X0*%
%ADD19R,0.304800X0.304800*%
%ADD20RoundRect,0.150000X0.587500X0.150000X-0.587500X0.150000X-0.587500X-0.150000X0.587500X-0.150000X0*%
%ADD21RoundRect,0.250000X-0.650000X0.412500X-0.650000X-0.412500X0.650000X-0.412500X0.650000X0.412500X0*%
%ADD22RoundRect,0.250000X0.450000X-0.350000X0.450000X0.350000X-0.450000X0.350000X-0.450000X-0.350000X0*%
%ADD23C,2.250000*%
%ADD24RoundRect,0.250000X-0.362500X-1.425000X0.362500X-1.425000X0.362500X1.425000X-0.362500X1.425000X0*%
%ADD25RoundRect,0.150000X-0.150000X0.512500X-0.150000X-0.512500X0.150000X-0.512500X0.150000X0.512500X0*%
%ADD26RoundRect,0.250000X-0.350000X-0.450000X0.350000X-0.450000X0.350000X0.450000X-0.350000X0.450000X0*%
%ADD27R,1.524000X1.524000*%
%ADD28C,1.524000*%
%ADD29C,1.320800*%
%ADD30R,1.320800X1.320800*%
%ADD31RoundRect,0.250000X0.362500X1.425000X-0.362500X1.425000X-0.362500X-1.425000X0.362500X-1.425000X0*%
%ADD32R,1.500000X2.000000*%
%ADD33R,3.800000X2.000000*%
%ADD34R,0.800000X0.600000*%
%ADD35R,0.800000X0.900000*%
%ADD36C,2.413000*%
G04 APERTURE END LIST*
D10*
%TO.C,C11*%
X157000000Y-126462500D03*
X157000000Y-128537500D03*
%TD*%
D11*
%TO.C,R15*%
X166000000Y-119970000D03*
X166000000Y-121970000D03*
%TD*%
D12*
%TO.C,T5*%
X186286000Y-88730000D03*
X184000000Y-88730000D03*
X181714000Y-88730000D03*
%TD*%
D13*
%TO.C,J2*%
X114620600Y-108608400D03*
X114620600Y-112108401D03*
%TD*%
D14*
%TO.C,J4*%
X218840000Y-111000000D03*
D15*
X216290000Y-113550000D03*
X221390000Y-113550000D03*
X216290000Y-108450000D03*
X221390000Y-108450000D03*
%TD*%
D12*
%TO.C,T2*%
X168286000Y-103730000D03*
X166000000Y-103730000D03*
X163714000Y-103730000D03*
%TD*%
%TO.C,T6*%
X186286000Y-103730000D03*
X184000000Y-103730000D03*
X181714000Y-103730000D03*
%TD*%
%TO.C,T7*%
X186286000Y-118730000D03*
X184000000Y-118730000D03*
X181714000Y-118730000D03*
%TD*%
D16*
%TO.C,R22*%
X213000000Y-134625000D03*
X211000000Y-134625000D03*
%TD*%
D12*
%TO.C,T4*%
X203286000Y-88730000D03*
X201000000Y-88730000D03*
X198714000Y-88730000D03*
%TD*%
D17*
%TO.C,D2*%
X130300000Y-125805000D03*
X133600000Y-125805000D03*
%TD*%
D12*
%TO.C,T9*%
X186286000Y-133730000D03*
X184000000Y-133730000D03*
X181714000Y-133730000D03*
%TD*%
D18*
%TO.C,C2*%
X130950000Y-121805000D03*
X133025000Y-121805000D03*
%TD*%
D11*
%TO.C,R31*%
X161500000Y-109037500D03*
X161500000Y-111037500D03*
%TD*%
%TO.C,R1*%
X139000000Y-119000000D03*
X139000000Y-121000000D03*
%TD*%
D19*
%TO.C,D1*%
X158800100Y-109000000D03*
X157199900Y-109000000D03*
%TD*%
D10*
%TO.C,C1*%
X145000000Y-128925000D03*
X145000000Y-131000000D03*
%TD*%
D11*
%TO.C,R14*%
X138000000Y-99000000D03*
X138000000Y-101000000D03*
%TD*%
D12*
%TO.C,T12*%
X203286000Y-133730000D03*
X201000000Y-133730000D03*
X198714000Y-133730000D03*
%TD*%
D20*
%TO.C,T8*%
X163437500Y-121870000D03*
X163437500Y-119970000D03*
X161562500Y-120920000D03*
%TD*%
D16*
%TO.C,R18*%
X193000000Y-124000000D03*
X191000000Y-124000000D03*
%TD*%
D21*
%TO.C,C7*%
X134000000Y-98875000D03*
X134000000Y-102000000D03*
%TD*%
D22*
%TO.C,R13*%
X154500000Y-114500000D03*
X154500000Y-112500000D03*
%TD*%
D23*
%TO.C,C4*%
X140040000Y-131960000D03*
X134960000Y-131960000D03*
X137500000Y-139580000D03*
%TD*%
D11*
%TO.C,R8*%
X147000000Y-124080000D03*
X147000000Y-126080000D03*
%TD*%
D24*
%TO.C,R10*%
X142575000Y-110500000D03*
X148500000Y-110500000D03*
%TD*%
D12*
%TO.C,T11*%
X203286000Y-118730000D03*
X201000000Y-118730000D03*
X198714000Y-118730000D03*
%TD*%
D16*
%TO.C,R12*%
X213000000Y-89000000D03*
X211000000Y-89000000D03*
%TD*%
D25*
%TO.C,Q1*%
X138950000Y-123725000D03*
X137050000Y-123725000D03*
X138000000Y-126000000D03*
%TD*%
D22*
%TO.C,R5*%
X141000000Y-125500000D03*
X141000000Y-123500000D03*
%TD*%
D23*
%TO.C,R11*%
X113000000Y-87000000D03*
X173000000Y-87000000D03*
%TD*%
D26*
%TO.C,R19*%
X191000000Y-139000000D03*
X193000000Y-139000000D03*
%TD*%
%TO.C,R17*%
X191000000Y-109000000D03*
X193000000Y-109000000D03*
%TD*%
D22*
%TO.C,R30*%
X149500000Y-121000000D03*
X149500000Y-119000000D03*
%TD*%
D16*
%TO.C,R21*%
X213000000Y-119000000D03*
X211000000Y-119000000D03*
%TD*%
D26*
%TO.C,R3*%
X191000000Y-94000000D03*
X193000000Y-94000000D03*
%TD*%
D10*
%TO.C,C3*%
X152000000Y-126425000D03*
X152000000Y-128500000D03*
%TD*%
D11*
%TO.C,R2*%
X137000000Y-119000000D03*
X137000000Y-121000000D03*
%TD*%
%TO.C,R4*%
X126950000Y-123805000D03*
X126950000Y-125805000D03*
%TD*%
D10*
%TO.C,C10*%
X164500000Y-109000000D03*
X164500000Y-111075000D03*
%TD*%
D27*
%TO.C,C6*%
X130000000Y-69000000D03*
D28*
X130000000Y-74003800D03*
%TD*%
D29*
%TO.C,R16*%
X166000000Y-126920000D03*
X166000000Y-129460000D03*
D30*
X166000000Y-132000000D03*
%TD*%
D31*
%TO.C,R9*%
X148462500Y-115000000D03*
X142537500Y-115000000D03*
%TD*%
D21*
%TO.C,C5*%
X125000000Y-108437500D03*
X125000000Y-111562500D03*
%TD*%
D12*
%TO.C,T10*%
X203286000Y-103730000D03*
X201000000Y-103730000D03*
X198714000Y-103730000D03*
%TD*%
D32*
%TO.C,T1*%
X152200000Y-123650000D03*
X154500000Y-123650000D03*
X156800000Y-123650000D03*
D33*
X154500000Y-117350000D03*
%TD*%
D22*
%TO.C,R6*%
X141500000Y-121000000D03*
X141500000Y-119000000D03*
%TD*%
D34*
%TO.C,Q2*%
X146800000Y-120575000D03*
D35*
X146800000Y-119425000D03*
D34*
X145200000Y-119275000D03*
X145200000Y-120575000D03*
%TD*%
D13*
%TO.C,J1*%
X114000000Y-70499999D03*
X114000000Y-74000000D03*
%TD*%
D28*
%TO.C,J3*%
X122000000Y-124000000D03*
X122000000Y-126540000D03*
D36*
X116919891Y-129080000D03*
X116919891Y-118920000D03*
%TD*%
D11*
%TO.C,R7*%
X144000000Y-124000000D03*
X144000000Y-126000000D03*
%TD*%
D16*
%TO.C,R20*%
X213000000Y-104000000D03*
X211000000Y-104000000D03*
%TD*%
D12*
%TO.C,T3*%
X151286000Y-103730000D03*
X149000000Y-103730000D03*
X146714000Y-103730000D03*
%TD*%
M02*
