%TF.GenerationSoftware,KiCad,Pcbnew,7.0.7*%
%TF.CreationDate,2024-05-31T20:05:00-04:00*%
%TF.ProjectId,HVHF_IIB,48564846-5f49-4494-922e-6b696361645f,rev?*%
%TF.SameCoordinates,Original*%
%TF.FileFunction,Copper,L4,Bot*%
%TF.FilePolarity,Positive*%
%FSLAX46Y46*%
G04 Gerber Fmt 4.6, Leading zero omitted, Abs format (unit mm)*
G04 Created by KiCad (PCBNEW 7.0.7) date 2024-05-31 20:05:00*
%MOMM*%
%LPD*%
G01*
G04 APERTURE LIST*
%TA.AperFunction,ComponentPad*%
%ADD10O,1.524000X3.048000*%
%TD*%
%TA.AperFunction,ComponentPad*%
%ADD11C,1.498600*%
%TD*%
%TA.AperFunction,ComponentPad*%
%ADD12C,2.100000*%
%TD*%
%TA.AperFunction,ComponentPad*%
%ADD13C,2.250000*%
%TD*%
%TA.AperFunction,ComponentPad*%
%ADD14R,1.524000X1.524000*%
%TD*%
%TA.AperFunction,ComponentPad*%
%ADD15C,1.524000*%
%TD*%
%TA.AperFunction,ComponentPad*%
%ADD16C,1.320800*%
%TD*%
%TA.AperFunction,ComponentPad*%
%ADD17R,1.320800X1.320800*%
%TD*%
%TA.AperFunction,ComponentPad*%
%ADD18C,2.413000*%
%TD*%
G04 APERTURE END LIST*
D10*
%TO.P,T5,1,E*%
%TO.N,Net-(T4-C)*%
X186286000Y-88730000D03*
%TO.P,T5,2,C*%
%TO.N,+VDC*%
X184000000Y-88730000D03*
%TO.P,T5,3,B*%
%TO.N,Net-(T4-B)*%
X181714000Y-88730000D03*
%TD*%
D11*
%TO.P,J2,1,1*%
%TO.N,+5V*%
X114620600Y-108608400D03*
%TO.P,J2,2,2*%
%TO.N,GND*%
X114620600Y-112108401D03*
%TD*%
D12*
%TO.P,J4,1*%
%TO.N,output*%
X218840000Y-111000000D03*
D13*
%TO.P,J4,S1*%
%TO.N,GND*%
X216290000Y-113550000D03*
X221390000Y-113550000D03*
X216290000Y-108450000D03*
X221390000Y-108450000D03*
%TD*%
D10*
%TO.P,T2,1,E*%
%TO.N,Net-(T1-C)*%
X168286000Y-103730000D03*
%TO.P,T2,2,C*%
%TO.N,Net-(D1-K)*%
X166000000Y-103730000D03*
%TO.P,T2,3,B*%
%TO.N,Net-(T2-B)*%
X163714000Y-103730000D03*
%TD*%
%TO.P,T6,1,E*%
%TO.N,Net-(T10-C)*%
X186286000Y-103730000D03*
%TO.P,T6,2,C*%
%TO.N,Net-(T6-C)*%
X184000000Y-103730000D03*
%TO.P,T6,3,B*%
%TO.N,Net-(T10-B)*%
X181714000Y-103730000D03*
%TD*%
%TO.P,T7,1,E*%
%TO.N,Net-(T11-C)*%
X186286000Y-118730000D03*
%TO.P,T7,2,C*%
%TO.N,Net-(T6-C)*%
X184000000Y-118730000D03*
%TO.P,T7,3,B*%
%TO.N,Net-(T11-B)*%
X181714000Y-118730000D03*
%TD*%
%TO.P,T4,1,E*%
%TO.N,GND*%
X203286000Y-88730000D03*
%TO.P,T4,2,C*%
%TO.N,Net-(T4-C)*%
X201000000Y-88730000D03*
%TO.P,T4,3,B*%
%TO.N,Net-(T4-B)*%
X198714000Y-88730000D03*
%TD*%
%TO.P,T9,1,E*%
%TO.N,Net-(T12-C)*%
X186286000Y-133730000D03*
%TO.P,T9,2,C*%
%TO.N,Net-(T6-C)*%
X184000000Y-133730000D03*
%TO.P,T9,3,B*%
%TO.N,Net-(T12-B)*%
X181714000Y-133730000D03*
%TD*%
%TO.P,T12,1,E*%
%TO.N,GND*%
X203286000Y-133730000D03*
%TO.P,T12,2,C*%
%TO.N,Net-(T12-C)*%
X201000000Y-133730000D03*
%TO.P,T12,3,B*%
%TO.N,Net-(T12-B)*%
X198714000Y-133730000D03*
%TD*%
D13*
%TO.P,C4,1*%
%TO.N,Net-(Q2-E)*%
X140040000Y-131960000D03*
X134960000Y-131960000D03*
%TO.P,C4,2*%
%TO.N,GND*%
X137500000Y-139580000D03*
%TD*%
D10*
%TO.P,T11,1,E*%
%TO.N,GND*%
X203286000Y-118730000D03*
%TO.P,T11,2,C*%
%TO.N,Net-(T11-C)*%
X201000000Y-118730000D03*
%TO.P,T11,3,B*%
%TO.N,Net-(T11-B)*%
X198714000Y-118730000D03*
%TD*%
D13*
%TO.P,R11,1*%
%TO.N,+VDC*%
X113000000Y-87000000D03*
%TO.P,R11,2*%
%TO.N,/FB1*%
X173000000Y-87000000D03*
%TD*%
D14*
%TO.P,C6,1*%
%TO.N,+VDC*%
X130000000Y-69000000D03*
D15*
%TO.P,C6,2*%
%TO.N,GND*%
X130000000Y-74003800D03*
%TD*%
D16*
%TO.P,R16,1,1*%
%TO.N,Net-(R15-Pad2)*%
X166000000Y-126920000D03*
%TO.P,R16,2,2*%
%TO.N,Net-(T8-B)*%
X166000000Y-129460000D03*
D17*
%TO.P,R16,3,3*%
%TO.N,GND*%
X166000000Y-132000000D03*
%TD*%
D10*
%TO.P,T10,1,E*%
%TO.N,GND*%
X203286000Y-103730000D03*
%TO.P,T10,2,C*%
%TO.N,Net-(T10-C)*%
X201000000Y-103730000D03*
%TO.P,T10,3,B*%
%TO.N,Net-(T10-B)*%
X198714000Y-103730000D03*
%TD*%
D11*
%TO.P,J1,1,1*%
%TO.N,+VDC*%
X114000000Y-70499999D03*
%TO.P,J1,2,2*%
%TO.N,GND*%
X114000000Y-74000000D03*
%TD*%
D15*
%TO.P,J3,1,1*%
%TO.N,input*%
X122000000Y-124000000D03*
%TO.P,J3,2,2*%
%TO.N,GND*%
X122000000Y-126540000D03*
D18*
%TO.P,J3,3*%
%TO.N,N/C*%
X116919891Y-129080000D03*
%TO.P,J3,4*%
X116919891Y-118920000D03*
%TD*%
D10*
%TO.P,T3,1,E*%
%TO.N,/FB1*%
X151286000Y-103730000D03*
%TO.P,T3,2,C*%
%TO.N,Net-(T3-C)*%
X149000000Y-103730000D03*
%TO.P,T3,3,B*%
%TO.N,/FB1*%
X146714000Y-103730000D03*
%TD*%
%TA.AperFunction,Conductor*%
%TO.N,+5V*%
G36*
X138943039Y-97019685D02*
G01*
X138988794Y-97072489D01*
X139000000Y-97124000D01*
X139000000Y-130653405D01*
X138980315Y-130720444D01*
X138956532Y-130747695D01*
X138887044Y-130807044D01*
X138720878Y-131001598D01*
X138720875Y-131001603D01*
X138587190Y-131219757D01*
X138587188Y-131219760D01*
X138489279Y-131456135D01*
X138429547Y-131704935D01*
X138409474Y-131960000D01*
X138429547Y-132215064D01*
X138489279Y-132463864D01*
X138587188Y-132700239D01*
X138587190Y-132700242D01*
X138720875Y-132918396D01*
X138720878Y-132918401D01*
X138803960Y-133015677D01*
X138887044Y-133112956D01*
X138956533Y-133172305D01*
X138994724Y-133230809D01*
X139000000Y-133266593D01*
X139000000Y-138497263D01*
X138980315Y-138564302D01*
X138927511Y-138610057D01*
X138858353Y-138620001D01*
X138794797Y-138590976D01*
X138781710Y-138577795D01*
X138725539Y-138512028D01*
X138652956Y-138427044D01*
X138546591Y-138336200D01*
X138458401Y-138260878D01*
X138458396Y-138260875D01*
X138240242Y-138127190D01*
X138240239Y-138127188D01*
X138003864Y-138029279D01*
X138003860Y-138029278D01*
X137755070Y-137969548D01*
X137755067Y-137969547D01*
X137755064Y-137969547D01*
X137500000Y-137949474D01*
X137244935Y-137969547D01*
X137244931Y-137969547D01*
X137244930Y-137969548D01*
X137120535Y-137999413D01*
X136996135Y-138029279D01*
X136759760Y-138127188D01*
X136759757Y-138127190D01*
X136541603Y-138260875D01*
X136541598Y-138260878D01*
X136347044Y-138427044D01*
X136180878Y-138621598D01*
X136180875Y-138621603D01*
X136047190Y-138839757D01*
X136047188Y-138839760D01*
X135949279Y-139076135D01*
X135889547Y-139324935D01*
X135869474Y-139580000D01*
X135889547Y-139835064D01*
X135949279Y-140083864D01*
X136047188Y-140320239D01*
X136047190Y-140320242D01*
X136180875Y-140538396D01*
X136180878Y-140538401D01*
X136217147Y-140580866D01*
X136347044Y-140732956D01*
X136471579Y-140839319D01*
X136541598Y-140899121D01*
X136541603Y-140899124D01*
X136759757Y-141032809D01*
X136759760Y-141032811D01*
X136996135Y-141130720D01*
X136996140Y-141130722D01*
X137244930Y-141190452D01*
X137500000Y-141210526D01*
X137755070Y-141190452D01*
X138003860Y-141130722D01*
X138122051Y-141081765D01*
X138240239Y-141032811D01*
X138240240Y-141032810D01*
X138240243Y-141032809D01*
X138458399Y-140899123D01*
X138652956Y-140732956D01*
X138781710Y-140582203D01*
X138840217Y-140544011D01*
X138910085Y-140543512D01*
X138969131Y-140580866D01*
X138998609Y-140644213D01*
X139000000Y-140662736D01*
X139000000Y-141875500D01*
X138980315Y-141942539D01*
X138927511Y-141988294D01*
X138876000Y-141999500D01*
X107124500Y-141999500D01*
X107057461Y-141979815D01*
X107011706Y-141927011D01*
X107000500Y-141875500D01*
X107000500Y-134500000D01*
X137499458Y-134500000D01*
X137499617Y-134500383D01*
X137500000Y-134500542D01*
X137500383Y-134500383D01*
X137500542Y-134500000D01*
X137500383Y-134499617D01*
X137500000Y-134499458D01*
X137499617Y-134499617D01*
X137499458Y-134500000D01*
X107000500Y-134500000D01*
X107000500Y-131960000D01*
X133329474Y-131960000D01*
X133349547Y-132215064D01*
X133409279Y-132463864D01*
X133507188Y-132700239D01*
X133507190Y-132700242D01*
X133640875Y-132918396D01*
X133640878Y-132918401D01*
X133716200Y-133006591D01*
X133807044Y-133112956D01*
X133886580Y-133180886D01*
X134001598Y-133279121D01*
X134001603Y-133279124D01*
X134219757Y-133412809D01*
X134219760Y-133412811D01*
X134456135Y-133510720D01*
X134456140Y-133510722D01*
X134704930Y-133570452D01*
X134960000Y-133590526D01*
X135215070Y-133570452D01*
X135463860Y-133510722D01*
X135582051Y-133461765D01*
X135700239Y-133412811D01*
X135700240Y-133412810D01*
X135700243Y-133412809D01*
X135918399Y-133279123D01*
X135977001Y-133229072D01*
X136229072Y-133229072D01*
X136229616Y-133230382D01*
X136229617Y-133230383D01*
X136230000Y-133230542D01*
X136230383Y-133230383D01*
X136230542Y-133230000D01*
X136230383Y-133229617D01*
X136230382Y-133229616D01*
X136229072Y-133229072D01*
X135977001Y-133229072D01*
X136033421Y-133180885D01*
X136097180Y-133152315D01*
X136166001Y-133162711D01*
X136151251Y-133118277D01*
X136168585Y-133050591D01*
X136180881Y-133033425D01*
X136279123Y-132918399D01*
X136412809Y-132700243D01*
X136510722Y-132463860D01*
X136570452Y-132215070D01*
X136590526Y-131960000D01*
X136570452Y-131704930D01*
X136510722Y-131456140D01*
X136510720Y-131456135D01*
X136412811Y-131219760D01*
X136412809Y-131219757D01*
X136279124Y-131001603D01*
X136279121Y-131001598D01*
X136219319Y-130931579D01*
X136112956Y-130807044D01*
X135956547Y-130673458D01*
X135918401Y-130640878D01*
X135918396Y-130640875D01*
X135700242Y-130507190D01*
X135700239Y-130507188D01*
X135463864Y-130409279D01*
X135463860Y-130409278D01*
X135215070Y-130349548D01*
X135215067Y-130349547D01*
X135215064Y-130349547D01*
X134960000Y-130329474D01*
X134704935Y-130349547D01*
X134704931Y-130349547D01*
X134704930Y-130349548D01*
X134580534Y-130379412D01*
X134456135Y-130409279D01*
X134219760Y-130507188D01*
X134219757Y-130507190D01*
X134001603Y-130640875D01*
X134001598Y-130640878D01*
X133807044Y-130807044D01*
X133640878Y-131001598D01*
X133640875Y-131001603D01*
X133507190Y-131219757D01*
X133507188Y-131219760D01*
X133409279Y-131456135D01*
X133349547Y-131704935D01*
X133329474Y-131960000D01*
X107000500Y-131960000D01*
X107000500Y-129080004D01*
X115208104Y-129080004D01*
X115227221Y-129335119D01*
X115227222Y-129335124D01*
X115284150Y-129584544D01*
X115284152Y-129584553D01*
X115284154Y-129584558D01*
X115377624Y-129822717D01*
X115505546Y-130044284D01*
X115634386Y-130205844D01*
X115665065Y-130244315D01*
X115756846Y-130329474D01*
X115852609Y-130418329D01*
X116063998Y-130562451D01*
X116294505Y-130673458D01*
X116538983Y-130748869D01*
X116538984Y-130748869D01*
X116538987Y-130748870D01*
X116791961Y-130786999D01*
X116791966Y-130786999D01*
X116791969Y-130787000D01*
X116791970Y-130787000D01*
X117047812Y-130787000D01*
X117047813Y-130787000D01*
X117047820Y-130786999D01*
X117300794Y-130748870D01*
X117300795Y-130748869D01*
X117300799Y-130748869D01*
X117545277Y-130673458D01*
X117775785Y-130562451D01*
X117987173Y-130418329D01*
X118174720Y-130244311D01*
X118334236Y-130044284D01*
X118462158Y-129822717D01*
X118555628Y-129584558D01*
X118612559Y-129335129D01*
X118631678Y-129080000D01*
X118612559Y-128824871D01*
X118555628Y-128575442D01*
X118462158Y-128337283D01*
X118334236Y-128115716D01*
X118174720Y-127915689D01*
X118174719Y-127915688D01*
X118174716Y-127915684D01*
X117987173Y-127741671D01*
X117987170Y-127741669D01*
X117775785Y-127597549D01*
X117775781Y-127597547D01*
X117775778Y-127597545D01*
X117775776Y-127597544D01*
X117545279Y-127486543D01*
X117545281Y-127486543D01*
X117300800Y-127411131D01*
X117300794Y-127411129D01*
X117047820Y-127373000D01*
X117047813Y-127373000D01*
X116791969Y-127373000D01*
X116791961Y-127373000D01*
X116538987Y-127411129D01*
X116538981Y-127411131D01*
X116294504Y-127486542D01*
X116064001Y-127597547D01*
X116063997Y-127597549D01*
X115852611Y-127741669D01*
X115665065Y-127915684D01*
X115505546Y-128115716D01*
X115377624Y-128337282D01*
X115284156Y-128575436D01*
X115284150Y-128575455D01*
X115227222Y-128824875D01*
X115227221Y-128824880D01*
X115208104Y-129079995D01*
X115208104Y-129080004D01*
X107000500Y-129080004D01*
X107000500Y-126540002D01*
X120732677Y-126540002D01*
X120751929Y-126760062D01*
X120751930Y-126760070D01*
X120809104Y-126973445D01*
X120809105Y-126973447D01*
X120809106Y-126973450D01*
X120902466Y-127173662D01*
X120902468Y-127173666D01*
X121029170Y-127354615D01*
X121029175Y-127354621D01*
X121185378Y-127510824D01*
X121185384Y-127510829D01*
X121366333Y-127637531D01*
X121366335Y-127637532D01*
X121366338Y-127637534D01*
X121566550Y-127730894D01*
X121779932Y-127788070D01*
X121937123Y-127801822D01*
X121999998Y-127807323D01*
X122000000Y-127807323D01*
X122000002Y-127807323D01*
X122055017Y-127802509D01*
X122220068Y-127788070D01*
X122433450Y-127730894D01*
X122633662Y-127637534D01*
X122814620Y-127510826D01*
X122970826Y-127354620D01*
X123097534Y-127173662D01*
X123190894Y-126973450D01*
X123248070Y-126760068D01*
X123267323Y-126540000D01*
X123248070Y-126319932D01*
X123190894Y-126106550D01*
X123097534Y-125906339D01*
X122970826Y-125725380D01*
X122814620Y-125569174D01*
X122814616Y-125569171D01*
X122814615Y-125569170D01*
X122633666Y-125442468D01*
X122633658Y-125442464D01*
X122504811Y-125382382D01*
X122452371Y-125336210D01*
X122433219Y-125269017D01*
X122453435Y-125202135D01*
X122504811Y-125157618D01*
X122510802Y-125154824D01*
X122633662Y-125097534D01*
X122814620Y-124970826D01*
X122970826Y-124814620D01*
X123097534Y-124633662D01*
X123190894Y-124433450D01*
X123248070Y-124220068D01*
X123267323Y-124000000D01*
X123248070Y-123779932D01*
X123190894Y-123566550D01*
X123097534Y-123366339D01*
X122970826Y-123185380D01*
X122814620Y-123029174D01*
X122814616Y-123029171D01*
X122814615Y-123029170D01*
X122633666Y-122902468D01*
X122633662Y-122902466D01*
X122633660Y-122902465D01*
X122433450Y-122809106D01*
X122433447Y-122809105D01*
X122433445Y-122809104D01*
X122220070Y-122751930D01*
X122220062Y-122751929D01*
X122000002Y-122732677D01*
X121999998Y-122732677D01*
X121779937Y-122751929D01*
X121779929Y-122751930D01*
X121566554Y-122809104D01*
X121566548Y-122809107D01*
X121366340Y-122902465D01*
X121366338Y-122902466D01*
X121185377Y-123029175D01*
X121029175Y-123185377D01*
X120902466Y-123366338D01*
X120902465Y-123366340D01*
X120809107Y-123566548D01*
X120809104Y-123566554D01*
X120751930Y-123779929D01*
X120751929Y-123779937D01*
X120732677Y-123999997D01*
X120732677Y-124000002D01*
X120751929Y-124220062D01*
X120751930Y-124220070D01*
X120809104Y-124433445D01*
X120809105Y-124433447D01*
X120809106Y-124433450D01*
X120902466Y-124633661D01*
X120902466Y-124633662D01*
X120902468Y-124633666D01*
X121029170Y-124814615D01*
X121029175Y-124814621D01*
X121185378Y-124970824D01*
X121185384Y-124970829D01*
X121366333Y-125097531D01*
X121366335Y-125097532D01*
X121366338Y-125097534D01*
X121485748Y-125153215D01*
X121495189Y-125157618D01*
X121547628Y-125203790D01*
X121566780Y-125270984D01*
X121546564Y-125337865D01*
X121495189Y-125382382D01*
X121366340Y-125442465D01*
X121366338Y-125442466D01*
X121185377Y-125569175D01*
X121029175Y-125725377D01*
X120902466Y-125906338D01*
X120902465Y-125906340D01*
X120809107Y-126106548D01*
X120809104Y-126106554D01*
X120751930Y-126319929D01*
X120751929Y-126319937D01*
X120732677Y-126539997D01*
X120732677Y-126540002D01*
X107000500Y-126540002D01*
X107000500Y-118920004D01*
X115208104Y-118920004D01*
X115227221Y-119175119D01*
X115227222Y-119175124D01*
X115284150Y-119424544D01*
X115284152Y-119424553D01*
X115284154Y-119424558D01*
X115377624Y-119662717D01*
X115505546Y-119884284D01*
X115634386Y-120045844D01*
X115665065Y-120084315D01*
X115775160Y-120186467D01*
X115852609Y-120258329D01*
X116063998Y-120402451D01*
X116294505Y-120513458D01*
X116538983Y-120588869D01*
X116538984Y-120588869D01*
X116538987Y-120588870D01*
X116791961Y-120626999D01*
X116791966Y-120626999D01*
X116791969Y-120627000D01*
X116791970Y-120627000D01*
X117047812Y-120627000D01*
X117047813Y-120627000D01*
X117047820Y-120626999D01*
X117300794Y-120588870D01*
X117300795Y-120588869D01*
X117300799Y-120588869D01*
X117545277Y-120513458D01*
X117775785Y-120402451D01*
X117987173Y-120258329D01*
X118174720Y-120084311D01*
X118334236Y-119884284D01*
X118462158Y-119662717D01*
X118555628Y-119424558D01*
X118612559Y-119175129D01*
X118631678Y-118920000D01*
X118612559Y-118664871D01*
X118555628Y-118415442D01*
X118462158Y-118177283D01*
X118334236Y-117955716D01*
X118174720Y-117755689D01*
X118174719Y-117755688D01*
X118174716Y-117755684D01*
X117987173Y-117581671D01*
X117987170Y-117581669D01*
X117775785Y-117437549D01*
X117775781Y-117437547D01*
X117775778Y-117437545D01*
X117775776Y-117437544D01*
X117545279Y-117326543D01*
X117545281Y-117326543D01*
X117300800Y-117251131D01*
X117300794Y-117251129D01*
X117047820Y-117213000D01*
X117047813Y-117213000D01*
X116791969Y-117213000D01*
X116791961Y-117213000D01*
X116538987Y-117251129D01*
X116538981Y-117251131D01*
X116294504Y-117326542D01*
X116064001Y-117437547D01*
X116063997Y-117437549D01*
X115852611Y-117581669D01*
X115665065Y-117755684D01*
X115505546Y-117955716D01*
X115377624Y-118177282D01*
X115284156Y-118415436D01*
X115284150Y-118415455D01*
X115227222Y-118664875D01*
X115227221Y-118664880D01*
X115208104Y-118919995D01*
X115208104Y-118920004D01*
X107000500Y-118920004D01*
X107000500Y-112108401D01*
X113366026Y-112108401D01*
X113385085Y-112326250D01*
X113385087Y-112326260D01*
X113441683Y-112537483D01*
X113441685Y-112537487D01*
X113441686Y-112537491D01*
X113487896Y-112636589D01*
X113534106Y-112735687D01*
X113534107Y-112735688D01*
X113659541Y-112914826D01*
X113814175Y-113069460D01*
X113993313Y-113194894D01*
X114191510Y-113287315D01*
X114402746Y-113343915D01*
X114577029Y-113359163D01*
X114620599Y-113362975D01*
X114620600Y-113362975D01*
X114620601Y-113362975D01*
X114656909Y-113359798D01*
X114838454Y-113343915D01*
X115049690Y-113287315D01*
X115247887Y-113194894D01*
X115427025Y-113069460D01*
X115581659Y-112914826D01*
X115707093Y-112735688D01*
X115799514Y-112537491D01*
X115856114Y-112326255D01*
X115875174Y-112108401D01*
X115856114Y-111890547D01*
X115799514Y-111679311D01*
X115707093Y-111481114D01*
X115581659Y-111301976D01*
X115427025Y-111147342D01*
X115247887Y-111021908D01*
X115247888Y-111021908D01*
X115247886Y-111021907D01*
X115148788Y-110975697D01*
X115049690Y-110929487D01*
X115049686Y-110929486D01*
X115049682Y-110929484D01*
X114838459Y-110872888D01*
X114838449Y-110872886D01*
X114620601Y-110853827D01*
X114620599Y-110853827D01*
X114402750Y-110872886D01*
X114402740Y-110872888D01*
X114191517Y-110929484D01*
X114191508Y-110929488D01*
X113993313Y-111021907D01*
X113873801Y-111105591D01*
X113814175Y-111147342D01*
X113814173Y-111147343D01*
X113814170Y-111147346D01*
X113659545Y-111301971D01*
X113534106Y-111481114D01*
X113441687Y-111679309D01*
X113441683Y-111679318D01*
X113385087Y-111890541D01*
X113385085Y-111890551D01*
X113366026Y-112108400D01*
X113366026Y-112108401D01*
X107000500Y-112108401D01*
X107000500Y-108608401D01*
X113366528Y-108608401D01*
X113385579Y-108826161D01*
X113385581Y-108826171D01*
X113442155Y-109037310D01*
X113442159Y-109037319D01*
X113534544Y-109235439D01*
X113577976Y-109297468D01*
X113577977Y-109297469D01*
X114015051Y-108860394D01*
X114076374Y-108826909D01*
X114146065Y-108831893D01*
X114201999Y-108873764D01*
X114207047Y-108881035D01*
X114242426Y-108936085D01*
X114242428Y-108936088D01*
X114350067Y-109029357D01*
X114356770Y-109035165D01*
X114354650Y-109037610D01*
X114390026Y-109078428D01*
X114399977Y-109147585D01*
X114370958Y-109211144D01*
X114364918Y-109217632D01*
X113931529Y-109651020D01*
X113931530Y-109651022D01*
X113993560Y-109694455D01*
X114191680Y-109786840D01*
X114191689Y-109786844D01*
X114402828Y-109843418D01*
X114402838Y-109843420D01*
X114620598Y-109862472D01*
X114620602Y-109862472D01*
X114838361Y-109843420D01*
X114838371Y-109843418D01*
X115049510Y-109786844D01*
X115049519Y-109786840D01*
X115247635Y-109694457D01*
X115309669Y-109651021D01*
X114876280Y-109217633D01*
X114842795Y-109156310D01*
X114847779Y-109086619D01*
X114885431Y-109036320D01*
X114884430Y-109035165D01*
X114891133Y-109029357D01*
X114998772Y-108936088D01*
X115034151Y-108881035D01*
X115086952Y-108835282D01*
X115156111Y-108825337D01*
X115219667Y-108854361D01*
X115226147Y-108860394D01*
X115663221Y-109297469D01*
X115706657Y-109235435D01*
X115799040Y-109037319D01*
X115799044Y-109037310D01*
X115855618Y-108826171D01*
X115855620Y-108826161D01*
X115874672Y-108608401D01*
X115874672Y-108608398D01*
X115855620Y-108390638D01*
X115855618Y-108390628D01*
X115799044Y-108179489D01*
X115799040Y-108179480D01*
X115706655Y-107981360D01*
X115663222Y-107919330D01*
X115663221Y-107919329D01*
X115226147Y-108356404D01*
X115164824Y-108389889D01*
X115095132Y-108384905D01*
X115039199Y-108343033D01*
X115034150Y-108335762D01*
X114998772Y-108280712D01*
X114891133Y-108187443D01*
X114891132Y-108187442D01*
X114884430Y-108181635D01*
X114886548Y-108179190D01*
X114851169Y-108138367D01*
X114841221Y-108069209D01*
X114870241Y-108005651D01*
X114876279Y-107999166D01*
X115309669Y-107565777D01*
X115309668Y-107565776D01*
X115247639Y-107522344D01*
X115049519Y-107429959D01*
X115049510Y-107429955D01*
X114838371Y-107373381D01*
X114838361Y-107373379D01*
X114620602Y-107354328D01*
X114620598Y-107354328D01*
X114402838Y-107373379D01*
X114402828Y-107373381D01*
X114191689Y-107429955D01*
X114191680Y-107429959D01*
X113993564Y-107522342D01*
X113931530Y-107565777D01*
X114364919Y-107999166D01*
X114398404Y-108060489D01*
X114393420Y-108130181D01*
X114355767Y-108180477D01*
X114356770Y-108181635D01*
X114242426Y-108280714D01*
X114242424Y-108280716D01*
X114207048Y-108335763D01*
X114154244Y-108381518D01*
X114085086Y-108391462D01*
X114021530Y-108362437D01*
X114015052Y-108356405D01*
X113577977Y-107919330D01*
X113534542Y-107981364D01*
X113442159Y-108179480D01*
X113442155Y-108179489D01*
X113385581Y-108390628D01*
X113385579Y-108390638D01*
X113366528Y-108608398D01*
X113366528Y-108608401D01*
X107000500Y-108608401D01*
X107000500Y-97124000D01*
X107020185Y-97056961D01*
X107072989Y-97011206D01*
X107124500Y-97000000D01*
X138876000Y-97000000D01*
X138943039Y-97019685D01*
G37*
%TD.AperFunction*%
%TD*%
%TA.AperFunction,Conductor*%
%TO.N,+VDC*%
G36*
X223942539Y-63020185D02*
G01*
X223988294Y-63072989D01*
X223999500Y-63124500D01*
X223999500Y-141875500D01*
X223979815Y-141942539D01*
X223927011Y-141988294D01*
X223875500Y-141999500D01*
X141124000Y-141999500D01*
X141056961Y-141979815D01*
X141011206Y-141927011D01*
X141000000Y-141875500D01*
X141000000Y-134548695D01*
X180451500Y-134548695D01*
X180466767Y-134718340D01*
X180527221Y-134937392D01*
X180527227Y-134937407D01*
X180625824Y-135142146D01*
X180625828Y-135142154D01*
X180759399Y-135325999D01*
X180759405Y-135326007D01*
X180910916Y-135470866D01*
X180923662Y-135483052D01*
X181021322Y-135547517D01*
X181113319Y-135608244D01*
X181113321Y-135608245D01*
X181113323Y-135608246D01*
X181322289Y-135697562D01*
X181543846Y-135748131D01*
X181770871Y-135758327D01*
X181996068Y-135727822D01*
X182212200Y-135657596D01*
X182412319Y-135549908D01*
X182589993Y-135408217D01*
X182739512Y-135237078D01*
X182752045Y-135216101D01*
X182803324Y-135168650D01*
X182872121Y-135156453D01*
X182936591Y-135183388D01*
X182958809Y-135206817D01*
X183045399Y-135325999D01*
X183045405Y-135326007D01*
X183196916Y-135470866D01*
X183209662Y-135483052D01*
X183307322Y-135547516D01*
X183399319Y-135608244D01*
X183399321Y-135608245D01*
X183399323Y-135608246D01*
X183608289Y-135697562D01*
X183829846Y-135748131D01*
X184056871Y-135758327D01*
X184282068Y-135727822D01*
X184498200Y-135657596D01*
X184698319Y-135549908D01*
X184875993Y-135408217D01*
X185025512Y-135237078D01*
X185038045Y-135216101D01*
X185089324Y-135168650D01*
X185158121Y-135156453D01*
X185222591Y-135183388D01*
X185244809Y-135206817D01*
X185331399Y-135325999D01*
X185331405Y-135326007D01*
X185482916Y-135470866D01*
X185495662Y-135483052D01*
X185593322Y-135547517D01*
X185685319Y-135608244D01*
X185685321Y-135608245D01*
X185685323Y-135608246D01*
X185894289Y-135697562D01*
X186115846Y-135748131D01*
X186342871Y-135758327D01*
X186568068Y-135727822D01*
X186784200Y-135657596D01*
X186984319Y-135549908D01*
X187161993Y-135408217D01*
X187311512Y-135237078D01*
X187428071Y-135041992D01*
X187507922Y-134829229D01*
X187524153Y-134739788D01*
X187548500Y-134605630D01*
X187548500Y-134548695D01*
X197451500Y-134548695D01*
X197466767Y-134718340D01*
X197527221Y-134937392D01*
X197527227Y-134937407D01*
X197625824Y-135142146D01*
X197625828Y-135142154D01*
X197759399Y-135325999D01*
X197759405Y-135326007D01*
X197910916Y-135470866D01*
X197923662Y-135483052D01*
X198021322Y-135547516D01*
X198113319Y-135608244D01*
X198113321Y-135608245D01*
X198113323Y-135608246D01*
X198322289Y-135697562D01*
X198543846Y-135748131D01*
X198770871Y-135758327D01*
X198996068Y-135727822D01*
X199212200Y-135657596D01*
X199412319Y-135549908D01*
X199589993Y-135408217D01*
X199739512Y-135237078D01*
X199752045Y-135216101D01*
X199803324Y-135168650D01*
X199872121Y-135156453D01*
X199936591Y-135183388D01*
X199958809Y-135206817D01*
X200045399Y-135325999D01*
X200045405Y-135326007D01*
X200196916Y-135470866D01*
X200209662Y-135483052D01*
X200307322Y-135547516D01*
X200399319Y-135608244D01*
X200399321Y-135608245D01*
X200399323Y-135608246D01*
X200608289Y-135697562D01*
X200829846Y-135748131D01*
X201056871Y-135758327D01*
X201282068Y-135727822D01*
X201498200Y-135657596D01*
X201698319Y-135549908D01*
X201875993Y-135408217D01*
X202025512Y-135237078D01*
X202038045Y-135216101D01*
X202089324Y-135168650D01*
X202158121Y-135156453D01*
X202222591Y-135183388D01*
X202244809Y-135206817D01*
X202331399Y-135325999D01*
X202331405Y-135326007D01*
X202482916Y-135470866D01*
X202495662Y-135483052D01*
X202593322Y-135547516D01*
X202685319Y-135608244D01*
X202685321Y-135608245D01*
X202685323Y-135608246D01*
X202894289Y-135697562D01*
X203115846Y-135748131D01*
X203342871Y-135758327D01*
X203568068Y-135727822D01*
X203784200Y-135657596D01*
X203984319Y-135549908D01*
X204161993Y-135408217D01*
X204311512Y-135237078D01*
X204428071Y-135041992D01*
X204507922Y-134829229D01*
X204524153Y-134739788D01*
X204548500Y-134605630D01*
X204548500Y-132911306D01*
X204548500Y-132911301D01*
X204533232Y-132741661D01*
X204533232Y-132741659D01*
X204472778Y-132522607D01*
X204472772Y-132522592D01*
X204374175Y-132317853D01*
X204374171Y-132317845D01*
X204240600Y-132134000D01*
X204240594Y-132133992D01*
X204076339Y-131976949D01*
X204076338Y-131976948D01*
X203975057Y-131910093D01*
X203886680Y-131851755D01*
X203834807Y-131829584D01*
X203677711Y-131762438D01*
X203677704Y-131762436D01*
X203677700Y-131762435D01*
X203456159Y-131711870D01*
X203456155Y-131711869D01*
X203456154Y-131711869D01*
X203456153Y-131711868D01*
X203456148Y-131711868D01*
X203229132Y-131701673D01*
X203229131Y-131701673D01*
X203229129Y-131701673D01*
X203116530Y-131716925D01*
X203003929Y-131732178D01*
X202787797Y-131802405D01*
X202587679Y-131910093D01*
X202410006Y-132051782D01*
X202260493Y-132222915D01*
X202260490Y-132222918D01*
X202247954Y-132243900D01*
X202196669Y-132291352D01*
X202127872Y-132303545D01*
X202063404Y-132276608D01*
X202041194Y-132253187D01*
X201954596Y-132133995D01*
X201954594Y-132133993D01*
X201954594Y-132133992D01*
X201790339Y-131976949D01*
X201790338Y-131976948D01*
X201689057Y-131910093D01*
X201600680Y-131851755D01*
X201548807Y-131829584D01*
X201391711Y-131762438D01*
X201391704Y-131762436D01*
X201391700Y-131762435D01*
X201170159Y-131711870D01*
X201170155Y-131711869D01*
X201170154Y-131711869D01*
X201170153Y-131711868D01*
X201170148Y-131711868D01*
X200943132Y-131701673D01*
X200943131Y-131701673D01*
X200943129Y-131701673D01*
X200830530Y-131716925D01*
X200717929Y-131732178D01*
X200501797Y-131802405D01*
X200301679Y-131910093D01*
X200124006Y-132051782D01*
X199974493Y-132222915D01*
X199974490Y-132222918D01*
X199961954Y-132243900D01*
X199910669Y-132291352D01*
X199841872Y-132303545D01*
X199777404Y-132276608D01*
X199755194Y-132253187D01*
X199668596Y-132133995D01*
X199668594Y-132133993D01*
X199668594Y-132133992D01*
X199504339Y-131976949D01*
X199504338Y-131976948D01*
X199403057Y-131910093D01*
X199314680Y-131851755D01*
X199262807Y-131829584D01*
X199105711Y-131762438D01*
X199105704Y-131762436D01*
X199105700Y-131762435D01*
X198884159Y-131711870D01*
X198884155Y-131711869D01*
X198884154Y-131711869D01*
X198884153Y-131711868D01*
X198884148Y-131711868D01*
X198657132Y-131701673D01*
X198657131Y-131701673D01*
X198657129Y-131701673D01*
X198544530Y-131716925D01*
X198431929Y-131732178D01*
X198215797Y-131802405D01*
X198015679Y-131910093D01*
X197838006Y-132051782D01*
X197688493Y-132222915D01*
X197688487Y-132222923D01*
X197571932Y-132418001D01*
X197571930Y-132418006D01*
X197492077Y-132630771D01*
X197492077Y-132630772D01*
X197451500Y-132854369D01*
X197451500Y-134548695D01*
X187548500Y-134548695D01*
X187548500Y-132911306D01*
X187548500Y-132911301D01*
X187533232Y-132741661D01*
X187533232Y-132741659D01*
X187472778Y-132522607D01*
X187472772Y-132522592D01*
X187374175Y-132317853D01*
X187374171Y-132317845D01*
X187240600Y-132134000D01*
X187240594Y-132133992D01*
X187076339Y-131976949D01*
X187076338Y-131976948D01*
X186975057Y-131910093D01*
X186886680Y-131851755D01*
X186834807Y-131829584D01*
X186677711Y-131762438D01*
X186677704Y-131762436D01*
X186677700Y-131762435D01*
X186456159Y-131711870D01*
X186456155Y-131711869D01*
X186456154Y-131711869D01*
X186456153Y-131711868D01*
X186456148Y-131711868D01*
X186229132Y-131701673D01*
X186229131Y-131701673D01*
X186229129Y-131701673D01*
X186116530Y-131716925D01*
X186003929Y-131732178D01*
X185787797Y-131802405D01*
X185587679Y-131910093D01*
X185410006Y-132051782D01*
X185260493Y-132222915D01*
X185260490Y-132222918D01*
X185247954Y-132243900D01*
X185196669Y-132291352D01*
X185127872Y-132303545D01*
X185063404Y-132276608D01*
X185041194Y-132253187D01*
X184954596Y-132133995D01*
X184954594Y-132133993D01*
X184954594Y-132133992D01*
X184790339Y-131976949D01*
X184790338Y-131976948D01*
X184689057Y-131910093D01*
X184600680Y-131851755D01*
X184548807Y-131829584D01*
X184391711Y-131762438D01*
X184391704Y-131762436D01*
X184391700Y-131762435D01*
X184170159Y-131711870D01*
X184170155Y-131711869D01*
X184170154Y-131711869D01*
X184170153Y-131711868D01*
X184170148Y-131711868D01*
X183943132Y-131701673D01*
X183943131Y-131701673D01*
X183943129Y-131701673D01*
X183830530Y-131716925D01*
X183717929Y-131732178D01*
X183501797Y-131802405D01*
X183301679Y-131910093D01*
X183124006Y-132051782D01*
X182974493Y-132222915D01*
X182974490Y-132222918D01*
X182961954Y-132243900D01*
X182910669Y-132291352D01*
X182841872Y-132303545D01*
X182777404Y-132276608D01*
X182755194Y-132253187D01*
X182668596Y-132133995D01*
X182668594Y-132133993D01*
X182668594Y-132133992D01*
X182504339Y-131976949D01*
X182504338Y-131976948D01*
X182403057Y-131910093D01*
X182314680Y-131851755D01*
X182262807Y-131829584D01*
X182105711Y-131762438D01*
X182105704Y-131762436D01*
X182105700Y-131762435D01*
X181884159Y-131711870D01*
X181884155Y-131711869D01*
X181884154Y-131711869D01*
X181884153Y-131711868D01*
X181884148Y-131711868D01*
X181657132Y-131701673D01*
X181657131Y-131701673D01*
X181657129Y-131701673D01*
X181544530Y-131716925D01*
X181431929Y-131732178D01*
X181215797Y-131802405D01*
X181015679Y-131910093D01*
X180838006Y-132051782D01*
X180688493Y-132222915D01*
X180688487Y-132222923D01*
X180571932Y-132418001D01*
X180571930Y-132418006D01*
X180492077Y-132630771D01*
X180492077Y-132630772D01*
X180451500Y-132854369D01*
X180451500Y-134548695D01*
X141000000Y-134548695D01*
X141000000Y-133334920D01*
X141019685Y-133267881D01*
X141043469Y-133240630D01*
X141098694Y-133193462D01*
X141192956Y-133112956D01*
X141359123Y-132918399D01*
X141492809Y-132700243D01*
X141590722Y-132463860D01*
X141650452Y-132215070D01*
X141670526Y-131960000D01*
X141650452Y-131704930D01*
X141590722Y-131456140D01*
X141590720Y-131456135D01*
X141492811Y-131219760D01*
X141492809Y-131219757D01*
X141492808Y-131219756D01*
X141359123Y-131001601D01*
X141359122Y-131001600D01*
X141359121Y-131001598D01*
X141299319Y-130931579D01*
X141192956Y-130807044D01*
X141064641Y-130697453D01*
X141043468Y-130679369D01*
X141005275Y-130620862D01*
X141000000Y-130585079D01*
X141000000Y-129460000D01*
X164834127Y-129460000D01*
X164853977Y-129674228D01*
X164912855Y-129881159D01*
X164912860Y-129881172D01*
X165008751Y-130073746D01*
X165008753Y-130073749D01*
X165008755Y-130073753D01*
X165138409Y-130245444D01*
X165138412Y-130245446D01*
X165138414Y-130245449D01*
X165297402Y-130390385D01*
X165297404Y-130390386D01*
X165297405Y-130390387D01*
X165480326Y-130503647D01*
X165680944Y-130581367D01*
X165744311Y-130593212D01*
X165806590Y-130624879D01*
X165841864Y-130685191D01*
X165838931Y-130754999D01*
X165798722Y-130812139D01*
X165734004Y-130838470D01*
X165721525Y-130839100D01*
X165291729Y-130839100D01*
X165291723Y-130839101D01*
X165232116Y-130845508D01*
X165097271Y-130895802D01*
X165097264Y-130895806D01*
X164982055Y-130982052D01*
X164982052Y-130982055D01*
X164895806Y-131097264D01*
X164895802Y-131097271D01*
X164845508Y-131232117D01*
X164839101Y-131291716D01*
X164839101Y-131291723D01*
X164839100Y-131291735D01*
X164839100Y-132708270D01*
X164839101Y-132708276D01*
X164845508Y-132767883D01*
X164895802Y-132902728D01*
X164895806Y-132902735D01*
X164982052Y-133017944D01*
X164982055Y-133017947D01*
X165097264Y-133104193D01*
X165097271Y-133104197D01*
X165232117Y-133154491D01*
X165232116Y-133154491D01*
X165239044Y-133155235D01*
X165291727Y-133160900D01*
X166708272Y-133160899D01*
X166767883Y-133154491D01*
X166902731Y-133104196D01*
X167017946Y-133017946D01*
X167104196Y-132902731D01*
X167154491Y-132767883D01*
X167160900Y-132708273D01*
X167160899Y-131291728D01*
X167154491Y-131232117D01*
X167149882Y-131219760D01*
X167104197Y-131097271D01*
X167104193Y-131097264D01*
X167017947Y-130982055D01*
X167017944Y-130982052D01*
X166902735Y-130895806D01*
X166902728Y-130895802D01*
X166767882Y-130845508D01*
X166767883Y-130845508D01*
X166708283Y-130839101D01*
X166708281Y-130839100D01*
X166708273Y-130839100D01*
X166708265Y-130839100D01*
X166278476Y-130839100D01*
X166211437Y-130819415D01*
X166165682Y-130766611D01*
X166155738Y-130697453D01*
X166184763Y-130633897D01*
X166243541Y-130596123D01*
X166255677Y-130593214D01*
X166319056Y-130581367D01*
X166519674Y-130503647D01*
X166702595Y-130390387D01*
X166861591Y-130245444D01*
X166991245Y-130073753D01*
X167087144Y-129881162D01*
X167146022Y-129674229D01*
X167165873Y-129460000D01*
X167146022Y-129245771D01*
X167087144Y-129038838D01*
X166991245Y-128846247D01*
X166861591Y-128674556D01*
X166861587Y-128674552D01*
X166861585Y-128674550D01*
X166702597Y-128529614D01*
X166662811Y-128504979D01*
X166519674Y-128416353D01*
X166319056Y-128338633D01*
X166175983Y-128311888D01*
X166113704Y-128280221D01*
X166078431Y-128219908D01*
X166081365Y-128150100D01*
X166121574Y-128092960D01*
X166175982Y-128068111D01*
X166319056Y-128041367D01*
X166519674Y-127963647D01*
X166702595Y-127850387D01*
X166861591Y-127705444D01*
X166991245Y-127533753D01*
X167087144Y-127341162D01*
X167146022Y-127134229D01*
X167165873Y-126920000D01*
X167146022Y-126705771D01*
X167087144Y-126498838D01*
X166991245Y-126306247D01*
X166861591Y-126134556D01*
X166861587Y-126134552D01*
X166861585Y-126134550D01*
X166702597Y-125989614D01*
X166662811Y-125964979D01*
X166519674Y-125876353D01*
X166319056Y-125798633D01*
X166107573Y-125759100D01*
X165892427Y-125759100D01*
X165680944Y-125798633D01*
X165554075Y-125847782D01*
X165480328Y-125876352D01*
X165480327Y-125876352D01*
X165297402Y-125989614D01*
X165138414Y-126134550D01*
X165138407Y-126134558D01*
X165008760Y-126306239D01*
X165008751Y-126306253D01*
X164912860Y-126498827D01*
X164912855Y-126498840D01*
X164853977Y-126705771D01*
X164834127Y-126919999D01*
X164834127Y-126920000D01*
X164853977Y-127134228D01*
X164912855Y-127341159D01*
X164912860Y-127341172D01*
X165008751Y-127533746D01*
X165008753Y-127533749D01*
X165008755Y-127533753D01*
X165138409Y-127705444D01*
X165138412Y-127705446D01*
X165138414Y-127705449D01*
X165297402Y-127850385D01*
X165297404Y-127850386D01*
X165297405Y-127850387D01*
X165480326Y-127963647D01*
X165680944Y-128041367D01*
X165824015Y-128068111D01*
X165886295Y-128099779D01*
X165921568Y-128160092D01*
X165918634Y-128229900D01*
X165878425Y-128287040D01*
X165824015Y-128311888D01*
X165680944Y-128338633D01*
X165554075Y-128387782D01*
X165480328Y-128416352D01*
X165480327Y-128416352D01*
X165297402Y-128529614D01*
X165138414Y-128674550D01*
X165138407Y-128674558D01*
X165008760Y-128846239D01*
X165008751Y-128846253D01*
X164912860Y-129038827D01*
X164912855Y-129038840D01*
X164853977Y-129245771D01*
X164834127Y-129459999D01*
X164834127Y-129460000D01*
X141000000Y-129460000D01*
X141000000Y-119548695D01*
X180451500Y-119548695D01*
X180466767Y-119718340D01*
X180527221Y-119937392D01*
X180527227Y-119937407D01*
X180625824Y-120142146D01*
X180625828Y-120142154D01*
X180759399Y-120325999D01*
X180759405Y-120326007D01*
X180910916Y-120470866D01*
X180923662Y-120483052D01*
X181021322Y-120547517D01*
X181113319Y-120608244D01*
X181113321Y-120608245D01*
X181113323Y-120608246D01*
X181322289Y-120697562D01*
X181543846Y-120748131D01*
X181770871Y-120758327D01*
X181996068Y-120727822D01*
X182212200Y-120657596D01*
X182412319Y-120549908D01*
X182589993Y-120408217D01*
X182739512Y-120237078D01*
X182752045Y-120216101D01*
X182803324Y-120168650D01*
X182872121Y-120156453D01*
X182936591Y-120183388D01*
X182958809Y-120206817D01*
X183045399Y-120325999D01*
X183045405Y-120326007D01*
X183196916Y-120470866D01*
X183209662Y-120483052D01*
X183307322Y-120547517D01*
X183399319Y-120608244D01*
X183399321Y-120608245D01*
X183399323Y-120608246D01*
X183608289Y-120697562D01*
X183829846Y-120748131D01*
X184056871Y-120758327D01*
X184282068Y-120727822D01*
X184498200Y-120657596D01*
X184698319Y-120549908D01*
X184875993Y-120408217D01*
X185025512Y-120237078D01*
X185038045Y-120216101D01*
X185089324Y-120168650D01*
X185158121Y-120156453D01*
X185222591Y-120183388D01*
X185244809Y-120206817D01*
X185331399Y-120325999D01*
X185331405Y-120326007D01*
X185482916Y-120470866D01*
X185495662Y-120483052D01*
X185593322Y-120547516D01*
X185685319Y-120608244D01*
X185685321Y-120608245D01*
X185685323Y-120608246D01*
X185894289Y-120697562D01*
X186115846Y-120748131D01*
X186342871Y-120758327D01*
X186568068Y-120727822D01*
X186784200Y-120657596D01*
X186984319Y-120549908D01*
X187161993Y-120408217D01*
X187311512Y-120237078D01*
X187428071Y-120041992D01*
X187507922Y-119829229D01*
X187524153Y-119739788D01*
X187548500Y-119605630D01*
X187548500Y-119548695D01*
X197451500Y-119548695D01*
X197466767Y-119718340D01*
X197527221Y-119937392D01*
X197527227Y-119937407D01*
X197625824Y-120142146D01*
X197625828Y-120142154D01*
X197759399Y-120325999D01*
X197759405Y-120326007D01*
X197910916Y-120470866D01*
X197923662Y-120483052D01*
X198021322Y-120547516D01*
X198113319Y-120608244D01*
X198113321Y-120608245D01*
X198113323Y-120608246D01*
X198322289Y-120697562D01*
X198543846Y-120748131D01*
X198770871Y-120758327D01*
X198996068Y-120727822D01*
X199212200Y-120657596D01*
X199412319Y-120549908D01*
X199589993Y-120408217D01*
X199739512Y-120237078D01*
X199752045Y-120216101D01*
X199803324Y-120168650D01*
X199872121Y-120156453D01*
X199936591Y-120183388D01*
X199958809Y-120206817D01*
X200045399Y-120325999D01*
X200045405Y-120326007D01*
X200196916Y-120470866D01*
X200209662Y-120483052D01*
X200307322Y-120547516D01*
X200399319Y-120608244D01*
X200399321Y-120608245D01*
X200399323Y-120608246D01*
X200608289Y-120697562D01*
X200829846Y-120748131D01*
X201056871Y-120758327D01*
X201282068Y-120727822D01*
X201498200Y-120657596D01*
X201698319Y-120549908D01*
X201875993Y-120408217D01*
X202025512Y-120237078D01*
X202038045Y-120216101D01*
X202089324Y-120168650D01*
X202158121Y-120156453D01*
X202222591Y-120183388D01*
X202244809Y-120206817D01*
X202331399Y-120325999D01*
X202331405Y-120326007D01*
X202482916Y-120470866D01*
X202495662Y-120483052D01*
X202593322Y-120547517D01*
X202685319Y-120608244D01*
X202685321Y-120608245D01*
X202685323Y-120608246D01*
X202894289Y-120697562D01*
X203115846Y-120748131D01*
X203342871Y-120758327D01*
X203568068Y-120727822D01*
X203784200Y-120657596D01*
X203984319Y-120549908D01*
X204161993Y-120408217D01*
X204311512Y-120237078D01*
X204428071Y-120041992D01*
X204507922Y-119829229D01*
X204524153Y-119739788D01*
X204548500Y-119605630D01*
X204548500Y-117911306D01*
X204548500Y-117911301D01*
X204533232Y-117741661D01*
X204533232Y-117741659D01*
X204472778Y-117522607D01*
X204472772Y-117522592D01*
X204374175Y-117317853D01*
X204374171Y-117317845D01*
X204240600Y-117134000D01*
X204240594Y-117133992D01*
X204076339Y-116976949D01*
X204076338Y-116976948D01*
X203975057Y-116910093D01*
X203886680Y-116851755D01*
X203834807Y-116829584D01*
X203677711Y-116762438D01*
X203677704Y-116762436D01*
X203677700Y-116762435D01*
X203456159Y-116711870D01*
X203456155Y-116711869D01*
X203456154Y-116711869D01*
X203456153Y-116711868D01*
X203456148Y-116711868D01*
X203229132Y-116701673D01*
X203229131Y-116701673D01*
X203229129Y-116701673D01*
X203116530Y-116716925D01*
X203003929Y-116732178D01*
X202787797Y-116802405D01*
X202587679Y-116910093D01*
X202410006Y-117051782D01*
X202260493Y-117222915D01*
X202260490Y-117222918D01*
X202247954Y-117243900D01*
X202196669Y-117291352D01*
X202127872Y-117303545D01*
X202063404Y-117276608D01*
X202041194Y-117253187D01*
X201954596Y-117133995D01*
X201954594Y-117133993D01*
X201954594Y-117133992D01*
X201790339Y-116976949D01*
X201790338Y-116976948D01*
X201689057Y-116910093D01*
X201600680Y-116851755D01*
X201548807Y-116829584D01*
X201391711Y-116762438D01*
X201391704Y-116762436D01*
X201391700Y-116762435D01*
X201170159Y-116711870D01*
X201170155Y-116711869D01*
X201170154Y-116711869D01*
X201170153Y-116711868D01*
X201170148Y-116711868D01*
X200943132Y-116701673D01*
X200943131Y-116701673D01*
X200943129Y-116701673D01*
X200830530Y-116716925D01*
X200717929Y-116732178D01*
X200501797Y-116802405D01*
X200301679Y-116910093D01*
X200124006Y-117051782D01*
X199974493Y-117222915D01*
X199974490Y-117222918D01*
X199961954Y-117243900D01*
X199910669Y-117291352D01*
X199841872Y-117303545D01*
X199777404Y-117276608D01*
X199755194Y-117253187D01*
X199668596Y-117133995D01*
X199668594Y-117133993D01*
X199668594Y-117133992D01*
X199504339Y-116976949D01*
X199504338Y-116976948D01*
X199403057Y-116910093D01*
X199314680Y-116851755D01*
X199262807Y-116829584D01*
X199105711Y-116762438D01*
X199105704Y-116762436D01*
X199105700Y-116762435D01*
X198884159Y-116711870D01*
X198884155Y-116711869D01*
X198884154Y-116711869D01*
X198884153Y-116711868D01*
X198884148Y-116711868D01*
X198657132Y-116701673D01*
X198657131Y-116701673D01*
X198657129Y-116701673D01*
X198544530Y-116716925D01*
X198431929Y-116732178D01*
X198215797Y-116802405D01*
X198015679Y-116910093D01*
X197838006Y-117051782D01*
X197688493Y-117222915D01*
X197688487Y-117222923D01*
X197571932Y-117418001D01*
X197571930Y-117418006D01*
X197492077Y-117630771D01*
X197492077Y-117630772D01*
X197451500Y-117854369D01*
X197451500Y-119548695D01*
X187548500Y-119548695D01*
X187548500Y-117911306D01*
X187548500Y-117911301D01*
X187533232Y-117741661D01*
X187533232Y-117741659D01*
X187472778Y-117522607D01*
X187472772Y-117522592D01*
X187374175Y-117317853D01*
X187374171Y-117317845D01*
X187240600Y-117134000D01*
X187240594Y-117133992D01*
X187076339Y-116976949D01*
X187076338Y-116976948D01*
X186975057Y-116910093D01*
X186886680Y-116851755D01*
X186834807Y-116829584D01*
X186677711Y-116762438D01*
X186677704Y-116762436D01*
X186677700Y-116762435D01*
X186456159Y-116711870D01*
X186456155Y-116711869D01*
X186456154Y-116711869D01*
X186456153Y-116711868D01*
X186456148Y-116711868D01*
X186229132Y-116701673D01*
X186229131Y-116701673D01*
X186229129Y-116701673D01*
X186116530Y-116716925D01*
X186003929Y-116732178D01*
X185787797Y-116802405D01*
X185587679Y-116910093D01*
X185410006Y-117051782D01*
X185260493Y-117222915D01*
X185260490Y-117222918D01*
X185247954Y-117243900D01*
X185196669Y-117291352D01*
X185127872Y-117303545D01*
X185063404Y-117276608D01*
X185041194Y-117253187D01*
X184954596Y-117133995D01*
X184954594Y-117133993D01*
X184954594Y-117133992D01*
X184790339Y-116976949D01*
X184790338Y-116976948D01*
X184689057Y-116910093D01*
X184600680Y-116851755D01*
X184548807Y-116829584D01*
X184391711Y-116762438D01*
X184391704Y-116762436D01*
X184391700Y-116762435D01*
X184170159Y-116711870D01*
X184170155Y-116711869D01*
X184170154Y-116711869D01*
X184170153Y-116711868D01*
X184170148Y-116711868D01*
X183943132Y-116701673D01*
X183943131Y-116701673D01*
X183943129Y-116701673D01*
X183830530Y-116716925D01*
X183717929Y-116732178D01*
X183501797Y-116802405D01*
X183301679Y-116910093D01*
X183124006Y-117051782D01*
X182974493Y-117222915D01*
X182974490Y-117222918D01*
X182961954Y-117243900D01*
X182910669Y-117291352D01*
X182841872Y-117303545D01*
X182777404Y-117276608D01*
X182755194Y-117253187D01*
X182668596Y-117133995D01*
X182668594Y-117133993D01*
X182668594Y-117133992D01*
X182504339Y-116976949D01*
X182504338Y-116976948D01*
X182403057Y-116910093D01*
X182314680Y-116851755D01*
X182262807Y-116829584D01*
X182105711Y-116762438D01*
X182105704Y-116762436D01*
X182105700Y-116762435D01*
X181884159Y-116711870D01*
X181884155Y-116711869D01*
X181884154Y-116711869D01*
X181884153Y-116711868D01*
X181884148Y-116711868D01*
X181657132Y-116701673D01*
X181657131Y-116701673D01*
X181657129Y-116701673D01*
X181544530Y-116716925D01*
X181431929Y-116732178D01*
X181215797Y-116802405D01*
X181015679Y-116910093D01*
X180838006Y-117051782D01*
X180688493Y-117222915D01*
X180688487Y-117222923D01*
X180571932Y-117418001D01*
X180571930Y-117418006D01*
X180492077Y-117630771D01*
X180492077Y-117630772D01*
X180451500Y-117854369D01*
X180451500Y-119548695D01*
X141000000Y-119548695D01*
X141000000Y-113550000D01*
X214659474Y-113550000D01*
X214679547Y-113805064D01*
X214739279Y-114053864D01*
X214837188Y-114290239D01*
X214837190Y-114290242D01*
X214970875Y-114508396D01*
X214970878Y-114508401D01*
X215046200Y-114596591D01*
X215137044Y-114702956D01*
X215261579Y-114809319D01*
X215331598Y-114869121D01*
X215331603Y-114869124D01*
X215549757Y-115002809D01*
X215549760Y-115002811D01*
X215786135Y-115100720D01*
X215786140Y-115100722D01*
X216034930Y-115160452D01*
X216290000Y-115180526D01*
X216545070Y-115160452D01*
X216793860Y-115100722D01*
X216912051Y-115051765D01*
X217030239Y-115002811D01*
X217030240Y-115002810D01*
X217030243Y-115002809D01*
X217248399Y-114869123D01*
X217442956Y-114702956D01*
X217609123Y-114508399D01*
X217742809Y-114290243D01*
X217840722Y-114053860D01*
X217900452Y-113805070D01*
X217920526Y-113550000D01*
X219759474Y-113550000D01*
X219779547Y-113805064D01*
X219839279Y-114053864D01*
X219937188Y-114290239D01*
X219937190Y-114290242D01*
X220070875Y-114508396D01*
X220070878Y-114508401D01*
X220146200Y-114596591D01*
X220237044Y-114702956D01*
X220361579Y-114809319D01*
X220431598Y-114869121D01*
X220431603Y-114869124D01*
X220649757Y-115002809D01*
X220649760Y-115002811D01*
X220886135Y-115100720D01*
X220886140Y-115100722D01*
X221134930Y-115160452D01*
X221390000Y-115180526D01*
X221645070Y-115160452D01*
X221893860Y-115100722D01*
X222012051Y-115051765D01*
X222130239Y-115002811D01*
X222130240Y-115002810D01*
X222130243Y-115002809D01*
X222348399Y-114869123D01*
X222542956Y-114702956D01*
X222709123Y-114508399D01*
X222842809Y-114290243D01*
X222940722Y-114053860D01*
X223000452Y-113805070D01*
X223020526Y-113550000D01*
X223000452Y-113294930D01*
X222940722Y-113046140D01*
X222886330Y-112914826D01*
X222842811Y-112809760D01*
X222842809Y-112809757D01*
X222709123Y-112591601D01*
X222709122Y-112591600D01*
X222709121Y-112591598D01*
X222649319Y-112521579D01*
X222542956Y-112397044D01*
X222380462Y-112258261D01*
X222348401Y-112230878D01*
X222348396Y-112230875D01*
X222130242Y-112097190D01*
X222130239Y-112097188D01*
X221893864Y-111999279D01*
X221893860Y-111999278D01*
X221645070Y-111939548D01*
X221645067Y-111939547D01*
X221645064Y-111939547D01*
X221390000Y-111919474D01*
X221134935Y-111939547D01*
X221134931Y-111939547D01*
X221134930Y-111939548D01*
X221010534Y-111969413D01*
X220886135Y-111999279D01*
X220649760Y-112097188D01*
X220649757Y-112097190D01*
X220431603Y-112230875D01*
X220431598Y-112230878D01*
X220237044Y-112397044D01*
X220070878Y-112591598D01*
X220070875Y-112591603D01*
X219937190Y-112809757D01*
X219937188Y-112809760D01*
X219839279Y-113046135D01*
X219779547Y-113294935D01*
X219759474Y-113550000D01*
X217920526Y-113550000D01*
X217900452Y-113294930D01*
X217840722Y-113046140D01*
X217786330Y-112914826D01*
X217742811Y-112809760D01*
X217742809Y-112809757D01*
X217742808Y-112809756D01*
X217609123Y-112591601D01*
X217609122Y-112591600D01*
X217609121Y-112591598D01*
X217549319Y-112521579D01*
X217442956Y-112397044D01*
X217280462Y-112258261D01*
X217248401Y-112230878D01*
X217248396Y-112230875D01*
X217030242Y-112097190D01*
X217030239Y-112097188D01*
X216793864Y-111999279D01*
X216793860Y-111999278D01*
X216545070Y-111939548D01*
X216545067Y-111939547D01*
X216545064Y-111939547D01*
X216290000Y-111919474D01*
X216034935Y-111939547D01*
X216034931Y-111939547D01*
X216034930Y-111939548D01*
X215910534Y-111969413D01*
X215786135Y-111999279D01*
X215549760Y-112097188D01*
X215549757Y-112097190D01*
X215331603Y-112230875D01*
X215331598Y-112230878D01*
X215137044Y-112397044D01*
X214970878Y-112591598D01*
X214970875Y-112591603D01*
X214837190Y-112809757D01*
X214837188Y-112809760D01*
X214739279Y-113046135D01*
X214679547Y-113294935D01*
X214659474Y-113550000D01*
X141000000Y-113550000D01*
X141000000Y-111000000D01*
X217284706Y-111000000D01*
X217303853Y-111243297D01*
X217360830Y-111480619D01*
X217454222Y-111706089D01*
X217581737Y-111914173D01*
X217581738Y-111914176D01*
X217581741Y-111914179D01*
X217740241Y-112099759D01*
X217883897Y-112222453D01*
X217925823Y-112258261D01*
X217925826Y-112258262D01*
X218133910Y-112385777D01*
X218359381Y-112479169D01*
X218359378Y-112479169D01*
X218359384Y-112479170D01*
X218359388Y-112479172D01*
X218596698Y-112536146D01*
X218840000Y-112555294D01*
X219083302Y-112536146D01*
X219320612Y-112479172D01*
X219546089Y-112385777D01*
X219754179Y-112258259D01*
X219939759Y-112099759D01*
X220098259Y-111914179D01*
X220225777Y-111706089D01*
X220319172Y-111480612D01*
X220376146Y-111243302D01*
X220395294Y-111000000D01*
X220376146Y-110756698D01*
X220319172Y-110519388D01*
X220225777Y-110293911D01*
X220225777Y-110293910D01*
X220098262Y-110085826D01*
X220098261Y-110085823D01*
X220062453Y-110043897D01*
X219939759Y-109900241D01*
X219807538Y-109787314D01*
X219754176Y-109741738D01*
X219754173Y-109741737D01*
X219546089Y-109614222D01*
X219320618Y-109520830D01*
X219320621Y-109520830D01*
X219214992Y-109495470D01*
X219083302Y-109463854D01*
X219083300Y-109463853D01*
X219083297Y-109463853D01*
X218840000Y-109444706D01*
X218596702Y-109463853D01*
X218359380Y-109520830D01*
X218133910Y-109614222D01*
X217925826Y-109741737D01*
X217925823Y-109741738D01*
X217740241Y-109900241D01*
X217581738Y-110085823D01*
X217581737Y-110085826D01*
X217454222Y-110293910D01*
X217360830Y-110519380D01*
X217303853Y-110756702D01*
X217284706Y-111000000D01*
X141000000Y-111000000D01*
X141000000Y-108449999D01*
X214659474Y-108449999D01*
X214679547Y-108705064D01*
X214739279Y-108953864D01*
X214837188Y-109190239D01*
X214837190Y-109190242D01*
X214970875Y-109408396D01*
X214970878Y-109408401D01*
X214976365Y-109414825D01*
X215137044Y-109602956D01*
X215244689Y-109694893D01*
X215331598Y-109769121D01*
X215331603Y-109769124D01*
X215549757Y-109902809D01*
X215549760Y-109902811D01*
X215786135Y-110000720D01*
X215786140Y-110000722D01*
X216034930Y-110060452D01*
X216290000Y-110080526D01*
X216545070Y-110060452D01*
X216793860Y-110000722D01*
X216912051Y-109951765D01*
X217030239Y-109902811D01*
X217030240Y-109902810D01*
X217030243Y-109902809D01*
X217248399Y-109769123D01*
X217442956Y-109602956D01*
X217609123Y-109408399D01*
X217742809Y-109190243D01*
X217840722Y-108953860D01*
X217900452Y-108705070D01*
X217920526Y-108450000D01*
X217920526Y-108449999D01*
X219759474Y-108449999D01*
X219779547Y-108705064D01*
X219839279Y-108953864D01*
X219937188Y-109190239D01*
X219937190Y-109190242D01*
X220070875Y-109408396D01*
X220070878Y-109408401D01*
X220076365Y-109414825D01*
X220237044Y-109602956D01*
X220344689Y-109694893D01*
X220431598Y-109769121D01*
X220431603Y-109769124D01*
X220649757Y-109902809D01*
X220649760Y-109902811D01*
X220886135Y-110000720D01*
X220886140Y-110000722D01*
X221134930Y-110060452D01*
X221390000Y-110080526D01*
X221645070Y-110060452D01*
X221893860Y-110000722D01*
X222012051Y-109951765D01*
X222130239Y-109902811D01*
X222130240Y-109902810D01*
X222130243Y-109902809D01*
X222348399Y-109769123D01*
X222542956Y-109602956D01*
X222709123Y-109408399D01*
X222842809Y-109190243D01*
X222940722Y-108953860D01*
X223000452Y-108705070D01*
X223020526Y-108450000D01*
X223000452Y-108194930D01*
X222940722Y-107946140D01*
X222881007Y-107801975D01*
X222842811Y-107709760D01*
X222842809Y-107709757D01*
X222804560Y-107647341D01*
X222709123Y-107491601D01*
X222709122Y-107491600D01*
X222709121Y-107491598D01*
X222591452Y-107353826D01*
X222542956Y-107297044D01*
X222436591Y-107206200D01*
X222348401Y-107130878D01*
X222348396Y-107130875D01*
X222130242Y-106997190D01*
X222130239Y-106997188D01*
X221893864Y-106899279D01*
X221893860Y-106899278D01*
X221645070Y-106839548D01*
X221645067Y-106839547D01*
X221645064Y-106839547D01*
X221390000Y-106819474D01*
X221134935Y-106839547D01*
X221134931Y-106839547D01*
X221134930Y-106839548D01*
X221010534Y-106869412D01*
X220886135Y-106899279D01*
X220649760Y-106997188D01*
X220649757Y-106997190D01*
X220431603Y-107130875D01*
X220431598Y-107130878D01*
X220237044Y-107297044D01*
X220070878Y-107491598D01*
X220070875Y-107491603D01*
X219937190Y-107709757D01*
X219937188Y-107709760D01*
X219839279Y-107946135D01*
X219779547Y-108194935D01*
X219759474Y-108449999D01*
X217920526Y-108449999D01*
X217900452Y-108194930D01*
X217840722Y-107946140D01*
X217781007Y-107801975D01*
X217742811Y-107709760D01*
X217742809Y-107709757D01*
X217704560Y-107647341D01*
X217609123Y-107491601D01*
X217609122Y-107491600D01*
X217609121Y-107491598D01*
X217491452Y-107353826D01*
X217442956Y-107297044D01*
X217336591Y-107206200D01*
X217248401Y-107130878D01*
X217248396Y-107130875D01*
X217030242Y-106997190D01*
X217030239Y-106997188D01*
X216793864Y-106899279D01*
X216793860Y-106899278D01*
X216545070Y-106839548D01*
X216545067Y-106839547D01*
X216545064Y-106839547D01*
X216290000Y-106819474D01*
X216034935Y-106839547D01*
X216034931Y-106839547D01*
X216034930Y-106839548D01*
X215910534Y-106869413D01*
X215786135Y-106899279D01*
X215549760Y-106997188D01*
X215549757Y-106997190D01*
X215331603Y-107130875D01*
X215331598Y-107130878D01*
X215137044Y-107297044D01*
X214970878Y-107491598D01*
X214970875Y-107491603D01*
X214837190Y-107709757D01*
X214837188Y-107709760D01*
X214739279Y-107946135D01*
X214679547Y-108194935D01*
X214659474Y-108449999D01*
X141000000Y-108449999D01*
X141000000Y-104548695D01*
X145451500Y-104548695D01*
X145466767Y-104718340D01*
X145527221Y-104937392D01*
X145527227Y-104937407D01*
X145625824Y-105142146D01*
X145625828Y-105142154D01*
X145759399Y-105325999D01*
X145759405Y-105326007D01*
X145910916Y-105470866D01*
X145923662Y-105483052D01*
X146021322Y-105547516D01*
X146113319Y-105608244D01*
X146113321Y-105608245D01*
X146113323Y-105608246D01*
X146322289Y-105697562D01*
X146543846Y-105748131D01*
X146770871Y-105758327D01*
X146996068Y-105727822D01*
X147212200Y-105657596D01*
X147412319Y-105549908D01*
X147589993Y-105408217D01*
X147739512Y-105237078D01*
X147752045Y-105216101D01*
X147803324Y-105168650D01*
X147872121Y-105156453D01*
X147936591Y-105183388D01*
X147958809Y-105206817D01*
X148045399Y-105325999D01*
X148045405Y-105326007D01*
X148196916Y-105470866D01*
X148209662Y-105483052D01*
X148307322Y-105547516D01*
X148399319Y-105608244D01*
X148399321Y-105608245D01*
X148399323Y-105608246D01*
X148608289Y-105697562D01*
X148829846Y-105748131D01*
X149056871Y-105758327D01*
X149282068Y-105727822D01*
X149498200Y-105657596D01*
X149698319Y-105549908D01*
X149875993Y-105408217D01*
X150025512Y-105237078D01*
X150038045Y-105216101D01*
X150089324Y-105168650D01*
X150158121Y-105156453D01*
X150222591Y-105183388D01*
X150244809Y-105206817D01*
X150331399Y-105325999D01*
X150331405Y-105326007D01*
X150482916Y-105470866D01*
X150495662Y-105483052D01*
X150593322Y-105547516D01*
X150685319Y-105608244D01*
X150685321Y-105608245D01*
X150685323Y-105608246D01*
X150894289Y-105697562D01*
X151115846Y-105748131D01*
X151342871Y-105758327D01*
X151568068Y-105727822D01*
X151784200Y-105657596D01*
X151984319Y-105549908D01*
X152161993Y-105408217D01*
X152311512Y-105237078D01*
X152428071Y-105041992D01*
X152507922Y-104829229D01*
X152524153Y-104739788D01*
X152548500Y-104605630D01*
X152548500Y-104548695D01*
X162451500Y-104548695D01*
X162466767Y-104718340D01*
X162527221Y-104937392D01*
X162527227Y-104937407D01*
X162625824Y-105142146D01*
X162625828Y-105142154D01*
X162759399Y-105325999D01*
X162759405Y-105326007D01*
X162910916Y-105470866D01*
X162923662Y-105483052D01*
X163021322Y-105547516D01*
X163113319Y-105608244D01*
X163113321Y-105608245D01*
X163113323Y-105608246D01*
X163322289Y-105697562D01*
X163543846Y-105748131D01*
X163770871Y-105758327D01*
X163996068Y-105727822D01*
X164212200Y-105657596D01*
X164412319Y-105549908D01*
X164589993Y-105408217D01*
X164739512Y-105237078D01*
X164752045Y-105216101D01*
X164803324Y-105168650D01*
X164872121Y-105156453D01*
X164936591Y-105183388D01*
X164958809Y-105206817D01*
X165045399Y-105325999D01*
X165045405Y-105326007D01*
X165196916Y-105470866D01*
X165209662Y-105483052D01*
X165307322Y-105547516D01*
X165399319Y-105608244D01*
X165399321Y-105608245D01*
X165399323Y-105608246D01*
X165608289Y-105697562D01*
X165829846Y-105748131D01*
X166056871Y-105758327D01*
X166282068Y-105727822D01*
X166498200Y-105657596D01*
X166698319Y-105549908D01*
X166875993Y-105408217D01*
X167025512Y-105237078D01*
X167038045Y-105216101D01*
X167089324Y-105168650D01*
X167158121Y-105156453D01*
X167222591Y-105183388D01*
X167244809Y-105206817D01*
X167331399Y-105325999D01*
X167331405Y-105326007D01*
X167482916Y-105470866D01*
X167495662Y-105483052D01*
X167593322Y-105547516D01*
X167685319Y-105608244D01*
X167685321Y-105608245D01*
X167685323Y-105608246D01*
X167894289Y-105697562D01*
X168115846Y-105748131D01*
X168342871Y-105758327D01*
X168568068Y-105727822D01*
X168784200Y-105657596D01*
X168984319Y-105549908D01*
X169161993Y-105408217D01*
X169311512Y-105237078D01*
X169428071Y-105041992D01*
X169507922Y-104829229D01*
X169524153Y-104739788D01*
X169548500Y-104605630D01*
X169548500Y-104548695D01*
X180451500Y-104548695D01*
X180466767Y-104718340D01*
X180527221Y-104937392D01*
X180527227Y-104937407D01*
X180625824Y-105142146D01*
X180625828Y-105142154D01*
X180759399Y-105325999D01*
X180759405Y-105326007D01*
X180910916Y-105470866D01*
X180923662Y-105483052D01*
X181021322Y-105547517D01*
X181113319Y-105608244D01*
X181113321Y-105608245D01*
X181113323Y-105608246D01*
X181322289Y-105697562D01*
X181543846Y-105748131D01*
X181770871Y-105758327D01*
X181996068Y-105727822D01*
X182212200Y-105657596D01*
X182412319Y-105549908D01*
X182589993Y-105408217D01*
X182739512Y-105237078D01*
X182752045Y-105216101D01*
X182803324Y-105168650D01*
X182872121Y-105156453D01*
X182936591Y-105183388D01*
X182958809Y-105206817D01*
X183045399Y-105325999D01*
X183045405Y-105326007D01*
X183196916Y-105470866D01*
X183209662Y-105483052D01*
X183307322Y-105547516D01*
X183399319Y-105608244D01*
X183399321Y-105608245D01*
X183399323Y-105608246D01*
X183608289Y-105697562D01*
X183829846Y-105748131D01*
X184056871Y-105758327D01*
X184282068Y-105727822D01*
X184498200Y-105657596D01*
X184698319Y-105549908D01*
X184875993Y-105408217D01*
X185025512Y-105237078D01*
X185038045Y-105216101D01*
X185089324Y-105168650D01*
X185158121Y-105156453D01*
X185222591Y-105183388D01*
X185244809Y-105206817D01*
X185331399Y-105325999D01*
X185331405Y-105326007D01*
X185482916Y-105470866D01*
X185495662Y-105483052D01*
X185593322Y-105547517D01*
X185685319Y-105608244D01*
X185685321Y-105608245D01*
X185685323Y-105608246D01*
X185894289Y-105697562D01*
X186115846Y-105748131D01*
X186342871Y-105758327D01*
X186568068Y-105727822D01*
X186784200Y-105657596D01*
X186984319Y-105549908D01*
X187161993Y-105408217D01*
X187311512Y-105237078D01*
X187428071Y-105041992D01*
X187507922Y-104829229D01*
X187524153Y-104739788D01*
X187548500Y-104605630D01*
X187548500Y-104548695D01*
X197451500Y-104548695D01*
X197466767Y-104718340D01*
X197527221Y-104937392D01*
X197527227Y-104937407D01*
X197625824Y-105142146D01*
X197625828Y-105142154D01*
X197759399Y-105325999D01*
X197759405Y-105326007D01*
X197910916Y-105470866D01*
X197923662Y-105483052D01*
X198021322Y-105547517D01*
X198113319Y-105608244D01*
X198113321Y-105608245D01*
X198113323Y-105608246D01*
X198322289Y-105697562D01*
X198543846Y-105748131D01*
X198770871Y-105758327D01*
X198996068Y-105727822D01*
X199212200Y-105657596D01*
X199412319Y-105549908D01*
X199589993Y-105408217D01*
X199739512Y-105237078D01*
X199752045Y-105216101D01*
X199803324Y-105168650D01*
X199872121Y-105156453D01*
X199936591Y-105183388D01*
X199958809Y-105206817D01*
X200045399Y-105325999D01*
X200045405Y-105326007D01*
X200196916Y-105470866D01*
X200209662Y-105483052D01*
X200307322Y-105547516D01*
X200399319Y-105608244D01*
X200399321Y-105608245D01*
X200399323Y-105608246D01*
X200608289Y-105697562D01*
X200829846Y-105748131D01*
X201056871Y-105758327D01*
X201282068Y-105727822D01*
X201498200Y-105657596D01*
X201698319Y-105549908D01*
X201875993Y-105408217D01*
X202025512Y-105237078D01*
X202038045Y-105216101D01*
X202089324Y-105168650D01*
X202158121Y-105156453D01*
X202222591Y-105183388D01*
X202244809Y-105206817D01*
X202331399Y-105325999D01*
X202331405Y-105326007D01*
X202482916Y-105470866D01*
X202495662Y-105483052D01*
X202593322Y-105547517D01*
X202685319Y-105608244D01*
X202685321Y-105608245D01*
X202685323Y-105608246D01*
X202894289Y-105697562D01*
X203115846Y-105748131D01*
X203342871Y-105758327D01*
X203568068Y-105727822D01*
X203784200Y-105657596D01*
X203984319Y-105549908D01*
X204161993Y-105408217D01*
X204311512Y-105237078D01*
X204428071Y-105041992D01*
X204507922Y-104829229D01*
X204524153Y-104739788D01*
X204548500Y-104605630D01*
X204548500Y-102911306D01*
X204548500Y-102911301D01*
X204533232Y-102741661D01*
X204533232Y-102741659D01*
X204472778Y-102522607D01*
X204472772Y-102522592D01*
X204374175Y-102317853D01*
X204374171Y-102317845D01*
X204240600Y-102134000D01*
X204240594Y-102133992D01*
X204076339Y-101976949D01*
X204076338Y-101976948D01*
X203975057Y-101910093D01*
X203886680Y-101851755D01*
X203834807Y-101829584D01*
X203677711Y-101762438D01*
X203677704Y-101762436D01*
X203677700Y-101762435D01*
X203456159Y-101711870D01*
X203456155Y-101711869D01*
X203456154Y-101711869D01*
X203456153Y-101711868D01*
X203456148Y-101711868D01*
X203229132Y-101701673D01*
X203229131Y-101701673D01*
X203229129Y-101701673D01*
X203116530Y-101716925D01*
X203003929Y-101732178D01*
X202787797Y-101802405D01*
X202587679Y-101910093D01*
X202410006Y-102051782D01*
X202260493Y-102222915D01*
X202260490Y-102222918D01*
X202247954Y-102243900D01*
X202196669Y-102291352D01*
X202127872Y-102303545D01*
X202063404Y-102276608D01*
X202041194Y-102253187D01*
X201954596Y-102133995D01*
X201954594Y-102133993D01*
X201954594Y-102133992D01*
X201790339Y-101976949D01*
X201790338Y-101976948D01*
X201689057Y-101910093D01*
X201600680Y-101851755D01*
X201548807Y-101829584D01*
X201391711Y-101762438D01*
X201391704Y-101762436D01*
X201391700Y-101762435D01*
X201170159Y-101711870D01*
X201170155Y-101711869D01*
X201170154Y-101711869D01*
X201170153Y-101711868D01*
X201170148Y-101711868D01*
X200943132Y-101701673D01*
X200943131Y-101701673D01*
X200943129Y-101701673D01*
X200830530Y-101716925D01*
X200717929Y-101732178D01*
X200501797Y-101802405D01*
X200301679Y-101910093D01*
X200124006Y-102051782D01*
X199974493Y-102222915D01*
X199974490Y-102222918D01*
X199961954Y-102243900D01*
X199910669Y-102291352D01*
X199841872Y-102303545D01*
X199777404Y-102276608D01*
X199755194Y-102253187D01*
X199668596Y-102133995D01*
X199668594Y-102133993D01*
X199668594Y-102133992D01*
X199504339Y-101976949D01*
X199504338Y-101976948D01*
X199403057Y-101910093D01*
X199314680Y-101851755D01*
X199262807Y-101829584D01*
X199105711Y-101762438D01*
X199105704Y-101762436D01*
X199105700Y-101762435D01*
X198884159Y-101711870D01*
X198884155Y-101711869D01*
X198884154Y-101711869D01*
X198884153Y-101711868D01*
X198884148Y-101711868D01*
X198657132Y-101701673D01*
X198657131Y-101701673D01*
X198657129Y-101701673D01*
X198544530Y-101716925D01*
X198431929Y-101732178D01*
X198215797Y-101802405D01*
X198015679Y-101910093D01*
X197838006Y-102051782D01*
X197688493Y-102222915D01*
X197688487Y-102222923D01*
X197571932Y-102418001D01*
X197571930Y-102418006D01*
X197492077Y-102630771D01*
X197492077Y-102630772D01*
X197451500Y-102854369D01*
X197451500Y-104548695D01*
X187548500Y-104548695D01*
X187548500Y-102911306D01*
X187548500Y-102911301D01*
X187533232Y-102741661D01*
X187533232Y-102741659D01*
X187472778Y-102522607D01*
X187472772Y-102522592D01*
X187374175Y-102317853D01*
X187374171Y-102317845D01*
X187240600Y-102134000D01*
X187240594Y-102133992D01*
X187076339Y-101976949D01*
X187076338Y-101976948D01*
X186975057Y-101910093D01*
X186886680Y-101851755D01*
X186834807Y-101829584D01*
X186677711Y-101762438D01*
X186677704Y-101762436D01*
X186677700Y-101762435D01*
X186456159Y-101711870D01*
X186456155Y-101711869D01*
X186456154Y-101711869D01*
X186456153Y-101711868D01*
X186456148Y-101711868D01*
X186229132Y-101701673D01*
X186229131Y-101701673D01*
X186229129Y-101701673D01*
X186116530Y-101716925D01*
X186003929Y-101732178D01*
X185787797Y-101802405D01*
X185587679Y-101910093D01*
X185410006Y-102051782D01*
X185260493Y-102222915D01*
X185260490Y-102222918D01*
X185247954Y-102243900D01*
X185196669Y-102291352D01*
X185127872Y-102303545D01*
X185063404Y-102276608D01*
X185041194Y-102253187D01*
X184954596Y-102133995D01*
X184954594Y-102133993D01*
X184954594Y-102133992D01*
X184790339Y-101976949D01*
X184790338Y-101976948D01*
X184689057Y-101910093D01*
X184600680Y-101851755D01*
X184548807Y-101829584D01*
X184391711Y-101762438D01*
X184391704Y-101762436D01*
X184391700Y-101762435D01*
X184170159Y-101711870D01*
X184170155Y-101711869D01*
X184170154Y-101711869D01*
X184170153Y-101711868D01*
X184170148Y-101711868D01*
X183943132Y-101701673D01*
X183943131Y-101701673D01*
X183943129Y-101701673D01*
X183830530Y-101716925D01*
X183717929Y-101732178D01*
X183501797Y-101802405D01*
X183301679Y-101910093D01*
X183124006Y-102051782D01*
X182974493Y-102222915D01*
X182974490Y-102222918D01*
X182961954Y-102243900D01*
X182910669Y-102291352D01*
X182841872Y-102303545D01*
X182777404Y-102276608D01*
X182755194Y-102253187D01*
X182668596Y-102133995D01*
X182668594Y-102133993D01*
X182668594Y-102133992D01*
X182504339Y-101976949D01*
X182504338Y-101976948D01*
X182403057Y-101910093D01*
X182314680Y-101851755D01*
X182262807Y-101829584D01*
X182105711Y-101762438D01*
X182105704Y-101762436D01*
X182105700Y-101762435D01*
X181884159Y-101711870D01*
X181884155Y-101711869D01*
X181884154Y-101711869D01*
X181884153Y-101711868D01*
X181884148Y-101711868D01*
X181657132Y-101701673D01*
X181657131Y-101701673D01*
X181657129Y-101701673D01*
X181544530Y-101716925D01*
X181431929Y-101732178D01*
X181215797Y-101802405D01*
X181015679Y-101910093D01*
X180838006Y-102051782D01*
X180688493Y-102222915D01*
X180688487Y-102222923D01*
X180571932Y-102418001D01*
X180571930Y-102418006D01*
X180492077Y-102630771D01*
X180492077Y-102630772D01*
X180451500Y-102854369D01*
X180451500Y-104548695D01*
X169548500Y-104548695D01*
X169548500Y-102911306D01*
X169548500Y-102911301D01*
X169533232Y-102741661D01*
X169533232Y-102741659D01*
X169472778Y-102522607D01*
X169472772Y-102522592D01*
X169374175Y-102317853D01*
X169374171Y-102317845D01*
X169240600Y-102134000D01*
X169240594Y-102133992D01*
X169076339Y-101976949D01*
X169076338Y-101976948D01*
X168975057Y-101910093D01*
X168886680Y-101851755D01*
X168834807Y-101829584D01*
X168677711Y-101762438D01*
X168677704Y-101762436D01*
X168677700Y-101762435D01*
X168456159Y-101711870D01*
X168456155Y-101711869D01*
X168456154Y-101711869D01*
X168456153Y-101711868D01*
X168456148Y-101711868D01*
X168229132Y-101701673D01*
X168229131Y-101701673D01*
X168229129Y-101701673D01*
X168116530Y-101716925D01*
X168003929Y-101732178D01*
X167787797Y-101802405D01*
X167587679Y-101910093D01*
X167410006Y-102051782D01*
X167260493Y-102222915D01*
X167260490Y-102222918D01*
X167247954Y-102243900D01*
X167196669Y-102291352D01*
X167127872Y-102303545D01*
X167063404Y-102276608D01*
X167041194Y-102253187D01*
X166954596Y-102133995D01*
X166954594Y-102133993D01*
X166954594Y-102133992D01*
X166790339Y-101976949D01*
X166790338Y-101976948D01*
X166689057Y-101910093D01*
X166600680Y-101851755D01*
X166548807Y-101829584D01*
X166391711Y-101762438D01*
X166391704Y-101762436D01*
X166391700Y-101762435D01*
X166170159Y-101711870D01*
X166170155Y-101711869D01*
X166170154Y-101711869D01*
X166170153Y-101711868D01*
X166170148Y-101711868D01*
X165943132Y-101701673D01*
X165943131Y-101701673D01*
X165943129Y-101701673D01*
X165830530Y-101716925D01*
X165717929Y-101732178D01*
X165501797Y-101802405D01*
X165301679Y-101910093D01*
X165124006Y-102051782D01*
X164974493Y-102222915D01*
X164974490Y-102222918D01*
X164961954Y-102243900D01*
X164910669Y-102291352D01*
X164841872Y-102303545D01*
X164777404Y-102276608D01*
X164755194Y-102253187D01*
X164668596Y-102133995D01*
X164668594Y-102133993D01*
X164668594Y-102133992D01*
X164504339Y-101976949D01*
X164504338Y-101976948D01*
X164403057Y-101910093D01*
X164314680Y-101851755D01*
X164262807Y-101829584D01*
X164105711Y-101762438D01*
X164105704Y-101762436D01*
X164105700Y-101762435D01*
X163884159Y-101711870D01*
X163884155Y-101711869D01*
X163884154Y-101711869D01*
X163884153Y-101711868D01*
X163884148Y-101711868D01*
X163657132Y-101701673D01*
X163657131Y-101701673D01*
X163657129Y-101701673D01*
X163544530Y-101716925D01*
X163431929Y-101732178D01*
X163215797Y-101802405D01*
X163015679Y-101910093D01*
X162838006Y-102051782D01*
X162688493Y-102222915D01*
X162688487Y-102222923D01*
X162571932Y-102418001D01*
X162571930Y-102418006D01*
X162492077Y-102630771D01*
X162492077Y-102630772D01*
X162451500Y-102854369D01*
X162451500Y-104548695D01*
X152548500Y-104548695D01*
X152548500Y-102911306D01*
X152548500Y-102911301D01*
X152533232Y-102741661D01*
X152533232Y-102741659D01*
X152472778Y-102522607D01*
X152472772Y-102522592D01*
X152374175Y-102317853D01*
X152374171Y-102317845D01*
X152240600Y-102134000D01*
X152240594Y-102133992D01*
X152076339Y-101976949D01*
X152076338Y-101976948D01*
X151975057Y-101910093D01*
X151886680Y-101851755D01*
X151834807Y-101829584D01*
X151677711Y-101762438D01*
X151677704Y-101762436D01*
X151677700Y-101762435D01*
X151456159Y-101711870D01*
X151456155Y-101711869D01*
X151456154Y-101711869D01*
X151456153Y-101711868D01*
X151456148Y-101711868D01*
X151229132Y-101701673D01*
X151229131Y-101701673D01*
X151229129Y-101701673D01*
X151116530Y-101716925D01*
X151003929Y-101732178D01*
X150787797Y-101802405D01*
X150587679Y-101910093D01*
X150410006Y-102051782D01*
X150260493Y-102222915D01*
X150260490Y-102222918D01*
X150247954Y-102243900D01*
X150196669Y-102291352D01*
X150127872Y-102303545D01*
X150063404Y-102276608D01*
X150041194Y-102253187D01*
X149954596Y-102133995D01*
X149954594Y-102133993D01*
X149954594Y-102133992D01*
X149790339Y-101976949D01*
X149790338Y-101976948D01*
X149689057Y-101910093D01*
X149600680Y-101851755D01*
X149548807Y-101829584D01*
X149391711Y-101762438D01*
X149391704Y-101762436D01*
X149391700Y-101762435D01*
X149170159Y-101711870D01*
X149170155Y-101711869D01*
X149170154Y-101711869D01*
X149170153Y-101711868D01*
X149170148Y-101711868D01*
X148943132Y-101701673D01*
X148943131Y-101701673D01*
X148943129Y-101701673D01*
X148830530Y-101716925D01*
X148717929Y-101732178D01*
X148501797Y-101802405D01*
X148301679Y-101910093D01*
X148124006Y-102051782D01*
X147974493Y-102222915D01*
X147974490Y-102222918D01*
X147961954Y-102243900D01*
X147910669Y-102291352D01*
X147841872Y-102303545D01*
X147777404Y-102276608D01*
X147755194Y-102253187D01*
X147668596Y-102133995D01*
X147668594Y-102133993D01*
X147668594Y-102133992D01*
X147504339Y-101976949D01*
X147504338Y-101976948D01*
X147403057Y-101910093D01*
X147314680Y-101851755D01*
X147262807Y-101829584D01*
X147105711Y-101762438D01*
X147105704Y-101762436D01*
X147105700Y-101762435D01*
X146884159Y-101711870D01*
X146884155Y-101711869D01*
X146884154Y-101711869D01*
X146884153Y-101711868D01*
X146884148Y-101711868D01*
X146657132Y-101701673D01*
X146657131Y-101701673D01*
X146657129Y-101701673D01*
X146544530Y-101716925D01*
X146431929Y-101732178D01*
X146215797Y-101802405D01*
X146015679Y-101910093D01*
X145838006Y-102051782D01*
X145688493Y-102222915D01*
X145688487Y-102222923D01*
X145571932Y-102418001D01*
X145571930Y-102418006D01*
X145492077Y-102630771D01*
X145492077Y-102630772D01*
X145451500Y-102854369D01*
X145451500Y-104548695D01*
X141000000Y-104548695D01*
X141000000Y-95000000D01*
X107124500Y-95000000D01*
X107057461Y-94980315D01*
X107011706Y-94927511D01*
X107000500Y-94876000D01*
X107000500Y-89548695D01*
X180451500Y-89548695D01*
X180466767Y-89718340D01*
X180527221Y-89937392D01*
X180527227Y-89937407D01*
X180625824Y-90142146D01*
X180625828Y-90142154D01*
X180759399Y-90325999D01*
X180759405Y-90326007D01*
X180910916Y-90470866D01*
X180923662Y-90483052D01*
X181021322Y-90547517D01*
X181113319Y-90608244D01*
X181113321Y-90608245D01*
X181113323Y-90608246D01*
X181322289Y-90697562D01*
X181543846Y-90748131D01*
X181770871Y-90758327D01*
X181996068Y-90727822D01*
X182212200Y-90657596D01*
X182412319Y-90549908D01*
X182589993Y-90408217D01*
X182739512Y-90237078D01*
X182752324Y-90215633D01*
X182803603Y-90168183D01*
X182872400Y-90155986D01*
X182936870Y-90182921D01*
X182959088Y-90206350D01*
X183045780Y-90325672D01*
X183045784Y-90325677D01*
X183209976Y-90482659D01*
X183399560Y-90607803D01*
X183608439Y-90697083D01*
X183608448Y-90697086D01*
X183749999Y-90729393D01*
X183750000Y-90729392D01*
X183750000Y-89350383D01*
X183769685Y-89283344D01*
X183822489Y-89237589D01*
X183891645Y-89227645D01*
X183963666Y-89238000D01*
X183963669Y-89238000D01*
X184036331Y-89238000D01*
X184036334Y-89238000D01*
X184108354Y-89227645D01*
X184177512Y-89237589D01*
X184230316Y-89283344D01*
X184250000Y-89350383D01*
X184250000Y-90731659D01*
X184281952Y-90727333D01*
X184498003Y-90657134D01*
X184698039Y-90549490D01*
X184698042Y-90549488D01*
X184875646Y-90407854D01*
X185025100Y-90236789D01*
X185025102Y-90236787D01*
X185037721Y-90215666D01*
X185089002Y-90168211D01*
X185157799Y-90156013D01*
X185222269Y-90182946D01*
X185244489Y-90206377D01*
X185331399Y-90325999D01*
X185331405Y-90326007D01*
X185482916Y-90470866D01*
X185495662Y-90483052D01*
X185593322Y-90547517D01*
X185685319Y-90608244D01*
X185685321Y-90608245D01*
X185685323Y-90608246D01*
X185894289Y-90697562D01*
X186115846Y-90748131D01*
X186342871Y-90758327D01*
X186568068Y-90727822D01*
X186784200Y-90657596D01*
X186984319Y-90549908D01*
X187161993Y-90408217D01*
X187311512Y-90237078D01*
X187428071Y-90041992D01*
X187507922Y-89829229D01*
X187524153Y-89739788D01*
X187548500Y-89605630D01*
X187548500Y-89548695D01*
X197451500Y-89548695D01*
X197466767Y-89718340D01*
X197527221Y-89937392D01*
X197527227Y-89937407D01*
X197625824Y-90142146D01*
X197625828Y-90142154D01*
X197759399Y-90325999D01*
X197759405Y-90326007D01*
X197910916Y-90470866D01*
X197923662Y-90483052D01*
X198021322Y-90547517D01*
X198113319Y-90608244D01*
X198113321Y-90608245D01*
X198113323Y-90608246D01*
X198322289Y-90697562D01*
X198543846Y-90748131D01*
X198770871Y-90758327D01*
X198996068Y-90727822D01*
X199212200Y-90657596D01*
X199412319Y-90549908D01*
X199589993Y-90408217D01*
X199739512Y-90237078D01*
X199752045Y-90216101D01*
X199803324Y-90168650D01*
X199872121Y-90156453D01*
X199936591Y-90183388D01*
X199958809Y-90206817D01*
X200045399Y-90325999D01*
X200045405Y-90326007D01*
X200196916Y-90470866D01*
X200209662Y-90483052D01*
X200307322Y-90547516D01*
X200399319Y-90608244D01*
X200399321Y-90608245D01*
X200399323Y-90608246D01*
X200608289Y-90697562D01*
X200829846Y-90748131D01*
X201056871Y-90758327D01*
X201282068Y-90727822D01*
X201498200Y-90657596D01*
X201698319Y-90549908D01*
X201875993Y-90408217D01*
X202025512Y-90237078D01*
X202038045Y-90216101D01*
X202089324Y-90168650D01*
X202158121Y-90156453D01*
X202222591Y-90183388D01*
X202244809Y-90206817D01*
X202331399Y-90325999D01*
X202331405Y-90326007D01*
X202482916Y-90470866D01*
X202495662Y-90483052D01*
X202593322Y-90547517D01*
X202685319Y-90608244D01*
X202685321Y-90608245D01*
X202685323Y-90608246D01*
X202894289Y-90697562D01*
X203115846Y-90748131D01*
X203342871Y-90758327D01*
X203568068Y-90727822D01*
X203784200Y-90657596D01*
X203984319Y-90549908D01*
X204161993Y-90408217D01*
X204311512Y-90237078D01*
X204428071Y-90041992D01*
X204507922Y-89829229D01*
X204524153Y-89739788D01*
X204548500Y-89605630D01*
X204548500Y-87911306D01*
X204548500Y-87911301D01*
X204533232Y-87741661D01*
X204533232Y-87741659D01*
X204472778Y-87522607D01*
X204472772Y-87522592D01*
X204374175Y-87317853D01*
X204374171Y-87317845D01*
X204240600Y-87134000D01*
X204240594Y-87133992D01*
X204076339Y-86976949D01*
X204076338Y-86976948D01*
X204027507Y-86944715D01*
X203886680Y-86851755D01*
X203834807Y-86829584D01*
X203677711Y-86762438D01*
X203677704Y-86762436D01*
X203677700Y-86762435D01*
X203456159Y-86711870D01*
X203456155Y-86711869D01*
X203456154Y-86711869D01*
X203456153Y-86711868D01*
X203456148Y-86711868D01*
X203229132Y-86701673D01*
X203229131Y-86701673D01*
X203229129Y-86701673D01*
X203116530Y-86716925D01*
X203003929Y-86732178D01*
X202787797Y-86802405D01*
X202587679Y-86910093D01*
X202410006Y-87051782D01*
X202260493Y-87222915D01*
X202260490Y-87222918D01*
X202247954Y-87243900D01*
X202196669Y-87291352D01*
X202127872Y-87303545D01*
X202063404Y-87276608D01*
X202041194Y-87253187D01*
X201954596Y-87133995D01*
X201954594Y-87133993D01*
X201954594Y-87133992D01*
X201790339Y-86976949D01*
X201790338Y-86976948D01*
X201741507Y-86944715D01*
X201600680Y-86851755D01*
X201548807Y-86829584D01*
X201391711Y-86762438D01*
X201391704Y-86762436D01*
X201391700Y-86762435D01*
X201170159Y-86711870D01*
X201170155Y-86711869D01*
X201170154Y-86711869D01*
X201170153Y-86711868D01*
X201170148Y-86711868D01*
X200943132Y-86701673D01*
X200943131Y-86701673D01*
X200943129Y-86701673D01*
X200830530Y-86716925D01*
X200717929Y-86732178D01*
X200501797Y-86802405D01*
X200301679Y-86910093D01*
X200124006Y-87051782D01*
X199974493Y-87222915D01*
X199974490Y-87222918D01*
X199961954Y-87243900D01*
X199910669Y-87291352D01*
X199841872Y-87303545D01*
X199777404Y-87276608D01*
X199755194Y-87253187D01*
X199668596Y-87133995D01*
X199668594Y-87133993D01*
X199668594Y-87133992D01*
X199504339Y-86976949D01*
X199504338Y-86976948D01*
X199455507Y-86944715D01*
X199314680Y-86851755D01*
X199262807Y-86829584D01*
X199105711Y-86762438D01*
X199105704Y-86762436D01*
X199105700Y-86762435D01*
X198884159Y-86711870D01*
X198884155Y-86711869D01*
X198884154Y-86711869D01*
X198884153Y-86711868D01*
X198884148Y-86711868D01*
X198657132Y-86701673D01*
X198657131Y-86701673D01*
X198657129Y-86701673D01*
X198544530Y-86716925D01*
X198431929Y-86732178D01*
X198215797Y-86802405D01*
X198015679Y-86910093D01*
X197838006Y-87051782D01*
X197688493Y-87222915D01*
X197688487Y-87222923D01*
X197571932Y-87418001D01*
X197571930Y-87418006D01*
X197492077Y-87630771D01*
X197492077Y-87630772D01*
X197451500Y-87854369D01*
X197451500Y-89548695D01*
X187548500Y-89548695D01*
X187548500Y-87911306D01*
X187548500Y-87911301D01*
X187533232Y-87741661D01*
X187533232Y-87741659D01*
X187472778Y-87522607D01*
X187472772Y-87522592D01*
X187374175Y-87317853D01*
X187374171Y-87317845D01*
X187240600Y-87134000D01*
X187240594Y-87133992D01*
X187076339Y-86976949D01*
X187076338Y-86976948D01*
X187027507Y-86944715D01*
X186886680Y-86851755D01*
X186834807Y-86829584D01*
X186677711Y-86762438D01*
X186677704Y-86762436D01*
X186677700Y-86762435D01*
X186456159Y-86711870D01*
X186456155Y-86711869D01*
X186456154Y-86711869D01*
X186456153Y-86711868D01*
X186456148Y-86711868D01*
X186229132Y-86701673D01*
X186229131Y-86701673D01*
X186229129Y-86701673D01*
X186116530Y-86716925D01*
X186003929Y-86732178D01*
X185787797Y-86802405D01*
X185587679Y-86910093D01*
X185410006Y-87051782D01*
X185260493Y-87222915D01*
X185260490Y-87222918D01*
X185247675Y-87244367D01*
X185196391Y-87291819D01*
X185127593Y-87304012D01*
X185063125Y-87277075D01*
X185040910Y-87253649D01*
X184954214Y-87134321D01*
X184790023Y-86977340D01*
X184600439Y-86852196D01*
X184391559Y-86762916D01*
X184391550Y-86762913D01*
X184250000Y-86730605D01*
X184250000Y-88109616D01*
X184230315Y-88176655D01*
X184177511Y-88222410D01*
X184108355Y-88232354D01*
X184036337Y-88222000D01*
X184036334Y-88222000D01*
X183963666Y-88222000D01*
X183963662Y-88222000D01*
X183891645Y-88232354D01*
X183822487Y-88222410D01*
X183769684Y-88176654D01*
X183750000Y-88109616D01*
X183750000Y-86728339D01*
X183718040Y-86732669D01*
X183718038Y-86732669D01*
X183501996Y-86802865D01*
X183301960Y-86910509D01*
X183301957Y-86910511D01*
X183124353Y-87052145D01*
X182974899Y-87223210D01*
X182974896Y-87223214D01*
X182962275Y-87244338D01*
X182910991Y-87291791D01*
X182842194Y-87303985D01*
X182777725Y-87277049D01*
X182755510Y-87253622D01*
X182668600Y-87134000D01*
X182668594Y-87133992D01*
X182504339Y-86976949D01*
X182504338Y-86976948D01*
X182455507Y-86944715D01*
X182314680Y-86851755D01*
X182262807Y-86829584D01*
X182105711Y-86762438D01*
X182105704Y-86762436D01*
X182105700Y-86762435D01*
X181884159Y-86711870D01*
X181884155Y-86711869D01*
X181884154Y-86711869D01*
X181884153Y-86711868D01*
X181884148Y-86711868D01*
X181657132Y-86701673D01*
X181657131Y-86701673D01*
X181657129Y-86701673D01*
X181544530Y-86716925D01*
X181431929Y-86732178D01*
X181215797Y-86802405D01*
X181015679Y-86910093D01*
X180838006Y-87051782D01*
X180688493Y-87222915D01*
X180688487Y-87222923D01*
X180571932Y-87418001D01*
X180571930Y-87418006D01*
X180492077Y-87630771D01*
X180492077Y-87630772D01*
X180451500Y-87854369D01*
X180451500Y-89548695D01*
X107000500Y-89548695D01*
X107000500Y-87000000D01*
X111369975Y-87000000D01*
X111390042Y-87254989D01*
X111449752Y-87503702D01*
X111547634Y-87740012D01*
X111547636Y-87740015D01*
X111681275Y-87958095D01*
X111681286Y-87958110D01*
X111684533Y-87961911D01*
X111684535Y-87961911D01*
X112282331Y-87364114D01*
X112343654Y-87330629D01*
X112413345Y-87335613D01*
X112469279Y-87377484D01*
X112474707Y-87385350D01*
X112495187Y-87417620D01*
X112495188Y-87417621D01*
X112614902Y-87530039D01*
X112618273Y-87532489D01*
X112620274Y-87535084D01*
X112620590Y-87535381D01*
X112620542Y-87535431D01*
X112660937Y-87587821D01*
X112666913Y-87657435D01*
X112634305Y-87719228D01*
X112633065Y-87720486D01*
X112038087Y-88315464D01*
X112038087Y-88315465D01*
X112041888Y-88318712D01*
X112041898Y-88318719D01*
X112259984Y-88452363D01*
X112259987Y-88452365D01*
X112496297Y-88550247D01*
X112745011Y-88609957D01*
X112745010Y-88609957D01*
X113000000Y-88630024D01*
X113254989Y-88609957D01*
X113503702Y-88550247D01*
X113740012Y-88452365D01*
X113740015Y-88452363D01*
X113958103Y-88318719D01*
X113961912Y-88315464D01*
X113363234Y-87716787D01*
X113329749Y-87655464D01*
X113334733Y-87585773D01*
X113376604Y-87529839D01*
X113377949Y-87528847D01*
X113448492Y-87477595D01*
X113534871Y-87373180D01*
X113592768Y-87334074D01*
X113662620Y-87332478D01*
X113718094Y-87364541D01*
X114315464Y-87961912D01*
X114318719Y-87958103D01*
X114452363Y-87740015D01*
X114452365Y-87740012D01*
X114550247Y-87503702D01*
X114609957Y-87254989D01*
X114630024Y-87000000D01*
X171369474Y-87000000D01*
X171389547Y-87255064D01*
X171389547Y-87255067D01*
X171389548Y-87255070D01*
X171430774Y-87426786D01*
X171449279Y-87503864D01*
X171547188Y-87740239D01*
X171547190Y-87740242D01*
X171680875Y-87958396D01*
X171680878Y-87958401D01*
X171683877Y-87961912D01*
X171847044Y-88152956D01*
X171946109Y-88237565D01*
X172041598Y-88319121D01*
X172041600Y-88319122D01*
X172041601Y-88319123D01*
X172259029Y-88452363D01*
X172259757Y-88452809D01*
X172259760Y-88452811D01*
X172494993Y-88550247D01*
X172496140Y-88550722D01*
X172744930Y-88610452D01*
X173000000Y-88630526D01*
X173255070Y-88610452D01*
X173503860Y-88550722D01*
X173622051Y-88501765D01*
X173740239Y-88452811D01*
X173740240Y-88452810D01*
X173740243Y-88452809D01*
X173958399Y-88319123D01*
X174152956Y-88152956D01*
X174319123Y-87958399D01*
X174452809Y-87740243D01*
X174452904Y-87740015D01*
X174515944Y-87587821D01*
X174550722Y-87503860D01*
X174610452Y-87255070D01*
X174630526Y-87000000D01*
X174610452Y-86744930D01*
X174550722Y-86496140D01*
X174515948Y-86412187D01*
X174452811Y-86259760D01*
X174452809Y-86259757D01*
X174319124Y-86041603D01*
X174319121Y-86041598D01*
X174259319Y-85971579D01*
X174152956Y-85847044D01*
X174046591Y-85756200D01*
X173958401Y-85680878D01*
X173958396Y-85680875D01*
X173740242Y-85547190D01*
X173740239Y-85547188D01*
X173503864Y-85449279D01*
X173503860Y-85449278D01*
X173255070Y-85389548D01*
X173255067Y-85389547D01*
X173255064Y-85389547D01*
X173000000Y-85369474D01*
X172744935Y-85389547D01*
X172744931Y-85389547D01*
X172744930Y-85389548D01*
X172620535Y-85419413D01*
X172496135Y-85449279D01*
X172259760Y-85547188D01*
X172259757Y-85547190D01*
X172041603Y-85680875D01*
X172041598Y-85680878D01*
X171847044Y-85847044D01*
X171680878Y-86041598D01*
X171680875Y-86041603D01*
X171547190Y-86259757D01*
X171547188Y-86259760D01*
X171449279Y-86496135D01*
X171389547Y-86744935D01*
X171369474Y-87000000D01*
X114630024Y-87000000D01*
X114609957Y-86745010D01*
X114550247Y-86496297D01*
X114452365Y-86259987D01*
X114452363Y-86259984D01*
X114318719Y-86041898D01*
X114318712Y-86041888D01*
X114315465Y-86038087D01*
X114315464Y-86038087D01*
X113717667Y-86635884D01*
X113656344Y-86669369D01*
X113586652Y-86664385D01*
X113530719Y-86622513D01*
X113525290Y-86614646D01*
X113523771Y-86612252D01*
X113504814Y-86582381D01*
X113440942Y-86522402D01*
X113385097Y-86469960D01*
X113381732Y-86467515D01*
X113379731Y-86464920D01*
X113379410Y-86464619D01*
X113379458Y-86464567D01*
X113339064Y-86412187D01*
X113333082Y-86342574D01*
X113365685Y-86280778D01*
X113366932Y-86279513D01*
X113961911Y-85684535D01*
X113961911Y-85684533D01*
X113958110Y-85681286D01*
X113958095Y-85681275D01*
X113740015Y-85547636D01*
X113740012Y-85547634D01*
X113503702Y-85449752D01*
X113254988Y-85390042D01*
X113254989Y-85390042D01*
X113000000Y-85369975D01*
X112745010Y-85390042D01*
X112496297Y-85449752D01*
X112259987Y-85547634D01*
X112259984Y-85547636D01*
X112041897Y-85681280D01*
X112038087Y-85684534D01*
X112636765Y-86283212D01*
X112670250Y-86344535D01*
X112665266Y-86414227D01*
X112623394Y-86470160D01*
X112621970Y-86471210D01*
X112551510Y-86522402D01*
X112551508Y-86522405D01*
X112465130Y-86626818D01*
X112407230Y-86665925D01*
X112337378Y-86667521D01*
X112281905Y-86635458D01*
X111684534Y-86038087D01*
X111681280Y-86041897D01*
X111547636Y-86259984D01*
X111547634Y-86259987D01*
X111449752Y-86496297D01*
X111390042Y-86745010D01*
X111369975Y-87000000D01*
X107000500Y-87000000D01*
X107000500Y-74000000D01*
X112745426Y-74000000D01*
X112764485Y-74217849D01*
X112764487Y-74217859D01*
X112821083Y-74429082D01*
X112821085Y-74429086D01*
X112821086Y-74429090D01*
X112824892Y-74437251D01*
X112913506Y-74627286D01*
X112920634Y-74637466D01*
X113038941Y-74806425D01*
X113193575Y-74961059D01*
X113372713Y-75086493D01*
X113570910Y-75178914D01*
X113782146Y-75235514D01*
X113956429Y-75250761D01*
X113999999Y-75254574D01*
X114000000Y-75254574D01*
X114000001Y-75254574D01*
X114036309Y-75251397D01*
X114217854Y-75235514D01*
X114429090Y-75178914D01*
X114627287Y-75086493D01*
X114806425Y-74961059D01*
X114961059Y-74806425D01*
X115086493Y-74627287D01*
X115178914Y-74429090D01*
X115235514Y-74217854D01*
X115254241Y-74003802D01*
X128732677Y-74003802D01*
X128751929Y-74223862D01*
X128751930Y-74223870D01*
X128809104Y-74437245D01*
X128809105Y-74437247D01*
X128809106Y-74437250D01*
X128897721Y-74627286D01*
X128902466Y-74637462D01*
X128902468Y-74637466D01*
X129029170Y-74818415D01*
X129029175Y-74818421D01*
X129185378Y-74974624D01*
X129185384Y-74974629D01*
X129366333Y-75101331D01*
X129366335Y-75101332D01*
X129366338Y-75101334D01*
X129566550Y-75194694D01*
X129779932Y-75251870D01*
X129937123Y-75265622D01*
X129999998Y-75271123D01*
X130000000Y-75271123D01*
X130000002Y-75271123D01*
X130055017Y-75266309D01*
X130220068Y-75251870D01*
X130433450Y-75194694D01*
X130633662Y-75101334D01*
X130814620Y-74974626D01*
X130970826Y-74818420D01*
X131097534Y-74637462D01*
X131190894Y-74437250D01*
X131248070Y-74223868D01*
X131267323Y-74003800D01*
X131266990Y-73999999D01*
X131248070Y-73783737D01*
X131248070Y-73783732D01*
X131190894Y-73570350D01*
X131097534Y-73370139D01*
X131034180Y-73279659D01*
X130970827Y-73189181D01*
X130970823Y-73189177D01*
X130814620Y-73032974D01*
X130814616Y-73032971D01*
X130814615Y-73032970D01*
X130633666Y-72906268D01*
X130633662Y-72906266D01*
X130633662Y-72906265D01*
X130433450Y-72812906D01*
X130433447Y-72812905D01*
X130433445Y-72812904D01*
X130220070Y-72755730D01*
X130220062Y-72755729D01*
X130000002Y-72736477D01*
X129999998Y-72736477D01*
X129779937Y-72755729D01*
X129779929Y-72755730D01*
X129566554Y-72812904D01*
X129566548Y-72812907D01*
X129366340Y-72906265D01*
X129366338Y-72906266D01*
X129185377Y-73032975D01*
X129029175Y-73189177D01*
X128902466Y-73370138D01*
X128902465Y-73370140D01*
X128809107Y-73570348D01*
X128809104Y-73570354D01*
X128751930Y-73783729D01*
X128751929Y-73783737D01*
X128732677Y-74003797D01*
X128732677Y-74003802D01*
X115254241Y-74003802D01*
X115254574Y-74000000D01*
X115235514Y-73782146D01*
X115178914Y-73570910D01*
X115086493Y-73372713D01*
X114961059Y-73193575D01*
X114806425Y-73038941D01*
X114627287Y-72913507D01*
X114627288Y-72913507D01*
X114627286Y-72913506D01*
X114528188Y-72867296D01*
X114429090Y-72821086D01*
X114429086Y-72821085D01*
X114429082Y-72821083D01*
X114217859Y-72764487D01*
X114217849Y-72764485D01*
X114000001Y-72745426D01*
X113999999Y-72745426D01*
X113782150Y-72764485D01*
X113782140Y-72764487D01*
X113570917Y-72821083D01*
X113570908Y-72821087D01*
X113372713Y-72913506D01*
X113253201Y-72997190D01*
X113193575Y-73038941D01*
X113193573Y-73038942D01*
X113193570Y-73038945D01*
X113038945Y-73193570D01*
X112913506Y-73372713D01*
X112821087Y-73570908D01*
X112821083Y-73570917D01*
X112764487Y-73782140D01*
X112764485Y-73782150D01*
X112745426Y-73999999D01*
X112745426Y-74000000D01*
X107000500Y-74000000D01*
X107000500Y-70500000D01*
X112745928Y-70500000D01*
X112764979Y-70717760D01*
X112764981Y-70717770D01*
X112821555Y-70928909D01*
X112821559Y-70928918D01*
X112913944Y-71127038D01*
X112957376Y-71189067D01*
X112957377Y-71189068D01*
X113394451Y-70751993D01*
X113455774Y-70718508D01*
X113525465Y-70723492D01*
X113581399Y-70765363D01*
X113586447Y-70772634D01*
X113621826Y-70827684D01*
X113621828Y-70827687D01*
X113729467Y-70920956D01*
X113736170Y-70926764D01*
X113734050Y-70929209D01*
X113769426Y-70970027D01*
X113779377Y-71039184D01*
X113750358Y-71102743D01*
X113744318Y-71109231D01*
X113310929Y-71542619D01*
X113310930Y-71542621D01*
X113372960Y-71586054D01*
X113571080Y-71678439D01*
X113571089Y-71678443D01*
X113782228Y-71735017D01*
X113782238Y-71735019D01*
X113999998Y-71754071D01*
X114000002Y-71754071D01*
X114217761Y-71735019D01*
X114217771Y-71735017D01*
X114428910Y-71678443D01*
X114428919Y-71678439D01*
X114627035Y-71586056D01*
X114689069Y-71542620D01*
X114255680Y-71109232D01*
X114222195Y-71047909D01*
X114227179Y-70978218D01*
X114264831Y-70927919D01*
X114263830Y-70926764D01*
X114270533Y-70920956D01*
X114378172Y-70827687D01*
X114413551Y-70772634D01*
X114466352Y-70726881D01*
X114535511Y-70716936D01*
X114599067Y-70745960D01*
X114605547Y-70751993D01*
X115042621Y-71189068D01*
X115086057Y-71127034D01*
X115178440Y-70928918D01*
X115178444Y-70928909D01*
X115235018Y-70717770D01*
X115235020Y-70717760D01*
X115254072Y-70500000D01*
X115254072Y-70499997D01*
X115235020Y-70282237D01*
X115235018Y-70282227D01*
X115178444Y-70071088D01*
X115178440Y-70071079D01*
X115086055Y-69872959D01*
X115042622Y-69810929D01*
X115042621Y-69810928D01*
X114605547Y-70248003D01*
X114544224Y-70281488D01*
X114474532Y-70276504D01*
X114418599Y-70234632D01*
X114413550Y-70227361D01*
X114399407Y-70205354D01*
X114378172Y-70172311D01*
X114270533Y-70079042D01*
X114270532Y-70079041D01*
X114263830Y-70073234D01*
X114265948Y-70070789D01*
X114230569Y-70029966D01*
X114220621Y-69960808D01*
X114249641Y-69897250D01*
X114255679Y-69890765D01*
X114336600Y-69809844D01*
X128738000Y-69809844D01*
X128744401Y-69869372D01*
X128744403Y-69869379D01*
X128794645Y-70004086D01*
X128794649Y-70004093D01*
X128880809Y-70119187D01*
X128880812Y-70119190D01*
X128995906Y-70205350D01*
X128995913Y-70205354D01*
X129130620Y-70255596D01*
X129130627Y-70255598D01*
X129190155Y-70261999D01*
X129190172Y-70262000D01*
X129750000Y-70262000D01*
X129750000Y-69620383D01*
X129769685Y-69553344D01*
X129822489Y-69507589D01*
X129891645Y-69497645D01*
X129963666Y-69508000D01*
X129963669Y-69508000D01*
X130036331Y-69508000D01*
X130036334Y-69508000D01*
X130108354Y-69497645D01*
X130177512Y-69507589D01*
X130230316Y-69553344D01*
X130250000Y-69620383D01*
X130250000Y-70262000D01*
X130809828Y-70262000D01*
X130809844Y-70261999D01*
X130869372Y-70255598D01*
X130869379Y-70255596D01*
X131004086Y-70205354D01*
X131004093Y-70205350D01*
X131119187Y-70119190D01*
X131119190Y-70119187D01*
X131205350Y-70004093D01*
X131205354Y-70004086D01*
X131255596Y-69869379D01*
X131255598Y-69869372D01*
X131261999Y-69809844D01*
X131262000Y-69809827D01*
X131262000Y-69250000D01*
X130621684Y-69250000D01*
X130554645Y-69230315D01*
X130508890Y-69177511D01*
X130498946Y-69108353D01*
X130502707Y-69091064D01*
X130508000Y-69073038D01*
X130508000Y-68926961D01*
X130502707Y-68908936D01*
X130502706Y-68839067D01*
X130540480Y-68780288D01*
X130604036Y-68751262D01*
X130621684Y-68750000D01*
X131262000Y-68750000D01*
X131262000Y-68190172D01*
X131261999Y-68190155D01*
X131255598Y-68130627D01*
X131255596Y-68130620D01*
X131205354Y-67995913D01*
X131205350Y-67995906D01*
X131119190Y-67880812D01*
X131119187Y-67880809D01*
X131004093Y-67794649D01*
X131004086Y-67794645D01*
X130869379Y-67744403D01*
X130869372Y-67744401D01*
X130809844Y-67738000D01*
X130250000Y-67738000D01*
X130250000Y-68379616D01*
X130230315Y-68446655D01*
X130177511Y-68492410D01*
X130108355Y-68502354D01*
X130036337Y-68492000D01*
X130036334Y-68492000D01*
X129963666Y-68492000D01*
X129963662Y-68492000D01*
X129891645Y-68502354D01*
X129822487Y-68492410D01*
X129769684Y-68446654D01*
X129750000Y-68379616D01*
X129750000Y-67738000D01*
X129190155Y-67738000D01*
X129130627Y-67744401D01*
X129130620Y-67744403D01*
X128995913Y-67794645D01*
X128995906Y-67794649D01*
X128880812Y-67880809D01*
X128880809Y-67880812D01*
X128794649Y-67995906D01*
X128794645Y-67995913D01*
X128744403Y-68130620D01*
X128744401Y-68130627D01*
X128738000Y-68190155D01*
X128738000Y-68750000D01*
X129378316Y-68750000D01*
X129445355Y-68769685D01*
X129491110Y-68822489D01*
X129501054Y-68891647D01*
X129497293Y-68908936D01*
X129492000Y-68926961D01*
X129492000Y-69073038D01*
X129497293Y-69091064D01*
X129497294Y-69160933D01*
X129459520Y-69219712D01*
X129395964Y-69248738D01*
X129378316Y-69250000D01*
X128738000Y-69250000D01*
X128738000Y-69809844D01*
X114336600Y-69809844D01*
X114689069Y-69457376D01*
X114689068Y-69457375D01*
X114627039Y-69413943D01*
X114428919Y-69321558D01*
X114428910Y-69321554D01*
X114217771Y-69264980D01*
X114217761Y-69264978D01*
X114000002Y-69245927D01*
X113999998Y-69245927D01*
X113782238Y-69264978D01*
X113782228Y-69264980D01*
X113571089Y-69321554D01*
X113571080Y-69321558D01*
X113372964Y-69413941D01*
X113310930Y-69457376D01*
X113744319Y-69890765D01*
X113777804Y-69952088D01*
X113772820Y-70021780D01*
X113735167Y-70072076D01*
X113736170Y-70073234D01*
X113729467Y-70079041D01*
X113729467Y-70079042D01*
X113683134Y-70119190D01*
X113621826Y-70172313D01*
X113621824Y-70172315D01*
X113586448Y-70227362D01*
X113533644Y-70273117D01*
X113464486Y-70283061D01*
X113400930Y-70254036D01*
X113394452Y-70248004D01*
X112957377Y-69810929D01*
X112913942Y-69872963D01*
X112821559Y-70071079D01*
X112821555Y-70071088D01*
X112764981Y-70282227D01*
X112764979Y-70282237D01*
X112745928Y-70499997D01*
X112745928Y-70500000D01*
X107000500Y-70500000D01*
X107000500Y-63124500D01*
X107020185Y-63057461D01*
X107072989Y-63011706D01*
X107124500Y-63000500D01*
X223875500Y-63000500D01*
X223942539Y-63020185D01*
G37*
%TD.AperFunction*%
%TD*%
M02*
