%TF.GenerationSoftware,KiCad,Pcbnew,7.0.7*%
%TF.CreationDate,2024-05-31T20:05:00-04:00*%
%TF.ProjectId,HVHF_IIB,48564846-5f49-4494-922e-6b696361645f,rev?*%
%TF.SameCoordinates,Original*%
%TF.FileFunction,Copper,L1,Top*%
%TF.FilePolarity,Positive*%
%FSLAX46Y46*%
G04 Gerber Fmt 4.6, Leading zero omitted, Abs format (unit mm)*
G04 Created by KiCad (PCBNEW 7.0.7) date 2024-05-31 20:05:00*
%MOMM*%
%LPD*%
G01*
G04 APERTURE LIST*
G04 Aperture macros list*
%AMRoundRect*
0 Rectangle with rounded corners*
0 $1 Rounding radius*
0 $2 $3 $4 $5 $6 $7 $8 $9 X,Y pos of 4 corners*
0 Add a 4 corners polygon primitive as box body*
4,1,4,$2,$3,$4,$5,$6,$7,$8,$9,$2,$3,0*
0 Add four circle primitives for the rounded corners*
1,1,$1+$1,$2,$3*
1,1,$1+$1,$4,$5*
1,1,$1+$1,$6,$7*
1,1,$1+$1,$8,$9*
0 Add four rect primitives between the rounded corners*
20,1,$1+$1,$2,$3,$4,$5,0*
20,1,$1+$1,$4,$5,$6,$7,0*
20,1,$1+$1,$6,$7,$8,$9,0*
20,1,$1+$1,$8,$9,$2,$3,0*%
G04 Aperture macros list end*
%TA.AperFunction,SMDPad,CuDef*%
%ADD10RoundRect,0.250000X-0.475000X0.337500X-0.475000X-0.337500X0.475000X-0.337500X0.475000X0.337500X0*%
%TD*%
%TA.AperFunction,SMDPad,CuDef*%
%ADD11RoundRect,0.250000X-0.450000X0.350000X-0.450000X-0.350000X0.450000X-0.350000X0.450000X0.350000X0*%
%TD*%
%TA.AperFunction,ComponentPad*%
%ADD12O,1.524000X3.048000*%
%TD*%
%TA.AperFunction,ComponentPad*%
%ADD13C,1.498600*%
%TD*%
%TA.AperFunction,ComponentPad*%
%ADD14C,2.100000*%
%TD*%
%TA.AperFunction,ComponentPad*%
%ADD15C,2.250000*%
%TD*%
%TA.AperFunction,SMDPad,CuDef*%
%ADD16RoundRect,0.250000X0.350000X0.450000X-0.350000X0.450000X-0.350000X-0.450000X0.350000X-0.450000X0*%
%TD*%
%TA.AperFunction,SMDPad,CuDef*%
%ADD17RoundRect,0.225000X-0.225000X-0.375000X0.225000X-0.375000X0.225000X0.375000X-0.225000X0.375000X0*%
%TD*%
%TA.AperFunction,SMDPad,CuDef*%
%ADD18RoundRect,0.250000X-0.337500X-0.475000X0.337500X-0.475000X0.337500X0.475000X-0.337500X0.475000X0*%
%TD*%
%TA.AperFunction,SMDPad,CuDef*%
%ADD19R,0.304800X0.304800*%
%TD*%
%TA.AperFunction,SMDPad,CuDef*%
%ADD20RoundRect,0.150000X0.587500X0.150000X-0.587500X0.150000X-0.587500X-0.150000X0.587500X-0.150000X0*%
%TD*%
%TA.AperFunction,SMDPad,CuDef*%
%ADD21RoundRect,0.250000X-0.650000X0.412500X-0.650000X-0.412500X0.650000X-0.412500X0.650000X0.412500X0*%
%TD*%
%TA.AperFunction,SMDPad,CuDef*%
%ADD22RoundRect,0.250000X0.450000X-0.350000X0.450000X0.350000X-0.450000X0.350000X-0.450000X-0.350000X0*%
%TD*%
%TA.AperFunction,SMDPad,CuDef*%
%ADD23RoundRect,0.250000X-0.362500X-1.425000X0.362500X-1.425000X0.362500X1.425000X-0.362500X1.425000X0*%
%TD*%
%TA.AperFunction,SMDPad,CuDef*%
%ADD24RoundRect,0.150000X-0.150000X0.512500X-0.150000X-0.512500X0.150000X-0.512500X0.150000X0.512500X0*%
%TD*%
%TA.AperFunction,SMDPad,CuDef*%
%ADD25RoundRect,0.250000X-0.350000X-0.450000X0.350000X-0.450000X0.350000X0.450000X-0.350000X0.450000X0*%
%TD*%
%TA.AperFunction,ComponentPad*%
%ADD26R,1.524000X1.524000*%
%TD*%
%TA.AperFunction,ComponentPad*%
%ADD27C,1.524000*%
%TD*%
%TA.AperFunction,ComponentPad*%
%ADD28C,1.320800*%
%TD*%
%TA.AperFunction,ComponentPad*%
%ADD29R,1.320800X1.320800*%
%TD*%
%TA.AperFunction,SMDPad,CuDef*%
%ADD30RoundRect,0.250000X0.362500X1.425000X-0.362500X1.425000X-0.362500X-1.425000X0.362500X-1.425000X0*%
%TD*%
%TA.AperFunction,SMDPad,CuDef*%
%ADD31R,1.500000X2.000000*%
%TD*%
%TA.AperFunction,SMDPad,CuDef*%
%ADD32R,3.800000X2.000000*%
%TD*%
%TA.AperFunction,SMDPad,CuDef*%
%ADD33R,0.800000X0.600000*%
%TD*%
%TA.AperFunction,SMDPad,CuDef*%
%ADD34R,0.800000X0.900000*%
%TD*%
%TA.AperFunction,ComponentPad*%
%ADD35C,2.413000*%
%TD*%
G04 APERTURE END LIST*
D10*
%TO.P,C11,1*%
%TO.N,Net-(T1-E)*%
X157000000Y-126462500D03*
%TO.P,C11,2*%
%TO.N,GND*%
X157000000Y-128537500D03*
%TD*%
D11*
%TO.P,R15,1*%
%TO.N,+5V*%
X166000000Y-119970000D03*
%TO.P,R15,2*%
%TO.N,Net-(R15-Pad2)*%
X166000000Y-121970000D03*
%TD*%
D12*
%TO.P,T5,1,E*%
%TO.N,Net-(T4-C)*%
X186286000Y-88730000D03*
%TO.P,T5,2,C*%
%TO.N,+VDC*%
X184000000Y-88730000D03*
%TO.P,T5,3,B*%
%TO.N,Net-(T4-B)*%
X181714000Y-88730000D03*
%TD*%
D13*
%TO.P,J2,1,1*%
%TO.N,+5V*%
X114620600Y-108608400D03*
%TO.P,J2,2,2*%
%TO.N,GND*%
X114620600Y-112108401D03*
%TD*%
D14*
%TO.P,J4,1*%
%TO.N,output*%
X218840000Y-111000000D03*
D15*
%TO.P,J4,S1*%
%TO.N,GND*%
X216290000Y-113550000D03*
X221390000Y-113550000D03*
X216290000Y-108450000D03*
X221390000Y-108450000D03*
%TD*%
D12*
%TO.P,T2,1,E*%
%TO.N,Net-(T1-C)*%
X168286000Y-103730000D03*
%TO.P,T2,2,C*%
%TO.N,Net-(D1-K)*%
X166000000Y-103730000D03*
%TO.P,T2,3,B*%
%TO.N,Net-(T2-B)*%
X163714000Y-103730000D03*
%TD*%
%TO.P,T6,1,E*%
%TO.N,Net-(T10-C)*%
X186286000Y-103730000D03*
%TO.P,T6,2,C*%
%TO.N,Net-(T6-C)*%
X184000000Y-103730000D03*
%TO.P,T6,3,B*%
%TO.N,Net-(T10-B)*%
X181714000Y-103730000D03*
%TD*%
%TO.P,T7,1,E*%
%TO.N,Net-(T11-C)*%
X186286000Y-118730000D03*
%TO.P,T7,2,C*%
%TO.N,Net-(T6-C)*%
X184000000Y-118730000D03*
%TO.P,T7,3,B*%
%TO.N,Net-(T11-B)*%
X181714000Y-118730000D03*
%TD*%
D16*
%TO.P,R22,1*%
%TO.N,output*%
X213000000Y-134625000D03*
%TO.P,R22,2*%
%TO.N,Net-(T12-C)*%
X211000000Y-134625000D03*
%TD*%
D12*
%TO.P,T4,1,E*%
%TO.N,GND*%
X203286000Y-88730000D03*
%TO.P,T4,2,C*%
%TO.N,Net-(T4-C)*%
X201000000Y-88730000D03*
%TO.P,T4,3,B*%
%TO.N,Net-(T4-B)*%
X198714000Y-88730000D03*
%TD*%
D17*
%TO.P,D2,1,K*%
%TO.N,input*%
X130300000Y-125805000D03*
%TO.P,D2,2,A*%
%TO.N,Net-(D2-A)*%
X133600000Y-125805000D03*
%TD*%
D12*
%TO.P,T9,1,E*%
%TO.N,Net-(T12-C)*%
X186286000Y-133730000D03*
%TO.P,T9,2,C*%
%TO.N,Net-(T6-C)*%
X184000000Y-133730000D03*
%TO.P,T9,3,B*%
%TO.N,Net-(T12-B)*%
X181714000Y-133730000D03*
%TD*%
D18*
%TO.P,C2,1*%
%TO.N,input*%
X130950000Y-121805000D03*
%TO.P,C2,2*%
%TO.N,Net-(D2-A)*%
X133025000Y-121805000D03*
%TD*%
D11*
%TO.P,R31,1*%
%TO.N,Net-(T2-B)*%
X161500000Y-109037500D03*
%TO.P,R31,2*%
%TO.N,+5V*%
X161500000Y-111037500D03*
%TD*%
%TO.P,R1,1*%
%TO.N,+5V*%
X139000000Y-119000000D03*
%TO.P,R1,2*%
%TO.N,Net-(Q1-C)*%
X139000000Y-121000000D03*
%TD*%
D19*
%TO.P,D1,1,K*%
%TO.N,Net-(D1-K)*%
X158800100Y-109000000D03*
%TO.P,D1,2,A*%
%TO.N,/FB1*%
X157199900Y-109000000D03*
%TD*%
D10*
%TO.P,C1,1*%
%TO.N,Net-(C1-Pad1)*%
X145000000Y-128925000D03*
%TO.P,C1,2*%
%TO.N,GND*%
X145000000Y-131000000D03*
%TD*%
D11*
%TO.P,R14,1*%
%TO.N,+VDC*%
X138000000Y-99000000D03*
%TO.P,R14,2*%
%TO.N,Net-(T3-C)*%
X138000000Y-101000000D03*
%TD*%
D12*
%TO.P,T12,1,E*%
%TO.N,GND*%
X203286000Y-133730000D03*
%TO.P,T12,2,C*%
%TO.N,Net-(T12-C)*%
X201000000Y-133730000D03*
%TO.P,T12,3,B*%
%TO.N,Net-(T12-B)*%
X198714000Y-133730000D03*
%TD*%
D20*
%TO.P,T8,1,B*%
%TO.N,Net-(T8-B)*%
X163437500Y-121870000D03*
%TO.P,T8,2,E*%
%TO.N,Net-(T1-E)*%
X163437500Y-119970000D03*
%TO.P,T8,3,C*%
%TO.N,GND*%
X161562500Y-120920000D03*
%TD*%
D16*
%TO.P,R18,1*%
%TO.N,Net-(R13-Pad1)*%
X193000000Y-124000000D03*
%TO.P,R18,2*%
%TO.N,Net-(T11-B)*%
X191000000Y-124000000D03*
%TD*%
D21*
%TO.P,C7,1*%
%TO.N,+VDC*%
X134000000Y-98875000D03*
%TO.P,C7,2*%
%TO.N,GND*%
X134000000Y-102000000D03*
%TD*%
D22*
%TO.P,R13,1*%
%TO.N,Net-(R13-Pad1)*%
X154500000Y-114500000D03*
%TO.P,R13,2*%
%TO.N,/FB1*%
X154500000Y-112500000D03*
%TD*%
D15*
%TO.P,C4,1*%
%TO.N,Net-(Q2-E)*%
X140040000Y-131960000D03*
X134960000Y-131960000D03*
%TO.P,C4,2*%
%TO.N,GND*%
X137500000Y-139580000D03*
%TD*%
D11*
%TO.P,R8,1*%
%TO.N,Net-(Q2-E)*%
X147000000Y-124080000D03*
%TO.P,R8,2*%
%TO.N,Net-(C1-Pad1)*%
X147000000Y-126080000D03*
%TD*%
D23*
%TO.P,R10,1*%
%TO.N,/FB1*%
X142575000Y-110500000D03*
%TO.P,R10,2*%
%TO.N,Net-(R10-Pad2)*%
X148500000Y-110500000D03*
%TD*%
D12*
%TO.P,T11,1,E*%
%TO.N,GND*%
X203286000Y-118730000D03*
%TO.P,T11,2,C*%
%TO.N,Net-(T11-C)*%
X201000000Y-118730000D03*
%TO.P,T11,3,B*%
%TO.N,Net-(T11-B)*%
X198714000Y-118730000D03*
%TD*%
D16*
%TO.P,R12,1*%
%TO.N,output*%
X213000000Y-89000000D03*
%TO.P,R12,2*%
%TO.N,Net-(T4-C)*%
X211000000Y-89000000D03*
%TD*%
D24*
%TO.P,Q1,1,C*%
%TO.N,Net-(Q1-C)*%
X138950000Y-123725000D03*
%TO.P,Q1,2,B*%
%TO.N,Net-(D2-A)*%
X137050000Y-123725000D03*
%TO.P,Q1,3,E*%
%TO.N,GND*%
X138000000Y-126000000D03*
%TD*%
D22*
%TO.P,R5,1*%
%TO.N,Net-(Q1-C)*%
X141000000Y-125500000D03*
%TO.P,R5,2*%
%TO.N,Net-(Q2-B)*%
X141000000Y-123500000D03*
%TD*%
D15*
%TO.P,R11,1*%
%TO.N,+VDC*%
X113000000Y-87000000D03*
%TO.P,R11,2*%
%TO.N,/FB1*%
X173000000Y-87000000D03*
%TD*%
D25*
%TO.P,R19,1*%
%TO.N,Net-(R13-Pad1)*%
X191000000Y-139000000D03*
%TO.P,R19,2*%
%TO.N,Net-(T12-B)*%
X193000000Y-139000000D03*
%TD*%
%TO.P,R17,1*%
%TO.N,Net-(R13-Pad1)*%
X191000000Y-109000000D03*
%TO.P,R17,2*%
%TO.N,Net-(T10-B)*%
X193000000Y-109000000D03*
%TD*%
D22*
%TO.P,R30,1*%
%TO.N,Net-(T1-B)*%
X149500000Y-121000000D03*
%TO.P,R30,2*%
%TO.N,/FB2*%
X149500000Y-119000000D03*
%TD*%
D16*
%TO.P,R21,1*%
%TO.N,output*%
X213000000Y-119000000D03*
%TO.P,R21,2*%
%TO.N,Net-(T11-C)*%
X211000000Y-119000000D03*
%TD*%
D25*
%TO.P,R3,1*%
%TO.N,Net-(R13-Pad1)*%
X191000000Y-94000000D03*
%TO.P,R3,2*%
%TO.N,Net-(T4-B)*%
X193000000Y-94000000D03*
%TD*%
D10*
%TO.P,C3,1*%
%TO.N,Net-(T1-E)*%
X152000000Y-126425000D03*
%TO.P,C3,2*%
%TO.N,GND*%
X152000000Y-128500000D03*
%TD*%
D11*
%TO.P,R2,1*%
%TO.N,+5V*%
X137000000Y-119000000D03*
%TO.P,R2,2*%
%TO.N,Net-(D2-A)*%
X137000000Y-121000000D03*
%TD*%
%TO.P,R4,1*%
%TO.N,input*%
X126950000Y-123805000D03*
%TO.P,R4,2*%
%TO.N,GND*%
X126950000Y-125805000D03*
%TD*%
D10*
%TO.P,C10,1*%
%TO.N,Net-(T2-B)*%
X164500000Y-109000000D03*
%TO.P,C10,2*%
%TO.N,GND*%
X164500000Y-111075000D03*
%TD*%
D26*
%TO.P,C6,1*%
%TO.N,+VDC*%
X130000000Y-69000000D03*
D27*
%TO.P,C6,2*%
%TO.N,GND*%
X130000000Y-74003800D03*
%TD*%
D28*
%TO.P,R16,1,1*%
%TO.N,Net-(R15-Pad2)*%
X166000000Y-126920000D03*
%TO.P,R16,2,2*%
%TO.N,Net-(T8-B)*%
X166000000Y-129460000D03*
D29*
%TO.P,R16,3,3*%
%TO.N,GND*%
X166000000Y-132000000D03*
%TD*%
D30*
%TO.P,R9,1*%
%TO.N,Net-(R10-Pad2)*%
X148462500Y-115000000D03*
%TO.P,R9,2*%
%TO.N,/FB2*%
X142537500Y-115000000D03*
%TD*%
D21*
%TO.P,C5,1*%
%TO.N,+5V*%
X125000000Y-108437500D03*
%TO.P,C5,2*%
%TO.N,GND*%
X125000000Y-111562500D03*
%TD*%
D12*
%TO.P,T10,1,E*%
%TO.N,GND*%
X203286000Y-103730000D03*
%TO.P,T10,2,C*%
%TO.N,Net-(T10-C)*%
X201000000Y-103730000D03*
%TO.P,T10,3,B*%
%TO.N,Net-(T10-B)*%
X198714000Y-103730000D03*
%TD*%
D31*
%TO.P,T1,1,E*%
%TO.N,Net-(T1-E)*%
X152200000Y-123650000D03*
%TO.P,T1,2,B*%
%TO.N,Net-(T1-B)*%
X154500000Y-123650000D03*
%TO.P,T1,3,e*%
%TO.N,Net-(T1-E)*%
X156800000Y-123650000D03*
D32*
%TO.P,T1,4,C*%
%TO.N,Net-(T1-C)*%
X154500000Y-117350000D03*
%TD*%
D22*
%TO.P,R6,1*%
%TO.N,+5V*%
X141500000Y-121000000D03*
%TO.P,R6,2*%
%TO.N,/FB2*%
X141500000Y-119000000D03*
%TD*%
D33*
%TO.P,Q2,1,E*%
%TO.N,Net-(Q2-E)*%
X146800000Y-120575000D03*
D34*
%TO.P,Q2,2,C*%
%TO.N,/FB2*%
X146800000Y-119425000D03*
D33*
%TO.P,Q2,3,e*%
%TO.N,Net-(Q2-E)*%
X145200000Y-119275000D03*
%TO.P,Q2,4,B*%
%TO.N,Net-(Q2-B)*%
X145200000Y-120575000D03*
%TD*%
D13*
%TO.P,J1,1,1*%
%TO.N,+VDC*%
X114000000Y-70499999D03*
%TO.P,J1,2,2*%
%TO.N,GND*%
X114000000Y-74000000D03*
%TD*%
D27*
%TO.P,J3,1,1*%
%TO.N,input*%
X122000000Y-124000000D03*
%TO.P,J3,2,2*%
%TO.N,GND*%
X122000000Y-126540000D03*
D35*
%TO.P,J3,3*%
%TO.N,N/C*%
X116919891Y-129080000D03*
%TO.P,J3,4*%
X116919891Y-118920000D03*
%TD*%
D11*
%TO.P,R7,1*%
%TO.N,Net-(Q2-E)*%
X144000000Y-124000000D03*
%TO.P,R7,2*%
%TO.N,GND*%
X144000000Y-126000000D03*
%TD*%
D16*
%TO.P,R20,1*%
%TO.N,output*%
X213000000Y-104000000D03*
%TO.P,R20,2*%
%TO.N,Net-(T10-C)*%
X211000000Y-104000000D03*
%TD*%
D12*
%TO.P,T3,1,E*%
%TO.N,/FB1*%
X151286000Y-103730000D03*
%TO.P,T3,2,C*%
%TO.N,Net-(T3-C)*%
X149000000Y-103730000D03*
%TO.P,T3,3,B*%
%TO.N,/FB1*%
X146714000Y-103730000D03*
%TD*%
M02*
