M48
; DRILL file {KiCad 7.0.7} date Mon Jun 17 16:02:19 2024
; FORMAT={-:-/ absolute / metric / decimal}
; #@! TF.CreationDate,2024-06-17T16:02:19-04:00
; #@! TF.GenerationSoftware,Kicad,Pcbnew,7.0.7
; #@! TF.FileFunction,Plated,1,4,PTH
FMAT,2
METRIC
; #@! TA.AperFunction,Plated,PTH,ViaDrill
T1C0.400
; #@! TA.AperFunction,Plated,PTH,ViaDrill
T2C0.600
; #@! TA.AperFunction,Plated,PTH,ComponentDrill
T3C0.813
; #@! TA.AperFunction,Plated,PTH,ComponentDrill
T4C0.991
; #@! TA.AperFunction,Plated,PTH,ComponentDrill
T5C1.016
; #@! TA.AperFunction,Plated,PTH,ComponentDrill
T6C1.067
; #@! TA.AperFunction,Plated,PTH,ComponentDrill
T7C1.300
; #@! TA.AperFunction,Plated,PTH,ComponentDrill
T8C1.400
; #@! TA.AperFunction,Plated,PTH,ComponentDrill
T9C1.500
; #@! TA.AperFunction,Plated,PTH,ComponentDrill
T10C1.600
; #@! TA.AperFunction,Plated,PTH,ComponentDrill
T11C1.905
%
G90
G05
T1
X90.0Y-57.5
X90.0Y-62.5
X90.0Y-67.5
X90.0Y-72.5
X90.0Y-77.5
X90.0Y-82.5
X90.0Y-87.5
X90.0Y-97.5
X90.0Y-102.5
X90.0Y-107.5
X90.0Y-117.5
X90.0Y-127.5
X90.0Y-132.5
X90.0Y-137.5
X90.0Y-142.5
X91.25Y-67.65
X95.0Y-57.5
X95.0Y-142.5
X96.0Y-114.113
X96.5Y-98.863
X98.453Y-100.486
X98.75Y-109.113
X100.0Y-57.5
X100.0Y-142.5
X102.0Y-115.113
X103.0Y-109.5
X104.0Y-98.0
X104.5Y-105.613
X105.0Y-57.5
X105.0Y-70.75
X105.0Y-142.5
X106.0Y-100.75
X106.5Y-91.5
X106.5Y-98.0
X106.5Y-112.0
X108.0Y-106.0
X109.5Y-118.5
X109.5Y-121.5
X109.5Y-124.5
X109.5Y-127.5
X110.0Y-57.5
X110.0Y-91.5
X110.0Y-111.0
X110.0Y-142.5
X112.0Y-106.0
X112.5Y-98.0
X112.5Y-118.5
X112.5Y-121.5
X112.5Y-124.5
X112.5Y-127.5
X113.5Y-91.5
X114.0Y-105.5
X114.6Y-108.6
X115.0Y-142.5
X116.0Y-98.0
X116.0Y-100.5
X116.75Y-113.363
X117.0Y-87.5
X117.5Y-91.5
X120.0Y-57.5
X120.0Y-84.688
X120.0Y-142.5
X120.25Y-109.863
X120.25Y-114.113
X120.5Y-97.5
X120.5Y-100.5
X120.5Y-103.5
X120.5Y-107.0
X122.0Y-109.5
X122.5Y-86.5
X122.5Y-91.0
X123.0Y-97.5
X123.0Y-100.5
X123.0Y-103.5
X123.5Y-106.5
X125.0Y-57.5
X125.0Y-130.5
X125.0Y-133.5
X125.0Y-136.5
X125.0Y-142.5
X130.0Y-130.5
X130.0Y-133.5
X130.0Y-136.5
X130.0Y-142.5
X132.5Y-57.5
X134.5Y-130.5
X134.5Y-133.5
X134.5Y-136.5
X135.0Y-85.0
X135.0Y-105.063
X135.0Y-142.5
X137.0Y-130.0
X137.5Y-57.5
X137.5Y-97.5
X137.5Y-102.5
X137.5Y-106.5
X137.5Y-110.0
X137.5Y-136.5
X139.5Y-127.5
X140.0Y-85.0
X140.0Y-142.5
X141.0Y-99.0
X141.0Y-105.8
X141.0Y-133.5
X142.0Y-125.0
X142.5Y-57.5
X143.0Y-105.0
X143.2Y-98.6
X143.5Y-131.0
X144.5Y-122.5
X145.0Y-85.0
X145.0Y-142.5
X146.0Y-128.5
X146.5Y-114.5
X147.0Y-120.0
X147.5Y-57.5
X148.5Y-126.0
X149.0Y-116.0
X150.0Y-85.0
X150.0Y-131.0
X150.0Y-136.0
X150.0Y-142.5
X151.0Y-123.5
X151.75Y-134.0
X152.5Y-57.5
X152.5Y-97.5
X152.5Y-102.5
X152.5Y-106.5
X152.5Y-110.0
X154.5Y-133.189
X155.0Y-85.0
X155.0Y-142.5
X156.0Y-98.6
X156.0Y-106.0
X156.0Y-131.0
X156.0Y-137.0
X157.5Y-57.5
X157.5Y-85.0
X157.5Y-135.0
X158.0Y-98.0
X158.0Y-105.0
X158.0Y-139.0
X159.5Y-86.5
X160.0Y-137.5
X160.0Y-142.5
X161.0Y-121.5
X161.0Y-124.5
X161.0Y-129.5
X162.5Y-57.5
X162.5Y-134.0
X163.5Y-119.0
X165.0Y-86.5
X165.0Y-124.5
X165.0Y-129.5
X165.0Y-137.0
X165.0Y-140.0
X165.0Y-142.5
X166.0Y-116.5
X166.0Y-132.0
X166.2Y-71.4
X166.5Y-121.0
X167.5Y-57.5
X168.5Y-114.0
X168.5Y-124.5
X168.5Y-129.5
X169.0Y-98.0
X169.0Y-103.0
X169.0Y-105.5
X169.0Y-108.0
X169.0Y-110.5
X169.0Y-118.5
X170.0Y-86.5
X170.0Y-137.5
X170.0Y-140.0
X170.0Y-142.5
X171.5Y-116.0
X172.0Y-106.0
X172.0Y-120.5
X172.0Y-124.5
X172.0Y-129.5
X172.5Y-57.5
X172.5Y-99.0
X174.5Y-98.0
X174.5Y-105.0
X175.0Y-86.5
X175.0Y-137.5
X175.0Y-140.0
X175.0Y-142.5
X177.0Y-87.5
X177.0Y-132.0
X177.5Y-57.5
X177.5Y-124.5
X178.0Y-120.0
X179.5Y-87.5
X180.0Y-137.5
X180.0Y-140.0
X180.0Y-142.5
X180.5Y-117.5
X180.5Y-122.0
X182.0Y-87.5
X182.0Y-132.0
X182.5Y-57.5
X183.0Y-115.0
X183.0Y-119.5
X183.5Y-98.0
X183.5Y-103.0
X183.5Y-108.0
X183.5Y-110.5
X184.5Y-87.5
X185.0Y-142.5
X185.5Y-117.0
X187.5Y-57.5
X187.5Y-99.0
X187.5Y-106.0
X189.5Y-104.5
X190.0Y-98.0
X195.0Y-57.5
X197.5Y-142.5
X200.0Y-57.5
X202.5Y-142.5
X205.0Y-57.5
X207.5Y-142.5
X210.0Y-57.5
X210.0Y-62.5
X210.0Y-67.5
X210.0Y-72.5
X210.0Y-77.5
X210.0Y-82.5
X210.0Y-87.5
X210.0Y-92.5
X210.0Y-97.5
X210.0Y-102.5
X210.0Y-107.5
X210.0Y-112.5
X210.0Y-117.5
X210.0Y-122.5
X210.0Y-127.5
X210.0Y-132.5
X210.0Y-137.5
X210.0Y-142.5
T2
X91.88Y-123.98
X98.775Y-114.238
X101.5Y-102.863
X105.75Y-63.613
X111.75Y-113.113
X118.5Y-89.25
X135.0Y-115.863
T3
X91.7Y-119.0
X94.24Y-119.0
X96.78Y-119.0
T4
X93.0Y-79.65
X93.0Y-83.15
X160.892Y-60.621
X164.392Y-60.621
X172.25Y-60.5
X175.75Y-60.5
T5
X111.0Y-129.75
X113.54Y-129.75
X125.77Y-91.327
X125.77Y-93.613
X125.77Y-95.899
X125.77Y-108.327
X125.77Y-110.613
X125.77Y-112.899
X141.77Y-91.327
X141.77Y-93.613
X141.77Y-95.899
X141.77Y-108.327
X141.77Y-110.613
X141.77Y-112.899
X156.77Y-91.327
X156.77Y-93.613
X156.77Y-95.899
X156.77Y-108.327
X156.77Y-110.613
X156.77Y-112.899
X173.02Y-91.327
X173.02Y-93.613
X173.02Y-95.899
X173.02Y-108.327
X173.02Y-110.613
X173.02Y-112.899
X175.5Y-74.028
X175.5Y-79.032
X188.02Y-91.327
X188.02Y-93.613
X188.02Y-95.899
X188.02Y-108.327
X188.02Y-110.613
X188.02Y-112.899
T6
X120.774Y-129.0
X120.774Y-139.0
X151.0Y-129.0
X151.0Y-139.0
X155.0Y-129.0
X155.0Y-139.0
X185.226Y-129.0
X185.226Y-139.0
T7
X89.92Y-92.46
X97.54Y-89.92
X97.54Y-95.0
X105.8Y-77.113
X165.8Y-77.113
T8
X92.0Y-112.0
X192.0Y-138.84
T9
X133.08Y-61.0
X154.92Y-61.0
X189.45Y-136.29
X189.45Y-141.39
X190.25Y-58.58
X190.25Y-80.42
X194.55Y-136.29
X194.55Y-141.39
T10
X113.38Y-59.0
X128.62Y-59.0
X202.0Y-80.38
X202.0Y-95.62
T11
X105.92Y-134.83
X116.08Y-134.83
T0
M30
