%TF.GenerationSoftware,KiCad,Pcbnew,7.0.7*%
%TF.CreationDate,2024-06-17T16:02:21-04:00*%
%TF.ProjectId,HVHF_IIB,48564846-5f49-4494-922e-6b696361645f,rev?*%
%TF.SameCoordinates,Original*%
%TF.FileFunction,Drillmap*%
%TF.FilePolarity,Positive*%
%FSLAX45Y45*%
G04 Gerber Fmt 4.5, Leading zero omitted, Abs format (unit mm)*
G04 Created by KiCad (PCBNEW 7.0.7) date 2024-06-17 16:02:21*
%MOMM*%
%LPD*%
G01*
G04 APERTURE LIST*
%ADD10C,0.200000*%
G04 APERTURE END LIST*
D10*
X9005777Y-14816484D02*
X9005777Y-14616484D01*
X9005777Y-14616484D02*
X9053396Y-14616484D01*
X9053396Y-14616484D02*
X9081967Y-14626008D01*
X9081967Y-14626008D02*
X9101015Y-14645055D01*
X9101015Y-14645055D02*
X9110539Y-14664103D01*
X9110539Y-14664103D02*
X9120063Y-14702198D01*
X9120063Y-14702198D02*
X9120063Y-14730769D01*
X9120063Y-14730769D02*
X9110539Y-14768865D01*
X9110539Y-14768865D02*
X9101015Y-14787912D01*
X9101015Y-14787912D02*
X9081967Y-14806960D01*
X9081967Y-14806960D02*
X9053396Y-14816484D01*
X9053396Y-14816484D02*
X9005777Y-14816484D01*
X9205777Y-14816484D02*
X9205777Y-14683150D01*
X9205777Y-14721246D02*
X9215301Y-14702198D01*
X9215301Y-14702198D02*
X9224824Y-14692674D01*
X9224824Y-14692674D02*
X9243872Y-14683150D01*
X9243872Y-14683150D02*
X9262920Y-14683150D01*
X9329586Y-14816484D02*
X9329586Y-14683150D01*
X9329586Y-14616484D02*
X9320063Y-14626008D01*
X9320063Y-14626008D02*
X9329586Y-14635531D01*
X9329586Y-14635531D02*
X9339110Y-14626008D01*
X9339110Y-14626008D02*
X9329586Y-14616484D01*
X9329586Y-14616484D02*
X9329586Y-14635531D01*
X9453396Y-14816484D02*
X9434348Y-14806960D01*
X9434348Y-14806960D02*
X9424824Y-14787912D01*
X9424824Y-14787912D02*
X9424824Y-14616484D01*
X9558158Y-14816484D02*
X9539110Y-14806960D01*
X9539110Y-14806960D02*
X9529586Y-14787912D01*
X9529586Y-14787912D02*
X9529586Y-14616484D01*
X9786729Y-14816484D02*
X9786729Y-14616484D01*
X9786729Y-14616484D02*
X9853396Y-14759341D01*
X9853396Y-14759341D02*
X9920063Y-14616484D01*
X9920063Y-14616484D02*
X9920063Y-14816484D01*
X10101015Y-14816484D02*
X10101015Y-14711722D01*
X10101015Y-14711722D02*
X10091491Y-14692674D01*
X10091491Y-14692674D02*
X10072444Y-14683150D01*
X10072444Y-14683150D02*
X10034348Y-14683150D01*
X10034348Y-14683150D02*
X10015301Y-14692674D01*
X10101015Y-14806960D02*
X10081967Y-14816484D01*
X10081967Y-14816484D02*
X10034348Y-14816484D01*
X10034348Y-14816484D02*
X10015301Y-14806960D01*
X10015301Y-14806960D02*
X10005777Y-14787912D01*
X10005777Y-14787912D02*
X10005777Y-14768865D01*
X10005777Y-14768865D02*
X10015301Y-14749817D01*
X10015301Y-14749817D02*
X10034348Y-14740293D01*
X10034348Y-14740293D02*
X10081967Y-14740293D01*
X10081967Y-14740293D02*
X10101015Y-14730769D01*
X10196253Y-14683150D02*
X10196253Y-14883150D01*
X10196253Y-14692674D02*
X10215301Y-14683150D01*
X10215301Y-14683150D02*
X10253396Y-14683150D01*
X10253396Y-14683150D02*
X10272444Y-14692674D01*
X10272444Y-14692674D02*
X10281967Y-14702198D01*
X10281967Y-14702198D02*
X10291491Y-14721246D01*
X10291491Y-14721246D02*
X10291491Y-14778388D01*
X10291491Y-14778388D02*
X10281967Y-14797436D01*
X10281967Y-14797436D02*
X10272444Y-14806960D01*
X10272444Y-14806960D02*
X10253396Y-14816484D01*
X10253396Y-14816484D02*
X10215301Y-14816484D01*
X10215301Y-14816484D02*
X10196253Y-14806960D01*
X10377205Y-14797436D02*
X10386729Y-14806960D01*
X10386729Y-14806960D02*
X10377205Y-14816484D01*
X10377205Y-14816484D02*
X10367682Y-14806960D01*
X10367682Y-14806960D02*
X10377205Y-14797436D01*
X10377205Y-14797436D02*
X10377205Y-14816484D01*
X10377205Y-14692674D02*
X10386729Y-14702198D01*
X10386729Y-14702198D02*
X10377205Y-14711722D01*
X10377205Y-14711722D02*
X10367682Y-14702198D01*
X10367682Y-14702198D02*
X10377205Y-14692674D01*
X10377205Y-14692674D02*
X10377205Y-14711722D01*
M02*
