G04 #@! TF.GenerationSoftware,KiCad,Pcbnew,7.0.7*
G04 #@! TF.CreationDate,2024-06-17T16:02:08-04:00*
G04 #@! TF.ProjectId,HVHF_IIB,48564846-5f49-4494-922e-6b696361645f,rev?*
G04 #@! TF.SameCoordinates,Original*
G04 #@! TF.FileFunction,Soldermask,Top*
G04 #@! TF.FilePolarity,Negative*
%FSLAX46Y46*%
G04 Gerber Fmt 4.6, Leading zero omitted, Abs format (unit mm)*
G04 Created by KiCad (PCBNEW 7.0.7) date 2024-06-17 16:02:08*
%MOMM*%
%LPD*%
G01*
G04 APERTURE LIST*
G04 Aperture macros list*
%AMRoundRect*
0 Rectangle with rounded corners*
0 $1 Rounding radius*
0 $2 $3 $4 $5 $6 $7 $8 $9 X,Y pos of 4 corners*
0 Add a 4 corners polygon primitive as box body*
4,1,4,$2,$3,$4,$5,$6,$7,$8,$9,$2,$3,0*
0 Add four circle primitives for the rounded corners*
1,1,$1+$1,$2,$3*
1,1,$1+$1,$4,$5*
1,1,$1+$1,$6,$7*
1,1,$1+$1,$8,$9*
0 Add four rect primitives between the rounded corners*
20,1,$1+$1,$2,$3,$4,$5,0*
20,1,$1+$1,$4,$5,$6,$7,0*
20,1,$1+$1,$6,$7,$8,$9,0*
20,1,$1+$1,$8,$9,$2,$3,0*%
G04 Aperture macros list end*
%ADD10RoundRect,0.250000X-0.475000X0.337500X-0.475000X-0.337500X0.475000X-0.337500X0.475000X0.337500X0*%
%ADD11RoundRect,0.250000X-0.350000X-0.450000X0.350000X-0.450000X0.350000X0.450000X-0.350000X0.450000X0*%
%ADD12C,2.454000*%
%ADD13O,3.252000X1.728000*%
%ADD14R,3.200000X3.200000*%
%ADD15O,3.200000X3.200000*%
%ADD16C,1.498600*%
%ADD17C,2.304000*%
%ADD18R,1.574800X1.574800*%
%ADD19C,1.574800*%
%ADD20R,0.762000X1.168400*%
%ADD21RoundRect,0.250000X0.475000X-0.337500X0.475000X0.337500X-0.475000X0.337500X-0.475000X-0.337500X0*%
%ADD22C,1.000000*%
%ADD23RoundRect,0.250000X-0.450000X0.350000X-0.450000X-0.350000X0.450000X-0.350000X0.450000X0.350000X0*%
%ADD24RoundRect,0.250000X0.450000X-0.350000X0.450000X0.350000X-0.450000X0.350000X-0.450000X-0.350000X0*%
%ADD25R,0.558800X1.422400*%
%ADD26R,1.320800X0.558800*%
%ADD27RoundRect,0.250000X0.650000X-0.412500X0.650000X0.412500X-0.650000X0.412500X-0.650000X-0.412500X0*%
%ADD28C,2.250000*%
%ADD29R,1.408798X3.250794*%
%ADD30RoundRect,0.250000X0.350000X0.450000X-0.350000X0.450000X-0.350000X-0.450000X0.350000X-0.450000X0*%
%ADD31C,2.600000*%
%ADD32R,1.524000X1.524000*%
%ADD33C,1.524000*%
%ADD34C,1.320800*%
%ADD35R,1.320800X1.320800*%
%ADD36RoundRect,0.250000X0.412500X0.650000X-0.412500X0.650000X-0.412500X-0.650000X0.412500X-0.650000X0*%
%ADD37R,1.500000X2.000000*%
%ADD38R,3.800000X2.000000*%
%ADD39R,0.600000X0.800000*%
%ADD40R,0.900000X0.800000*%
%ADD41C,2.413000*%
G04 APERTURE END LIST*
D10*
X104500000Y-102178391D03*
X104500000Y-104253391D03*
D11*
X93000000Y-124000000D03*
X95000000Y-124000000D03*
D12*
X133080000Y-61000000D03*
X154920000Y-61000000D03*
D13*
X188020000Y-95899000D03*
X188020000Y-93613000D03*
X188020000Y-91327000D03*
D14*
X202000000Y-95620000D03*
D15*
X202000000Y-80380000D03*
D16*
X164391600Y-60620600D03*
X160891599Y-60620600D03*
D17*
X192000000Y-138840000D03*
D12*
X189450000Y-136290000D03*
X189450000Y-141390000D03*
X194550000Y-136290000D03*
X194550000Y-141390000D03*
D13*
X125770000Y-112899000D03*
X125770000Y-110613000D03*
X125770000Y-108327000D03*
X173020000Y-95899000D03*
X173020000Y-93613000D03*
X173020000Y-91327000D03*
X156770000Y-95899000D03*
X156770000Y-93613000D03*
X156770000Y-91327000D03*
D18*
X151000000Y-129000000D03*
D19*
X120774000Y-129000000D03*
D13*
X188020000Y-112899000D03*
X188020000Y-110613000D03*
X188020000Y-108327000D03*
D20*
X107420000Y-117618000D03*
X107420000Y-113808000D03*
D13*
X141770000Y-95899000D03*
X141770000Y-93613000D03*
X141770000Y-91327000D03*
D21*
X110670000Y-116938000D03*
X110670000Y-114863000D03*
D22*
X105000000Y-69000000D03*
D23*
X135000000Y-112113000D03*
X135000000Y-114113000D03*
D24*
X98750000Y-112863000D03*
X98750000Y-110863000D03*
D25*
X112845000Y-88000000D03*
X114750000Y-88000000D03*
X113797500Y-86069600D03*
D12*
X190250000Y-80420000D03*
X190250000Y-58580000D03*
D10*
X96000000Y-110825500D03*
X96000000Y-112900500D03*
D23*
X120250000Y-91613000D03*
X120250000Y-93613000D03*
D16*
X93000000Y-79650000D03*
X93000000Y-83150001D03*
D23*
X91250000Y-69150001D03*
X91250000Y-71150001D03*
D13*
X141770000Y-112899000D03*
X141770000Y-110613000D03*
X141770000Y-108327000D03*
D26*
X117695200Y-109565500D03*
X117695200Y-107660500D03*
X115902750Y-108613000D03*
D23*
X151000000Y-89363000D03*
X151000000Y-91363000D03*
D22*
X91000000Y-130000000D03*
D27*
X120000000Y-89250000D03*
X120000000Y-86125000D03*
D23*
X135000000Y-94363000D03*
X135000000Y-96363000D03*
D28*
X97540000Y-95000000D03*
X97540000Y-89920000D03*
X89920000Y-92460000D03*
D23*
X96000000Y-106113000D03*
X96000000Y-108113000D03*
D22*
X103250000Y-116863000D03*
D29*
X117504393Y-95113000D03*
X111495607Y-95113000D03*
D13*
X156770000Y-112899000D03*
X156770000Y-110613000D03*
X156770000Y-108327000D03*
D18*
X155000000Y-129000000D03*
D19*
X185226000Y-129000000D03*
D25*
X102047500Y-113578200D03*
X103952500Y-113578200D03*
X103000000Y-111647800D03*
D24*
X101400000Y-108032891D03*
X101400000Y-106032891D03*
D28*
X165800000Y-77113000D03*
X105800000Y-77113000D03*
D23*
X135000000Y-89363000D03*
X135000000Y-91363000D03*
X167000000Y-89363000D03*
X167000000Y-91363000D03*
D30*
X110000000Y-99363000D03*
X108000000Y-99363000D03*
D18*
X151000000Y-139000000D03*
D19*
X120774000Y-139000000D03*
D23*
X183000000Y-89363000D03*
X183000000Y-91363000D03*
D22*
X168500000Y-70250000D03*
D21*
X116000000Y-103863000D03*
X116000000Y-101788000D03*
D23*
X113500000Y-113363000D03*
X113500000Y-115363000D03*
D22*
X92500000Y-106363000D03*
D24*
X116750000Y-116863000D03*
X116750000Y-114863000D03*
D21*
X135000000Y-108313000D03*
X135000000Y-106238000D03*
D31*
X92000000Y-112000000D03*
D32*
X175500000Y-74027850D03*
D33*
X175500000Y-79031650D03*
D34*
X96780000Y-119000000D03*
X94240000Y-119000000D03*
D35*
X91700000Y-119000000D03*
D22*
X105250000Y-109613000D03*
D29*
X109004393Y-95113000D03*
X102995607Y-95113000D03*
D36*
X110625000Y-63613000D03*
X107500000Y-63613000D03*
D13*
X173020000Y-112899000D03*
X173020000Y-110613000D03*
X173020000Y-108327000D03*
D37*
X112360000Y-102415891D03*
X110060000Y-102415891D03*
X107760000Y-102415891D03*
D38*
X110060000Y-108715891D03*
D24*
X101450000Y-101213000D03*
X101450000Y-99213000D03*
D14*
X113380000Y-59000000D03*
D15*
X128620000Y-59000000D03*
D39*
X98250000Y-101513000D03*
D40*
X97100000Y-101513000D03*
D39*
X96950000Y-103113000D03*
X98250000Y-103113000D03*
D16*
X175750001Y-60500000D03*
X172250000Y-60500000D03*
D33*
X111000000Y-129750000D03*
D41*
X116080000Y-134830109D03*
D33*
X113540000Y-129750000D03*
D41*
X105920000Y-134830109D03*
D23*
X98750000Y-106032891D03*
X98750000Y-108032891D03*
D22*
X103000000Y-91500000D03*
D18*
X155000000Y-139000000D03*
D19*
X185226000Y-139000000D03*
D13*
X125770000Y-95899000D03*
X125770000Y-93613000D03*
X125770000Y-91327000D03*
M02*
