%TF.GenerationSoftware,KiCad,Pcbnew,7.0.7*%
%TF.CreationDate,2024-06-17T16:02:21-04:00*%
%TF.ProjectId,HVHF_IIB,48564846-5f49-4494-922e-6b696361645f,rev?*%
%TF.SameCoordinates,Original*%
%TF.FileFunction,Drillmap*%
%TF.FilePolarity,Positive*%
%FSLAX45Y45*%
G04 Gerber Fmt 4.5, Leading zero omitted, Abs format (unit mm)*
G04 Created by KiCad (PCBNEW 7.0.7) date 2024-06-17 16:02:21*
%MOMM*%
%LPD*%
G01*
G04 APERTURE LIST*
%ADD10C,0.200000*%
%ADD11C,0.040000*%
%ADD12C,0.060000*%
%ADD13C,0.081280*%
%ADD14C,0.099060*%
%ADD15C,0.101600*%
%ADD16C,0.106680*%
%ADD17C,0.130000*%
%ADD18C,0.140000*%
%ADD19C,0.150000*%
%ADD20C,0.160000*%
%ADD21C,0.190500*%
G04 APERTURE END LIST*
D10*
D11*
X8980000Y-5730000D02*
X9020000Y-5770000D01*
X9020000Y-5730000D02*
X8980000Y-5770000D01*
X8980000Y-6230000D02*
X9020000Y-6270000D01*
X9020000Y-6230000D02*
X8980000Y-6270000D01*
X8980000Y-6730000D02*
X9020000Y-6770000D01*
X9020000Y-6730000D02*
X8980000Y-6770000D01*
X8980000Y-7230000D02*
X9020000Y-7270000D01*
X9020000Y-7230000D02*
X8980000Y-7270000D01*
X8980000Y-7730000D02*
X9020000Y-7770000D01*
X9020000Y-7730000D02*
X8980000Y-7770000D01*
X8980000Y-8230000D02*
X9020000Y-8270000D01*
X9020000Y-8230000D02*
X8980000Y-8270000D01*
X8980000Y-8730000D02*
X9020000Y-8770000D01*
X9020000Y-8730000D02*
X8980000Y-8770000D01*
X8980000Y-9730000D02*
X9020000Y-9770000D01*
X9020000Y-9730000D02*
X8980000Y-9770000D01*
X8980000Y-10230000D02*
X9020000Y-10270000D01*
X9020000Y-10230000D02*
X8980000Y-10270000D01*
X8980000Y-10730000D02*
X9020000Y-10770000D01*
X9020000Y-10730000D02*
X8980000Y-10770000D01*
X8980000Y-11730000D02*
X9020000Y-11770000D01*
X9020000Y-11730000D02*
X8980000Y-11770000D01*
X8980000Y-12730000D02*
X9020000Y-12770000D01*
X9020000Y-12730000D02*
X8980000Y-12770000D01*
X8980000Y-13230000D02*
X9020000Y-13270000D01*
X9020000Y-13230000D02*
X8980000Y-13270000D01*
X8980000Y-13730000D02*
X9020000Y-13770000D01*
X9020000Y-13730000D02*
X8980000Y-13770000D01*
X8980000Y-14230000D02*
X9020000Y-14270000D01*
X9020000Y-14230000D02*
X8980000Y-14270000D01*
X9105000Y-6745000D02*
X9145000Y-6785000D01*
X9145000Y-6745000D02*
X9105000Y-6785000D01*
X9480000Y-5730000D02*
X9520000Y-5770000D01*
X9520000Y-5730000D02*
X9480000Y-5770000D01*
X9480000Y-14230000D02*
X9520000Y-14270000D01*
X9520000Y-14230000D02*
X9480000Y-14270000D01*
X9580000Y-11391300D02*
X9620000Y-11431300D01*
X9620000Y-11391300D02*
X9580000Y-11431300D01*
X9630000Y-9866300D02*
X9670000Y-9906300D01*
X9670000Y-9866300D02*
X9630000Y-9906300D01*
X9825334Y-10028620D02*
X9865334Y-10068620D01*
X9865334Y-10028620D02*
X9825334Y-10068620D01*
X9855000Y-10891300D02*
X9895000Y-10931300D01*
X9895000Y-10891300D02*
X9855000Y-10931300D01*
X9980000Y-5730000D02*
X10020000Y-5770000D01*
X10020000Y-5730000D02*
X9980000Y-5770000D01*
X9980000Y-14230000D02*
X10020000Y-14270000D01*
X10020000Y-14230000D02*
X9980000Y-14270000D01*
X10180000Y-11491300D02*
X10220000Y-11531300D01*
X10220000Y-11491300D02*
X10180000Y-11531300D01*
X10280000Y-10930000D02*
X10320000Y-10970000D01*
X10320000Y-10930000D02*
X10280000Y-10970000D01*
X10380000Y-9780000D02*
X10420000Y-9820000D01*
X10420000Y-9780000D02*
X10380000Y-9820000D01*
X10430000Y-10541300D02*
X10470000Y-10581300D01*
X10470000Y-10541300D02*
X10430000Y-10581300D01*
X10480000Y-5730000D02*
X10520000Y-5770000D01*
X10520000Y-5730000D02*
X10480000Y-5770000D01*
X10480000Y-7055000D02*
X10520000Y-7095000D01*
X10520000Y-7055000D02*
X10480000Y-7095000D01*
X10480000Y-14230000D02*
X10520000Y-14270000D01*
X10520000Y-14230000D02*
X10480000Y-14270000D01*
X10580000Y-10055000D02*
X10620000Y-10095000D01*
X10620000Y-10055000D02*
X10580000Y-10095000D01*
X10630000Y-9130000D02*
X10670000Y-9170000D01*
X10670000Y-9130000D02*
X10630000Y-9170000D01*
X10630000Y-9780000D02*
X10670000Y-9820000D01*
X10670000Y-9780000D02*
X10630000Y-9820000D01*
X10630000Y-11180000D02*
X10670000Y-11220000D01*
X10670000Y-11180000D02*
X10630000Y-11220000D01*
X10780000Y-10580000D02*
X10820000Y-10620000D01*
X10820000Y-10580000D02*
X10780000Y-10620000D01*
X10930000Y-11830000D02*
X10970000Y-11870000D01*
X10970000Y-11830000D02*
X10930000Y-11870000D01*
X10930000Y-12130000D02*
X10970000Y-12170000D01*
X10970000Y-12130000D02*
X10930000Y-12170000D01*
X10930000Y-12430000D02*
X10970000Y-12470000D01*
X10970000Y-12430000D02*
X10930000Y-12470000D01*
X10930000Y-12730000D02*
X10970000Y-12770000D01*
X10970000Y-12730000D02*
X10930000Y-12770000D01*
X10980000Y-5730000D02*
X11020000Y-5770000D01*
X11020000Y-5730000D02*
X10980000Y-5770000D01*
X10980000Y-9130000D02*
X11020000Y-9170000D01*
X11020000Y-9130000D02*
X10980000Y-9170000D01*
X10980000Y-11080000D02*
X11020000Y-11120000D01*
X11020000Y-11080000D02*
X10980000Y-11120000D01*
X10980000Y-14230000D02*
X11020000Y-14270000D01*
X11020000Y-14230000D02*
X10980000Y-14270000D01*
X11180000Y-10580000D02*
X11220000Y-10620000D01*
X11220000Y-10580000D02*
X11180000Y-10620000D01*
X11230000Y-9780000D02*
X11270000Y-9820000D01*
X11270000Y-9780000D02*
X11230000Y-9820000D01*
X11230000Y-11830000D02*
X11270000Y-11870000D01*
X11270000Y-11830000D02*
X11230000Y-11870000D01*
X11230000Y-12130000D02*
X11270000Y-12170000D01*
X11270000Y-12130000D02*
X11230000Y-12170000D01*
X11230000Y-12430000D02*
X11270000Y-12470000D01*
X11270000Y-12430000D02*
X11230000Y-12470000D01*
X11230000Y-12730000D02*
X11270000Y-12770000D01*
X11270000Y-12730000D02*
X11230000Y-12770000D01*
X11330000Y-9130000D02*
X11370000Y-9170000D01*
X11370000Y-9130000D02*
X11330000Y-9170000D01*
X11380000Y-10530000D02*
X11420000Y-10570000D01*
X11420000Y-10530000D02*
X11380000Y-10570000D01*
X11440000Y-10840000D02*
X11480000Y-10880000D01*
X11480000Y-10840000D02*
X11440000Y-10880000D01*
X11480000Y-14230000D02*
X11520000Y-14270000D01*
X11520000Y-14230000D02*
X11480000Y-14270000D01*
X11580000Y-9780000D02*
X11620000Y-9820000D01*
X11620000Y-9780000D02*
X11580000Y-9820000D01*
X11580000Y-10030000D02*
X11620000Y-10070000D01*
X11620000Y-10030000D02*
X11580000Y-10070000D01*
X11655000Y-11316300D02*
X11695000Y-11356300D01*
X11695000Y-11316300D02*
X11655000Y-11356300D01*
X11680000Y-8730000D02*
X11720000Y-8770000D01*
X11720000Y-8730000D02*
X11680000Y-8770000D01*
X11730000Y-9130000D02*
X11770000Y-9170000D01*
X11770000Y-9130000D02*
X11730000Y-9170000D01*
X11980000Y-5730000D02*
X12020000Y-5770000D01*
X12020000Y-5730000D02*
X11980000Y-5770000D01*
X11980000Y-8448750D02*
X12020000Y-8488750D01*
X12020000Y-8448750D02*
X11980000Y-8488750D01*
X11980000Y-14230000D02*
X12020000Y-14270000D01*
X12020000Y-14230000D02*
X11980000Y-14270000D01*
X12005000Y-10966300D02*
X12045000Y-11006300D01*
X12045000Y-10966300D02*
X12005000Y-11006300D01*
X12005000Y-11391300D02*
X12045000Y-11431300D01*
X12045000Y-11391300D02*
X12005000Y-11431300D01*
X12030000Y-9730000D02*
X12070000Y-9770000D01*
X12070000Y-9730000D02*
X12030000Y-9770000D01*
X12030000Y-10030000D02*
X12070000Y-10070000D01*
X12070000Y-10030000D02*
X12030000Y-10070000D01*
X12030000Y-10330000D02*
X12070000Y-10370000D01*
X12070000Y-10330000D02*
X12030000Y-10370000D01*
X12030000Y-10680000D02*
X12070000Y-10720000D01*
X12070000Y-10680000D02*
X12030000Y-10720000D01*
X12180000Y-10930000D02*
X12220000Y-10970000D01*
X12220000Y-10930000D02*
X12180000Y-10970000D01*
X12230000Y-8630000D02*
X12270000Y-8670000D01*
X12270000Y-8630000D02*
X12230000Y-8670000D01*
X12230000Y-9080000D02*
X12270000Y-9120000D01*
X12270000Y-9080000D02*
X12230000Y-9120000D01*
X12280000Y-9730000D02*
X12320000Y-9770000D01*
X12320000Y-9730000D02*
X12280000Y-9770000D01*
X12280000Y-10030000D02*
X12320000Y-10070000D01*
X12320000Y-10030000D02*
X12280000Y-10070000D01*
X12280000Y-10330000D02*
X12320000Y-10370000D01*
X12320000Y-10330000D02*
X12280000Y-10370000D01*
X12330000Y-10630000D02*
X12370000Y-10670000D01*
X12370000Y-10630000D02*
X12330000Y-10670000D01*
X12480000Y-5730000D02*
X12520000Y-5770000D01*
X12520000Y-5730000D02*
X12480000Y-5770000D01*
X12480000Y-13030000D02*
X12520000Y-13070000D01*
X12520000Y-13030000D02*
X12480000Y-13070000D01*
X12480000Y-13330000D02*
X12520000Y-13370000D01*
X12520000Y-13330000D02*
X12480000Y-13370000D01*
X12480000Y-13630000D02*
X12520000Y-13670000D01*
X12520000Y-13630000D02*
X12480000Y-13670000D01*
X12480000Y-14230000D02*
X12520000Y-14270000D01*
X12520000Y-14230000D02*
X12480000Y-14270000D01*
X12980000Y-13030000D02*
X13020000Y-13070000D01*
X13020000Y-13030000D02*
X12980000Y-13070000D01*
X12980000Y-13330000D02*
X13020000Y-13370000D01*
X13020000Y-13330000D02*
X12980000Y-13370000D01*
X12980000Y-13630000D02*
X13020000Y-13670000D01*
X13020000Y-13630000D02*
X12980000Y-13670000D01*
X12980000Y-14230000D02*
X13020000Y-14270000D01*
X13020000Y-14230000D02*
X12980000Y-14270000D01*
X13230000Y-5730000D02*
X13270000Y-5770000D01*
X13270000Y-5730000D02*
X13230000Y-5770000D01*
X13430000Y-13030000D02*
X13470000Y-13070000D01*
X13470000Y-13030000D02*
X13430000Y-13070000D01*
X13430000Y-13330000D02*
X13470000Y-13370000D01*
X13470000Y-13330000D02*
X13430000Y-13370000D01*
X13430000Y-13630000D02*
X13470000Y-13670000D01*
X13470000Y-13630000D02*
X13430000Y-13670000D01*
X13480000Y-8480000D02*
X13520000Y-8520000D01*
X13520000Y-8480000D02*
X13480000Y-8520000D01*
X13480000Y-10486300D02*
X13520000Y-10526300D01*
X13520000Y-10486300D02*
X13480000Y-10526300D01*
X13480000Y-14230000D02*
X13520000Y-14270000D01*
X13520000Y-14230000D02*
X13480000Y-14270000D01*
X13680000Y-12980000D02*
X13720000Y-13020000D01*
X13720000Y-12980000D02*
X13680000Y-13020000D01*
X13730000Y-5730000D02*
X13770000Y-5770000D01*
X13770000Y-5730000D02*
X13730000Y-5770000D01*
X13730000Y-9730000D02*
X13770000Y-9770000D01*
X13770000Y-9730000D02*
X13730000Y-9770000D01*
X13730000Y-10230000D02*
X13770000Y-10270000D01*
X13770000Y-10230000D02*
X13730000Y-10270000D01*
X13730000Y-10630000D02*
X13770000Y-10670000D01*
X13770000Y-10630000D02*
X13730000Y-10670000D01*
X13730000Y-10980000D02*
X13770000Y-11020000D01*
X13770000Y-10980000D02*
X13730000Y-11020000D01*
X13730000Y-13630000D02*
X13770000Y-13670000D01*
X13770000Y-13630000D02*
X13730000Y-13670000D01*
X13930000Y-12730000D02*
X13970000Y-12770000D01*
X13970000Y-12730000D02*
X13930000Y-12770000D01*
X13980000Y-8480000D02*
X14020000Y-8520000D01*
X14020000Y-8480000D02*
X13980000Y-8520000D01*
X13980000Y-14230000D02*
X14020000Y-14270000D01*
X14020000Y-14230000D02*
X13980000Y-14270000D01*
X14080000Y-9880000D02*
X14120000Y-9920000D01*
X14120000Y-9880000D02*
X14080000Y-9920000D01*
X14080000Y-10560000D02*
X14120000Y-10600000D01*
X14120000Y-10560000D02*
X14080000Y-10600000D01*
X14080000Y-13330000D02*
X14120000Y-13370000D01*
X14120000Y-13330000D02*
X14080000Y-13370000D01*
X14180000Y-12480000D02*
X14220000Y-12520000D01*
X14220000Y-12480000D02*
X14180000Y-12520000D01*
X14230000Y-5730000D02*
X14270000Y-5770000D01*
X14270000Y-5730000D02*
X14230000Y-5770000D01*
X14280000Y-10480000D02*
X14320000Y-10520000D01*
X14320000Y-10480000D02*
X14280000Y-10520000D01*
X14300000Y-9840000D02*
X14340000Y-9880000D01*
X14340000Y-9840000D02*
X14300000Y-9880000D01*
X14330000Y-13080000D02*
X14370000Y-13120000D01*
X14370000Y-13080000D02*
X14330000Y-13120000D01*
X14430000Y-12230000D02*
X14470000Y-12270000D01*
X14470000Y-12230000D02*
X14430000Y-12270000D01*
X14480000Y-8480000D02*
X14520000Y-8520000D01*
X14520000Y-8480000D02*
X14480000Y-8520000D01*
X14480000Y-14230000D02*
X14520000Y-14270000D01*
X14520000Y-14230000D02*
X14480000Y-14270000D01*
X14580000Y-12830000D02*
X14620000Y-12870000D01*
X14620000Y-12830000D02*
X14580000Y-12870000D01*
X14630000Y-11430000D02*
X14670000Y-11470000D01*
X14670000Y-11430000D02*
X14630000Y-11470000D01*
X14680000Y-11980000D02*
X14720000Y-12020000D01*
X14720000Y-11980000D02*
X14680000Y-12020000D01*
X14730000Y-5730000D02*
X14770000Y-5770000D01*
X14770000Y-5730000D02*
X14730000Y-5770000D01*
X14830000Y-12580000D02*
X14870000Y-12620000D01*
X14870000Y-12580000D02*
X14830000Y-12620000D01*
X14880000Y-11580000D02*
X14920000Y-11620000D01*
X14920000Y-11580000D02*
X14880000Y-11620000D01*
X14980000Y-8480000D02*
X15020000Y-8520000D01*
X15020000Y-8480000D02*
X14980000Y-8520000D01*
X14980000Y-13080000D02*
X15020000Y-13120000D01*
X15020000Y-13080000D02*
X14980000Y-13120000D01*
X14980000Y-13580000D02*
X15020000Y-13620000D01*
X15020000Y-13580000D02*
X14980000Y-13620000D01*
X14980000Y-14230000D02*
X15020000Y-14270000D01*
X15020000Y-14230000D02*
X14980000Y-14270000D01*
X15080000Y-12330000D02*
X15120000Y-12370000D01*
X15120000Y-12330000D02*
X15080000Y-12370000D01*
X15155000Y-13380000D02*
X15195000Y-13420000D01*
X15195000Y-13380000D02*
X15155000Y-13420000D01*
X15230000Y-5730000D02*
X15270000Y-5770000D01*
X15270000Y-5730000D02*
X15230000Y-5770000D01*
X15230000Y-9730000D02*
X15270000Y-9770000D01*
X15270000Y-9730000D02*
X15230000Y-9770000D01*
X15230000Y-10230000D02*
X15270000Y-10270000D01*
X15270000Y-10230000D02*
X15230000Y-10270000D01*
X15230000Y-10630000D02*
X15270000Y-10670000D01*
X15270000Y-10630000D02*
X15230000Y-10670000D01*
X15230000Y-10980000D02*
X15270000Y-11020000D01*
X15270000Y-10980000D02*
X15230000Y-11020000D01*
X15430000Y-13298908D02*
X15470000Y-13338908D01*
X15470000Y-13298908D02*
X15430000Y-13338908D01*
X15480000Y-8480000D02*
X15520000Y-8520000D01*
X15520000Y-8480000D02*
X15480000Y-8520000D01*
X15480000Y-14230000D02*
X15520000Y-14270000D01*
X15520000Y-14230000D02*
X15480000Y-14270000D01*
X15580000Y-9840000D02*
X15620000Y-9880000D01*
X15620000Y-9840000D02*
X15580000Y-9880000D01*
X15580000Y-10580000D02*
X15620000Y-10620000D01*
X15620000Y-10580000D02*
X15580000Y-10620000D01*
X15580000Y-13080000D02*
X15620000Y-13120000D01*
X15620000Y-13080000D02*
X15580000Y-13120000D01*
X15580000Y-13680000D02*
X15620000Y-13720000D01*
X15620000Y-13680000D02*
X15580000Y-13720000D01*
X15730000Y-5730000D02*
X15770000Y-5770000D01*
X15770000Y-5730000D02*
X15730000Y-5770000D01*
X15730000Y-8480000D02*
X15770000Y-8520000D01*
X15770000Y-8480000D02*
X15730000Y-8520000D01*
X15730000Y-13480000D02*
X15770000Y-13520000D01*
X15770000Y-13480000D02*
X15730000Y-13520000D01*
X15780000Y-9780000D02*
X15820000Y-9820000D01*
X15820000Y-9780000D02*
X15780000Y-9820000D01*
X15780000Y-10480000D02*
X15820000Y-10520000D01*
X15820000Y-10480000D02*
X15780000Y-10520000D01*
X15780000Y-13880000D02*
X15820000Y-13920000D01*
X15820000Y-13880000D02*
X15780000Y-13920000D01*
X15930000Y-8630000D02*
X15970000Y-8670000D01*
X15970000Y-8630000D02*
X15930000Y-8670000D01*
X15980000Y-13730000D02*
X16020000Y-13770000D01*
X16020000Y-13730000D02*
X15980000Y-13770000D01*
X15980000Y-14230000D02*
X16020000Y-14270000D01*
X16020000Y-14230000D02*
X15980000Y-14270000D01*
X16080000Y-12130000D02*
X16120000Y-12170000D01*
X16120000Y-12130000D02*
X16080000Y-12170000D01*
X16080000Y-12430000D02*
X16120000Y-12470000D01*
X16120000Y-12430000D02*
X16080000Y-12470000D01*
X16080000Y-12930000D02*
X16120000Y-12970000D01*
X16120000Y-12930000D02*
X16080000Y-12970000D01*
X16230000Y-5730000D02*
X16270000Y-5770000D01*
X16270000Y-5730000D02*
X16230000Y-5770000D01*
X16230000Y-13380000D02*
X16270000Y-13420000D01*
X16270000Y-13380000D02*
X16230000Y-13420000D01*
X16330000Y-11880000D02*
X16370000Y-11920000D01*
X16370000Y-11880000D02*
X16330000Y-11920000D01*
X16480000Y-8630000D02*
X16520000Y-8670000D01*
X16520000Y-8630000D02*
X16480000Y-8670000D01*
X16480000Y-12430000D02*
X16520000Y-12470000D01*
X16520000Y-12430000D02*
X16480000Y-12470000D01*
X16480000Y-12930000D02*
X16520000Y-12970000D01*
X16520000Y-12930000D02*
X16480000Y-12970000D01*
X16480000Y-13680000D02*
X16520000Y-13720000D01*
X16520000Y-13680000D02*
X16480000Y-13720000D01*
X16480000Y-13980000D02*
X16520000Y-14020000D01*
X16520000Y-13980000D02*
X16480000Y-14020000D01*
X16480000Y-14230000D02*
X16520000Y-14270000D01*
X16520000Y-14230000D02*
X16480000Y-14270000D01*
X16580000Y-11630000D02*
X16620000Y-11670000D01*
X16620000Y-11630000D02*
X16580000Y-11670000D01*
X16580000Y-13180000D02*
X16620000Y-13220000D01*
X16620000Y-13180000D02*
X16580000Y-13220000D01*
X16600000Y-7120000D02*
X16640000Y-7160000D01*
X16640000Y-7120000D02*
X16600000Y-7160000D01*
X16630000Y-12080000D02*
X16670000Y-12120000D01*
X16670000Y-12080000D02*
X16630000Y-12120000D01*
X16730000Y-5730000D02*
X16770000Y-5770000D01*
X16770000Y-5730000D02*
X16730000Y-5770000D01*
X16830000Y-11380000D02*
X16870000Y-11420000D01*
X16870000Y-11380000D02*
X16830000Y-11420000D01*
X16830000Y-12430000D02*
X16870000Y-12470000D01*
X16870000Y-12430000D02*
X16830000Y-12470000D01*
X16830000Y-12930000D02*
X16870000Y-12970000D01*
X16870000Y-12930000D02*
X16830000Y-12970000D01*
X16880000Y-9780000D02*
X16920000Y-9820000D01*
X16920000Y-9780000D02*
X16880000Y-9820000D01*
X16880000Y-10280000D02*
X16920000Y-10320000D01*
X16920000Y-10280000D02*
X16880000Y-10320000D01*
X16880000Y-10530000D02*
X16920000Y-10570000D01*
X16920000Y-10530000D02*
X16880000Y-10570000D01*
X16880000Y-10780000D02*
X16920000Y-10820000D01*
X16920000Y-10780000D02*
X16880000Y-10820000D01*
X16880000Y-11030000D02*
X16920000Y-11070000D01*
X16920000Y-11030000D02*
X16880000Y-11070000D01*
X16880000Y-11830000D02*
X16920000Y-11870000D01*
X16920000Y-11830000D02*
X16880000Y-11870000D01*
X16980000Y-8630000D02*
X17020000Y-8670000D01*
X17020000Y-8630000D02*
X16980000Y-8670000D01*
X16980000Y-13730000D02*
X17020000Y-13770000D01*
X17020000Y-13730000D02*
X16980000Y-13770000D01*
X16980000Y-13980000D02*
X17020000Y-14020000D01*
X17020000Y-13980000D02*
X16980000Y-14020000D01*
X16980000Y-14230000D02*
X17020000Y-14270000D01*
X17020000Y-14230000D02*
X16980000Y-14270000D01*
X17130000Y-11580000D02*
X17170000Y-11620000D01*
X17170000Y-11580000D02*
X17130000Y-11620000D01*
X17180000Y-10580000D02*
X17220000Y-10620000D01*
X17220000Y-10580000D02*
X17180000Y-10620000D01*
X17180000Y-12030000D02*
X17220000Y-12070000D01*
X17220000Y-12030000D02*
X17180000Y-12070000D01*
X17180000Y-12430000D02*
X17220000Y-12470000D01*
X17220000Y-12430000D02*
X17180000Y-12470000D01*
X17180000Y-12930000D02*
X17220000Y-12970000D01*
X17220000Y-12930000D02*
X17180000Y-12970000D01*
X17230000Y-5730000D02*
X17270000Y-5770000D01*
X17270000Y-5730000D02*
X17230000Y-5770000D01*
X17230000Y-9880000D02*
X17270000Y-9920000D01*
X17270000Y-9880000D02*
X17230000Y-9920000D01*
X17430000Y-9780000D02*
X17470000Y-9820000D01*
X17470000Y-9780000D02*
X17430000Y-9820000D01*
X17430000Y-10480000D02*
X17470000Y-10520000D01*
X17470000Y-10480000D02*
X17430000Y-10520000D01*
X17480000Y-8630000D02*
X17520000Y-8670000D01*
X17520000Y-8630000D02*
X17480000Y-8670000D01*
X17480000Y-13730000D02*
X17520000Y-13770000D01*
X17520000Y-13730000D02*
X17480000Y-13770000D01*
X17480000Y-13980000D02*
X17520000Y-14020000D01*
X17520000Y-13980000D02*
X17480000Y-14020000D01*
X17480000Y-14230000D02*
X17520000Y-14270000D01*
X17520000Y-14230000D02*
X17480000Y-14270000D01*
X17680000Y-8730000D02*
X17720000Y-8770000D01*
X17720000Y-8730000D02*
X17680000Y-8770000D01*
X17680000Y-13180000D02*
X17720000Y-13220000D01*
X17720000Y-13180000D02*
X17680000Y-13220000D01*
X17730000Y-5730000D02*
X17770000Y-5770000D01*
X17770000Y-5730000D02*
X17730000Y-5770000D01*
X17730000Y-12430000D02*
X17770000Y-12470000D01*
X17770000Y-12430000D02*
X17730000Y-12470000D01*
X17780000Y-11980000D02*
X17820000Y-12020000D01*
X17820000Y-11980000D02*
X17780000Y-12020000D01*
X17930000Y-8730000D02*
X17970000Y-8770000D01*
X17970000Y-8730000D02*
X17930000Y-8770000D01*
X17980000Y-13730000D02*
X18020000Y-13770000D01*
X18020000Y-13730000D02*
X17980000Y-13770000D01*
X17980000Y-13980000D02*
X18020000Y-14020000D01*
X18020000Y-13980000D02*
X17980000Y-14020000D01*
X17980000Y-14230000D02*
X18020000Y-14270000D01*
X18020000Y-14230000D02*
X17980000Y-14270000D01*
X18030000Y-11730000D02*
X18070000Y-11770000D01*
X18070000Y-11730000D02*
X18030000Y-11770000D01*
X18030000Y-12180000D02*
X18070000Y-12220000D01*
X18070000Y-12180000D02*
X18030000Y-12220000D01*
X18180000Y-8730000D02*
X18220000Y-8770000D01*
X18220000Y-8730000D02*
X18180000Y-8770000D01*
X18180000Y-13180000D02*
X18220000Y-13220000D01*
X18220000Y-13180000D02*
X18180000Y-13220000D01*
X18230000Y-5730000D02*
X18270000Y-5770000D01*
X18270000Y-5730000D02*
X18230000Y-5770000D01*
X18280000Y-11480000D02*
X18320000Y-11520000D01*
X18320000Y-11480000D02*
X18280000Y-11520000D01*
X18280000Y-11930000D02*
X18320000Y-11970000D01*
X18320000Y-11930000D02*
X18280000Y-11970000D01*
X18330000Y-9780000D02*
X18370000Y-9820000D01*
X18370000Y-9780000D02*
X18330000Y-9820000D01*
X18330000Y-10280000D02*
X18370000Y-10320000D01*
X18370000Y-10280000D02*
X18330000Y-10320000D01*
X18330000Y-10780000D02*
X18370000Y-10820000D01*
X18370000Y-10780000D02*
X18330000Y-10820000D01*
X18330000Y-11030000D02*
X18370000Y-11070000D01*
X18370000Y-11030000D02*
X18330000Y-11070000D01*
X18430000Y-8730000D02*
X18470000Y-8770000D01*
X18470000Y-8730000D02*
X18430000Y-8770000D01*
X18480000Y-14230000D02*
X18520000Y-14270000D01*
X18520000Y-14230000D02*
X18480000Y-14270000D01*
X18530000Y-11680000D02*
X18570000Y-11720000D01*
X18570000Y-11680000D02*
X18530000Y-11720000D01*
X18730000Y-5730000D02*
X18770000Y-5770000D01*
X18770000Y-5730000D02*
X18730000Y-5770000D01*
X18730000Y-9880000D02*
X18770000Y-9920000D01*
X18770000Y-9880000D02*
X18730000Y-9920000D01*
X18730000Y-10580000D02*
X18770000Y-10620000D01*
X18770000Y-10580000D02*
X18730000Y-10620000D01*
X18930000Y-10430000D02*
X18970000Y-10470000D01*
X18970000Y-10430000D02*
X18930000Y-10470000D01*
X18980000Y-9780000D02*
X19020000Y-9820000D01*
X19020000Y-9780000D02*
X18980000Y-9820000D01*
X19480000Y-5730000D02*
X19520000Y-5770000D01*
X19520000Y-5730000D02*
X19480000Y-5770000D01*
X19730000Y-14230000D02*
X19770000Y-14270000D01*
X19770000Y-14230000D02*
X19730000Y-14270000D01*
X19980000Y-5730000D02*
X20020000Y-5770000D01*
X20020000Y-5730000D02*
X19980000Y-5770000D01*
X20230000Y-14230000D02*
X20270000Y-14270000D01*
X20270000Y-14230000D02*
X20230000Y-14270000D01*
X20480000Y-5730000D02*
X20520000Y-5770000D01*
X20520000Y-5730000D02*
X20480000Y-5770000D01*
X20730000Y-14230000D02*
X20770000Y-14270000D01*
X20770000Y-14230000D02*
X20730000Y-14270000D01*
X20980000Y-5730000D02*
X21020000Y-5770000D01*
X21020000Y-5730000D02*
X20980000Y-5770000D01*
X20980000Y-6230000D02*
X21020000Y-6270000D01*
X21020000Y-6230000D02*
X20980000Y-6270000D01*
X20980000Y-6730000D02*
X21020000Y-6770000D01*
X21020000Y-6730000D02*
X20980000Y-6770000D01*
X20980000Y-7230000D02*
X21020000Y-7270000D01*
X21020000Y-7230000D02*
X20980000Y-7270000D01*
X20980000Y-7730000D02*
X21020000Y-7770000D01*
X21020000Y-7730000D02*
X20980000Y-7770000D01*
X20980000Y-8230000D02*
X21020000Y-8270000D01*
X21020000Y-8230000D02*
X20980000Y-8270000D01*
X20980000Y-8730000D02*
X21020000Y-8770000D01*
X21020000Y-8730000D02*
X20980000Y-8770000D01*
X20980000Y-9230000D02*
X21020000Y-9270000D01*
X21020000Y-9230000D02*
X20980000Y-9270000D01*
X20980000Y-9730000D02*
X21020000Y-9770000D01*
X21020000Y-9730000D02*
X20980000Y-9770000D01*
X20980000Y-10230000D02*
X21020000Y-10270000D01*
X21020000Y-10230000D02*
X20980000Y-10270000D01*
X20980000Y-10730000D02*
X21020000Y-10770000D01*
X21020000Y-10730000D02*
X20980000Y-10770000D01*
X20980000Y-11230000D02*
X21020000Y-11270000D01*
X21020000Y-11230000D02*
X20980000Y-11270000D01*
X20980000Y-11730000D02*
X21020000Y-11770000D01*
X21020000Y-11730000D02*
X20980000Y-11770000D01*
X20980000Y-12230000D02*
X21020000Y-12270000D01*
X21020000Y-12230000D02*
X20980000Y-12270000D01*
X20980000Y-12730000D02*
X21020000Y-12770000D01*
X21020000Y-12730000D02*
X20980000Y-12770000D01*
X20980000Y-13230000D02*
X21020000Y-13270000D01*
X21020000Y-13230000D02*
X20980000Y-13270000D01*
X20980000Y-13730000D02*
X21020000Y-13770000D01*
X21020000Y-13730000D02*
X20980000Y-13770000D01*
X20980000Y-14230000D02*
X21020000Y-14270000D01*
X21020000Y-14230000D02*
X20980000Y-14270000D01*
D12*
X9218000Y-12398011D02*
G75*
G03*
X9218000Y-12398011I-30000J0D01*
G01*
X9907500Y-11423811D02*
G75*
G03*
X9907500Y-11423811I-30000J0D01*
G01*
X10180000Y-10286300D02*
G75*
G03*
X10180000Y-10286300I-30000J0D01*
G01*
X10605000Y-6361300D02*
G75*
G03*
X10605000Y-6361300I-30000J0D01*
G01*
X11205000Y-11311300D02*
G75*
G03*
X11205000Y-11311300I-30000J0D01*
G01*
X11880000Y-8925000D02*
G75*
G03*
X11880000Y-8925000I-30000J0D01*
G01*
X13530000Y-11586300D02*
G75*
G03*
X13530000Y-11586300I-30000J0D01*
G01*
D13*
X9170000Y-11859360D02*
X9170000Y-11940640D01*
X9129360Y-11900000D02*
X9210640Y-11900000D01*
X9424000Y-11859360D02*
X9424000Y-11940640D01*
X9383360Y-11900000D02*
X9464640Y-11900000D01*
X9678000Y-11859360D02*
X9678000Y-11940640D01*
X9637360Y-11900000D02*
X9718640Y-11900000D01*
D14*
X9335023Y-8000023D02*
X9335023Y-7929977D01*
X9264977Y-7929977D01*
X9264977Y-8000023D01*
X9335023Y-8000023D01*
X9335023Y-8350023D02*
X9335023Y-8279977D01*
X9264977Y-8279977D01*
X9264977Y-8350023D01*
X9335023Y-8350023D01*
X16124183Y-6097083D02*
X16124183Y-6027037D01*
X16054137Y-6027037D01*
X16054137Y-6097083D01*
X16124183Y-6097083D01*
X16474183Y-6097083D02*
X16474183Y-6027037D01*
X16404137Y-6027037D01*
X16404137Y-6097083D01*
X16474183Y-6097083D01*
X17260023Y-6085023D02*
X17260023Y-6014977D01*
X17189977Y-6014977D01*
X17189977Y-6085023D01*
X17260023Y-6085023D01*
X17610023Y-6085023D02*
X17610023Y-6014977D01*
X17539977Y-6014977D01*
X17539977Y-6085023D01*
X17610023Y-6085023D01*
D15*
X11100000Y-13025800D02*
X11150800Y-12975000D01*
X11100000Y-12924200D01*
X11049200Y-12975000D01*
X11100000Y-13025800D01*
X11354000Y-13025800D02*
X11404800Y-12975000D01*
X11354000Y-12924200D01*
X11303200Y-12975000D01*
X11354000Y-13025800D01*
X12577000Y-9183500D02*
X12627800Y-9132700D01*
X12577000Y-9081900D01*
X12526200Y-9132700D01*
X12577000Y-9183500D01*
X12577000Y-9412100D02*
X12627800Y-9361300D01*
X12577000Y-9310500D01*
X12526200Y-9361300D01*
X12577000Y-9412100D01*
X12577000Y-9640700D02*
X12627800Y-9589900D01*
X12577000Y-9539100D01*
X12526200Y-9589900D01*
X12577000Y-9640700D01*
X12577000Y-10883500D02*
X12627800Y-10832700D01*
X12577000Y-10781900D01*
X12526200Y-10832700D01*
X12577000Y-10883500D01*
X12577000Y-11112100D02*
X12627800Y-11061300D01*
X12577000Y-11010500D01*
X12526200Y-11061300D01*
X12577000Y-11112100D01*
X12577000Y-11340700D02*
X12627800Y-11289900D01*
X12577000Y-11239100D01*
X12526200Y-11289900D01*
X12577000Y-11340700D01*
X14177000Y-9183500D02*
X14227800Y-9132700D01*
X14177000Y-9081900D01*
X14126200Y-9132700D01*
X14177000Y-9183500D01*
X14177000Y-9412100D02*
X14227800Y-9361300D01*
X14177000Y-9310500D01*
X14126200Y-9361300D01*
X14177000Y-9412100D01*
X14177000Y-9640700D02*
X14227800Y-9589900D01*
X14177000Y-9539100D01*
X14126200Y-9589900D01*
X14177000Y-9640700D01*
X14177000Y-10883500D02*
X14227800Y-10832700D01*
X14177000Y-10781900D01*
X14126200Y-10832700D01*
X14177000Y-10883500D01*
X14177000Y-11112100D02*
X14227800Y-11061300D01*
X14177000Y-11010500D01*
X14126200Y-11061300D01*
X14177000Y-11112100D01*
X14177000Y-11340700D02*
X14227800Y-11289900D01*
X14177000Y-11239100D01*
X14126200Y-11289900D01*
X14177000Y-11340700D01*
X15677000Y-9183500D02*
X15727800Y-9132700D01*
X15677000Y-9081900D01*
X15626200Y-9132700D01*
X15677000Y-9183500D01*
X15677000Y-9412100D02*
X15727800Y-9361300D01*
X15677000Y-9310500D01*
X15626200Y-9361300D01*
X15677000Y-9412100D01*
X15677000Y-9640700D02*
X15727800Y-9589900D01*
X15677000Y-9539100D01*
X15626200Y-9589900D01*
X15677000Y-9640700D01*
X15677000Y-10883500D02*
X15727800Y-10832700D01*
X15677000Y-10781900D01*
X15626200Y-10832700D01*
X15677000Y-10883500D01*
X15677000Y-11112100D02*
X15727800Y-11061300D01*
X15677000Y-11010500D01*
X15626200Y-11061300D01*
X15677000Y-11112100D01*
X15677000Y-11340700D02*
X15727800Y-11289900D01*
X15677000Y-11239100D01*
X15626200Y-11289900D01*
X15677000Y-11340700D01*
X17302000Y-9183500D02*
X17352800Y-9132700D01*
X17302000Y-9081900D01*
X17251200Y-9132700D01*
X17302000Y-9183500D01*
X17302000Y-9412100D02*
X17352800Y-9361300D01*
X17302000Y-9310500D01*
X17251200Y-9361300D01*
X17302000Y-9412100D01*
X17302000Y-9640700D02*
X17352800Y-9589900D01*
X17302000Y-9539100D01*
X17251200Y-9589900D01*
X17302000Y-9640700D01*
X17302000Y-10883500D02*
X17352800Y-10832700D01*
X17302000Y-10781900D01*
X17251200Y-10832700D01*
X17302000Y-10883500D01*
X17302000Y-11112100D02*
X17352800Y-11061300D01*
X17302000Y-11010500D01*
X17251200Y-11061300D01*
X17302000Y-11112100D01*
X17302000Y-11340700D02*
X17352800Y-11289900D01*
X17302000Y-11239100D01*
X17251200Y-11289900D01*
X17302000Y-11340700D01*
X17550000Y-7453585D02*
X17600800Y-7402785D01*
X17550000Y-7351985D01*
X17499200Y-7402785D01*
X17550000Y-7453585D01*
X17550000Y-7953965D02*
X17600800Y-7903165D01*
X17550000Y-7852365D01*
X17499200Y-7903165D01*
X17550000Y-7953965D01*
X18802000Y-9183500D02*
X18852800Y-9132700D01*
X18802000Y-9081900D01*
X18751200Y-9132700D01*
X18802000Y-9183500D01*
X18802000Y-9412100D02*
X18852800Y-9361300D01*
X18802000Y-9310500D01*
X18751200Y-9361300D01*
X18802000Y-9412100D01*
X18802000Y-9640700D02*
X18852800Y-9589900D01*
X18802000Y-9539100D01*
X18751200Y-9589900D01*
X18802000Y-9640700D01*
X18802000Y-10883500D02*
X18852800Y-10832700D01*
X18802000Y-10781900D01*
X18751200Y-10832700D01*
X18802000Y-10883500D01*
X18802000Y-11112100D02*
X18852800Y-11061300D01*
X18802000Y-11010500D01*
X18751200Y-11061300D01*
X18802000Y-11112100D01*
X18802000Y-11340700D02*
X18852800Y-11289900D01*
X18802000Y-11239100D01*
X18751200Y-11289900D01*
X18802000Y-11340700D01*
D16*
X12024060Y-12846660D02*
X12130740Y-12953340D01*
X12130740Y-12846660D02*
X12024060Y-12953340D01*
X12130740Y-12900000D02*
G75*
G03*
X12130740Y-12900000I-53340J0D01*
G01*
X12024060Y-13846660D02*
X12130740Y-13953340D01*
X12130740Y-13846660D02*
X12024060Y-13953340D01*
X12130740Y-13900000D02*
G75*
G03*
X12130740Y-13900000I-53340J0D01*
G01*
X15046660Y-12846660D02*
X15153340Y-12953340D01*
X15153340Y-12846660D02*
X15046660Y-12953340D01*
X15153340Y-12900000D02*
G75*
G03*
X15153340Y-12900000I-53340J0D01*
G01*
X15046660Y-13846660D02*
X15153340Y-13953340D01*
X15153340Y-13846660D02*
X15046660Y-13953340D01*
X15153340Y-13900000D02*
G75*
G03*
X15153340Y-13900000I-53340J0D01*
G01*
X15446660Y-12846660D02*
X15553340Y-12953340D01*
X15553340Y-12846660D02*
X15446660Y-12953340D01*
X15553340Y-12900000D02*
G75*
G03*
X15553340Y-12900000I-53340J0D01*
G01*
X15446660Y-13846660D02*
X15553340Y-13953340D01*
X15553340Y-13846660D02*
X15446660Y-13953340D01*
X15553340Y-13900000D02*
G75*
G03*
X15553340Y-13900000I-53340J0D01*
G01*
X18469260Y-12846660D02*
X18575940Y-12953340D01*
X18575940Y-12846660D02*
X18469260Y-12953340D01*
X18575940Y-12900000D02*
G75*
G03*
X18575940Y-12900000I-53340J0D01*
G01*
X18469260Y-13846660D02*
X18575940Y-13953340D01*
X18575940Y-13846660D02*
X18469260Y-13953340D01*
X18575940Y-13900000D02*
G75*
G03*
X18575940Y-13900000I-53340J0D01*
G01*
D17*
X8927000Y-9181000D02*
X9057000Y-9311000D01*
X9057000Y-9181000D02*
X8927000Y-9311000D01*
X8992000Y-9181000D02*
X8992000Y-9311000D01*
X8927000Y-9246000D02*
X9057000Y-9246000D01*
X9689000Y-8927000D02*
X9819000Y-9057000D01*
X9819000Y-8927000D02*
X9689000Y-9057000D01*
X9754000Y-8927000D02*
X9754000Y-9057000D01*
X9689000Y-8992000D02*
X9819000Y-8992000D01*
X9689000Y-9435000D02*
X9819000Y-9565000D01*
X9819000Y-9435000D02*
X9689000Y-9565000D01*
X9754000Y-9435000D02*
X9754000Y-9565000D01*
X9689000Y-9500000D02*
X9819000Y-9500000D01*
X10515000Y-7646300D02*
X10645000Y-7776300D01*
X10645000Y-7646300D02*
X10515000Y-7776300D01*
X10580000Y-7646300D02*
X10580000Y-7776300D01*
X10515000Y-7711300D02*
X10645000Y-7711300D01*
X16515000Y-7646300D02*
X16645000Y-7776300D01*
X16645000Y-7646300D02*
X16515000Y-7776300D01*
X16580000Y-7646300D02*
X16580000Y-7776300D01*
X16515000Y-7711300D02*
X16645000Y-7711300D01*
D18*
X9130000Y-11130000D02*
X9270000Y-11270000D01*
X9270000Y-11130000D02*
X9130000Y-11270000D01*
X9249498Y-11249498D02*
X9249498Y-11150502D01*
X9150502Y-11150502D01*
X9150502Y-11249498D01*
X9249498Y-11249498D01*
X19130000Y-13814000D02*
X19270000Y-13954000D01*
X19270000Y-13814000D02*
X19130000Y-13954000D01*
X19249498Y-13933498D02*
X19249498Y-13834502D01*
X19150502Y-13834502D01*
X19150502Y-13933498D01*
X19249498Y-13933498D01*
D19*
X13233000Y-6025000D02*
X13383000Y-6175000D01*
X13383000Y-6025000D02*
X13233000Y-6175000D01*
X13308000Y-6175000D02*
X13383000Y-6100000D01*
X13308000Y-6025000D01*
X13233000Y-6100000D01*
X13308000Y-6175000D01*
X15417000Y-6025000D02*
X15567000Y-6175000D01*
X15567000Y-6025000D02*
X15417000Y-6175000D01*
X15492000Y-6175000D02*
X15567000Y-6100000D01*
X15492000Y-6025000D01*
X15417000Y-6100000D01*
X15492000Y-6175000D01*
X18870000Y-13554000D02*
X19020000Y-13704000D01*
X19020000Y-13554000D02*
X18870000Y-13704000D01*
X18945000Y-13704000D02*
X19020000Y-13629000D01*
X18945000Y-13554000D01*
X18870000Y-13629000D01*
X18945000Y-13704000D01*
X18870000Y-14064000D02*
X19020000Y-14214000D01*
X19020000Y-14064000D02*
X18870000Y-14214000D01*
X18945000Y-14214000D02*
X19020000Y-14139000D01*
X18945000Y-14064000D01*
X18870000Y-14139000D01*
X18945000Y-14214000D01*
X18950000Y-5783000D02*
X19100000Y-5933000D01*
X19100000Y-5783000D02*
X18950000Y-5933000D01*
X19025000Y-5933000D02*
X19100000Y-5858000D01*
X19025000Y-5783000D01*
X18950000Y-5858000D01*
X19025000Y-5933000D01*
X18950000Y-7967000D02*
X19100000Y-8117000D01*
X19100000Y-7967000D02*
X18950000Y-8117000D01*
X19025000Y-8117000D02*
X19100000Y-8042000D01*
X19025000Y-7967000D01*
X18950000Y-8042000D01*
X19025000Y-8117000D01*
X19380000Y-13554000D02*
X19530000Y-13704000D01*
X19530000Y-13554000D02*
X19380000Y-13704000D01*
X19455000Y-13704000D02*
X19530000Y-13629000D01*
X19455000Y-13554000D01*
X19380000Y-13629000D01*
X19455000Y-13704000D01*
X19380000Y-14064000D02*
X19530000Y-14214000D01*
X19530000Y-14064000D02*
X19380000Y-14214000D01*
X19455000Y-14214000D02*
X19530000Y-14139000D01*
X19455000Y-14064000D01*
X19380000Y-14139000D01*
X19455000Y-14214000D01*
D20*
X11338000Y-5820000D02*
X11338000Y-5980000D01*
X11258000Y-5900000D02*
X11418000Y-5900000D01*
X11418000Y-5900000D02*
G75*
G03*
X11418000Y-5900000I-80000J0D01*
G01*
X12862000Y-5820000D02*
X12862000Y-5980000D01*
X12782000Y-5900000D02*
X12942000Y-5900000D01*
X12942000Y-5900000D02*
G75*
G03*
X12942000Y-5900000I-80000J0D01*
G01*
X20200000Y-7958000D02*
X20200000Y-8118000D01*
X20120000Y-8038000D02*
X20280000Y-8038000D01*
X20280000Y-8038000D02*
G75*
G03*
X20280000Y-8038000I-80000J0D01*
G01*
X20200000Y-9482000D02*
X20200000Y-9642000D01*
X20120000Y-9562000D02*
X20280000Y-9562000D01*
X20280000Y-9562000D02*
G75*
G03*
X20280000Y-9562000I-80000J0D01*
G01*
D21*
X10659353Y-13550363D02*
X10659353Y-13415658D01*
X10524647Y-13415658D01*
X10524647Y-13550363D01*
X10659353Y-13550363D01*
X10687250Y-13483011D02*
G75*
G03*
X10687250Y-13483011I-95250J0D01*
G01*
X11675353Y-13550363D02*
X11675353Y-13415658D01*
X11540647Y-13415658D01*
X11540647Y-13550363D01*
X11675353Y-13550363D01*
X11703250Y-13483011D02*
G75*
G03*
X11703250Y-13483011I-95250J0D01*
G01*
D10*
X9005777Y-14816484D02*
X9005777Y-14616484D01*
X9005777Y-14616484D02*
X9053396Y-14616484D01*
X9053396Y-14616484D02*
X9081967Y-14626008D01*
X9081967Y-14626008D02*
X9101015Y-14645055D01*
X9101015Y-14645055D02*
X9110539Y-14664103D01*
X9110539Y-14664103D02*
X9120063Y-14702198D01*
X9120063Y-14702198D02*
X9120063Y-14730769D01*
X9120063Y-14730769D02*
X9110539Y-14768865D01*
X9110539Y-14768865D02*
X9101015Y-14787912D01*
X9101015Y-14787912D02*
X9081967Y-14806960D01*
X9081967Y-14806960D02*
X9053396Y-14816484D01*
X9053396Y-14816484D02*
X9005777Y-14816484D01*
X9205777Y-14816484D02*
X9205777Y-14683150D01*
X9205777Y-14721246D02*
X9215301Y-14702198D01*
X9215301Y-14702198D02*
X9224824Y-14692674D01*
X9224824Y-14692674D02*
X9243872Y-14683150D01*
X9243872Y-14683150D02*
X9262920Y-14683150D01*
X9329586Y-14816484D02*
X9329586Y-14683150D01*
X9329586Y-14616484D02*
X9320063Y-14626008D01*
X9320063Y-14626008D02*
X9329586Y-14635531D01*
X9329586Y-14635531D02*
X9339110Y-14626008D01*
X9339110Y-14626008D02*
X9329586Y-14616484D01*
X9329586Y-14616484D02*
X9329586Y-14635531D01*
X9453396Y-14816484D02*
X9434348Y-14806960D01*
X9434348Y-14806960D02*
X9424824Y-14787912D01*
X9424824Y-14787912D02*
X9424824Y-14616484D01*
X9558158Y-14816484D02*
X9539110Y-14806960D01*
X9539110Y-14806960D02*
X9529586Y-14787912D01*
X9529586Y-14787912D02*
X9529586Y-14616484D01*
X9786729Y-14816484D02*
X9786729Y-14616484D01*
X9786729Y-14616484D02*
X9853396Y-14759341D01*
X9853396Y-14759341D02*
X9920063Y-14616484D01*
X9920063Y-14616484D02*
X9920063Y-14816484D01*
X10101015Y-14816484D02*
X10101015Y-14711722D01*
X10101015Y-14711722D02*
X10091491Y-14692674D01*
X10091491Y-14692674D02*
X10072444Y-14683150D01*
X10072444Y-14683150D02*
X10034348Y-14683150D01*
X10034348Y-14683150D02*
X10015301Y-14692674D01*
X10101015Y-14806960D02*
X10081967Y-14816484D01*
X10081967Y-14816484D02*
X10034348Y-14816484D01*
X10034348Y-14816484D02*
X10015301Y-14806960D01*
X10015301Y-14806960D02*
X10005777Y-14787912D01*
X10005777Y-14787912D02*
X10005777Y-14768865D01*
X10005777Y-14768865D02*
X10015301Y-14749817D01*
X10015301Y-14749817D02*
X10034348Y-14740293D01*
X10034348Y-14740293D02*
X10081967Y-14740293D01*
X10081967Y-14740293D02*
X10101015Y-14730769D01*
X10196253Y-14683150D02*
X10196253Y-14883150D01*
X10196253Y-14692674D02*
X10215301Y-14683150D01*
X10215301Y-14683150D02*
X10253396Y-14683150D01*
X10253396Y-14683150D02*
X10272444Y-14692674D01*
X10272444Y-14692674D02*
X10281967Y-14702198D01*
X10281967Y-14702198D02*
X10291491Y-14721246D01*
X10291491Y-14721246D02*
X10291491Y-14778388D01*
X10291491Y-14778388D02*
X10281967Y-14797436D01*
X10281967Y-14797436D02*
X10272444Y-14806960D01*
X10272444Y-14806960D02*
X10253396Y-14816484D01*
X10253396Y-14816484D02*
X10215301Y-14816484D01*
X10215301Y-14816484D02*
X10196253Y-14806960D01*
X10377205Y-14797436D02*
X10386729Y-14806960D01*
X10386729Y-14806960D02*
X10377205Y-14816484D01*
X10377205Y-14816484D02*
X10367682Y-14806960D01*
X10367682Y-14806960D02*
X10377205Y-14797436D01*
X10377205Y-14797436D02*
X10377205Y-14816484D01*
X10377205Y-14692674D02*
X10386729Y-14702198D01*
X10386729Y-14702198D02*
X10377205Y-14711722D01*
X10377205Y-14711722D02*
X10367682Y-14702198D01*
X10367682Y-14702198D02*
X10377205Y-14692674D01*
X10377205Y-14692674D02*
X10377205Y-14711722D01*
D11*
X8705000Y-15125000D02*
X8745000Y-15165000D01*
X8745000Y-15125000D02*
X8705000Y-15165000D01*
D10*
X9043872Y-15036484D02*
X9062920Y-15036484D01*
X9062920Y-15036484D02*
X9081967Y-15046008D01*
X9081967Y-15046008D02*
X9091491Y-15055531D01*
X9091491Y-15055531D02*
X9101015Y-15074579D01*
X9101015Y-15074579D02*
X9110539Y-15112674D01*
X9110539Y-15112674D02*
X9110539Y-15160293D01*
X9110539Y-15160293D02*
X9101015Y-15198388D01*
X9101015Y-15198388D02*
X9091491Y-15217436D01*
X9091491Y-15217436D02*
X9081967Y-15226960D01*
X9081967Y-15226960D02*
X9062920Y-15236484D01*
X9062920Y-15236484D02*
X9043872Y-15236484D01*
X9043872Y-15236484D02*
X9024824Y-15226960D01*
X9024824Y-15226960D02*
X9015301Y-15217436D01*
X9015301Y-15217436D02*
X9005777Y-15198388D01*
X9005777Y-15198388D02*
X8996253Y-15160293D01*
X8996253Y-15160293D02*
X8996253Y-15112674D01*
X8996253Y-15112674D02*
X9005777Y-15074579D01*
X9005777Y-15074579D02*
X9015301Y-15055531D01*
X9015301Y-15055531D02*
X9024824Y-15046008D01*
X9024824Y-15046008D02*
X9043872Y-15036484D01*
X9196253Y-15217436D02*
X9205777Y-15226960D01*
X9205777Y-15226960D02*
X9196253Y-15236484D01*
X9196253Y-15236484D02*
X9186729Y-15226960D01*
X9186729Y-15226960D02*
X9196253Y-15217436D01*
X9196253Y-15217436D02*
X9196253Y-15236484D01*
X9377205Y-15103150D02*
X9377205Y-15236484D01*
X9329586Y-15026960D02*
X9281967Y-15169817D01*
X9281967Y-15169817D02*
X9405777Y-15169817D01*
X9520063Y-15036484D02*
X9539110Y-15036484D01*
X9539110Y-15036484D02*
X9558158Y-15046008D01*
X9558158Y-15046008D02*
X9567682Y-15055531D01*
X9567682Y-15055531D02*
X9577205Y-15074579D01*
X9577205Y-15074579D02*
X9586729Y-15112674D01*
X9586729Y-15112674D02*
X9586729Y-15160293D01*
X9586729Y-15160293D02*
X9577205Y-15198388D01*
X9577205Y-15198388D02*
X9567682Y-15217436D01*
X9567682Y-15217436D02*
X9558158Y-15226960D01*
X9558158Y-15226960D02*
X9539110Y-15236484D01*
X9539110Y-15236484D02*
X9520063Y-15236484D01*
X9520063Y-15236484D02*
X9501015Y-15226960D01*
X9501015Y-15226960D02*
X9491491Y-15217436D01*
X9491491Y-15217436D02*
X9481967Y-15198388D01*
X9481967Y-15198388D02*
X9472444Y-15160293D01*
X9472444Y-15160293D02*
X9472444Y-15112674D01*
X9472444Y-15112674D02*
X9481967Y-15074579D01*
X9481967Y-15074579D02*
X9491491Y-15055531D01*
X9491491Y-15055531D02*
X9501015Y-15046008D01*
X9501015Y-15046008D02*
X9520063Y-15036484D01*
X9710539Y-15036484D02*
X9729586Y-15036484D01*
X9729586Y-15036484D02*
X9748634Y-15046008D01*
X9748634Y-15046008D02*
X9758158Y-15055531D01*
X9758158Y-15055531D02*
X9767682Y-15074579D01*
X9767682Y-15074579D02*
X9777205Y-15112674D01*
X9777205Y-15112674D02*
X9777205Y-15160293D01*
X9777205Y-15160293D02*
X9767682Y-15198388D01*
X9767682Y-15198388D02*
X9758158Y-15217436D01*
X9758158Y-15217436D02*
X9748634Y-15226960D01*
X9748634Y-15226960D02*
X9729586Y-15236484D01*
X9729586Y-15236484D02*
X9710539Y-15236484D01*
X9710539Y-15236484D02*
X9691491Y-15226960D01*
X9691491Y-15226960D02*
X9681967Y-15217436D01*
X9681967Y-15217436D02*
X9672444Y-15198388D01*
X9672444Y-15198388D02*
X9662920Y-15160293D01*
X9662920Y-15160293D02*
X9662920Y-15112674D01*
X9662920Y-15112674D02*
X9672444Y-15074579D01*
X9672444Y-15074579D02*
X9681967Y-15055531D01*
X9681967Y-15055531D02*
X9691491Y-15046008D01*
X9691491Y-15046008D02*
X9710539Y-15036484D01*
X9862920Y-15236484D02*
X9862920Y-15103150D01*
X9862920Y-15122198D02*
X9872444Y-15112674D01*
X9872444Y-15112674D02*
X9891491Y-15103150D01*
X9891491Y-15103150D02*
X9920063Y-15103150D01*
X9920063Y-15103150D02*
X9939110Y-15112674D01*
X9939110Y-15112674D02*
X9948634Y-15131722D01*
X9948634Y-15131722D02*
X9948634Y-15236484D01*
X9948634Y-15131722D02*
X9958158Y-15112674D01*
X9958158Y-15112674D02*
X9977205Y-15103150D01*
X9977205Y-15103150D02*
X10005777Y-15103150D01*
X10005777Y-15103150D02*
X10024825Y-15112674D01*
X10024825Y-15112674D02*
X10034348Y-15131722D01*
X10034348Y-15131722D02*
X10034348Y-15236484D01*
X10129586Y-15236484D02*
X10129586Y-15103150D01*
X10129586Y-15122198D02*
X10139110Y-15112674D01*
X10139110Y-15112674D02*
X10158158Y-15103150D01*
X10158158Y-15103150D02*
X10186729Y-15103150D01*
X10186729Y-15103150D02*
X10205777Y-15112674D01*
X10205777Y-15112674D02*
X10215301Y-15131722D01*
X10215301Y-15131722D02*
X10215301Y-15236484D01*
X10215301Y-15131722D02*
X10224825Y-15112674D01*
X10224825Y-15112674D02*
X10243872Y-15103150D01*
X10243872Y-15103150D02*
X10272444Y-15103150D01*
X10272444Y-15103150D02*
X10291491Y-15112674D01*
X10291491Y-15112674D02*
X10301015Y-15131722D01*
X10301015Y-15131722D02*
X10301015Y-15236484D01*
X10691491Y-15026960D02*
X10520063Y-15284103D01*
X10948634Y-15036484D02*
X10967682Y-15036484D01*
X10967682Y-15036484D02*
X10986729Y-15046008D01*
X10986729Y-15046008D02*
X10996253Y-15055531D01*
X10996253Y-15055531D02*
X11005777Y-15074579D01*
X11005777Y-15074579D02*
X11015301Y-15112674D01*
X11015301Y-15112674D02*
X11015301Y-15160293D01*
X11015301Y-15160293D02*
X11005777Y-15198388D01*
X11005777Y-15198388D02*
X10996253Y-15217436D01*
X10996253Y-15217436D02*
X10986729Y-15226960D01*
X10986729Y-15226960D02*
X10967682Y-15236484D01*
X10967682Y-15236484D02*
X10948634Y-15236484D01*
X10948634Y-15236484D02*
X10929587Y-15226960D01*
X10929587Y-15226960D02*
X10920063Y-15217436D01*
X10920063Y-15217436D02*
X10910539Y-15198388D01*
X10910539Y-15198388D02*
X10901015Y-15160293D01*
X10901015Y-15160293D02*
X10901015Y-15112674D01*
X10901015Y-15112674D02*
X10910539Y-15074579D01*
X10910539Y-15074579D02*
X10920063Y-15055531D01*
X10920063Y-15055531D02*
X10929587Y-15046008D01*
X10929587Y-15046008D02*
X10948634Y-15036484D01*
X11101015Y-15217436D02*
X11110539Y-15226960D01*
X11110539Y-15226960D02*
X11101015Y-15236484D01*
X11101015Y-15236484D02*
X11091491Y-15226960D01*
X11091491Y-15226960D02*
X11101015Y-15217436D01*
X11101015Y-15217436D02*
X11101015Y-15236484D01*
X11234348Y-15036484D02*
X11253396Y-15036484D01*
X11253396Y-15036484D02*
X11272444Y-15046008D01*
X11272444Y-15046008D02*
X11281967Y-15055531D01*
X11281967Y-15055531D02*
X11291491Y-15074579D01*
X11291491Y-15074579D02*
X11301015Y-15112674D01*
X11301015Y-15112674D02*
X11301015Y-15160293D01*
X11301015Y-15160293D02*
X11291491Y-15198388D01*
X11291491Y-15198388D02*
X11281967Y-15217436D01*
X11281967Y-15217436D02*
X11272444Y-15226960D01*
X11272444Y-15226960D02*
X11253396Y-15236484D01*
X11253396Y-15236484D02*
X11234348Y-15236484D01*
X11234348Y-15236484D02*
X11215301Y-15226960D01*
X11215301Y-15226960D02*
X11205777Y-15217436D01*
X11205777Y-15217436D02*
X11196253Y-15198388D01*
X11196253Y-15198388D02*
X11186729Y-15160293D01*
X11186729Y-15160293D02*
X11186729Y-15112674D01*
X11186729Y-15112674D02*
X11196253Y-15074579D01*
X11196253Y-15074579D02*
X11205777Y-15055531D01*
X11205777Y-15055531D02*
X11215301Y-15046008D01*
X11215301Y-15046008D02*
X11234348Y-15036484D01*
X11491491Y-15236484D02*
X11377206Y-15236484D01*
X11434348Y-15236484D02*
X11434348Y-15036484D01*
X11434348Y-15036484D02*
X11415301Y-15065055D01*
X11415301Y-15065055D02*
X11396253Y-15084103D01*
X11396253Y-15084103D02*
X11377206Y-15093627D01*
X11672444Y-15036484D02*
X11577206Y-15036484D01*
X11577206Y-15036484D02*
X11567682Y-15131722D01*
X11567682Y-15131722D02*
X11577206Y-15122198D01*
X11577206Y-15122198D02*
X11596253Y-15112674D01*
X11596253Y-15112674D02*
X11643872Y-15112674D01*
X11643872Y-15112674D02*
X11662920Y-15122198D01*
X11662920Y-15122198D02*
X11672444Y-15131722D01*
X11672444Y-15131722D02*
X11681967Y-15150769D01*
X11681967Y-15150769D02*
X11681967Y-15198388D01*
X11681967Y-15198388D02*
X11672444Y-15217436D01*
X11672444Y-15217436D02*
X11662920Y-15226960D01*
X11662920Y-15226960D02*
X11643872Y-15236484D01*
X11643872Y-15236484D02*
X11596253Y-15236484D01*
X11596253Y-15236484D02*
X11577206Y-15226960D01*
X11577206Y-15226960D02*
X11567682Y-15217436D01*
X11748634Y-15036484D02*
X11881967Y-15036484D01*
X11881967Y-15036484D02*
X11796253Y-15236484D01*
X11948634Y-15036484D02*
X11948634Y-15074579D01*
X12024825Y-15036484D02*
X12024825Y-15074579D01*
X12320063Y-15312674D02*
X12310539Y-15303150D01*
X12310539Y-15303150D02*
X12291491Y-15274579D01*
X12291491Y-15274579D02*
X12281968Y-15255531D01*
X12281968Y-15255531D02*
X12272444Y-15226960D01*
X12272444Y-15226960D02*
X12262920Y-15179341D01*
X12262920Y-15179341D02*
X12262920Y-15141246D01*
X12262920Y-15141246D02*
X12272444Y-15093627D01*
X12272444Y-15093627D02*
X12281968Y-15065055D01*
X12281968Y-15065055D02*
X12291491Y-15046008D01*
X12291491Y-15046008D02*
X12310539Y-15017436D01*
X12310539Y-15017436D02*
X12320063Y-15007912D01*
X12386729Y-15055531D02*
X12396253Y-15046008D01*
X12396253Y-15046008D02*
X12415301Y-15036484D01*
X12415301Y-15036484D02*
X12462920Y-15036484D01*
X12462920Y-15036484D02*
X12481968Y-15046008D01*
X12481968Y-15046008D02*
X12491491Y-15055531D01*
X12491491Y-15055531D02*
X12501015Y-15074579D01*
X12501015Y-15074579D02*
X12501015Y-15093627D01*
X12501015Y-15093627D02*
X12491491Y-15122198D01*
X12491491Y-15122198D02*
X12377206Y-15236484D01*
X12377206Y-15236484D02*
X12501015Y-15236484D01*
X12672444Y-15103150D02*
X12672444Y-15236484D01*
X12624825Y-15026960D02*
X12577206Y-15169817D01*
X12577206Y-15169817D02*
X12701015Y-15169817D01*
X12815301Y-15036484D02*
X12834349Y-15036484D01*
X12834349Y-15036484D02*
X12853396Y-15046008D01*
X12853396Y-15046008D02*
X12862920Y-15055531D01*
X12862920Y-15055531D02*
X12872444Y-15074579D01*
X12872444Y-15074579D02*
X12881968Y-15112674D01*
X12881968Y-15112674D02*
X12881968Y-15160293D01*
X12881968Y-15160293D02*
X12872444Y-15198388D01*
X12872444Y-15198388D02*
X12862920Y-15217436D01*
X12862920Y-15217436D02*
X12853396Y-15226960D01*
X12853396Y-15226960D02*
X12834349Y-15236484D01*
X12834349Y-15236484D02*
X12815301Y-15236484D01*
X12815301Y-15236484D02*
X12796253Y-15226960D01*
X12796253Y-15226960D02*
X12786729Y-15217436D01*
X12786729Y-15217436D02*
X12777206Y-15198388D01*
X12777206Y-15198388D02*
X12767682Y-15160293D01*
X12767682Y-15160293D02*
X12767682Y-15112674D01*
X12767682Y-15112674D02*
X12777206Y-15074579D01*
X12777206Y-15074579D02*
X12786729Y-15055531D01*
X12786729Y-15055531D02*
X12796253Y-15046008D01*
X12796253Y-15046008D02*
X12815301Y-15036484D01*
X13120063Y-15236484D02*
X13120063Y-15036484D01*
X13205777Y-15236484D02*
X13205777Y-15131722D01*
X13205777Y-15131722D02*
X13196253Y-15112674D01*
X13196253Y-15112674D02*
X13177206Y-15103150D01*
X13177206Y-15103150D02*
X13148634Y-15103150D01*
X13148634Y-15103150D02*
X13129587Y-15112674D01*
X13129587Y-15112674D02*
X13120063Y-15122198D01*
X13329587Y-15236484D02*
X13310539Y-15226960D01*
X13310539Y-15226960D02*
X13301015Y-15217436D01*
X13301015Y-15217436D02*
X13291491Y-15198388D01*
X13291491Y-15198388D02*
X13291491Y-15141246D01*
X13291491Y-15141246D02*
X13301015Y-15122198D01*
X13301015Y-15122198D02*
X13310539Y-15112674D01*
X13310539Y-15112674D02*
X13329587Y-15103150D01*
X13329587Y-15103150D02*
X13358158Y-15103150D01*
X13358158Y-15103150D02*
X13377206Y-15112674D01*
X13377206Y-15112674D02*
X13386730Y-15122198D01*
X13386730Y-15122198D02*
X13396253Y-15141246D01*
X13396253Y-15141246D02*
X13396253Y-15198388D01*
X13396253Y-15198388D02*
X13386730Y-15217436D01*
X13386730Y-15217436D02*
X13377206Y-15226960D01*
X13377206Y-15226960D02*
X13358158Y-15236484D01*
X13358158Y-15236484D02*
X13329587Y-15236484D01*
X13510539Y-15236484D02*
X13491491Y-15226960D01*
X13491491Y-15226960D02*
X13481968Y-15207912D01*
X13481968Y-15207912D02*
X13481968Y-15036484D01*
X13662920Y-15226960D02*
X13643872Y-15236484D01*
X13643872Y-15236484D02*
X13605777Y-15236484D01*
X13605777Y-15236484D02*
X13586730Y-15226960D01*
X13586730Y-15226960D02*
X13577206Y-15207912D01*
X13577206Y-15207912D02*
X13577206Y-15131722D01*
X13577206Y-15131722D02*
X13586730Y-15112674D01*
X13586730Y-15112674D02*
X13605777Y-15103150D01*
X13605777Y-15103150D02*
X13643872Y-15103150D01*
X13643872Y-15103150D02*
X13662920Y-15112674D01*
X13662920Y-15112674D02*
X13672444Y-15131722D01*
X13672444Y-15131722D02*
X13672444Y-15150769D01*
X13672444Y-15150769D02*
X13577206Y-15169817D01*
X13748634Y-15226960D02*
X13767682Y-15236484D01*
X13767682Y-15236484D02*
X13805777Y-15236484D01*
X13805777Y-15236484D02*
X13824825Y-15226960D01*
X13824825Y-15226960D02*
X13834349Y-15207912D01*
X13834349Y-15207912D02*
X13834349Y-15198388D01*
X13834349Y-15198388D02*
X13824825Y-15179341D01*
X13824825Y-15179341D02*
X13805777Y-15169817D01*
X13805777Y-15169817D02*
X13777206Y-15169817D01*
X13777206Y-15169817D02*
X13758158Y-15160293D01*
X13758158Y-15160293D02*
X13748634Y-15141246D01*
X13748634Y-15141246D02*
X13748634Y-15131722D01*
X13748634Y-15131722D02*
X13758158Y-15112674D01*
X13758158Y-15112674D02*
X13777206Y-15103150D01*
X13777206Y-15103150D02*
X13805777Y-15103150D01*
X13805777Y-15103150D02*
X13824825Y-15112674D01*
X13901015Y-15312674D02*
X13910539Y-15303150D01*
X13910539Y-15303150D02*
X13929587Y-15274579D01*
X13929587Y-15274579D02*
X13939111Y-15255531D01*
X13939111Y-15255531D02*
X13948634Y-15226960D01*
X13948634Y-15226960D02*
X13958158Y-15179341D01*
X13958158Y-15179341D02*
X13958158Y-15141246D01*
X13958158Y-15141246D02*
X13948634Y-15093627D01*
X13948634Y-15093627D02*
X13939111Y-15065055D01*
X13939111Y-15065055D02*
X13929587Y-15046008D01*
X13929587Y-15046008D02*
X13910539Y-15017436D01*
X13910539Y-15017436D02*
X13901015Y-15007912D01*
D12*
X8745000Y-15409000D02*
G75*
G03*
X8745000Y-15409000I-30000J0D01*
G01*
D10*
X9043872Y-15300484D02*
X9062920Y-15300484D01*
X9062920Y-15300484D02*
X9081967Y-15310008D01*
X9081967Y-15310008D02*
X9091491Y-15319531D01*
X9091491Y-15319531D02*
X9101015Y-15338579D01*
X9101015Y-15338579D02*
X9110539Y-15376674D01*
X9110539Y-15376674D02*
X9110539Y-15424293D01*
X9110539Y-15424293D02*
X9101015Y-15462388D01*
X9101015Y-15462388D02*
X9091491Y-15481436D01*
X9091491Y-15481436D02*
X9081967Y-15490960D01*
X9081967Y-15490960D02*
X9062920Y-15500484D01*
X9062920Y-15500484D02*
X9043872Y-15500484D01*
X9043872Y-15500484D02*
X9024824Y-15490960D01*
X9024824Y-15490960D02*
X9015301Y-15481436D01*
X9015301Y-15481436D02*
X9005777Y-15462388D01*
X9005777Y-15462388D02*
X8996253Y-15424293D01*
X8996253Y-15424293D02*
X8996253Y-15376674D01*
X8996253Y-15376674D02*
X9005777Y-15338579D01*
X9005777Y-15338579D02*
X9015301Y-15319531D01*
X9015301Y-15319531D02*
X9024824Y-15310008D01*
X9024824Y-15310008D02*
X9043872Y-15300484D01*
X9196253Y-15481436D02*
X9205777Y-15490960D01*
X9205777Y-15490960D02*
X9196253Y-15500484D01*
X9196253Y-15500484D02*
X9186729Y-15490960D01*
X9186729Y-15490960D02*
X9196253Y-15481436D01*
X9196253Y-15481436D02*
X9196253Y-15500484D01*
X9377205Y-15300484D02*
X9339110Y-15300484D01*
X9339110Y-15300484D02*
X9320063Y-15310008D01*
X9320063Y-15310008D02*
X9310539Y-15319531D01*
X9310539Y-15319531D02*
X9291491Y-15348103D01*
X9291491Y-15348103D02*
X9281967Y-15386198D01*
X9281967Y-15386198D02*
X9281967Y-15462388D01*
X9281967Y-15462388D02*
X9291491Y-15481436D01*
X9291491Y-15481436D02*
X9301015Y-15490960D01*
X9301015Y-15490960D02*
X9320063Y-15500484D01*
X9320063Y-15500484D02*
X9358158Y-15500484D01*
X9358158Y-15500484D02*
X9377205Y-15490960D01*
X9377205Y-15490960D02*
X9386729Y-15481436D01*
X9386729Y-15481436D02*
X9396253Y-15462388D01*
X9396253Y-15462388D02*
X9396253Y-15414769D01*
X9396253Y-15414769D02*
X9386729Y-15395722D01*
X9386729Y-15395722D02*
X9377205Y-15386198D01*
X9377205Y-15386198D02*
X9358158Y-15376674D01*
X9358158Y-15376674D02*
X9320063Y-15376674D01*
X9320063Y-15376674D02*
X9301015Y-15386198D01*
X9301015Y-15386198D02*
X9291491Y-15395722D01*
X9291491Y-15395722D02*
X9281967Y-15414769D01*
X9520063Y-15300484D02*
X9539110Y-15300484D01*
X9539110Y-15300484D02*
X9558158Y-15310008D01*
X9558158Y-15310008D02*
X9567682Y-15319531D01*
X9567682Y-15319531D02*
X9577205Y-15338579D01*
X9577205Y-15338579D02*
X9586729Y-15376674D01*
X9586729Y-15376674D02*
X9586729Y-15424293D01*
X9586729Y-15424293D02*
X9577205Y-15462388D01*
X9577205Y-15462388D02*
X9567682Y-15481436D01*
X9567682Y-15481436D02*
X9558158Y-15490960D01*
X9558158Y-15490960D02*
X9539110Y-15500484D01*
X9539110Y-15500484D02*
X9520063Y-15500484D01*
X9520063Y-15500484D02*
X9501015Y-15490960D01*
X9501015Y-15490960D02*
X9491491Y-15481436D01*
X9491491Y-15481436D02*
X9481967Y-15462388D01*
X9481967Y-15462388D02*
X9472444Y-15424293D01*
X9472444Y-15424293D02*
X9472444Y-15376674D01*
X9472444Y-15376674D02*
X9481967Y-15338579D01*
X9481967Y-15338579D02*
X9491491Y-15319531D01*
X9491491Y-15319531D02*
X9501015Y-15310008D01*
X9501015Y-15310008D02*
X9520063Y-15300484D01*
X9710539Y-15300484D02*
X9729586Y-15300484D01*
X9729586Y-15300484D02*
X9748634Y-15310008D01*
X9748634Y-15310008D02*
X9758158Y-15319531D01*
X9758158Y-15319531D02*
X9767682Y-15338579D01*
X9767682Y-15338579D02*
X9777205Y-15376674D01*
X9777205Y-15376674D02*
X9777205Y-15424293D01*
X9777205Y-15424293D02*
X9767682Y-15462388D01*
X9767682Y-15462388D02*
X9758158Y-15481436D01*
X9758158Y-15481436D02*
X9748634Y-15490960D01*
X9748634Y-15490960D02*
X9729586Y-15500484D01*
X9729586Y-15500484D02*
X9710539Y-15500484D01*
X9710539Y-15500484D02*
X9691491Y-15490960D01*
X9691491Y-15490960D02*
X9681967Y-15481436D01*
X9681967Y-15481436D02*
X9672444Y-15462388D01*
X9672444Y-15462388D02*
X9662920Y-15424293D01*
X9662920Y-15424293D02*
X9662920Y-15376674D01*
X9662920Y-15376674D02*
X9672444Y-15338579D01*
X9672444Y-15338579D02*
X9681967Y-15319531D01*
X9681967Y-15319531D02*
X9691491Y-15310008D01*
X9691491Y-15310008D02*
X9710539Y-15300484D01*
X9862920Y-15500484D02*
X9862920Y-15367150D01*
X9862920Y-15386198D02*
X9872444Y-15376674D01*
X9872444Y-15376674D02*
X9891491Y-15367150D01*
X9891491Y-15367150D02*
X9920063Y-15367150D01*
X9920063Y-15367150D02*
X9939110Y-15376674D01*
X9939110Y-15376674D02*
X9948634Y-15395722D01*
X9948634Y-15395722D02*
X9948634Y-15500484D01*
X9948634Y-15395722D02*
X9958158Y-15376674D01*
X9958158Y-15376674D02*
X9977205Y-15367150D01*
X9977205Y-15367150D02*
X10005777Y-15367150D01*
X10005777Y-15367150D02*
X10024825Y-15376674D01*
X10024825Y-15376674D02*
X10034348Y-15395722D01*
X10034348Y-15395722D02*
X10034348Y-15500484D01*
X10129586Y-15500484D02*
X10129586Y-15367150D01*
X10129586Y-15386198D02*
X10139110Y-15376674D01*
X10139110Y-15376674D02*
X10158158Y-15367150D01*
X10158158Y-15367150D02*
X10186729Y-15367150D01*
X10186729Y-15367150D02*
X10205777Y-15376674D01*
X10205777Y-15376674D02*
X10215301Y-15395722D01*
X10215301Y-15395722D02*
X10215301Y-15500484D01*
X10215301Y-15395722D02*
X10224825Y-15376674D01*
X10224825Y-15376674D02*
X10243872Y-15367150D01*
X10243872Y-15367150D02*
X10272444Y-15367150D01*
X10272444Y-15367150D02*
X10291491Y-15376674D01*
X10291491Y-15376674D02*
X10301015Y-15395722D01*
X10301015Y-15395722D02*
X10301015Y-15500484D01*
X10691491Y-15290960D02*
X10520063Y-15548103D01*
X10948634Y-15300484D02*
X10967682Y-15300484D01*
X10967682Y-15300484D02*
X10986729Y-15310008D01*
X10986729Y-15310008D02*
X10996253Y-15319531D01*
X10996253Y-15319531D02*
X11005777Y-15338579D01*
X11005777Y-15338579D02*
X11015301Y-15376674D01*
X11015301Y-15376674D02*
X11015301Y-15424293D01*
X11015301Y-15424293D02*
X11005777Y-15462388D01*
X11005777Y-15462388D02*
X10996253Y-15481436D01*
X10996253Y-15481436D02*
X10986729Y-15490960D01*
X10986729Y-15490960D02*
X10967682Y-15500484D01*
X10967682Y-15500484D02*
X10948634Y-15500484D01*
X10948634Y-15500484D02*
X10929587Y-15490960D01*
X10929587Y-15490960D02*
X10920063Y-15481436D01*
X10920063Y-15481436D02*
X10910539Y-15462388D01*
X10910539Y-15462388D02*
X10901015Y-15424293D01*
X10901015Y-15424293D02*
X10901015Y-15376674D01*
X10901015Y-15376674D02*
X10910539Y-15338579D01*
X10910539Y-15338579D02*
X10920063Y-15319531D01*
X10920063Y-15319531D02*
X10929587Y-15310008D01*
X10929587Y-15310008D02*
X10948634Y-15300484D01*
X11101015Y-15481436D02*
X11110539Y-15490960D01*
X11110539Y-15490960D02*
X11101015Y-15500484D01*
X11101015Y-15500484D02*
X11091491Y-15490960D01*
X11091491Y-15490960D02*
X11101015Y-15481436D01*
X11101015Y-15481436D02*
X11101015Y-15500484D01*
X11234348Y-15300484D02*
X11253396Y-15300484D01*
X11253396Y-15300484D02*
X11272444Y-15310008D01*
X11272444Y-15310008D02*
X11281967Y-15319531D01*
X11281967Y-15319531D02*
X11291491Y-15338579D01*
X11291491Y-15338579D02*
X11301015Y-15376674D01*
X11301015Y-15376674D02*
X11301015Y-15424293D01*
X11301015Y-15424293D02*
X11291491Y-15462388D01*
X11291491Y-15462388D02*
X11281967Y-15481436D01*
X11281967Y-15481436D02*
X11272444Y-15490960D01*
X11272444Y-15490960D02*
X11253396Y-15500484D01*
X11253396Y-15500484D02*
X11234348Y-15500484D01*
X11234348Y-15500484D02*
X11215301Y-15490960D01*
X11215301Y-15490960D02*
X11205777Y-15481436D01*
X11205777Y-15481436D02*
X11196253Y-15462388D01*
X11196253Y-15462388D02*
X11186729Y-15424293D01*
X11186729Y-15424293D02*
X11186729Y-15376674D01*
X11186729Y-15376674D02*
X11196253Y-15338579D01*
X11196253Y-15338579D02*
X11205777Y-15319531D01*
X11205777Y-15319531D02*
X11215301Y-15310008D01*
X11215301Y-15310008D02*
X11234348Y-15300484D01*
X11377206Y-15319531D02*
X11386729Y-15310008D01*
X11386729Y-15310008D02*
X11405777Y-15300484D01*
X11405777Y-15300484D02*
X11453396Y-15300484D01*
X11453396Y-15300484D02*
X11472444Y-15310008D01*
X11472444Y-15310008D02*
X11481967Y-15319531D01*
X11481967Y-15319531D02*
X11491491Y-15338579D01*
X11491491Y-15338579D02*
X11491491Y-15357627D01*
X11491491Y-15357627D02*
X11481967Y-15386198D01*
X11481967Y-15386198D02*
X11367682Y-15500484D01*
X11367682Y-15500484D02*
X11491491Y-15500484D01*
X11558158Y-15300484D02*
X11681967Y-15300484D01*
X11681967Y-15300484D02*
X11615301Y-15376674D01*
X11615301Y-15376674D02*
X11643872Y-15376674D01*
X11643872Y-15376674D02*
X11662920Y-15386198D01*
X11662920Y-15386198D02*
X11672444Y-15395722D01*
X11672444Y-15395722D02*
X11681967Y-15414769D01*
X11681967Y-15414769D02*
X11681967Y-15462388D01*
X11681967Y-15462388D02*
X11672444Y-15481436D01*
X11672444Y-15481436D02*
X11662920Y-15490960D01*
X11662920Y-15490960D02*
X11643872Y-15500484D01*
X11643872Y-15500484D02*
X11586729Y-15500484D01*
X11586729Y-15500484D02*
X11567682Y-15490960D01*
X11567682Y-15490960D02*
X11558158Y-15481436D01*
X11853396Y-15300484D02*
X11815301Y-15300484D01*
X11815301Y-15300484D02*
X11796253Y-15310008D01*
X11796253Y-15310008D02*
X11786729Y-15319531D01*
X11786729Y-15319531D02*
X11767682Y-15348103D01*
X11767682Y-15348103D02*
X11758158Y-15386198D01*
X11758158Y-15386198D02*
X11758158Y-15462388D01*
X11758158Y-15462388D02*
X11767682Y-15481436D01*
X11767682Y-15481436D02*
X11777206Y-15490960D01*
X11777206Y-15490960D02*
X11796253Y-15500484D01*
X11796253Y-15500484D02*
X11834348Y-15500484D01*
X11834348Y-15500484D02*
X11853396Y-15490960D01*
X11853396Y-15490960D02*
X11862920Y-15481436D01*
X11862920Y-15481436D02*
X11872444Y-15462388D01*
X11872444Y-15462388D02*
X11872444Y-15414769D01*
X11872444Y-15414769D02*
X11862920Y-15395722D01*
X11862920Y-15395722D02*
X11853396Y-15386198D01*
X11853396Y-15386198D02*
X11834348Y-15376674D01*
X11834348Y-15376674D02*
X11796253Y-15376674D01*
X11796253Y-15376674D02*
X11777206Y-15386198D01*
X11777206Y-15386198D02*
X11767682Y-15395722D01*
X11767682Y-15395722D02*
X11758158Y-15414769D01*
X11948634Y-15300484D02*
X11948634Y-15338579D01*
X12024825Y-15300484D02*
X12024825Y-15338579D01*
X12320063Y-15576674D02*
X12310539Y-15567150D01*
X12310539Y-15567150D02*
X12291491Y-15538579D01*
X12291491Y-15538579D02*
X12281968Y-15519531D01*
X12281968Y-15519531D02*
X12272444Y-15490960D01*
X12272444Y-15490960D02*
X12262920Y-15443341D01*
X12262920Y-15443341D02*
X12262920Y-15405246D01*
X12262920Y-15405246D02*
X12272444Y-15357627D01*
X12272444Y-15357627D02*
X12281968Y-15329055D01*
X12281968Y-15329055D02*
X12291491Y-15310008D01*
X12291491Y-15310008D02*
X12310539Y-15281436D01*
X12310539Y-15281436D02*
X12320063Y-15271912D01*
X12377206Y-15300484D02*
X12510539Y-15300484D01*
X12510539Y-15300484D02*
X12424825Y-15500484D01*
X12739110Y-15500484D02*
X12739110Y-15300484D01*
X12824825Y-15500484D02*
X12824825Y-15395722D01*
X12824825Y-15395722D02*
X12815301Y-15376674D01*
X12815301Y-15376674D02*
X12796253Y-15367150D01*
X12796253Y-15367150D02*
X12767682Y-15367150D01*
X12767682Y-15367150D02*
X12748634Y-15376674D01*
X12748634Y-15376674D02*
X12739110Y-15386198D01*
X12948634Y-15500484D02*
X12929587Y-15490960D01*
X12929587Y-15490960D02*
X12920063Y-15481436D01*
X12920063Y-15481436D02*
X12910539Y-15462388D01*
X12910539Y-15462388D02*
X12910539Y-15405246D01*
X12910539Y-15405246D02*
X12920063Y-15386198D01*
X12920063Y-15386198D02*
X12929587Y-15376674D01*
X12929587Y-15376674D02*
X12948634Y-15367150D01*
X12948634Y-15367150D02*
X12977206Y-15367150D01*
X12977206Y-15367150D02*
X12996253Y-15376674D01*
X12996253Y-15376674D02*
X13005777Y-15386198D01*
X13005777Y-15386198D02*
X13015301Y-15405246D01*
X13015301Y-15405246D02*
X13015301Y-15462388D01*
X13015301Y-15462388D02*
X13005777Y-15481436D01*
X13005777Y-15481436D02*
X12996253Y-15490960D01*
X12996253Y-15490960D02*
X12977206Y-15500484D01*
X12977206Y-15500484D02*
X12948634Y-15500484D01*
X13129587Y-15500484D02*
X13110539Y-15490960D01*
X13110539Y-15490960D02*
X13101015Y-15471912D01*
X13101015Y-15471912D02*
X13101015Y-15300484D01*
X13281968Y-15490960D02*
X13262920Y-15500484D01*
X13262920Y-15500484D02*
X13224825Y-15500484D01*
X13224825Y-15500484D02*
X13205777Y-15490960D01*
X13205777Y-15490960D02*
X13196253Y-15471912D01*
X13196253Y-15471912D02*
X13196253Y-15395722D01*
X13196253Y-15395722D02*
X13205777Y-15376674D01*
X13205777Y-15376674D02*
X13224825Y-15367150D01*
X13224825Y-15367150D02*
X13262920Y-15367150D01*
X13262920Y-15367150D02*
X13281968Y-15376674D01*
X13281968Y-15376674D02*
X13291491Y-15395722D01*
X13291491Y-15395722D02*
X13291491Y-15414769D01*
X13291491Y-15414769D02*
X13196253Y-15433817D01*
X13367682Y-15490960D02*
X13386730Y-15500484D01*
X13386730Y-15500484D02*
X13424825Y-15500484D01*
X13424825Y-15500484D02*
X13443872Y-15490960D01*
X13443872Y-15490960D02*
X13453396Y-15471912D01*
X13453396Y-15471912D02*
X13453396Y-15462388D01*
X13453396Y-15462388D02*
X13443872Y-15443341D01*
X13443872Y-15443341D02*
X13424825Y-15433817D01*
X13424825Y-15433817D02*
X13396253Y-15433817D01*
X13396253Y-15433817D02*
X13377206Y-15424293D01*
X13377206Y-15424293D02*
X13367682Y-15405246D01*
X13367682Y-15405246D02*
X13367682Y-15395722D01*
X13367682Y-15395722D02*
X13377206Y-15376674D01*
X13377206Y-15376674D02*
X13396253Y-15367150D01*
X13396253Y-15367150D02*
X13424825Y-15367150D01*
X13424825Y-15367150D02*
X13443872Y-15376674D01*
X13520063Y-15576674D02*
X13529587Y-15567150D01*
X13529587Y-15567150D02*
X13548634Y-15538579D01*
X13548634Y-15538579D02*
X13558158Y-15519531D01*
X13558158Y-15519531D02*
X13567682Y-15490960D01*
X13567682Y-15490960D02*
X13577206Y-15443341D01*
X13577206Y-15443341D02*
X13577206Y-15405246D01*
X13577206Y-15405246D02*
X13567682Y-15357627D01*
X13567682Y-15357627D02*
X13558158Y-15329055D01*
X13558158Y-15329055D02*
X13548634Y-15310008D01*
X13548634Y-15310008D02*
X13529587Y-15281436D01*
X13529587Y-15281436D02*
X13520063Y-15271912D01*
D13*
X8704360Y-15632360D02*
X8704360Y-15713640D01*
X8663720Y-15673000D02*
X8745000Y-15673000D01*
D10*
X9043872Y-15564484D02*
X9062920Y-15564484D01*
X9062920Y-15564484D02*
X9081967Y-15574008D01*
X9081967Y-15574008D02*
X9091491Y-15583531D01*
X9091491Y-15583531D02*
X9101015Y-15602579D01*
X9101015Y-15602579D02*
X9110539Y-15640674D01*
X9110539Y-15640674D02*
X9110539Y-15688293D01*
X9110539Y-15688293D02*
X9101015Y-15726388D01*
X9101015Y-15726388D02*
X9091491Y-15745436D01*
X9091491Y-15745436D02*
X9081967Y-15754960D01*
X9081967Y-15754960D02*
X9062920Y-15764484D01*
X9062920Y-15764484D02*
X9043872Y-15764484D01*
X9043872Y-15764484D02*
X9024824Y-15754960D01*
X9024824Y-15754960D02*
X9015301Y-15745436D01*
X9015301Y-15745436D02*
X9005777Y-15726388D01*
X9005777Y-15726388D02*
X8996253Y-15688293D01*
X8996253Y-15688293D02*
X8996253Y-15640674D01*
X8996253Y-15640674D02*
X9005777Y-15602579D01*
X9005777Y-15602579D02*
X9015301Y-15583531D01*
X9015301Y-15583531D02*
X9024824Y-15574008D01*
X9024824Y-15574008D02*
X9043872Y-15564484D01*
X9196253Y-15745436D02*
X9205777Y-15754960D01*
X9205777Y-15754960D02*
X9196253Y-15764484D01*
X9196253Y-15764484D02*
X9186729Y-15754960D01*
X9186729Y-15754960D02*
X9196253Y-15745436D01*
X9196253Y-15745436D02*
X9196253Y-15764484D01*
X9320063Y-15650198D02*
X9301015Y-15640674D01*
X9301015Y-15640674D02*
X9291491Y-15631150D01*
X9291491Y-15631150D02*
X9281967Y-15612103D01*
X9281967Y-15612103D02*
X9281967Y-15602579D01*
X9281967Y-15602579D02*
X9291491Y-15583531D01*
X9291491Y-15583531D02*
X9301015Y-15574008D01*
X9301015Y-15574008D02*
X9320063Y-15564484D01*
X9320063Y-15564484D02*
X9358158Y-15564484D01*
X9358158Y-15564484D02*
X9377205Y-15574008D01*
X9377205Y-15574008D02*
X9386729Y-15583531D01*
X9386729Y-15583531D02*
X9396253Y-15602579D01*
X9396253Y-15602579D02*
X9396253Y-15612103D01*
X9396253Y-15612103D02*
X9386729Y-15631150D01*
X9386729Y-15631150D02*
X9377205Y-15640674D01*
X9377205Y-15640674D02*
X9358158Y-15650198D01*
X9358158Y-15650198D02*
X9320063Y-15650198D01*
X9320063Y-15650198D02*
X9301015Y-15659722D01*
X9301015Y-15659722D02*
X9291491Y-15669246D01*
X9291491Y-15669246D02*
X9281967Y-15688293D01*
X9281967Y-15688293D02*
X9281967Y-15726388D01*
X9281967Y-15726388D02*
X9291491Y-15745436D01*
X9291491Y-15745436D02*
X9301015Y-15754960D01*
X9301015Y-15754960D02*
X9320063Y-15764484D01*
X9320063Y-15764484D02*
X9358158Y-15764484D01*
X9358158Y-15764484D02*
X9377205Y-15754960D01*
X9377205Y-15754960D02*
X9386729Y-15745436D01*
X9386729Y-15745436D02*
X9396253Y-15726388D01*
X9396253Y-15726388D02*
X9396253Y-15688293D01*
X9396253Y-15688293D02*
X9386729Y-15669246D01*
X9386729Y-15669246D02*
X9377205Y-15659722D01*
X9377205Y-15659722D02*
X9358158Y-15650198D01*
X9586729Y-15764484D02*
X9472444Y-15764484D01*
X9529586Y-15764484D02*
X9529586Y-15564484D01*
X9529586Y-15564484D02*
X9510539Y-15593055D01*
X9510539Y-15593055D02*
X9491491Y-15612103D01*
X9491491Y-15612103D02*
X9472444Y-15621627D01*
X9653396Y-15564484D02*
X9777205Y-15564484D01*
X9777205Y-15564484D02*
X9710539Y-15640674D01*
X9710539Y-15640674D02*
X9739110Y-15640674D01*
X9739110Y-15640674D02*
X9758158Y-15650198D01*
X9758158Y-15650198D02*
X9767682Y-15659722D01*
X9767682Y-15659722D02*
X9777205Y-15678769D01*
X9777205Y-15678769D02*
X9777205Y-15726388D01*
X9777205Y-15726388D02*
X9767682Y-15745436D01*
X9767682Y-15745436D02*
X9758158Y-15754960D01*
X9758158Y-15754960D02*
X9739110Y-15764484D01*
X9739110Y-15764484D02*
X9681967Y-15764484D01*
X9681967Y-15764484D02*
X9662920Y-15754960D01*
X9662920Y-15754960D02*
X9653396Y-15745436D01*
X9862920Y-15764484D02*
X9862920Y-15631150D01*
X9862920Y-15650198D02*
X9872444Y-15640674D01*
X9872444Y-15640674D02*
X9891491Y-15631150D01*
X9891491Y-15631150D02*
X9920063Y-15631150D01*
X9920063Y-15631150D02*
X9939110Y-15640674D01*
X9939110Y-15640674D02*
X9948634Y-15659722D01*
X9948634Y-15659722D02*
X9948634Y-15764484D01*
X9948634Y-15659722D02*
X9958158Y-15640674D01*
X9958158Y-15640674D02*
X9977205Y-15631150D01*
X9977205Y-15631150D02*
X10005777Y-15631150D01*
X10005777Y-15631150D02*
X10024825Y-15640674D01*
X10024825Y-15640674D02*
X10034348Y-15659722D01*
X10034348Y-15659722D02*
X10034348Y-15764484D01*
X10129586Y-15764484D02*
X10129586Y-15631150D01*
X10129586Y-15650198D02*
X10139110Y-15640674D01*
X10139110Y-15640674D02*
X10158158Y-15631150D01*
X10158158Y-15631150D02*
X10186729Y-15631150D01*
X10186729Y-15631150D02*
X10205777Y-15640674D01*
X10205777Y-15640674D02*
X10215301Y-15659722D01*
X10215301Y-15659722D02*
X10215301Y-15764484D01*
X10215301Y-15659722D02*
X10224825Y-15640674D01*
X10224825Y-15640674D02*
X10243872Y-15631150D01*
X10243872Y-15631150D02*
X10272444Y-15631150D01*
X10272444Y-15631150D02*
X10291491Y-15640674D01*
X10291491Y-15640674D02*
X10301015Y-15659722D01*
X10301015Y-15659722D02*
X10301015Y-15764484D01*
X10691491Y-15554960D02*
X10520063Y-15812103D01*
X10948634Y-15564484D02*
X10967682Y-15564484D01*
X10967682Y-15564484D02*
X10986729Y-15574008D01*
X10986729Y-15574008D02*
X10996253Y-15583531D01*
X10996253Y-15583531D02*
X11005777Y-15602579D01*
X11005777Y-15602579D02*
X11015301Y-15640674D01*
X11015301Y-15640674D02*
X11015301Y-15688293D01*
X11015301Y-15688293D02*
X11005777Y-15726388D01*
X11005777Y-15726388D02*
X10996253Y-15745436D01*
X10996253Y-15745436D02*
X10986729Y-15754960D01*
X10986729Y-15754960D02*
X10967682Y-15764484D01*
X10967682Y-15764484D02*
X10948634Y-15764484D01*
X10948634Y-15764484D02*
X10929587Y-15754960D01*
X10929587Y-15754960D02*
X10920063Y-15745436D01*
X10920063Y-15745436D02*
X10910539Y-15726388D01*
X10910539Y-15726388D02*
X10901015Y-15688293D01*
X10901015Y-15688293D02*
X10901015Y-15640674D01*
X10901015Y-15640674D02*
X10910539Y-15602579D01*
X10910539Y-15602579D02*
X10920063Y-15583531D01*
X10920063Y-15583531D02*
X10929587Y-15574008D01*
X10929587Y-15574008D02*
X10948634Y-15564484D01*
X11101015Y-15745436D02*
X11110539Y-15754960D01*
X11110539Y-15754960D02*
X11101015Y-15764484D01*
X11101015Y-15764484D02*
X11091491Y-15754960D01*
X11091491Y-15754960D02*
X11101015Y-15745436D01*
X11101015Y-15745436D02*
X11101015Y-15764484D01*
X11234348Y-15564484D02*
X11253396Y-15564484D01*
X11253396Y-15564484D02*
X11272444Y-15574008D01*
X11272444Y-15574008D02*
X11281967Y-15583531D01*
X11281967Y-15583531D02*
X11291491Y-15602579D01*
X11291491Y-15602579D02*
X11301015Y-15640674D01*
X11301015Y-15640674D02*
X11301015Y-15688293D01*
X11301015Y-15688293D02*
X11291491Y-15726388D01*
X11291491Y-15726388D02*
X11281967Y-15745436D01*
X11281967Y-15745436D02*
X11272444Y-15754960D01*
X11272444Y-15754960D02*
X11253396Y-15764484D01*
X11253396Y-15764484D02*
X11234348Y-15764484D01*
X11234348Y-15764484D02*
X11215301Y-15754960D01*
X11215301Y-15754960D02*
X11205777Y-15745436D01*
X11205777Y-15745436D02*
X11196253Y-15726388D01*
X11196253Y-15726388D02*
X11186729Y-15688293D01*
X11186729Y-15688293D02*
X11186729Y-15640674D01*
X11186729Y-15640674D02*
X11196253Y-15602579D01*
X11196253Y-15602579D02*
X11205777Y-15583531D01*
X11205777Y-15583531D02*
X11215301Y-15574008D01*
X11215301Y-15574008D02*
X11234348Y-15564484D01*
X11367682Y-15564484D02*
X11491491Y-15564484D01*
X11491491Y-15564484D02*
X11424825Y-15640674D01*
X11424825Y-15640674D02*
X11453396Y-15640674D01*
X11453396Y-15640674D02*
X11472444Y-15650198D01*
X11472444Y-15650198D02*
X11481967Y-15659722D01*
X11481967Y-15659722D02*
X11491491Y-15678769D01*
X11491491Y-15678769D02*
X11491491Y-15726388D01*
X11491491Y-15726388D02*
X11481967Y-15745436D01*
X11481967Y-15745436D02*
X11472444Y-15754960D01*
X11472444Y-15754960D02*
X11453396Y-15764484D01*
X11453396Y-15764484D02*
X11396253Y-15764484D01*
X11396253Y-15764484D02*
X11377206Y-15754960D01*
X11377206Y-15754960D02*
X11367682Y-15745436D01*
X11567682Y-15583531D02*
X11577206Y-15574008D01*
X11577206Y-15574008D02*
X11596253Y-15564484D01*
X11596253Y-15564484D02*
X11643872Y-15564484D01*
X11643872Y-15564484D02*
X11662920Y-15574008D01*
X11662920Y-15574008D02*
X11672444Y-15583531D01*
X11672444Y-15583531D02*
X11681967Y-15602579D01*
X11681967Y-15602579D02*
X11681967Y-15621627D01*
X11681967Y-15621627D02*
X11672444Y-15650198D01*
X11672444Y-15650198D02*
X11558158Y-15764484D01*
X11558158Y-15764484D02*
X11681967Y-15764484D01*
X11805777Y-15564484D02*
X11824825Y-15564484D01*
X11824825Y-15564484D02*
X11843872Y-15574008D01*
X11843872Y-15574008D02*
X11853396Y-15583531D01*
X11853396Y-15583531D02*
X11862920Y-15602579D01*
X11862920Y-15602579D02*
X11872444Y-15640674D01*
X11872444Y-15640674D02*
X11872444Y-15688293D01*
X11872444Y-15688293D02*
X11862920Y-15726388D01*
X11862920Y-15726388D02*
X11853396Y-15745436D01*
X11853396Y-15745436D02*
X11843872Y-15754960D01*
X11843872Y-15754960D02*
X11824825Y-15764484D01*
X11824825Y-15764484D02*
X11805777Y-15764484D01*
X11805777Y-15764484D02*
X11786729Y-15754960D01*
X11786729Y-15754960D02*
X11777206Y-15745436D01*
X11777206Y-15745436D02*
X11767682Y-15726388D01*
X11767682Y-15726388D02*
X11758158Y-15688293D01*
X11758158Y-15688293D02*
X11758158Y-15640674D01*
X11758158Y-15640674D02*
X11767682Y-15602579D01*
X11767682Y-15602579D02*
X11777206Y-15583531D01*
X11777206Y-15583531D02*
X11786729Y-15574008D01*
X11786729Y-15574008D02*
X11805777Y-15564484D01*
X11948634Y-15564484D02*
X11948634Y-15602579D01*
X12024825Y-15564484D02*
X12024825Y-15602579D01*
X12320063Y-15840674D02*
X12310539Y-15831150D01*
X12310539Y-15831150D02*
X12291491Y-15802579D01*
X12291491Y-15802579D02*
X12281968Y-15783531D01*
X12281968Y-15783531D02*
X12272444Y-15754960D01*
X12272444Y-15754960D02*
X12262920Y-15707341D01*
X12262920Y-15707341D02*
X12262920Y-15669246D01*
X12262920Y-15669246D02*
X12272444Y-15621627D01*
X12272444Y-15621627D02*
X12281968Y-15593055D01*
X12281968Y-15593055D02*
X12291491Y-15574008D01*
X12291491Y-15574008D02*
X12310539Y-15545436D01*
X12310539Y-15545436D02*
X12320063Y-15535912D01*
X12377206Y-15564484D02*
X12501015Y-15564484D01*
X12501015Y-15564484D02*
X12434348Y-15640674D01*
X12434348Y-15640674D02*
X12462920Y-15640674D01*
X12462920Y-15640674D02*
X12481968Y-15650198D01*
X12481968Y-15650198D02*
X12491491Y-15659722D01*
X12491491Y-15659722D02*
X12501015Y-15678769D01*
X12501015Y-15678769D02*
X12501015Y-15726388D01*
X12501015Y-15726388D02*
X12491491Y-15745436D01*
X12491491Y-15745436D02*
X12481968Y-15754960D01*
X12481968Y-15754960D02*
X12462920Y-15764484D01*
X12462920Y-15764484D02*
X12405777Y-15764484D01*
X12405777Y-15764484D02*
X12386729Y-15754960D01*
X12386729Y-15754960D02*
X12377206Y-15745436D01*
X12739110Y-15764484D02*
X12739110Y-15564484D01*
X12824825Y-15764484D02*
X12824825Y-15659722D01*
X12824825Y-15659722D02*
X12815301Y-15640674D01*
X12815301Y-15640674D02*
X12796253Y-15631150D01*
X12796253Y-15631150D02*
X12767682Y-15631150D01*
X12767682Y-15631150D02*
X12748634Y-15640674D01*
X12748634Y-15640674D02*
X12739110Y-15650198D01*
X12948634Y-15764484D02*
X12929587Y-15754960D01*
X12929587Y-15754960D02*
X12920063Y-15745436D01*
X12920063Y-15745436D02*
X12910539Y-15726388D01*
X12910539Y-15726388D02*
X12910539Y-15669246D01*
X12910539Y-15669246D02*
X12920063Y-15650198D01*
X12920063Y-15650198D02*
X12929587Y-15640674D01*
X12929587Y-15640674D02*
X12948634Y-15631150D01*
X12948634Y-15631150D02*
X12977206Y-15631150D01*
X12977206Y-15631150D02*
X12996253Y-15640674D01*
X12996253Y-15640674D02*
X13005777Y-15650198D01*
X13005777Y-15650198D02*
X13015301Y-15669246D01*
X13015301Y-15669246D02*
X13015301Y-15726388D01*
X13015301Y-15726388D02*
X13005777Y-15745436D01*
X13005777Y-15745436D02*
X12996253Y-15754960D01*
X12996253Y-15754960D02*
X12977206Y-15764484D01*
X12977206Y-15764484D02*
X12948634Y-15764484D01*
X13129587Y-15764484D02*
X13110539Y-15754960D01*
X13110539Y-15754960D02*
X13101015Y-15735912D01*
X13101015Y-15735912D02*
X13101015Y-15564484D01*
X13281968Y-15754960D02*
X13262920Y-15764484D01*
X13262920Y-15764484D02*
X13224825Y-15764484D01*
X13224825Y-15764484D02*
X13205777Y-15754960D01*
X13205777Y-15754960D02*
X13196253Y-15735912D01*
X13196253Y-15735912D02*
X13196253Y-15659722D01*
X13196253Y-15659722D02*
X13205777Y-15640674D01*
X13205777Y-15640674D02*
X13224825Y-15631150D01*
X13224825Y-15631150D02*
X13262920Y-15631150D01*
X13262920Y-15631150D02*
X13281968Y-15640674D01*
X13281968Y-15640674D02*
X13291491Y-15659722D01*
X13291491Y-15659722D02*
X13291491Y-15678769D01*
X13291491Y-15678769D02*
X13196253Y-15697817D01*
X13367682Y-15754960D02*
X13386730Y-15764484D01*
X13386730Y-15764484D02*
X13424825Y-15764484D01*
X13424825Y-15764484D02*
X13443872Y-15754960D01*
X13443872Y-15754960D02*
X13453396Y-15735912D01*
X13453396Y-15735912D02*
X13453396Y-15726388D01*
X13453396Y-15726388D02*
X13443872Y-15707341D01*
X13443872Y-15707341D02*
X13424825Y-15697817D01*
X13424825Y-15697817D02*
X13396253Y-15697817D01*
X13396253Y-15697817D02*
X13377206Y-15688293D01*
X13377206Y-15688293D02*
X13367682Y-15669246D01*
X13367682Y-15669246D02*
X13367682Y-15659722D01*
X13367682Y-15659722D02*
X13377206Y-15640674D01*
X13377206Y-15640674D02*
X13396253Y-15631150D01*
X13396253Y-15631150D02*
X13424825Y-15631150D01*
X13424825Y-15631150D02*
X13443872Y-15640674D01*
X13520063Y-15840674D02*
X13529587Y-15831150D01*
X13529587Y-15831150D02*
X13548634Y-15802579D01*
X13548634Y-15802579D02*
X13558158Y-15783531D01*
X13558158Y-15783531D02*
X13567682Y-15754960D01*
X13567682Y-15754960D02*
X13577206Y-15707341D01*
X13577206Y-15707341D02*
X13577206Y-15669246D01*
X13577206Y-15669246D02*
X13567682Y-15621627D01*
X13567682Y-15621627D02*
X13558158Y-15593055D01*
X13558158Y-15593055D02*
X13548634Y-15574008D01*
X13548634Y-15574008D02*
X13529587Y-15545436D01*
X13529587Y-15545436D02*
X13520063Y-15535912D01*
D14*
X8730493Y-15972023D02*
X8730493Y-15901977D01*
X8660447Y-15901977D01*
X8660447Y-15972023D01*
X8730493Y-15972023D01*
D10*
X9043872Y-15828484D02*
X9062920Y-15828484D01*
X9062920Y-15828484D02*
X9081967Y-15838008D01*
X9081967Y-15838008D02*
X9091491Y-15847531D01*
X9091491Y-15847531D02*
X9101015Y-15866579D01*
X9101015Y-15866579D02*
X9110539Y-15904674D01*
X9110539Y-15904674D02*
X9110539Y-15952293D01*
X9110539Y-15952293D02*
X9101015Y-15990388D01*
X9101015Y-15990388D02*
X9091491Y-16009436D01*
X9091491Y-16009436D02*
X9081967Y-16018960D01*
X9081967Y-16018960D02*
X9062920Y-16028484D01*
X9062920Y-16028484D02*
X9043872Y-16028484D01*
X9043872Y-16028484D02*
X9024824Y-16018960D01*
X9024824Y-16018960D02*
X9015301Y-16009436D01*
X9015301Y-16009436D02*
X9005777Y-15990388D01*
X9005777Y-15990388D02*
X8996253Y-15952293D01*
X8996253Y-15952293D02*
X8996253Y-15904674D01*
X8996253Y-15904674D02*
X9005777Y-15866579D01*
X9005777Y-15866579D02*
X9015301Y-15847531D01*
X9015301Y-15847531D02*
X9024824Y-15838008D01*
X9024824Y-15838008D02*
X9043872Y-15828484D01*
X9196253Y-16009436D02*
X9205777Y-16018960D01*
X9205777Y-16018960D02*
X9196253Y-16028484D01*
X9196253Y-16028484D02*
X9186729Y-16018960D01*
X9186729Y-16018960D02*
X9196253Y-16009436D01*
X9196253Y-16009436D02*
X9196253Y-16028484D01*
X9301015Y-16028484D02*
X9339110Y-16028484D01*
X9339110Y-16028484D02*
X9358158Y-16018960D01*
X9358158Y-16018960D02*
X9367682Y-16009436D01*
X9367682Y-16009436D02*
X9386729Y-15980865D01*
X9386729Y-15980865D02*
X9396253Y-15942769D01*
X9396253Y-15942769D02*
X9396253Y-15866579D01*
X9396253Y-15866579D02*
X9386729Y-15847531D01*
X9386729Y-15847531D02*
X9377205Y-15838008D01*
X9377205Y-15838008D02*
X9358158Y-15828484D01*
X9358158Y-15828484D02*
X9320063Y-15828484D01*
X9320063Y-15828484D02*
X9301015Y-15838008D01*
X9301015Y-15838008D02*
X9291491Y-15847531D01*
X9291491Y-15847531D02*
X9281967Y-15866579D01*
X9281967Y-15866579D02*
X9281967Y-15914198D01*
X9281967Y-15914198D02*
X9291491Y-15933246D01*
X9291491Y-15933246D02*
X9301015Y-15942769D01*
X9301015Y-15942769D02*
X9320063Y-15952293D01*
X9320063Y-15952293D02*
X9358158Y-15952293D01*
X9358158Y-15952293D02*
X9377205Y-15942769D01*
X9377205Y-15942769D02*
X9386729Y-15933246D01*
X9386729Y-15933246D02*
X9396253Y-15914198D01*
X9491491Y-16028484D02*
X9529586Y-16028484D01*
X9529586Y-16028484D02*
X9548634Y-16018960D01*
X9548634Y-16018960D02*
X9558158Y-16009436D01*
X9558158Y-16009436D02*
X9577205Y-15980865D01*
X9577205Y-15980865D02*
X9586729Y-15942769D01*
X9586729Y-15942769D02*
X9586729Y-15866579D01*
X9586729Y-15866579D02*
X9577205Y-15847531D01*
X9577205Y-15847531D02*
X9567682Y-15838008D01*
X9567682Y-15838008D02*
X9548634Y-15828484D01*
X9548634Y-15828484D02*
X9510539Y-15828484D01*
X9510539Y-15828484D02*
X9491491Y-15838008D01*
X9491491Y-15838008D02*
X9481967Y-15847531D01*
X9481967Y-15847531D02*
X9472444Y-15866579D01*
X9472444Y-15866579D02*
X9472444Y-15914198D01*
X9472444Y-15914198D02*
X9481967Y-15933246D01*
X9481967Y-15933246D02*
X9491491Y-15942769D01*
X9491491Y-15942769D02*
X9510539Y-15952293D01*
X9510539Y-15952293D02*
X9548634Y-15952293D01*
X9548634Y-15952293D02*
X9567682Y-15942769D01*
X9567682Y-15942769D02*
X9577205Y-15933246D01*
X9577205Y-15933246D02*
X9586729Y-15914198D01*
X9777205Y-16028484D02*
X9662920Y-16028484D01*
X9720063Y-16028484D02*
X9720063Y-15828484D01*
X9720063Y-15828484D02*
X9701015Y-15857055D01*
X9701015Y-15857055D02*
X9681967Y-15876103D01*
X9681967Y-15876103D02*
X9662920Y-15885627D01*
X9862920Y-16028484D02*
X9862920Y-15895150D01*
X9862920Y-15914198D02*
X9872444Y-15904674D01*
X9872444Y-15904674D02*
X9891491Y-15895150D01*
X9891491Y-15895150D02*
X9920063Y-15895150D01*
X9920063Y-15895150D02*
X9939110Y-15904674D01*
X9939110Y-15904674D02*
X9948634Y-15923722D01*
X9948634Y-15923722D02*
X9948634Y-16028484D01*
X9948634Y-15923722D02*
X9958158Y-15904674D01*
X9958158Y-15904674D02*
X9977205Y-15895150D01*
X9977205Y-15895150D02*
X10005777Y-15895150D01*
X10005777Y-15895150D02*
X10024825Y-15904674D01*
X10024825Y-15904674D02*
X10034348Y-15923722D01*
X10034348Y-15923722D02*
X10034348Y-16028484D01*
X10129586Y-16028484D02*
X10129586Y-15895150D01*
X10129586Y-15914198D02*
X10139110Y-15904674D01*
X10139110Y-15904674D02*
X10158158Y-15895150D01*
X10158158Y-15895150D02*
X10186729Y-15895150D01*
X10186729Y-15895150D02*
X10205777Y-15904674D01*
X10205777Y-15904674D02*
X10215301Y-15923722D01*
X10215301Y-15923722D02*
X10215301Y-16028484D01*
X10215301Y-15923722D02*
X10224825Y-15904674D01*
X10224825Y-15904674D02*
X10243872Y-15895150D01*
X10243872Y-15895150D02*
X10272444Y-15895150D01*
X10272444Y-15895150D02*
X10291491Y-15904674D01*
X10291491Y-15904674D02*
X10301015Y-15923722D01*
X10301015Y-15923722D02*
X10301015Y-16028484D01*
X10691491Y-15818960D02*
X10520063Y-16076103D01*
X10948634Y-15828484D02*
X10967682Y-15828484D01*
X10967682Y-15828484D02*
X10986729Y-15838008D01*
X10986729Y-15838008D02*
X10996253Y-15847531D01*
X10996253Y-15847531D02*
X11005777Y-15866579D01*
X11005777Y-15866579D02*
X11015301Y-15904674D01*
X11015301Y-15904674D02*
X11015301Y-15952293D01*
X11015301Y-15952293D02*
X11005777Y-15990388D01*
X11005777Y-15990388D02*
X10996253Y-16009436D01*
X10996253Y-16009436D02*
X10986729Y-16018960D01*
X10986729Y-16018960D02*
X10967682Y-16028484D01*
X10967682Y-16028484D02*
X10948634Y-16028484D01*
X10948634Y-16028484D02*
X10929587Y-16018960D01*
X10929587Y-16018960D02*
X10920063Y-16009436D01*
X10920063Y-16009436D02*
X10910539Y-15990388D01*
X10910539Y-15990388D02*
X10901015Y-15952293D01*
X10901015Y-15952293D02*
X10901015Y-15904674D01*
X10901015Y-15904674D02*
X10910539Y-15866579D01*
X10910539Y-15866579D02*
X10920063Y-15847531D01*
X10920063Y-15847531D02*
X10929587Y-15838008D01*
X10929587Y-15838008D02*
X10948634Y-15828484D01*
X11101015Y-16009436D02*
X11110539Y-16018960D01*
X11110539Y-16018960D02*
X11101015Y-16028484D01*
X11101015Y-16028484D02*
X11091491Y-16018960D01*
X11091491Y-16018960D02*
X11101015Y-16009436D01*
X11101015Y-16009436D02*
X11101015Y-16028484D01*
X11234348Y-15828484D02*
X11253396Y-15828484D01*
X11253396Y-15828484D02*
X11272444Y-15838008D01*
X11272444Y-15838008D02*
X11281967Y-15847531D01*
X11281967Y-15847531D02*
X11291491Y-15866579D01*
X11291491Y-15866579D02*
X11301015Y-15904674D01*
X11301015Y-15904674D02*
X11301015Y-15952293D01*
X11301015Y-15952293D02*
X11291491Y-15990388D01*
X11291491Y-15990388D02*
X11281967Y-16009436D01*
X11281967Y-16009436D02*
X11272444Y-16018960D01*
X11272444Y-16018960D02*
X11253396Y-16028484D01*
X11253396Y-16028484D02*
X11234348Y-16028484D01*
X11234348Y-16028484D02*
X11215301Y-16018960D01*
X11215301Y-16018960D02*
X11205777Y-16009436D01*
X11205777Y-16009436D02*
X11196253Y-15990388D01*
X11196253Y-15990388D02*
X11186729Y-15952293D01*
X11186729Y-15952293D02*
X11186729Y-15904674D01*
X11186729Y-15904674D02*
X11196253Y-15866579D01*
X11196253Y-15866579D02*
X11205777Y-15847531D01*
X11205777Y-15847531D02*
X11215301Y-15838008D01*
X11215301Y-15838008D02*
X11234348Y-15828484D01*
X11367682Y-15828484D02*
X11491491Y-15828484D01*
X11491491Y-15828484D02*
X11424825Y-15904674D01*
X11424825Y-15904674D02*
X11453396Y-15904674D01*
X11453396Y-15904674D02*
X11472444Y-15914198D01*
X11472444Y-15914198D02*
X11481967Y-15923722D01*
X11481967Y-15923722D02*
X11491491Y-15942769D01*
X11491491Y-15942769D02*
X11491491Y-15990388D01*
X11491491Y-15990388D02*
X11481967Y-16009436D01*
X11481967Y-16009436D02*
X11472444Y-16018960D01*
X11472444Y-16018960D02*
X11453396Y-16028484D01*
X11453396Y-16028484D02*
X11396253Y-16028484D01*
X11396253Y-16028484D02*
X11377206Y-16018960D01*
X11377206Y-16018960D02*
X11367682Y-16009436D01*
X11586729Y-16028484D02*
X11624825Y-16028484D01*
X11624825Y-16028484D02*
X11643872Y-16018960D01*
X11643872Y-16018960D02*
X11653396Y-16009436D01*
X11653396Y-16009436D02*
X11672444Y-15980865D01*
X11672444Y-15980865D02*
X11681967Y-15942769D01*
X11681967Y-15942769D02*
X11681967Y-15866579D01*
X11681967Y-15866579D02*
X11672444Y-15847531D01*
X11672444Y-15847531D02*
X11662920Y-15838008D01*
X11662920Y-15838008D02*
X11643872Y-15828484D01*
X11643872Y-15828484D02*
X11605777Y-15828484D01*
X11605777Y-15828484D02*
X11586729Y-15838008D01*
X11586729Y-15838008D02*
X11577206Y-15847531D01*
X11577206Y-15847531D02*
X11567682Y-15866579D01*
X11567682Y-15866579D02*
X11567682Y-15914198D01*
X11567682Y-15914198D02*
X11577206Y-15933246D01*
X11577206Y-15933246D02*
X11586729Y-15942769D01*
X11586729Y-15942769D02*
X11605777Y-15952293D01*
X11605777Y-15952293D02*
X11643872Y-15952293D01*
X11643872Y-15952293D02*
X11662920Y-15942769D01*
X11662920Y-15942769D02*
X11672444Y-15933246D01*
X11672444Y-15933246D02*
X11681967Y-15914198D01*
X11805777Y-15828484D02*
X11824825Y-15828484D01*
X11824825Y-15828484D02*
X11843872Y-15838008D01*
X11843872Y-15838008D02*
X11853396Y-15847531D01*
X11853396Y-15847531D02*
X11862920Y-15866579D01*
X11862920Y-15866579D02*
X11872444Y-15904674D01*
X11872444Y-15904674D02*
X11872444Y-15952293D01*
X11872444Y-15952293D02*
X11862920Y-15990388D01*
X11862920Y-15990388D02*
X11853396Y-16009436D01*
X11853396Y-16009436D02*
X11843872Y-16018960D01*
X11843872Y-16018960D02*
X11824825Y-16028484D01*
X11824825Y-16028484D02*
X11805777Y-16028484D01*
X11805777Y-16028484D02*
X11786729Y-16018960D01*
X11786729Y-16018960D02*
X11777206Y-16009436D01*
X11777206Y-16009436D02*
X11767682Y-15990388D01*
X11767682Y-15990388D02*
X11758158Y-15952293D01*
X11758158Y-15952293D02*
X11758158Y-15904674D01*
X11758158Y-15904674D02*
X11767682Y-15866579D01*
X11767682Y-15866579D02*
X11777206Y-15847531D01*
X11777206Y-15847531D02*
X11786729Y-15838008D01*
X11786729Y-15838008D02*
X11805777Y-15828484D01*
X11948634Y-15828484D02*
X11948634Y-15866579D01*
X12024825Y-15828484D02*
X12024825Y-15866579D01*
X12320063Y-16104674D02*
X12310539Y-16095150D01*
X12310539Y-16095150D02*
X12291491Y-16066579D01*
X12291491Y-16066579D02*
X12281968Y-16047531D01*
X12281968Y-16047531D02*
X12272444Y-16018960D01*
X12272444Y-16018960D02*
X12262920Y-15971341D01*
X12262920Y-15971341D02*
X12262920Y-15933246D01*
X12262920Y-15933246D02*
X12272444Y-15885627D01*
X12272444Y-15885627D02*
X12281968Y-15857055D01*
X12281968Y-15857055D02*
X12291491Y-15838008D01*
X12291491Y-15838008D02*
X12310539Y-15809436D01*
X12310539Y-15809436D02*
X12320063Y-15799912D01*
X12481968Y-15828484D02*
X12443872Y-15828484D01*
X12443872Y-15828484D02*
X12424825Y-15838008D01*
X12424825Y-15838008D02*
X12415301Y-15847531D01*
X12415301Y-15847531D02*
X12396253Y-15876103D01*
X12396253Y-15876103D02*
X12386729Y-15914198D01*
X12386729Y-15914198D02*
X12386729Y-15990388D01*
X12386729Y-15990388D02*
X12396253Y-16009436D01*
X12396253Y-16009436D02*
X12405777Y-16018960D01*
X12405777Y-16018960D02*
X12424825Y-16028484D01*
X12424825Y-16028484D02*
X12462920Y-16028484D01*
X12462920Y-16028484D02*
X12481968Y-16018960D01*
X12481968Y-16018960D02*
X12491491Y-16009436D01*
X12491491Y-16009436D02*
X12501015Y-15990388D01*
X12501015Y-15990388D02*
X12501015Y-15942769D01*
X12501015Y-15942769D02*
X12491491Y-15923722D01*
X12491491Y-15923722D02*
X12481968Y-15914198D01*
X12481968Y-15914198D02*
X12462920Y-15904674D01*
X12462920Y-15904674D02*
X12424825Y-15904674D01*
X12424825Y-15904674D02*
X12405777Y-15914198D01*
X12405777Y-15914198D02*
X12396253Y-15923722D01*
X12396253Y-15923722D02*
X12386729Y-15942769D01*
X12739110Y-16028484D02*
X12739110Y-15828484D01*
X12824825Y-16028484D02*
X12824825Y-15923722D01*
X12824825Y-15923722D02*
X12815301Y-15904674D01*
X12815301Y-15904674D02*
X12796253Y-15895150D01*
X12796253Y-15895150D02*
X12767682Y-15895150D01*
X12767682Y-15895150D02*
X12748634Y-15904674D01*
X12748634Y-15904674D02*
X12739110Y-15914198D01*
X12948634Y-16028484D02*
X12929587Y-16018960D01*
X12929587Y-16018960D02*
X12920063Y-16009436D01*
X12920063Y-16009436D02*
X12910539Y-15990388D01*
X12910539Y-15990388D02*
X12910539Y-15933246D01*
X12910539Y-15933246D02*
X12920063Y-15914198D01*
X12920063Y-15914198D02*
X12929587Y-15904674D01*
X12929587Y-15904674D02*
X12948634Y-15895150D01*
X12948634Y-15895150D02*
X12977206Y-15895150D01*
X12977206Y-15895150D02*
X12996253Y-15904674D01*
X12996253Y-15904674D02*
X13005777Y-15914198D01*
X13005777Y-15914198D02*
X13015301Y-15933246D01*
X13015301Y-15933246D02*
X13015301Y-15990388D01*
X13015301Y-15990388D02*
X13005777Y-16009436D01*
X13005777Y-16009436D02*
X12996253Y-16018960D01*
X12996253Y-16018960D02*
X12977206Y-16028484D01*
X12977206Y-16028484D02*
X12948634Y-16028484D01*
X13129587Y-16028484D02*
X13110539Y-16018960D01*
X13110539Y-16018960D02*
X13101015Y-15999912D01*
X13101015Y-15999912D02*
X13101015Y-15828484D01*
X13281968Y-16018960D02*
X13262920Y-16028484D01*
X13262920Y-16028484D02*
X13224825Y-16028484D01*
X13224825Y-16028484D02*
X13205777Y-16018960D01*
X13205777Y-16018960D02*
X13196253Y-15999912D01*
X13196253Y-15999912D02*
X13196253Y-15923722D01*
X13196253Y-15923722D02*
X13205777Y-15904674D01*
X13205777Y-15904674D02*
X13224825Y-15895150D01*
X13224825Y-15895150D02*
X13262920Y-15895150D01*
X13262920Y-15895150D02*
X13281968Y-15904674D01*
X13281968Y-15904674D02*
X13291491Y-15923722D01*
X13291491Y-15923722D02*
X13291491Y-15942769D01*
X13291491Y-15942769D02*
X13196253Y-15961817D01*
X13367682Y-16018960D02*
X13386730Y-16028484D01*
X13386730Y-16028484D02*
X13424825Y-16028484D01*
X13424825Y-16028484D02*
X13443872Y-16018960D01*
X13443872Y-16018960D02*
X13453396Y-15999912D01*
X13453396Y-15999912D02*
X13453396Y-15990388D01*
X13453396Y-15990388D02*
X13443872Y-15971341D01*
X13443872Y-15971341D02*
X13424825Y-15961817D01*
X13424825Y-15961817D02*
X13396253Y-15961817D01*
X13396253Y-15961817D02*
X13377206Y-15952293D01*
X13377206Y-15952293D02*
X13367682Y-15933246D01*
X13367682Y-15933246D02*
X13367682Y-15923722D01*
X13367682Y-15923722D02*
X13377206Y-15904674D01*
X13377206Y-15904674D02*
X13396253Y-15895150D01*
X13396253Y-15895150D02*
X13424825Y-15895150D01*
X13424825Y-15895150D02*
X13443872Y-15904674D01*
X13520063Y-16104674D02*
X13529587Y-16095150D01*
X13529587Y-16095150D02*
X13548634Y-16066579D01*
X13548634Y-16066579D02*
X13558158Y-16047531D01*
X13558158Y-16047531D02*
X13567682Y-16018960D01*
X13567682Y-16018960D02*
X13577206Y-15971341D01*
X13577206Y-15971341D02*
X13577206Y-15933246D01*
X13577206Y-15933246D02*
X13567682Y-15885627D01*
X13567682Y-15885627D02*
X13558158Y-15857055D01*
X13558158Y-15857055D02*
X13548634Y-15838008D01*
X13548634Y-15838008D02*
X13529587Y-15809436D01*
X13529587Y-15809436D02*
X13520063Y-15799912D01*
D15*
X8694200Y-16251800D02*
X8745000Y-16201000D01*
X8694200Y-16150200D01*
X8643400Y-16201000D01*
X8694200Y-16251800D01*
D10*
X9110539Y-16292484D02*
X8996253Y-16292484D01*
X9053396Y-16292484D02*
X9053396Y-16092484D01*
X9053396Y-16092484D02*
X9034348Y-16121055D01*
X9034348Y-16121055D02*
X9015301Y-16140103D01*
X9015301Y-16140103D02*
X8996253Y-16149627D01*
X9196253Y-16273436D02*
X9205777Y-16282960D01*
X9205777Y-16282960D02*
X9196253Y-16292484D01*
X9196253Y-16292484D02*
X9186729Y-16282960D01*
X9186729Y-16282960D02*
X9196253Y-16273436D01*
X9196253Y-16273436D02*
X9196253Y-16292484D01*
X9329586Y-16092484D02*
X9348634Y-16092484D01*
X9348634Y-16092484D02*
X9367682Y-16102008D01*
X9367682Y-16102008D02*
X9377205Y-16111531D01*
X9377205Y-16111531D02*
X9386729Y-16130579D01*
X9386729Y-16130579D02*
X9396253Y-16168674D01*
X9396253Y-16168674D02*
X9396253Y-16216293D01*
X9396253Y-16216293D02*
X9386729Y-16254388D01*
X9386729Y-16254388D02*
X9377205Y-16273436D01*
X9377205Y-16273436D02*
X9367682Y-16282960D01*
X9367682Y-16282960D02*
X9348634Y-16292484D01*
X9348634Y-16292484D02*
X9329586Y-16292484D01*
X9329586Y-16292484D02*
X9310539Y-16282960D01*
X9310539Y-16282960D02*
X9301015Y-16273436D01*
X9301015Y-16273436D02*
X9291491Y-16254388D01*
X9291491Y-16254388D02*
X9281967Y-16216293D01*
X9281967Y-16216293D02*
X9281967Y-16168674D01*
X9281967Y-16168674D02*
X9291491Y-16130579D01*
X9291491Y-16130579D02*
X9301015Y-16111531D01*
X9301015Y-16111531D02*
X9310539Y-16102008D01*
X9310539Y-16102008D02*
X9329586Y-16092484D01*
X9586729Y-16292484D02*
X9472444Y-16292484D01*
X9529586Y-16292484D02*
X9529586Y-16092484D01*
X9529586Y-16092484D02*
X9510539Y-16121055D01*
X9510539Y-16121055D02*
X9491491Y-16140103D01*
X9491491Y-16140103D02*
X9472444Y-16149627D01*
X9758158Y-16092484D02*
X9720063Y-16092484D01*
X9720063Y-16092484D02*
X9701015Y-16102008D01*
X9701015Y-16102008D02*
X9691491Y-16111531D01*
X9691491Y-16111531D02*
X9672444Y-16140103D01*
X9672444Y-16140103D02*
X9662920Y-16178198D01*
X9662920Y-16178198D02*
X9662920Y-16254388D01*
X9662920Y-16254388D02*
X9672444Y-16273436D01*
X9672444Y-16273436D02*
X9681967Y-16282960D01*
X9681967Y-16282960D02*
X9701015Y-16292484D01*
X9701015Y-16292484D02*
X9739110Y-16292484D01*
X9739110Y-16292484D02*
X9758158Y-16282960D01*
X9758158Y-16282960D02*
X9767682Y-16273436D01*
X9767682Y-16273436D02*
X9777205Y-16254388D01*
X9777205Y-16254388D02*
X9777205Y-16206769D01*
X9777205Y-16206769D02*
X9767682Y-16187722D01*
X9767682Y-16187722D02*
X9758158Y-16178198D01*
X9758158Y-16178198D02*
X9739110Y-16168674D01*
X9739110Y-16168674D02*
X9701015Y-16168674D01*
X9701015Y-16168674D02*
X9681967Y-16178198D01*
X9681967Y-16178198D02*
X9672444Y-16187722D01*
X9672444Y-16187722D02*
X9662920Y-16206769D01*
X9862920Y-16292484D02*
X9862920Y-16159150D01*
X9862920Y-16178198D02*
X9872444Y-16168674D01*
X9872444Y-16168674D02*
X9891491Y-16159150D01*
X9891491Y-16159150D02*
X9920063Y-16159150D01*
X9920063Y-16159150D02*
X9939110Y-16168674D01*
X9939110Y-16168674D02*
X9948634Y-16187722D01*
X9948634Y-16187722D02*
X9948634Y-16292484D01*
X9948634Y-16187722D02*
X9958158Y-16168674D01*
X9958158Y-16168674D02*
X9977205Y-16159150D01*
X9977205Y-16159150D02*
X10005777Y-16159150D01*
X10005777Y-16159150D02*
X10024825Y-16168674D01*
X10024825Y-16168674D02*
X10034348Y-16187722D01*
X10034348Y-16187722D02*
X10034348Y-16292484D01*
X10129586Y-16292484D02*
X10129586Y-16159150D01*
X10129586Y-16178198D02*
X10139110Y-16168674D01*
X10139110Y-16168674D02*
X10158158Y-16159150D01*
X10158158Y-16159150D02*
X10186729Y-16159150D01*
X10186729Y-16159150D02*
X10205777Y-16168674D01*
X10205777Y-16168674D02*
X10215301Y-16187722D01*
X10215301Y-16187722D02*
X10215301Y-16292484D01*
X10215301Y-16187722D02*
X10224825Y-16168674D01*
X10224825Y-16168674D02*
X10243872Y-16159150D01*
X10243872Y-16159150D02*
X10272444Y-16159150D01*
X10272444Y-16159150D02*
X10291491Y-16168674D01*
X10291491Y-16168674D02*
X10301015Y-16187722D01*
X10301015Y-16187722D02*
X10301015Y-16292484D01*
X10691491Y-16082960D02*
X10520063Y-16340103D01*
X10948634Y-16092484D02*
X10967682Y-16092484D01*
X10967682Y-16092484D02*
X10986729Y-16102008D01*
X10986729Y-16102008D02*
X10996253Y-16111531D01*
X10996253Y-16111531D02*
X11005777Y-16130579D01*
X11005777Y-16130579D02*
X11015301Y-16168674D01*
X11015301Y-16168674D02*
X11015301Y-16216293D01*
X11015301Y-16216293D02*
X11005777Y-16254388D01*
X11005777Y-16254388D02*
X10996253Y-16273436D01*
X10996253Y-16273436D02*
X10986729Y-16282960D01*
X10986729Y-16282960D02*
X10967682Y-16292484D01*
X10967682Y-16292484D02*
X10948634Y-16292484D01*
X10948634Y-16292484D02*
X10929587Y-16282960D01*
X10929587Y-16282960D02*
X10920063Y-16273436D01*
X10920063Y-16273436D02*
X10910539Y-16254388D01*
X10910539Y-16254388D02*
X10901015Y-16216293D01*
X10901015Y-16216293D02*
X10901015Y-16168674D01*
X10901015Y-16168674D02*
X10910539Y-16130579D01*
X10910539Y-16130579D02*
X10920063Y-16111531D01*
X10920063Y-16111531D02*
X10929587Y-16102008D01*
X10929587Y-16102008D02*
X10948634Y-16092484D01*
X11101015Y-16273436D02*
X11110539Y-16282960D01*
X11110539Y-16282960D02*
X11101015Y-16292484D01*
X11101015Y-16292484D02*
X11091491Y-16282960D01*
X11091491Y-16282960D02*
X11101015Y-16273436D01*
X11101015Y-16273436D02*
X11101015Y-16292484D01*
X11234348Y-16092484D02*
X11253396Y-16092484D01*
X11253396Y-16092484D02*
X11272444Y-16102008D01*
X11272444Y-16102008D02*
X11281967Y-16111531D01*
X11281967Y-16111531D02*
X11291491Y-16130579D01*
X11291491Y-16130579D02*
X11301015Y-16168674D01*
X11301015Y-16168674D02*
X11301015Y-16216293D01*
X11301015Y-16216293D02*
X11291491Y-16254388D01*
X11291491Y-16254388D02*
X11281967Y-16273436D01*
X11281967Y-16273436D02*
X11272444Y-16282960D01*
X11272444Y-16282960D02*
X11253396Y-16292484D01*
X11253396Y-16292484D02*
X11234348Y-16292484D01*
X11234348Y-16292484D02*
X11215301Y-16282960D01*
X11215301Y-16282960D02*
X11205777Y-16273436D01*
X11205777Y-16273436D02*
X11196253Y-16254388D01*
X11196253Y-16254388D02*
X11186729Y-16216293D01*
X11186729Y-16216293D02*
X11186729Y-16168674D01*
X11186729Y-16168674D02*
X11196253Y-16130579D01*
X11196253Y-16130579D02*
X11205777Y-16111531D01*
X11205777Y-16111531D02*
X11215301Y-16102008D01*
X11215301Y-16102008D02*
X11234348Y-16092484D01*
X11472444Y-16159150D02*
X11472444Y-16292484D01*
X11424825Y-16082960D02*
X11377206Y-16225817D01*
X11377206Y-16225817D02*
X11501015Y-16225817D01*
X11615301Y-16092484D02*
X11634348Y-16092484D01*
X11634348Y-16092484D02*
X11653396Y-16102008D01*
X11653396Y-16102008D02*
X11662920Y-16111531D01*
X11662920Y-16111531D02*
X11672444Y-16130579D01*
X11672444Y-16130579D02*
X11681967Y-16168674D01*
X11681967Y-16168674D02*
X11681967Y-16216293D01*
X11681967Y-16216293D02*
X11672444Y-16254388D01*
X11672444Y-16254388D02*
X11662920Y-16273436D01*
X11662920Y-16273436D02*
X11653396Y-16282960D01*
X11653396Y-16282960D02*
X11634348Y-16292484D01*
X11634348Y-16292484D02*
X11615301Y-16292484D01*
X11615301Y-16292484D02*
X11596253Y-16282960D01*
X11596253Y-16282960D02*
X11586729Y-16273436D01*
X11586729Y-16273436D02*
X11577206Y-16254388D01*
X11577206Y-16254388D02*
X11567682Y-16216293D01*
X11567682Y-16216293D02*
X11567682Y-16168674D01*
X11567682Y-16168674D02*
X11577206Y-16130579D01*
X11577206Y-16130579D02*
X11586729Y-16111531D01*
X11586729Y-16111531D02*
X11596253Y-16102008D01*
X11596253Y-16102008D02*
X11615301Y-16092484D01*
X11805777Y-16092484D02*
X11824825Y-16092484D01*
X11824825Y-16092484D02*
X11843872Y-16102008D01*
X11843872Y-16102008D02*
X11853396Y-16111531D01*
X11853396Y-16111531D02*
X11862920Y-16130579D01*
X11862920Y-16130579D02*
X11872444Y-16168674D01*
X11872444Y-16168674D02*
X11872444Y-16216293D01*
X11872444Y-16216293D02*
X11862920Y-16254388D01*
X11862920Y-16254388D02*
X11853396Y-16273436D01*
X11853396Y-16273436D02*
X11843872Y-16282960D01*
X11843872Y-16282960D02*
X11824825Y-16292484D01*
X11824825Y-16292484D02*
X11805777Y-16292484D01*
X11805777Y-16292484D02*
X11786729Y-16282960D01*
X11786729Y-16282960D02*
X11777206Y-16273436D01*
X11777206Y-16273436D02*
X11767682Y-16254388D01*
X11767682Y-16254388D02*
X11758158Y-16216293D01*
X11758158Y-16216293D02*
X11758158Y-16168674D01*
X11758158Y-16168674D02*
X11767682Y-16130579D01*
X11767682Y-16130579D02*
X11777206Y-16111531D01*
X11777206Y-16111531D02*
X11786729Y-16102008D01*
X11786729Y-16102008D02*
X11805777Y-16092484D01*
X11948634Y-16092484D02*
X11948634Y-16130579D01*
X12024825Y-16092484D02*
X12024825Y-16130579D01*
X12320063Y-16368674D02*
X12310539Y-16359150D01*
X12310539Y-16359150D02*
X12291491Y-16330579D01*
X12291491Y-16330579D02*
X12281968Y-16311531D01*
X12281968Y-16311531D02*
X12272444Y-16282960D01*
X12272444Y-16282960D02*
X12262920Y-16235341D01*
X12262920Y-16235341D02*
X12262920Y-16197246D01*
X12262920Y-16197246D02*
X12272444Y-16149627D01*
X12272444Y-16149627D02*
X12281968Y-16121055D01*
X12281968Y-16121055D02*
X12291491Y-16102008D01*
X12291491Y-16102008D02*
X12310539Y-16073436D01*
X12310539Y-16073436D02*
X12320063Y-16063912D01*
X12377206Y-16092484D02*
X12501015Y-16092484D01*
X12501015Y-16092484D02*
X12434348Y-16168674D01*
X12434348Y-16168674D02*
X12462920Y-16168674D01*
X12462920Y-16168674D02*
X12481968Y-16178198D01*
X12481968Y-16178198D02*
X12491491Y-16187722D01*
X12491491Y-16187722D02*
X12501015Y-16206769D01*
X12501015Y-16206769D02*
X12501015Y-16254388D01*
X12501015Y-16254388D02*
X12491491Y-16273436D01*
X12491491Y-16273436D02*
X12481968Y-16282960D01*
X12481968Y-16282960D02*
X12462920Y-16292484D01*
X12462920Y-16292484D02*
X12405777Y-16292484D01*
X12405777Y-16292484D02*
X12386729Y-16282960D01*
X12386729Y-16282960D02*
X12377206Y-16273436D01*
X12672444Y-16159150D02*
X12672444Y-16292484D01*
X12624825Y-16082960D02*
X12577206Y-16225817D01*
X12577206Y-16225817D02*
X12701015Y-16225817D01*
X12929587Y-16292484D02*
X12929587Y-16092484D01*
X13015301Y-16292484D02*
X13015301Y-16187722D01*
X13015301Y-16187722D02*
X13005777Y-16168674D01*
X13005777Y-16168674D02*
X12986730Y-16159150D01*
X12986730Y-16159150D02*
X12958158Y-16159150D01*
X12958158Y-16159150D02*
X12939110Y-16168674D01*
X12939110Y-16168674D02*
X12929587Y-16178198D01*
X13139110Y-16292484D02*
X13120063Y-16282960D01*
X13120063Y-16282960D02*
X13110539Y-16273436D01*
X13110539Y-16273436D02*
X13101015Y-16254388D01*
X13101015Y-16254388D02*
X13101015Y-16197246D01*
X13101015Y-16197246D02*
X13110539Y-16178198D01*
X13110539Y-16178198D02*
X13120063Y-16168674D01*
X13120063Y-16168674D02*
X13139110Y-16159150D01*
X13139110Y-16159150D02*
X13167682Y-16159150D01*
X13167682Y-16159150D02*
X13186730Y-16168674D01*
X13186730Y-16168674D02*
X13196253Y-16178198D01*
X13196253Y-16178198D02*
X13205777Y-16197246D01*
X13205777Y-16197246D02*
X13205777Y-16254388D01*
X13205777Y-16254388D02*
X13196253Y-16273436D01*
X13196253Y-16273436D02*
X13186730Y-16282960D01*
X13186730Y-16282960D02*
X13167682Y-16292484D01*
X13167682Y-16292484D02*
X13139110Y-16292484D01*
X13320063Y-16292484D02*
X13301015Y-16282960D01*
X13301015Y-16282960D02*
X13291491Y-16263912D01*
X13291491Y-16263912D02*
X13291491Y-16092484D01*
X13472444Y-16282960D02*
X13453396Y-16292484D01*
X13453396Y-16292484D02*
X13415301Y-16292484D01*
X13415301Y-16292484D02*
X13396253Y-16282960D01*
X13396253Y-16282960D02*
X13386730Y-16263912D01*
X13386730Y-16263912D02*
X13386730Y-16187722D01*
X13386730Y-16187722D02*
X13396253Y-16168674D01*
X13396253Y-16168674D02*
X13415301Y-16159150D01*
X13415301Y-16159150D02*
X13453396Y-16159150D01*
X13453396Y-16159150D02*
X13472444Y-16168674D01*
X13472444Y-16168674D02*
X13481968Y-16187722D01*
X13481968Y-16187722D02*
X13481968Y-16206769D01*
X13481968Y-16206769D02*
X13386730Y-16225817D01*
X13558158Y-16282960D02*
X13577206Y-16292484D01*
X13577206Y-16292484D02*
X13615301Y-16292484D01*
X13615301Y-16292484D02*
X13634349Y-16282960D01*
X13634349Y-16282960D02*
X13643872Y-16263912D01*
X13643872Y-16263912D02*
X13643872Y-16254388D01*
X13643872Y-16254388D02*
X13634349Y-16235341D01*
X13634349Y-16235341D02*
X13615301Y-16225817D01*
X13615301Y-16225817D02*
X13586730Y-16225817D01*
X13586730Y-16225817D02*
X13567682Y-16216293D01*
X13567682Y-16216293D02*
X13558158Y-16197246D01*
X13558158Y-16197246D02*
X13558158Y-16187722D01*
X13558158Y-16187722D02*
X13567682Y-16168674D01*
X13567682Y-16168674D02*
X13586730Y-16159150D01*
X13586730Y-16159150D02*
X13615301Y-16159150D01*
X13615301Y-16159150D02*
X13634349Y-16168674D01*
X13710539Y-16368674D02*
X13720063Y-16359150D01*
X13720063Y-16359150D02*
X13739111Y-16330579D01*
X13739111Y-16330579D02*
X13748634Y-16311531D01*
X13748634Y-16311531D02*
X13758158Y-16282960D01*
X13758158Y-16282960D02*
X13767682Y-16235341D01*
X13767682Y-16235341D02*
X13767682Y-16197246D01*
X13767682Y-16197246D02*
X13758158Y-16149627D01*
X13758158Y-16149627D02*
X13748634Y-16121055D01*
X13748634Y-16121055D02*
X13739111Y-16102008D01*
X13739111Y-16102008D02*
X13720063Y-16073436D01*
X13720063Y-16073436D02*
X13710539Y-16063912D01*
D16*
X8638320Y-16411660D02*
X8745000Y-16518340D01*
X8745000Y-16411660D02*
X8638320Y-16518340D01*
X8745000Y-16465000D02*
G75*
G03*
X8745000Y-16465000I-53340J0D01*
G01*
D10*
X9110539Y-16556484D02*
X8996253Y-16556484D01*
X9053396Y-16556484D02*
X9053396Y-16356484D01*
X9053396Y-16356484D02*
X9034348Y-16385055D01*
X9034348Y-16385055D02*
X9015301Y-16404103D01*
X9015301Y-16404103D02*
X8996253Y-16413627D01*
X9196253Y-16537436D02*
X9205777Y-16546960D01*
X9205777Y-16546960D02*
X9196253Y-16556484D01*
X9196253Y-16556484D02*
X9186729Y-16546960D01*
X9186729Y-16546960D02*
X9196253Y-16537436D01*
X9196253Y-16537436D02*
X9196253Y-16556484D01*
X9329586Y-16356484D02*
X9348634Y-16356484D01*
X9348634Y-16356484D02*
X9367682Y-16366008D01*
X9367682Y-16366008D02*
X9377205Y-16375531D01*
X9377205Y-16375531D02*
X9386729Y-16394579D01*
X9386729Y-16394579D02*
X9396253Y-16432674D01*
X9396253Y-16432674D02*
X9396253Y-16480293D01*
X9396253Y-16480293D02*
X9386729Y-16518388D01*
X9386729Y-16518388D02*
X9377205Y-16537436D01*
X9377205Y-16537436D02*
X9367682Y-16546960D01*
X9367682Y-16546960D02*
X9348634Y-16556484D01*
X9348634Y-16556484D02*
X9329586Y-16556484D01*
X9329586Y-16556484D02*
X9310539Y-16546960D01*
X9310539Y-16546960D02*
X9301015Y-16537436D01*
X9301015Y-16537436D02*
X9291491Y-16518388D01*
X9291491Y-16518388D02*
X9281967Y-16480293D01*
X9281967Y-16480293D02*
X9281967Y-16432674D01*
X9281967Y-16432674D02*
X9291491Y-16394579D01*
X9291491Y-16394579D02*
X9301015Y-16375531D01*
X9301015Y-16375531D02*
X9310539Y-16366008D01*
X9310539Y-16366008D02*
X9329586Y-16356484D01*
X9567682Y-16356484D02*
X9529586Y-16356484D01*
X9529586Y-16356484D02*
X9510539Y-16366008D01*
X9510539Y-16366008D02*
X9501015Y-16375531D01*
X9501015Y-16375531D02*
X9481967Y-16404103D01*
X9481967Y-16404103D02*
X9472444Y-16442198D01*
X9472444Y-16442198D02*
X9472444Y-16518388D01*
X9472444Y-16518388D02*
X9481967Y-16537436D01*
X9481967Y-16537436D02*
X9491491Y-16546960D01*
X9491491Y-16546960D02*
X9510539Y-16556484D01*
X9510539Y-16556484D02*
X9548634Y-16556484D01*
X9548634Y-16556484D02*
X9567682Y-16546960D01*
X9567682Y-16546960D02*
X9577205Y-16537436D01*
X9577205Y-16537436D02*
X9586729Y-16518388D01*
X9586729Y-16518388D02*
X9586729Y-16470769D01*
X9586729Y-16470769D02*
X9577205Y-16451722D01*
X9577205Y-16451722D02*
X9567682Y-16442198D01*
X9567682Y-16442198D02*
X9548634Y-16432674D01*
X9548634Y-16432674D02*
X9510539Y-16432674D01*
X9510539Y-16432674D02*
X9491491Y-16442198D01*
X9491491Y-16442198D02*
X9481967Y-16451722D01*
X9481967Y-16451722D02*
X9472444Y-16470769D01*
X9653396Y-16356484D02*
X9786729Y-16356484D01*
X9786729Y-16356484D02*
X9701015Y-16556484D01*
X9862920Y-16556484D02*
X9862920Y-16423150D01*
X9862920Y-16442198D02*
X9872444Y-16432674D01*
X9872444Y-16432674D02*
X9891491Y-16423150D01*
X9891491Y-16423150D02*
X9920063Y-16423150D01*
X9920063Y-16423150D02*
X9939110Y-16432674D01*
X9939110Y-16432674D02*
X9948634Y-16451722D01*
X9948634Y-16451722D02*
X9948634Y-16556484D01*
X9948634Y-16451722D02*
X9958158Y-16432674D01*
X9958158Y-16432674D02*
X9977205Y-16423150D01*
X9977205Y-16423150D02*
X10005777Y-16423150D01*
X10005777Y-16423150D02*
X10024825Y-16432674D01*
X10024825Y-16432674D02*
X10034348Y-16451722D01*
X10034348Y-16451722D02*
X10034348Y-16556484D01*
X10129586Y-16556484D02*
X10129586Y-16423150D01*
X10129586Y-16442198D02*
X10139110Y-16432674D01*
X10139110Y-16432674D02*
X10158158Y-16423150D01*
X10158158Y-16423150D02*
X10186729Y-16423150D01*
X10186729Y-16423150D02*
X10205777Y-16432674D01*
X10205777Y-16432674D02*
X10215301Y-16451722D01*
X10215301Y-16451722D02*
X10215301Y-16556484D01*
X10215301Y-16451722D02*
X10224825Y-16432674D01*
X10224825Y-16432674D02*
X10243872Y-16423150D01*
X10243872Y-16423150D02*
X10272444Y-16423150D01*
X10272444Y-16423150D02*
X10291491Y-16432674D01*
X10291491Y-16432674D02*
X10301015Y-16451722D01*
X10301015Y-16451722D02*
X10301015Y-16556484D01*
X10691491Y-16346960D02*
X10520063Y-16604103D01*
X10948634Y-16356484D02*
X10967682Y-16356484D01*
X10967682Y-16356484D02*
X10986729Y-16366008D01*
X10986729Y-16366008D02*
X10996253Y-16375531D01*
X10996253Y-16375531D02*
X11005777Y-16394579D01*
X11005777Y-16394579D02*
X11015301Y-16432674D01*
X11015301Y-16432674D02*
X11015301Y-16480293D01*
X11015301Y-16480293D02*
X11005777Y-16518388D01*
X11005777Y-16518388D02*
X10996253Y-16537436D01*
X10996253Y-16537436D02*
X10986729Y-16546960D01*
X10986729Y-16546960D02*
X10967682Y-16556484D01*
X10967682Y-16556484D02*
X10948634Y-16556484D01*
X10948634Y-16556484D02*
X10929587Y-16546960D01*
X10929587Y-16546960D02*
X10920063Y-16537436D01*
X10920063Y-16537436D02*
X10910539Y-16518388D01*
X10910539Y-16518388D02*
X10901015Y-16480293D01*
X10901015Y-16480293D02*
X10901015Y-16432674D01*
X10901015Y-16432674D02*
X10910539Y-16394579D01*
X10910539Y-16394579D02*
X10920063Y-16375531D01*
X10920063Y-16375531D02*
X10929587Y-16366008D01*
X10929587Y-16366008D02*
X10948634Y-16356484D01*
X11101015Y-16537436D02*
X11110539Y-16546960D01*
X11110539Y-16546960D02*
X11101015Y-16556484D01*
X11101015Y-16556484D02*
X11091491Y-16546960D01*
X11091491Y-16546960D02*
X11101015Y-16537436D01*
X11101015Y-16537436D02*
X11101015Y-16556484D01*
X11234348Y-16356484D02*
X11253396Y-16356484D01*
X11253396Y-16356484D02*
X11272444Y-16366008D01*
X11272444Y-16366008D02*
X11281967Y-16375531D01*
X11281967Y-16375531D02*
X11291491Y-16394579D01*
X11291491Y-16394579D02*
X11301015Y-16432674D01*
X11301015Y-16432674D02*
X11301015Y-16480293D01*
X11301015Y-16480293D02*
X11291491Y-16518388D01*
X11291491Y-16518388D02*
X11281967Y-16537436D01*
X11281967Y-16537436D02*
X11272444Y-16546960D01*
X11272444Y-16546960D02*
X11253396Y-16556484D01*
X11253396Y-16556484D02*
X11234348Y-16556484D01*
X11234348Y-16556484D02*
X11215301Y-16546960D01*
X11215301Y-16546960D02*
X11205777Y-16537436D01*
X11205777Y-16537436D02*
X11196253Y-16518388D01*
X11196253Y-16518388D02*
X11186729Y-16480293D01*
X11186729Y-16480293D02*
X11186729Y-16432674D01*
X11186729Y-16432674D02*
X11196253Y-16394579D01*
X11196253Y-16394579D02*
X11205777Y-16375531D01*
X11205777Y-16375531D02*
X11215301Y-16366008D01*
X11215301Y-16366008D02*
X11234348Y-16356484D01*
X11472444Y-16423150D02*
X11472444Y-16556484D01*
X11424825Y-16346960D02*
X11377206Y-16489817D01*
X11377206Y-16489817D02*
X11501015Y-16489817D01*
X11567682Y-16375531D02*
X11577206Y-16366008D01*
X11577206Y-16366008D02*
X11596253Y-16356484D01*
X11596253Y-16356484D02*
X11643872Y-16356484D01*
X11643872Y-16356484D02*
X11662920Y-16366008D01*
X11662920Y-16366008D02*
X11672444Y-16375531D01*
X11672444Y-16375531D02*
X11681967Y-16394579D01*
X11681967Y-16394579D02*
X11681967Y-16413627D01*
X11681967Y-16413627D02*
X11672444Y-16442198D01*
X11672444Y-16442198D02*
X11558158Y-16556484D01*
X11558158Y-16556484D02*
X11681967Y-16556484D01*
X11805777Y-16356484D02*
X11824825Y-16356484D01*
X11824825Y-16356484D02*
X11843872Y-16366008D01*
X11843872Y-16366008D02*
X11853396Y-16375531D01*
X11853396Y-16375531D02*
X11862920Y-16394579D01*
X11862920Y-16394579D02*
X11872444Y-16432674D01*
X11872444Y-16432674D02*
X11872444Y-16480293D01*
X11872444Y-16480293D02*
X11862920Y-16518388D01*
X11862920Y-16518388D02*
X11853396Y-16537436D01*
X11853396Y-16537436D02*
X11843872Y-16546960D01*
X11843872Y-16546960D02*
X11824825Y-16556484D01*
X11824825Y-16556484D02*
X11805777Y-16556484D01*
X11805777Y-16556484D02*
X11786729Y-16546960D01*
X11786729Y-16546960D02*
X11777206Y-16537436D01*
X11777206Y-16537436D02*
X11767682Y-16518388D01*
X11767682Y-16518388D02*
X11758158Y-16480293D01*
X11758158Y-16480293D02*
X11758158Y-16432674D01*
X11758158Y-16432674D02*
X11767682Y-16394579D01*
X11767682Y-16394579D02*
X11777206Y-16375531D01*
X11777206Y-16375531D02*
X11786729Y-16366008D01*
X11786729Y-16366008D02*
X11805777Y-16356484D01*
X11948634Y-16356484D02*
X11948634Y-16394579D01*
X12024825Y-16356484D02*
X12024825Y-16394579D01*
X12320063Y-16632674D02*
X12310539Y-16623150D01*
X12310539Y-16623150D02*
X12291491Y-16594579D01*
X12291491Y-16594579D02*
X12281968Y-16575531D01*
X12281968Y-16575531D02*
X12272444Y-16546960D01*
X12272444Y-16546960D02*
X12262920Y-16499341D01*
X12262920Y-16499341D02*
X12262920Y-16461246D01*
X12262920Y-16461246D02*
X12272444Y-16413627D01*
X12272444Y-16413627D02*
X12281968Y-16385055D01*
X12281968Y-16385055D02*
X12291491Y-16366008D01*
X12291491Y-16366008D02*
X12310539Y-16337436D01*
X12310539Y-16337436D02*
X12320063Y-16327912D01*
X12424825Y-16442198D02*
X12405777Y-16432674D01*
X12405777Y-16432674D02*
X12396253Y-16423150D01*
X12396253Y-16423150D02*
X12386729Y-16404103D01*
X12386729Y-16404103D02*
X12386729Y-16394579D01*
X12386729Y-16394579D02*
X12396253Y-16375531D01*
X12396253Y-16375531D02*
X12405777Y-16366008D01*
X12405777Y-16366008D02*
X12424825Y-16356484D01*
X12424825Y-16356484D02*
X12462920Y-16356484D01*
X12462920Y-16356484D02*
X12481968Y-16366008D01*
X12481968Y-16366008D02*
X12491491Y-16375531D01*
X12491491Y-16375531D02*
X12501015Y-16394579D01*
X12501015Y-16394579D02*
X12501015Y-16404103D01*
X12501015Y-16404103D02*
X12491491Y-16423150D01*
X12491491Y-16423150D02*
X12481968Y-16432674D01*
X12481968Y-16432674D02*
X12462920Y-16442198D01*
X12462920Y-16442198D02*
X12424825Y-16442198D01*
X12424825Y-16442198D02*
X12405777Y-16451722D01*
X12405777Y-16451722D02*
X12396253Y-16461246D01*
X12396253Y-16461246D02*
X12386729Y-16480293D01*
X12386729Y-16480293D02*
X12386729Y-16518388D01*
X12386729Y-16518388D02*
X12396253Y-16537436D01*
X12396253Y-16537436D02*
X12405777Y-16546960D01*
X12405777Y-16546960D02*
X12424825Y-16556484D01*
X12424825Y-16556484D02*
X12462920Y-16556484D01*
X12462920Y-16556484D02*
X12481968Y-16546960D01*
X12481968Y-16546960D02*
X12491491Y-16537436D01*
X12491491Y-16537436D02*
X12501015Y-16518388D01*
X12501015Y-16518388D02*
X12501015Y-16480293D01*
X12501015Y-16480293D02*
X12491491Y-16461246D01*
X12491491Y-16461246D02*
X12481968Y-16451722D01*
X12481968Y-16451722D02*
X12462920Y-16442198D01*
X12739110Y-16556484D02*
X12739110Y-16356484D01*
X12824825Y-16556484D02*
X12824825Y-16451722D01*
X12824825Y-16451722D02*
X12815301Y-16432674D01*
X12815301Y-16432674D02*
X12796253Y-16423150D01*
X12796253Y-16423150D02*
X12767682Y-16423150D01*
X12767682Y-16423150D02*
X12748634Y-16432674D01*
X12748634Y-16432674D02*
X12739110Y-16442198D01*
X12948634Y-16556484D02*
X12929587Y-16546960D01*
X12929587Y-16546960D02*
X12920063Y-16537436D01*
X12920063Y-16537436D02*
X12910539Y-16518388D01*
X12910539Y-16518388D02*
X12910539Y-16461246D01*
X12910539Y-16461246D02*
X12920063Y-16442198D01*
X12920063Y-16442198D02*
X12929587Y-16432674D01*
X12929587Y-16432674D02*
X12948634Y-16423150D01*
X12948634Y-16423150D02*
X12977206Y-16423150D01*
X12977206Y-16423150D02*
X12996253Y-16432674D01*
X12996253Y-16432674D02*
X13005777Y-16442198D01*
X13005777Y-16442198D02*
X13015301Y-16461246D01*
X13015301Y-16461246D02*
X13015301Y-16518388D01*
X13015301Y-16518388D02*
X13005777Y-16537436D01*
X13005777Y-16537436D02*
X12996253Y-16546960D01*
X12996253Y-16546960D02*
X12977206Y-16556484D01*
X12977206Y-16556484D02*
X12948634Y-16556484D01*
X13129587Y-16556484D02*
X13110539Y-16546960D01*
X13110539Y-16546960D02*
X13101015Y-16527912D01*
X13101015Y-16527912D02*
X13101015Y-16356484D01*
X13281968Y-16546960D02*
X13262920Y-16556484D01*
X13262920Y-16556484D02*
X13224825Y-16556484D01*
X13224825Y-16556484D02*
X13205777Y-16546960D01*
X13205777Y-16546960D02*
X13196253Y-16527912D01*
X13196253Y-16527912D02*
X13196253Y-16451722D01*
X13196253Y-16451722D02*
X13205777Y-16432674D01*
X13205777Y-16432674D02*
X13224825Y-16423150D01*
X13224825Y-16423150D02*
X13262920Y-16423150D01*
X13262920Y-16423150D02*
X13281968Y-16432674D01*
X13281968Y-16432674D02*
X13291491Y-16451722D01*
X13291491Y-16451722D02*
X13291491Y-16470769D01*
X13291491Y-16470769D02*
X13196253Y-16489817D01*
X13367682Y-16546960D02*
X13386730Y-16556484D01*
X13386730Y-16556484D02*
X13424825Y-16556484D01*
X13424825Y-16556484D02*
X13443872Y-16546960D01*
X13443872Y-16546960D02*
X13453396Y-16527912D01*
X13453396Y-16527912D02*
X13453396Y-16518388D01*
X13453396Y-16518388D02*
X13443872Y-16499341D01*
X13443872Y-16499341D02*
X13424825Y-16489817D01*
X13424825Y-16489817D02*
X13396253Y-16489817D01*
X13396253Y-16489817D02*
X13377206Y-16480293D01*
X13377206Y-16480293D02*
X13367682Y-16461246D01*
X13367682Y-16461246D02*
X13367682Y-16451722D01*
X13367682Y-16451722D02*
X13377206Y-16432674D01*
X13377206Y-16432674D02*
X13396253Y-16423150D01*
X13396253Y-16423150D02*
X13424825Y-16423150D01*
X13424825Y-16423150D02*
X13443872Y-16432674D01*
X13520063Y-16632674D02*
X13529587Y-16623150D01*
X13529587Y-16623150D02*
X13548634Y-16594579D01*
X13548634Y-16594579D02*
X13558158Y-16575531D01*
X13558158Y-16575531D02*
X13567682Y-16546960D01*
X13567682Y-16546960D02*
X13577206Y-16499341D01*
X13577206Y-16499341D02*
X13577206Y-16461246D01*
X13577206Y-16461246D02*
X13567682Y-16413627D01*
X13567682Y-16413627D02*
X13558158Y-16385055D01*
X13558158Y-16385055D02*
X13548634Y-16366008D01*
X13548634Y-16366008D02*
X13529587Y-16337436D01*
X13529587Y-16337436D02*
X13520063Y-16327912D01*
D17*
X8615000Y-16664000D02*
X8745000Y-16794000D01*
X8745000Y-16664000D02*
X8615000Y-16794000D01*
X8680000Y-16664000D02*
X8680000Y-16794000D01*
X8615000Y-16729000D02*
X8745000Y-16729000D01*
D10*
X9110539Y-16820484D02*
X8996253Y-16820484D01*
X9053396Y-16820484D02*
X9053396Y-16620484D01*
X9053396Y-16620484D02*
X9034348Y-16649055D01*
X9034348Y-16649055D02*
X9015301Y-16668103D01*
X9015301Y-16668103D02*
X8996253Y-16677627D01*
X9196253Y-16801436D02*
X9205777Y-16810960D01*
X9205777Y-16810960D02*
X9196253Y-16820484D01*
X9196253Y-16820484D02*
X9186729Y-16810960D01*
X9186729Y-16810960D02*
X9196253Y-16801436D01*
X9196253Y-16801436D02*
X9196253Y-16820484D01*
X9272444Y-16620484D02*
X9396253Y-16620484D01*
X9396253Y-16620484D02*
X9329586Y-16696674D01*
X9329586Y-16696674D02*
X9358158Y-16696674D01*
X9358158Y-16696674D02*
X9377205Y-16706198D01*
X9377205Y-16706198D02*
X9386729Y-16715722D01*
X9386729Y-16715722D02*
X9396253Y-16734769D01*
X9396253Y-16734769D02*
X9396253Y-16782389D01*
X9396253Y-16782389D02*
X9386729Y-16801436D01*
X9386729Y-16801436D02*
X9377205Y-16810960D01*
X9377205Y-16810960D02*
X9358158Y-16820484D01*
X9358158Y-16820484D02*
X9301015Y-16820484D01*
X9301015Y-16820484D02*
X9281967Y-16810960D01*
X9281967Y-16810960D02*
X9272444Y-16801436D01*
X9520063Y-16620484D02*
X9539110Y-16620484D01*
X9539110Y-16620484D02*
X9558158Y-16630008D01*
X9558158Y-16630008D02*
X9567682Y-16639531D01*
X9567682Y-16639531D02*
X9577205Y-16658579D01*
X9577205Y-16658579D02*
X9586729Y-16696674D01*
X9586729Y-16696674D02*
X9586729Y-16744293D01*
X9586729Y-16744293D02*
X9577205Y-16782389D01*
X9577205Y-16782389D02*
X9567682Y-16801436D01*
X9567682Y-16801436D02*
X9558158Y-16810960D01*
X9558158Y-16810960D02*
X9539110Y-16820484D01*
X9539110Y-16820484D02*
X9520063Y-16820484D01*
X9520063Y-16820484D02*
X9501015Y-16810960D01*
X9501015Y-16810960D02*
X9491491Y-16801436D01*
X9491491Y-16801436D02*
X9481967Y-16782389D01*
X9481967Y-16782389D02*
X9472444Y-16744293D01*
X9472444Y-16744293D02*
X9472444Y-16696674D01*
X9472444Y-16696674D02*
X9481967Y-16658579D01*
X9481967Y-16658579D02*
X9491491Y-16639531D01*
X9491491Y-16639531D02*
X9501015Y-16630008D01*
X9501015Y-16630008D02*
X9520063Y-16620484D01*
X9710539Y-16620484D02*
X9729586Y-16620484D01*
X9729586Y-16620484D02*
X9748634Y-16630008D01*
X9748634Y-16630008D02*
X9758158Y-16639531D01*
X9758158Y-16639531D02*
X9767682Y-16658579D01*
X9767682Y-16658579D02*
X9777205Y-16696674D01*
X9777205Y-16696674D02*
X9777205Y-16744293D01*
X9777205Y-16744293D02*
X9767682Y-16782389D01*
X9767682Y-16782389D02*
X9758158Y-16801436D01*
X9758158Y-16801436D02*
X9748634Y-16810960D01*
X9748634Y-16810960D02*
X9729586Y-16820484D01*
X9729586Y-16820484D02*
X9710539Y-16820484D01*
X9710539Y-16820484D02*
X9691491Y-16810960D01*
X9691491Y-16810960D02*
X9681967Y-16801436D01*
X9681967Y-16801436D02*
X9672444Y-16782389D01*
X9672444Y-16782389D02*
X9662920Y-16744293D01*
X9662920Y-16744293D02*
X9662920Y-16696674D01*
X9662920Y-16696674D02*
X9672444Y-16658579D01*
X9672444Y-16658579D02*
X9681967Y-16639531D01*
X9681967Y-16639531D02*
X9691491Y-16630008D01*
X9691491Y-16630008D02*
X9710539Y-16620484D01*
X9862920Y-16820484D02*
X9862920Y-16687150D01*
X9862920Y-16706198D02*
X9872444Y-16696674D01*
X9872444Y-16696674D02*
X9891491Y-16687150D01*
X9891491Y-16687150D02*
X9920063Y-16687150D01*
X9920063Y-16687150D02*
X9939110Y-16696674D01*
X9939110Y-16696674D02*
X9948634Y-16715722D01*
X9948634Y-16715722D02*
X9948634Y-16820484D01*
X9948634Y-16715722D02*
X9958158Y-16696674D01*
X9958158Y-16696674D02*
X9977205Y-16687150D01*
X9977205Y-16687150D02*
X10005777Y-16687150D01*
X10005777Y-16687150D02*
X10024825Y-16696674D01*
X10024825Y-16696674D02*
X10034348Y-16715722D01*
X10034348Y-16715722D02*
X10034348Y-16820484D01*
X10129586Y-16820484D02*
X10129586Y-16687150D01*
X10129586Y-16706198D02*
X10139110Y-16696674D01*
X10139110Y-16696674D02*
X10158158Y-16687150D01*
X10158158Y-16687150D02*
X10186729Y-16687150D01*
X10186729Y-16687150D02*
X10205777Y-16696674D01*
X10205777Y-16696674D02*
X10215301Y-16715722D01*
X10215301Y-16715722D02*
X10215301Y-16820484D01*
X10215301Y-16715722D02*
X10224825Y-16696674D01*
X10224825Y-16696674D02*
X10243872Y-16687150D01*
X10243872Y-16687150D02*
X10272444Y-16687150D01*
X10272444Y-16687150D02*
X10291491Y-16696674D01*
X10291491Y-16696674D02*
X10301015Y-16715722D01*
X10301015Y-16715722D02*
X10301015Y-16820484D01*
X10691491Y-16610960D02*
X10520063Y-16868103D01*
X10948634Y-16620484D02*
X10967682Y-16620484D01*
X10967682Y-16620484D02*
X10986729Y-16630008D01*
X10986729Y-16630008D02*
X10996253Y-16639531D01*
X10996253Y-16639531D02*
X11005777Y-16658579D01*
X11005777Y-16658579D02*
X11015301Y-16696674D01*
X11015301Y-16696674D02*
X11015301Y-16744293D01*
X11015301Y-16744293D02*
X11005777Y-16782389D01*
X11005777Y-16782389D02*
X10996253Y-16801436D01*
X10996253Y-16801436D02*
X10986729Y-16810960D01*
X10986729Y-16810960D02*
X10967682Y-16820484D01*
X10967682Y-16820484D02*
X10948634Y-16820484D01*
X10948634Y-16820484D02*
X10929587Y-16810960D01*
X10929587Y-16810960D02*
X10920063Y-16801436D01*
X10920063Y-16801436D02*
X10910539Y-16782389D01*
X10910539Y-16782389D02*
X10901015Y-16744293D01*
X10901015Y-16744293D02*
X10901015Y-16696674D01*
X10901015Y-16696674D02*
X10910539Y-16658579D01*
X10910539Y-16658579D02*
X10920063Y-16639531D01*
X10920063Y-16639531D02*
X10929587Y-16630008D01*
X10929587Y-16630008D02*
X10948634Y-16620484D01*
X11101015Y-16801436D02*
X11110539Y-16810960D01*
X11110539Y-16810960D02*
X11101015Y-16820484D01*
X11101015Y-16820484D02*
X11091491Y-16810960D01*
X11091491Y-16810960D02*
X11101015Y-16801436D01*
X11101015Y-16801436D02*
X11101015Y-16820484D01*
X11234348Y-16620484D02*
X11253396Y-16620484D01*
X11253396Y-16620484D02*
X11272444Y-16630008D01*
X11272444Y-16630008D02*
X11281967Y-16639531D01*
X11281967Y-16639531D02*
X11291491Y-16658579D01*
X11291491Y-16658579D02*
X11301015Y-16696674D01*
X11301015Y-16696674D02*
X11301015Y-16744293D01*
X11301015Y-16744293D02*
X11291491Y-16782389D01*
X11291491Y-16782389D02*
X11281967Y-16801436D01*
X11281967Y-16801436D02*
X11272444Y-16810960D01*
X11272444Y-16810960D02*
X11253396Y-16820484D01*
X11253396Y-16820484D02*
X11234348Y-16820484D01*
X11234348Y-16820484D02*
X11215301Y-16810960D01*
X11215301Y-16810960D02*
X11205777Y-16801436D01*
X11205777Y-16801436D02*
X11196253Y-16782389D01*
X11196253Y-16782389D02*
X11186729Y-16744293D01*
X11186729Y-16744293D02*
X11186729Y-16696674D01*
X11186729Y-16696674D02*
X11196253Y-16658579D01*
X11196253Y-16658579D02*
X11205777Y-16639531D01*
X11205777Y-16639531D02*
X11215301Y-16630008D01*
X11215301Y-16630008D02*
X11234348Y-16620484D01*
X11481967Y-16620484D02*
X11386729Y-16620484D01*
X11386729Y-16620484D02*
X11377206Y-16715722D01*
X11377206Y-16715722D02*
X11386729Y-16706198D01*
X11386729Y-16706198D02*
X11405777Y-16696674D01*
X11405777Y-16696674D02*
X11453396Y-16696674D01*
X11453396Y-16696674D02*
X11472444Y-16706198D01*
X11472444Y-16706198D02*
X11481967Y-16715722D01*
X11481967Y-16715722D02*
X11491491Y-16734769D01*
X11491491Y-16734769D02*
X11491491Y-16782389D01*
X11491491Y-16782389D02*
X11481967Y-16801436D01*
X11481967Y-16801436D02*
X11472444Y-16810960D01*
X11472444Y-16810960D02*
X11453396Y-16820484D01*
X11453396Y-16820484D02*
X11405777Y-16820484D01*
X11405777Y-16820484D02*
X11386729Y-16810960D01*
X11386729Y-16810960D02*
X11377206Y-16801436D01*
X11681967Y-16820484D02*
X11567682Y-16820484D01*
X11624825Y-16820484D02*
X11624825Y-16620484D01*
X11624825Y-16620484D02*
X11605777Y-16649055D01*
X11605777Y-16649055D02*
X11586729Y-16668103D01*
X11586729Y-16668103D02*
X11567682Y-16677627D01*
X11758158Y-16639531D02*
X11767682Y-16630008D01*
X11767682Y-16630008D02*
X11786729Y-16620484D01*
X11786729Y-16620484D02*
X11834348Y-16620484D01*
X11834348Y-16620484D02*
X11853396Y-16630008D01*
X11853396Y-16630008D02*
X11862920Y-16639531D01*
X11862920Y-16639531D02*
X11872444Y-16658579D01*
X11872444Y-16658579D02*
X11872444Y-16677627D01*
X11872444Y-16677627D02*
X11862920Y-16706198D01*
X11862920Y-16706198D02*
X11748634Y-16820484D01*
X11748634Y-16820484D02*
X11872444Y-16820484D01*
X11948634Y-16620484D02*
X11948634Y-16658579D01*
X12024825Y-16620484D02*
X12024825Y-16658579D01*
X12320063Y-16896674D02*
X12310539Y-16887150D01*
X12310539Y-16887150D02*
X12291491Y-16858579D01*
X12291491Y-16858579D02*
X12281968Y-16839531D01*
X12281968Y-16839531D02*
X12272444Y-16810960D01*
X12272444Y-16810960D02*
X12262920Y-16763341D01*
X12262920Y-16763341D02*
X12262920Y-16725246D01*
X12262920Y-16725246D02*
X12272444Y-16677627D01*
X12272444Y-16677627D02*
X12281968Y-16649055D01*
X12281968Y-16649055D02*
X12291491Y-16630008D01*
X12291491Y-16630008D02*
X12310539Y-16601436D01*
X12310539Y-16601436D02*
X12320063Y-16591912D01*
X12491491Y-16620484D02*
X12396253Y-16620484D01*
X12396253Y-16620484D02*
X12386729Y-16715722D01*
X12386729Y-16715722D02*
X12396253Y-16706198D01*
X12396253Y-16706198D02*
X12415301Y-16696674D01*
X12415301Y-16696674D02*
X12462920Y-16696674D01*
X12462920Y-16696674D02*
X12481968Y-16706198D01*
X12481968Y-16706198D02*
X12491491Y-16715722D01*
X12491491Y-16715722D02*
X12501015Y-16734769D01*
X12501015Y-16734769D02*
X12501015Y-16782389D01*
X12501015Y-16782389D02*
X12491491Y-16801436D01*
X12491491Y-16801436D02*
X12481968Y-16810960D01*
X12481968Y-16810960D02*
X12462920Y-16820484D01*
X12462920Y-16820484D02*
X12415301Y-16820484D01*
X12415301Y-16820484D02*
X12396253Y-16810960D01*
X12396253Y-16810960D02*
X12386729Y-16801436D01*
X12739110Y-16820484D02*
X12739110Y-16620484D01*
X12824825Y-16820484D02*
X12824825Y-16715722D01*
X12824825Y-16715722D02*
X12815301Y-16696674D01*
X12815301Y-16696674D02*
X12796253Y-16687150D01*
X12796253Y-16687150D02*
X12767682Y-16687150D01*
X12767682Y-16687150D02*
X12748634Y-16696674D01*
X12748634Y-16696674D02*
X12739110Y-16706198D01*
X12948634Y-16820484D02*
X12929587Y-16810960D01*
X12929587Y-16810960D02*
X12920063Y-16801436D01*
X12920063Y-16801436D02*
X12910539Y-16782389D01*
X12910539Y-16782389D02*
X12910539Y-16725246D01*
X12910539Y-16725246D02*
X12920063Y-16706198D01*
X12920063Y-16706198D02*
X12929587Y-16696674D01*
X12929587Y-16696674D02*
X12948634Y-16687150D01*
X12948634Y-16687150D02*
X12977206Y-16687150D01*
X12977206Y-16687150D02*
X12996253Y-16696674D01*
X12996253Y-16696674D02*
X13005777Y-16706198D01*
X13005777Y-16706198D02*
X13015301Y-16725246D01*
X13015301Y-16725246D02*
X13015301Y-16782389D01*
X13015301Y-16782389D02*
X13005777Y-16801436D01*
X13005777Y-16801436D02*
X12996253Y-16810960D01*
X12996253Y-16810960D02*
X12977206Y-16820484D01*
X12977206Y-16820484D02*
X12948634Y-16820484D01*
X13129587Y-16820484D02*
X13110539Y-16810960D01*
X13110539Y-16810960D02*
X13101015Y-16791912D01*
X13101015Y-16791912D02*
X13101015Y-16620484D01*
X13281968Y-16810960D02*
X13262920Y-16820484D01*
X13262920Y-16820484D02*
X13224825Y-16820484D01*
X13224825Y-16820484D02*
X13205777Y-16810960D01*
X13205777Y-16810960D02*
X13196253Y-16791912D01*
X13196253Y-16791912D02*
X13196253Y-16715722D01*
X13196253Y-16715722D02*
X13205777Y-16696674D01*
X13205777Y-16696674D02*
X13224825Y-16687150D01*
X13224825Y-16687150D02*
X13262920Y-16687150D01*
X13262920Y-16687150D02*
X13281968Y-16696674D01*
X13281968Y-16696674D02*
X13291491Y-16715722D01*
X13291491Y-16715722D02*
X13291491Y-16734769D01*
X13291491Y-16734769D02*
X13196253Y-16753817D01*
X13367682Y-16810960D02*
X13386730Y-16820484D01*
X13386730Y-16820484D02*
X13424825Y-16820484D01*
X13424825Y-16820484D02*
X13443872Y-16810960D01*
X13443872Y-16810960D02*
X13453396Y-16791912D01*
X13453396Y-16791912D02*
X13453396Y-16782389D01*
X13453396Y-16782389D02*
X13443872Y-16763341D01*
X13443872Y-16763341D02*
X13424825Y-16753817D01*
X13424825Y-16753817D02*
X13396253Y-16753817D01*
X13396253Y-16753817D02*
X13377206Y-16744293D01*
X13377206Y-16744293D02*
X13367682Y-16725246D01*
X13367682Y-16725246D02*
X13367682Y-16715722D01*
X13367682Y-16715722D02*
X13377206Y-16696674D01*
X13377206Y-16696674D02*
X13396253Y-16687150D01*
X13396253Y-16687150D02*
X13424825Y-16687150D01*
X13424825Y-16687150D02*
X13443872Y-16696674D01*
X13520063Y-16896674D02*
X13529587Y-16887150D01*
X13529587Y-16887150D02*
X13548634Y-16858579D01*
X13548634Y-16858579D02*
X13558158Y-16839531D01*
X13558158Y-16839531D02*
X13567682Y-16810960D01*
X13567682Y-16810960D02*
X13577206Y-16763341D01*
X13577206Y-16763341D02*
X13577206Y-16725246D01*
X13577206Y-16725246D02*
X13567682Y-16677627D01*
X13567682Y-16677627D02*
X13558158Y-16649055D01*
X13558158Y-16649055D02*
X13548634Y-16630008D01*
X13548634Y-16630008D02*
X13529587Y-16601436D01*
X13529587Y-16601436D02*
X13520063Y-16591912D01*
D18*
X8605000Y-16923000D02*
X8745000Y-17063000D01*
X8745000Y-16923000D02*
X8605000Y-17063000D01*
X8724498Y-17042498D02*
X8724498Y-16943502D01*
X8625502Y-16943502D01*
X8625502Y-17042498D01*
X8724498Y-17042498D01*
D10*
X9110539Y-17084484D02*
X8996253Y-17084484D01*
X9053396Y-17084484D02*
X9053396Y-16884484D01*
X9053396Y-16884484D02*
X9034348Y-16913055D01*
X9034348Y-16913055D02*
X9015301Y-16932103D01*
X9015301Y-16932103D02*
X8996253Y-16941627D01*
X9196253Y-17065436D02*
X9205777Y-17074960D01*
X9205777Y-17074960D02*
X9196253Y-17084484D01*
X9196253Y-17084484D02*
X9186729Y-17074960D01*
X9186729Y-17074960D02*
X9196253Y-17065436D01*
X9196253Y-17065436D02*
X9196253Y-17084484D01*
X9377205Y-16951150D02*
X9377205Y-17084484D01*
X9329586Y-16874960D02*
X9281967Y-17017817D01*
X9281967Y-17017817D02*
X9405777Y-17017817D01*
X9520063Y-16884484D02*
X9539110Y-16884484D01*
X9539110Y-16884484D02*
X9558158Y-16894008D01*
X9558158Y-16894008D02*
X9567682Y-16903531D01*
X9567682Y-16903531D02*
X9577205Y-16922579D01*
X9577205Y-16922579D02*
X9586729Y-16960674D01*
X9586729Y-16960674D02*
X9586729Y-17008293D01*
X9586729Y-17008293D02*
X9577205Y-17046389D01*
X9577205Y-17046389D02*
X9567682Y-17065436D01*
X9567682Y-17065436D02*
X9558158Y-17074960D01*
X9558158Y-17074960D02*
X9539110Y-17084484D01*
X9539110Y-17084484D02*
X9520063Y-17084484D01*
X9520063Y-17084484D02*
X9501015Y-17074960D01*
X9501015Y-17074960D02*
X9491491Y-17065436D01*
X9491491Y-17065436D02*
X9481967Y-17046389D01*
X9481967Y-17046389D02*
X9472444Y-17008293D01*
X9472444Y-17008293D02*
X9472444Y-16960674D01*
X9472444Y-16960674D02*
X9481967Y-16922579D01*
X9481967Y-16922579D02*
X9491491Y-16903531D01*
X9491491Y-16903531D02*
X9501015Y-16894008D01*
X9501015Y-16894008D02*
X9520063Y-16884484D01*
X9710539Y-16884484D02*
X9729586Y-16884484D01*
X9729586Y-16884484D02*
X9748634Y-16894008D01*
X9748634Y-16894008D02*
X9758158Y-16903531D01*
X9758158Y-16903531D02*
X9767682Y-16922579D01*
X9767682Y-16922579D02*
X9777205Y-16960674D01*
X9777205Y-16960674D02*
X9777205Y-17008293D01*
X9777205Y-17008293D02*
X9767682Y-17046389D01*
X9767682Y-17046389D02*
X9758158Y-17065436D01*
X9758158Y-17065436D02*
X9748634Y-17074960D01*
X9748634Y-17074960D02*
X9729586Y-17084484D01*
X9729586Y-17084484D02*
X9710539Y-17084484D01*
X9710539Y-17084484D02*
X9691491Y-17074960D01*
X9691491Y-17074960D02*
X9681967Y-17065436D01*
X9681967Y-17065436D02*
X9672444Y-17046389D01*
X9672444Y-17046389D02*
X9662920Y-17008293D01*
X9662920Y-17008293D02*
X9662920Y-16960674D01*
X9662920Y-16960674D02*
X9672444Y-16922579D01*
X9672444Y-16922579D02*
X9681967Y-16903531D01*
X9681967Y-16903531D02*
X9691491Y-16894008D01*
X9691491Y-16894008D02*
X9710539Y-16884484D01*
X9862920Y-17084484D02*
X9862920Y-16951150D01*
X9862920Y-16970198D02*
X9872444Y-16960674D01*
X9872444Y-16960674D02*
X9891491Y-16951150D01*
X9891491Y-16951150D02*
X9920063Y-16951150D01*
X9920063Y-16951150D02*
X9939110Y-16960674D01*
X9939110Y-16960674D02*
X9948634Y-16979722D01*
X9948634Y-16979722D02*
X9948634Y-17084484D01*
X9948634Y-16979722D02*
X9958158Y-16960674D01*
X9958158Y-16960674D02*
X9977205Y-16951150D01*
X9977205Y-16951150D02*
X10005777Y-16951150D01*
X10005777Y-16951150D02*
X10024825Y-16960674D01*
X10024825Y-16960674D02*
X10034348Y-16979722D01*
X10034348Y-16979722D02*
X10034348Y-17084484D01*
X10129586Y-17084484D02*
X10129586Y-16951150D01*
X10129586Y-16970198D02*
X10139110Y-16960674D01*
X10139110Y-16960674D02*
X10158158Y-16951150D01*
X10158158Y-16951150D02*
X10186729Y-16951150D01*
X10186729Y-16951150D02*
X10205777Y-16960674D01*
X10205777Y-16960674D02*
X10215301Y-16979722D01*
X10215301Y-16979722D02*
X10215301Y-17084484D01*
X10215301Y-16979722D02*
X10224825Y-16960674D01*
X10224825Y-16960674D02*
X10243872Y-16951150D01*
X10243872Y-16951150D02*
X10272444Y-16951150D01*
X10272444Y-16951150D02*
X10291491Y-16960674D01*
X10291491Y-16960674D02*
X10301015Y-16979722D01*
X10301015Y-16979722D02*
X10301015Y-17084484D01*
X10691491Y-16874960D02*
X10520063Y-17132103D01*
X10948634Y-16884484D02*
X10967682Y-16884484D01*
X10967682Y-16884484D02*
X10986729Y-16894008D01*
X10986729Y-16894008D02*
X10996253Y-16903531D01*
X10996253Y-16903531D02*
X11005777Y-16922579D01*
X11005777Y-16922579D02*
X11015301Y-16960674D01*
X11015301Y-16960674D02*
X11015301Y-17008293D01*
X11015301Y-17008293D02*
X11005777Y-17046389D01*
X11005777Y-17046389D02*
X10996253Y-17065436D01*
X10996253Y-17065436D02*
X10986729Y-17074960D01*
X10986729Y-17074960D02*
X10967682Y-17084484D01*
X10967682Y-17084484D02*
X10948634Y-17084484D01*
X10948634Y-17084484D02*
X10929587Y-17074960D01*
X10929587Y-17074960D02*
X10920063Y-17065436D01*
X10920063Y-17065436D02*
X10910539Y-17046389D01*
X10910539Y-17046389D02*
X10901015Y-17008293D01*
X10901015Y-17008293D02*
X10901015Y-16960674D01*
X10901015Y-16960674D02*
X10910539Y-16922579D01*
X10910539Y-16922579D02*
X10920063Y-16903531D01*
X10920063Y-16903531D02*
X10929587Y-16894008D01*
X10929587Y-16894008D02*
X10948634Y-16884484D01*
X11101015Y-17065436D02*
X11110539Y-17074960D01*
X11110539Y-17074960D02*
X11101015Y-17084484D01*
X11101015Y-17084484D02*
X11091491Y-17074960D01*
X11091491Y-17074960D02*
X11101015Y-17065436D01*
X11101015Y-17065436D02*
X11101015Y-17084484D01*
X11234348Y-16884484D02*
X11253396Y-16884484D01*
X11253396Y-16884484D02*
X11272444Y-16894008D01*
X11272444Y-16894008D02*
X11281967Y-16903531D01*
X11281967Y-16903531D02*
X11291491Y-16922579D01*
X11291491Y-16922579D02*
X11301015Y-16960674D01*
X11301015Y-16960674D02*
X11301015Y-17008293D01*
X11301015Y-17008293D02*
X11291491Y-17046389D01*
X11291491Y-17046389D02*
X11281967Y-17065436D01*
X11281967Y-17065436D02*
X11272444Y-17074960D01*
X11272444Y-17074960D02*
X11253396Y-17084484D01*
X11253396Y-17084484D02*
X11234348Y-17084484D01*
X11234348Y-17084484D02*
X11215301Y-17074960D01*
X11215301Y-17074960D02*
X11205777Y-17065436D01*
X11205777Y-17065436D02*
X11196253Y-17046389D01*
X11196253Y-17046389D02*
X11186729Y-17008293D01*
X11186729Y-17008293D02*
X11186729Y-16960674D01*
X11186729Y-16960674D02*
X11196253Y-16922579D01*
X11196253Y-16922579D02*
X11205777Y-16903531D01*
X11205777Y-16903531D02*
X11215301Y-16894008D01*
X11215301Y-16894008D02*
X11234348Y-16884484D01*
X11481967Y-16884484D02*
X11386729Y-16884484D01*
X11386729Y-16884484D02*
X11377206Y-16979722D01*
X11377206Y-16979722D02*
X11386729Y-16970198D01*
X11386729Y-16970198D02*
X11405777Y-16960674D01*
X11405777Y-16960674D02*
X11453396Y-16960674D01*
X11453396Y-16960674D02*
X11472444Y-16970198D01*
X11472444Y-16970198D02*
X11481967Y-16979722D01*
X11481967Y-16979722D02*
X11491491Y-16998770D01*
X11491491Y-16998770D02*
X11491491Y-17046389D01*
X11491491Y-17046389D02*
X11481967Y-17065436D01*
X11481967Y-17065436D02*
X11472444Y-17074960D01*
X11472444Y-17074960D02*
X11453396Y-17084484D01*
X11453396Y-17084484D02*
X11405777Y-17084484D01*
X11405777Y-17084484D02*
X11386729Y-17074960D01*
X11386729Y-17074960D02*
X11377206Y-17065436D01*
X11672444Y-16884484D02*
X11577206Y-16884484D01*
X11577206Y-16884484D02*
X11567682Y-16979722D01*
X11567682Y-16979722D02*
X11577206Y-16970198D01*
X11577206Y-16970198D02*
X11596253Y-16960674D01*
X11596253Y-16960674D02*
X11643872Y-16960674D01*
X11643872Y-16960674D02*
X11662920Y-16970198D01*
X11662920Y-16970198D02*
X11672444Y-16979722D01*
X11672444Y-16979722D02*
X11681967Y-16998770D01*
X11681967Y-16998770D02*
X11681967Y-17046389D01*
X11681967Y-17046389D02*
X11672444Y-17065436D01*
X11672444Y-17065436D02*
X11662920Y-17074960D01*
X11662920Y-17074960D02*
X11643872Y-17084484D01*
X11643872Y-17084484D02*
X11596253Y-17084484D01*
X11596253Y-17084484D02*
X11577206Y-17074960D01*
X11577206Y-17074960D02*
X11567682Y-17065436D01*
X11872444Y-17084484D02*
X11758158Y-17084484D01*
X11815301Y-17084484D02*
X11815301Y-16884484D01*
X11815301Y-16884484D02*
X11796253Y-16913055D01*
X11796253Y-16913055D02*
X11777206Y-16932103D01*
X11777206Y-16932103D02*
X11758158Y-16941627D01*
X11948634Y-16884484D02*
X11948634Y-16922579D01*
X12024825Y-16884484D02*
X12024825Y-16922579D01*
X12320063Y-17160674D02*
X12310539Y-17151150D01*
X12310539Y-17151150D02*
X12291491Y-17122579D01*
X12291491Y-17122579D02*
X12281968Y-17103531D01*
X12281968Y-17103531D02*
X12272444Y-17074960D01*
X12272444Y-17074960D02*
X12262920Y-17027341D01*
X12262920Y-17027341D02*
X12262920Y-16989246D01*
X12262920Y-16989246D02*
X12272444Y-16941627D01*
X12272444Y-16941627D02*
X12281968Y-16913055D01*
X12281968Y-16913055D02*
X12291491Y-16894008D01*
X12291491Y-16894008D02*
X12310539Y-16865436D01*
X12310539Y-16865436D02*
X12320063Y-16855912D01*
X12386729Y-16903531D02*
X12396253Y-16894008D01*
X12396253Y-16894008D02*
X12415301Y-16884484D01*
X12415301Y-16884484D02*
X12462920Y-16884484D01*
X12462920Y-16884484D02*
X12481968Y-16894008D01*
X12481968Y-16894008D02*
X12491491Y-16903531D01*
X12491491Y-16903531D02*
X12501015Y-16922579D01*
X12501015Y-16922579D02*
X12501015Y-16941627D01*
X12501015Y-16941627D02*
X12491491Y-16970198D01*
X12491491Y-16970198D02*
X12377206Y-17084484D01*
X12377206Y-17084484D02*
X12501015Y-17084484D01*
X12739110Y-17084484D02*
X12739110Y-16884484D01*
X12824825Y-17084484D02*
X12824825Y-16979722D01*
X12824825Y-16979722D02*
X12815301Y-16960674D01*
X12815301Y-16960674D02*
X12796253Y-16951150D01*
X12796253Y-16951150D02*
X12767682Y-16951150D01*
X12767682Y-16951150D02*
X12748634Y-16960674D01*
X12748634Y-16960674D02*
X12739110Y-16970198D01*
X12948634Y-17084484D02*
X12929587Y-17074960D01*
X12929587Y-17074960D02*
X12920063Y-17065436D01*
X12920063Y-17065436D02*
X12910539Y-17046389D01*
X12910539Y-17046389D02*
X12910539Y-16989246D01*
X12910539Y-16989246D02*
X12920063Y-16970198D01*
X12920063Y-16970198D02*
X12929587Y-16960674D01*
X12929587Y-16960674D02*
X12948634Y-16951150D01*
X12948634Y-16951150D02*
X12977206Y-16951150D01*
X12977206Y-16951150D02*
X12996253Y-16960674D01*
X12996253Y-16960674D02*
X13005777Y-16970198D01*
X13005777Y-16970198D02*
X13015301Y-16989246D01*
X13015301Y-16989246D02*
X13015301Y-17046389D01*
X13015301Y-17046389D02*
X13005777Y-17065436D01*
X13005777Y-17065436D02*
X12996253Y-17074960D01*
X12996253Y-17074960D02*
X12977206Y-17084484D01*
X12977206Y-17084484D02*
X12948634Y-17084484D01*
X13129587Y-17084484D02*
X13110539Y-17074960D01*
X13110539Y-17074960D02*
X13101015Y-17055912D01*
X13101015Y-17055912D02*
X13101015Y-16884484D01*
X13281968Y-17074960D02*
X13262920Y-17084484D01*
X13262920Y-17084484D02*
X13224825Y-17084484D01*
X13224825Y-17084484D02*
X13205777Y-17074960D01*
X13205777Y-17074960D02*
X13196253Y-17055912D01*
X13196253Y-17055912D02*
X13196253Y-16979722D01*
X13196253Y-16979722D02*
X13205777Y-16960674D01*
X13205777Y-16960674D02*
X13224825Y-16951150D01*
X13224825Y-16951150D02*
X13262920Y-16951150D01*
X13262920Y-16951150D02*
X13281968Y-16960674D01*
X13281968Y-16960674D02*
X13291491Y-16979722D01*
X13291491Y-16979722D02*
X13291491Y-16998770D01*
X13291491Y-16998770D02*
X13196253Y-17017817D01*
X13367682Y-17074960D02*
X13386730Y-17084484D01*
X13386730Y-17084484D02*
X13424825Y-17084484D01*
X13424825Y-17084484D02*
X13443872Y-17074960D01*
X13443872Y-17074960D02*
X13453396Y-17055912D01*
X13453396Y-17055912D02*
X13453396Y-17046389D01*
X13453396Y-17046389D02*
X13443872Y-17027341D01*
X13443872Y-17027341D02*
X13424825Y-17017817D01*
X13424825Y-17017817D02*
X13396253Y-17017817D01*
X13396253Y-17017817D02*
X13377206Y-17008293D01*
X13377206Y-17008293D02*
X13367682Y-16989246D01*
X13367682Y-16989246D02*
X13367682Y-16979722D01*
X13367682Y-16979722D02*
X13377206Y-16960674D01*
X13377206Y-16960674D02*
X13396253Y-16951150D01*
X13396253Y-16951150D02*
X13424825Y-16951150D01*
X13424825Y-16951150D02*
X13443872Y-16960674D01*
X13520063Y-17160674D02*
X13529587Y-17151150D01*
X13529587Y-17151150D02*
X13548634Y-17122579D01*
X13548634Y-17122579D02*
X13558158Y-17103531D01*
X13558158Y-17103531D02*
X13567682Y-17074960D01*
X13567682Y-17074960D02*
X13577206Y-17027341D01*
X13577206Y-17027341D02*
X13577206Y-16989246D01*
X13577206Y-16989246D02*
X13567682Y-16941627D01*
X13567682Y-16941627D02*
X13558158Y-16913055D01*
X13558158Y-16913055D02*
X13548634Y-16894008D01*
X13548634Y-16894008D02*
X13529587Y-16865436D01*
X13529587Y-16865436D02*
X13520063Y-16855912D01*
D19*
X8595000Y-17182000D02*
X8745000Y-17332000D01*
X8745000Y-17182000D02*
X8595000Y-17332000D01*
X8670000Y-17332000D02*
X8745000Y-17257000D01*
X8670000Y-17182000D01*
X8595000Y-17257000D01*
X8670000Y-17332000D01*
D10*
X9110539Y-17348484D02*
X8996253Y-17348484D01*
X9053396Y-17348484D02*
X9053396Y-17148484D01*
X9053396Y-17148484D02*
X9034348Y-17177055D01*
X9034348Y-17177055D02*
X9015301Y-17196103D01*
X9015301Y-17196103D02*
X8996253Y-17205627D01*
X9196253Y-17329436D02*
X9205777Y-17338960D01*
X9205777Y-17338960D02*
X9196253Y-17348484D01*
X9196253Y-17348484D02*
X9186729Y-17338960D01*
X9186729Y-17338960D02*
X9196253Y-17329436D01*
X9196253Y-17329436D02*
X9196253Y-17348484D01*
X9386729Y-17148484D02*
X9291491Y-17148484D01*
X9291491Y-17148484D02*
X9281967Y-17243722D01*
X9281967Y-17243722D02*
X9291491Y-17234198D01*
X9291491Y-17234198D02*
X9310539Y-17224674D01*
X9310539Y-17224674D02*
X9358158Y-17224674D01*
X9358158Y-17224674D02*
X9377205Y-17234198D01*
X9377205Y-17234198D02*
X9386729Y-17243722D01*
X9386729Y-17243722D02*
X9396253Y-17262770D01*
X9396253Y-17262770D02*
X9396253Y-17310389D01*
X9396253Y-17310389D02*
X9386729Y-17329436D01*
X9386729Y-17329436D02*
X9377205Y-17338960D01*
X9377205Y-17338960D02*
X9358158Y-17348484D01*
X9358158Y-17348484D02*
X9310539Y-17348484D01*
X9310539Y-17348484D02*
X9291491Y-17338960D01*
X9291491Y-17338960D02*
X9281967Y-17329436D01*
X9520063Y-17148484D02*
X9539110Y-17148484D01*
X9539110Y-17148484D02*
X9558158Y-17158008D01*
X9558158Y-17158008D02*
X9567682Y-17167531D01*
X9567682Y-17167531D02*
X9577205Y-17186579D01*
X9577205Y-17186579D02*
X9586729Y-17224674D01*
X9586729Y-17224674D02*
X9586729Y-17272293D01*
X9586729Y-17272293D02*
X9577205Y-17310389D01*
X9577205Y-17310389D02*
X9567682Y-17329436D01*
X9567682Y-17329436D02*
X9558158Y-17338960D01*
X9558158Y-17338960D02*
X9539110Y-17348484D01*
X9539110Y-17348484D02*
X9520063Y-17348484D01*
X9520063Y-17348484D02*
X9501015Y-17338960D01*
X9501015Y-17338960D02*
X9491491Y-17329436D01*
X9491491Y-17329436D02*
X9481967Y-17310389D01*
X9481967Y-17310389D02*
X9472444Y-17272293D01*
X9472444Y-17272293D02*
X9472444Y-17224674D01*
X9472444Y-17224674D02*
X9481967Y-17186579D01*
X9481967Y-17186579D02*
X9491491Y-17167531D01*
X9491491Y-17167531D02*
X9501015Y-17158008D01*
X9501015Y-17158008D02*
X9520063Y-17148484D01*
X9710539Y-17148484D02*
X9729586Y-17148484D01*
X9729586Y-17148484D02*
X9748634Y-17158008D01*
X9748634Y-17158008D02*
X9758158Y-17167531D01*
X9758158Y-17167531D02*
X9767682Y-17186579D01*
X9767682Y-17186579D02*
X9777205Y-17224674D01*
X9777205Y-17224674D02*
X9777205Y-17272293D01*
X9777205Y-17272293D02*
X9767682Y-17310389D01*
X9767682Y-17310389D02*
X9758158Y-17329436D01*
X9758158Y-17329436D02*
X9748634Y-17338960D01*
X9748634Y-17338960D02*
X9729586Y-17348484D01*
X9729586Y-17348484D02*
X9710539Y-17348484D01*
X9710539Y-17348484D02*
X9691491Y-17338960D01*
X9691491Y-17338960D02*
X9681967Y-17329436D01*
X9681967Y-17329436D02*
X9672444Y-17310389D01*
X9672444Y-17310389D02*
X9662920Y-17272293D01*
X9662920Y-17272293D02*
X9662920Y-17224674D01*
X9662920Y-17224674D02*
X9672444Y-17186579D01*
X9672444Y-17186579D02*
X9681967Y-17167531D01*
X9681967Y-17167531D02*
X9691491Y-17158008D01*
X9691491Y-17158008D02*
X9710539Y-17148484D01*
X9862920Y-17348484D02*
X9862920Y-17215150D01*
X9862920Y-17234198D02*
X9872444Y-17224674D01*
X9872444Y-17224674D02*
X9891491Y-17215150D01*
X9891491Y-17215150D02*
X9920063Y-17215150D01*
X9920063Y-17215150D02*
X9939110Y-17224674D01*
X9939110Y-17224674D02*
X9948634Y-17243722D01*
X9948634Y-17243722D02*
X9948634Y-17348484D01*
X9948634Y-17243722D02*
X9958158Y-17224674D01*
X9958158Y-17224674D02*
X9977205Y-17215150D01*
X9977205Y-17215150D02*
X10005777Y-17215150D01*
X10005777Y-17215150D02*
X10024825Y-17224674D01*
X10024825Y-17224674D02*
X10034348Y-17243722D01*
X10034348Y-17243722D02*
X10034348Y-17348484D01*
X10129586Y-17348484D02*
X10129586Y-17215150D01*
X10129586Y-17234198D02*
X10139110Y-17224674D01*
X10139110Y-17224674D02*
X10158158Y-17215150D01*
X10158158Y-17215150D02*
X10186729Y-17215150D01*
X10186729Y-17215150D02*
X10205777Y-17224674D01*
X10205777Y-17224674D02*
X10215301Y-17243722D01*
X10215301Y-17243722D02*
X10215301Y-17348484D01*
X10215301Y-17243722D02*
X10224825Y-17224674D01*
X10224825Y-17224674D02*
X10243872Y-17215150D01*
X10243872Y-17215150D02*
X10272444Y-17215150D01*
X10272444Y-17215150D02*
X10291491Y-17224674D01*
X10291491Y-17224674D02*
X10301015Y-17243722D01*
X10301015Y-17243722D02*
X10301015Y-17348484D01*
X10691491Y-17138960D02*
X10520063Y-17396103D01*
X10948634Y-17148484D02*
X10967682Y-17148484D01*
X10967682Y-17148484D02*
X10986729Y-17158008D01*
X10986729Y-17158008D02*
X10996253Y-17167531D01*
X10996253Y-17167531D02*
X11005777Y-17186579D01*
X11005777Y-17186579D02*
X11015301Y-17224674D01*
X11015301Y-17224674D02*
X11015301Y-17272293D01*
X11015301Y-17272293D02*
X11005777Y-17310389D01*
X11005777Y-17310389D02*
X10996253Y-17329436D01*
X10996253Y-17329436D02*
X10986729Y-17338960D01*
X10986729Y-17338960D02*
X10967682Y-17348484D01*
X10967682Y-17348484D02*
X10948634Y-17348484D01*
X10948634Y-17348484D02*
X10929587Y-17338960D01*
X10929587Y-17338960D02*
X10920063Y-17329436D01*
X10920063Y-17329436D02*
X10910539Y-17310389D01*
X10910539Y-17310389D02*
X10901015Y-17272293D01*
X10901015Y-17272293D02*
X10901015Y-17224674D01*
X10901015Y-17224674D02*
X10910539Y-17186579D01*
X10910539Y-17186579D02*
X10920063Y-17167531D01*
X10920063Y-17167531D02*
X10929587Y-17158008D01*
X10929587Y-17158008D02*
X10948634Y-17148484D01*
X11101015Y-17329436D02*
X11110539Y-17338960D01*
X11110539Y-17338960D02*
X11101015Y-17348484D01*
X11101015Y-17348484D02*
X11091491Y-17338960D01*
X11091491Y-17338960D02*
X11101015Y-17329436D01*
X11101015Y-17329436D02*
X11101015Y-17348484D01*
X11234348Y-17148484D02*
X11253396Y-17148484D01*
X11253396Y-17148484D02*
X11272444Y-17158008D01*
X11272444Y-17158008D02*
X11281967Y-17167531D01*
X11281967Y-17167531D02*
X11291491Y-17186579D01*
X11291491Y-17186579D02*
X11301015Y-17224674D01*
X11301015Y-17224674D02*
X11301015Y-17272293D01*
X11301015Y-17272293D02*
X11291491Y-17310389D01*
X11291491Y-17310389D02*
X11281967Y-17329436D01*
X11281967Y-17329436D02*
X11272444Y-17338960D01*
X11272444Y-17338960D02*
X11253396Y-17348484D01*
X11253396Y-17348484D02*
X11234348Y-17348484D01*
X11234348Y-17348484D02*
X11215301Y-17338960D01*
X11215301Y-17338960D02*
X11205777Y-17329436D01*
X11205777Y-17329436D02*
X11196253Y-17310389D01*
X11196253Y-17310389D02*
X11186729Y-17272293D01*
X11186729Y-17272293D02*
X11186729Y-17224674D01*
X11186729Y-17224674D02*
X11196253Y-17186579D01*
X11196253Y-17186579D02*
X11205777Y-17167531D01*
X11205777Y-17167531D02*
X11215301Y-17158008D01*
X11215301Y-17158008D02*
X11234348Y-17148484D01*
X11481967Y-17148484D02*
X11386729Y-17148484D01*
X11386729Y-17148484D02*
X11377206Y-17243722D01*
X11377206Y-17243722D02*
X11386729Y-17234198D01*
X11386729Y-17234198D02*
X11405777Y-17224674D01*
X11405777Y-17224674D02*
X11453396Y-17224674D01*
X11453396Y-17224674D02*
X11472444Y-17234198D01*
X11472444Y-17234198D02*
X11481967Y-17243722D01*
X11481967Y-17243722D02*
X11491491Y-17262770D01*
X11491491Y-17262770D02*
X11491491Y-17310389D01*
X11491491Y-17310389D02*
X11481967Y-17329436D01*
X11481967Y-17329436D02*
X11472444Y-17338960D01*
X11472444Y-17338960D02*
X11453396Y-17348484D01*
X11453396Y-17348484D02*
X11405777Y-17348484D01*
X11405777Y-17348484D02*
X11386729Y-17338960D01*
X11386729Y-17338960D02*
X11377206Y-17329436D01*
X11586729Y-17348484D02*
X11624825Y-17348484D01*
X11624825Y-17348484D02*
X11643872Y-17338960D01*
X11643872Y-17338960D02*
X11653396Y-17329436D01*
X11653396Y-17329436D02*
X11672444Y-17300865D01*
X11672444Y-17300865D02*
X11681967Y-17262770D01*
X11681967Y-17262770D02*
X11681967Y-17186579D01*
X11681967Y-17186579D02*
X11672444Y-17167531D01*
X11672444Y-17167531D02*
X11662920Y-17158008D01*
X11662920Y-17158008D02*
X11643872Y-17148484D01*
X11643872Y-17148484D02*
X11605777Y-17148484D01*
X11605777Y-17148484D02*
X11586729Y-17158008D01*
X11586729Y-17158008D02*
X11577206Y-17167531D01*
X11577206Y-17167531D02*
X11567682Y-17186579D01*
X11567682Y-17186579D02*
X11567682Y-17234198D01*
X11567682Y-17234198D02*
X11577206Y-17253246D01*
X11577206Y-17253246D02*
X11586729Y-17262770D01*
X11586729Y-17262770D02*
X11605777Y-17272293D01*
X11605777Y-17272293D02*
X11643872Y-17272293D01*
X11643872Y-17272293D02*
X11662920Y-17262770D01*
X11662920Y-17262770D02*
X11672444Y-17253246D01*
X11672444Y-17253246D02*
X11681967Y-17234198D01*
X11872444Y-17348484D02*
X11758158Y-17348484D01*
X11815301Y-17348484D02*
X11815301Y-17148484D01*
X11815301Y-17148484D02*
X11796253Y-17177055D01*
X11796253Y-17177055D02*
X11777206Y-17196103D01*
X11777206Y-17196103D02*
X11758158Y-17205627D01*
X11948634Y-17148484D02*
X11948634Y-17186579D01*
X12024825Y-17148484D02*
X12024825Y-17186579D01*
X12320063Y-17424674D02*
X12310539Y-17415150D01*
X12310539Y-17415150D02*
X12291491Y-17386579D01*
X12291491Y-17386579D02*
X12281968Y-17367531D01*
X12281968Y-17367531D02*
X12272444Y-17338960D01*
X12272444Y-17338960D02*
X12262920Y-17291341D01*
X12262920Y-17291341D02*
X12262920Y-17253246D01*
X12262920Y-17253246D02*
X12272444Y-17205627D01*
X12272444Y-17205627D02*
X12281968Y-17177055D01*
X12281968Y-17177055D02*
X12291491Y-17158008D01*
X12291491Y-17158008D02*
X12310539Y-17129436D01*
X12310539Y-17129436D02*
X12320063Y-17119912D01*
X12424825Y-17234198D02*
X12405777Y-17224674D01*
X12405777Y-17224674D02*
X12396253Y-17215150D01*
X12396253Y-17215150D02*
X12386729Y-17196103D01*
X12386729Y-17196103D02*
X12386729Y-17186579D01*
X12386729Y-17186579D02*
X12396253Y-17167531D01*
X12396253Y-17167531D02*
X12405777Y-17158008D01*
X12405777Y-17158008D02*
X12424825Y-17148484D01*
X12424825Y-17148484D02*
X12462920Y-17148484D01*
X12462920Y-17148484D02*
X12481968Y-17158008D01*
X12481968Y-17158008D02*
X12491491Y-17167531D01*
X12491491Y-17167531D02*
X12501015Y-17186579D01*
X12501015Y-17186579D02*
X12501015Y-17196103D01*
X12501015Y-17196103D02*
X12491491Y-17215150D01*
X12491491Y-17215150D02*
X12481968Y-17224674D01*
X12481968Y-17224674D02*
X12462920Y-17234198D01*
X12462920Y-17234198D02*
X12424825Y-17234198D01*
X12424825Y-17234198D02*
X12405777Y-17243722D01*
X12405777Y-17243722D02*
X12396253Y-17253246D01*
X12396253Y-17253246D02*
X12386729Y-17272293D01*
X12386729Y-17272293D02*
X12386729Y-17310389D01*
X12386729Y-17310389D02*
X12396253Y-17329436D01*
X12396253Y-17329436D02*
X12405777Y-17338960D01*
X12405777Y-17338960D02*
X12424825Y-17348484D01*
X12424825Y-17348484D02*
X12462920Y-17348484D01*
X12462920Y-17348484D02*
X12481968Y-17338960D01*
X12481968Y-17338960D02*
X12491491Y-17329436D01*
X12491491Y-17329436D02*
X12501015Y-17310389D01*
X12501015Y-17310389D02*
X12501015Y-17272293D01*
X12501015Y-17272293D02*
X12491491Y-17253246D01*
X12491491Y-17253246D02*
X12481968Y-17243722D01*
X12481968Y-17243722D02*
X12462920Y-17234198D01*
X12739110Y-17348484D02*
X12739110Y-17148484D01*
X12824825Y-17348484D02*
X12824825Y-17243722D01*
X12824825Y-17243722D02*
X12815301Y-17224674D01*
X12815301Y-17224674D02*
X12796253Y-17215150D01*
X12796253Y-17215150D02*
X12767682Y-17215150D01*
X12767682Y-17215150D02*
X12748634Y-17224674D01*
X12748634Y-17224674D02*
X12739110Y-17234198D01*
X12948634Y-17348484D02*
X12929587Y-17338960D01*
X12929587Y-17338960D02*
X12920063Y-17329436D01*
X12920063Y-17329436D02*
X12910539Y-17310389D01*
X12910539Y-17310389D02*
X12910539Y-17253246D01*
X12910539Y-17253246D02*
X12920063Y-17234198D01*
X12920063Y-17234198D02*
X12929587Y-17224674D01*
X12929587Y-17224674D02*
X12948634Y-17215150D01*
X12948634Y-17215150D02*
X12977206Y-17215150D01*
X12977206Y-17215150D02*
X12996253Y-17224674D01*
X12996253Y-17224674D02*
X13005777Y-17234198D01*
X13005777Y-17234198D02*
X13015301Y-17253246D01*
X13015301Y-17253246D02*
X13015301Y-17310389D01*
X13015301Y-17310389D02*
X13005777Y-17329436D01*
X13005777Y-17329436D02*
X12996253Y-17338960D01*
X12996253Y-17338960D02*
X12977206Y-17348484D01*
X12977206Y-17348484D02*
X12948634Y-17348484D01*
X13129587Y-17348484D02*
X13110539Y-17338960D01*
X13110539Y-17338960D02*
X13101015Y-17319912D01*
X13101015Y-17319912D02*
X13101015Y-17148484D01*
X13281968Y-17338960D02*
X13262920Y-17348484D01*
X13262920Y-17348484D02*
X13224825Y-17348484D01*
X13224825Y-17348484D02*
X13205777Y-17338960D01*
X13205777Y-17338960D02*
X13196253Y-17319912D01*
X13196253Y-17319912D02*
X13196253Y-17243722D01*
X13196253Y-17243722D02*
X13205777Y-17224674D01*
X13205777Y-17224674D02*
X13224825Y-17215150D01*
X13224825Y-17215150D02*
X13262920Y-17215150D01*
X13262920Y-17215150D02*
X13281968Y-17224674D01*
X13281968Y-17224674D02*
X13291491Y-17243722D01*
X13291491Y-17243722D02*
X13291491Y-17262770D01*
X13291491Y-17262770D02*
X13196253Y-17281817D01*
X13367682Y-17338960D02*
X13386730Y-17348484D01*
X13386730Y-17348484D02*
X13424825Y-17348484D01*
X13424825Y-17348484D02*
X13443872Y-17338960D01*
X13443872Y-17338960D02*
X13453396Y-17319912D01*
X13453396Y-17319912D02*
X13453396Y-17310389D01*
X13453396Y-17310389D02*
X13443872Y-17291341D01*
X13443872Y-17291341D02*
X13424825Y-17281817D01*
X13424825Y-17281817D02*
X13396253Y-17281817D01*
X13396253Y-17281817D02*
X13377206Y-17272293D01*
X13377206Y-17272293D02*
X13367682Y-17253246D01*
X13367682Y-17253246D02*
X13367682Y-17243722D01*
X13367682Y-17243722D02*
X13377206Y-17224674D01*
X13377206Y-17224674D02*
X13396253Y-17215150D01*
X13396253Y-17215150D02*
X13424825Y-17215150D01*
X13424825Y-17215150D02*
X13443872Y-17224674D01*
X13520063Y-17424674D02*
X13529587Y-17415150D01*
X13529587Y-17415150D02*
X13548634Y-17386579D01*
X13548634Y-17386579D02*
X13558158Y-17367531D01*
X13558158Y-17367531D02*
X13567682Y-17338960D01*
X13567682Y-17338960D02*
X13577206Y-17291341D01*
X13577206Y-17291341D02*
X13577206Y-17253246D01*
X13577206Y-17253246D02*
X13567682Y-17205627D01*
X13567682Y-17205627D02*
X13558158Y-17177055D01*
X13558158Y-17177055D02*
X13548634Y-17158008D01*
X13548634Y-17158008D02*
X13529587Y-17129436D01*
X13529587Y-17129436D02*
X13520063Y-17119912D01*
D20*
X8665000Y-17447000D02*
X8665000Y-17607000D01*
X8585000Y-17527000D02*
X8745000Y-17527000D01*
X8745000Y-17527000D02*
G75*
G03*
X8745000Y-17527000I-80000J0D01*
G01*
D10*
X9110539Y-17618484D02*
X8996253Y-17618484D01*
X9053396Y-17618484D02*
X9053396Y-17418484D01*
X9053396Y-17418484D02*
X9034348Y-17447055D01*
X9034348Y-17447055D02*
X9015301Y-17466103D01*
X9015301Y-17466103D02*
X8996253Y-17475627D01*
X9196253Y-17599436D02*
X9205777Y-17608960D01*
X9205777Y-17608960D02*
X9196253Y-17618484D01*
X9196253Y-17618484D02*
X9186729Y-17608960D01*
X9186729Y-17608960D02*
X9196253Y-17599436D01*
X9196253Y-17599436D02*
X9196253Y-17618484D01*
X9377205Y-17418484D02*
X9339110Y-17418484D01*
X9339110Y-17418484D02*
X9320063Y-17428008D01*
X9320063Y-17428008D02*
X9310539Y-17437531D01*
X9310539Y-17437531D02*
X9291491Y-17466103D01*
X9291491Y-17466103D02*
X9281967Y-17504198D01*
X9281967Y-17504198D02*
X9281967Y-17580389D01*
X9281967Y-17580389D02*
X9291491Y-17599436D01*
X9291491Y-17599436D02*
X9301015Y-17608960D01*
X9301015Y-17608960D02*
X9320063Y-17618484D01*
X9320063Y-17618484D02*
X9358158Y-17618484D01*
X9358158Y-17618484D02*
X9377205Y-17608960D01*
X9377205Y-17608960D02*
X9386729Y-17599436D01*
X9386729Y-17599436D02*
X9396253Y-17580389D01*
X9396253Y-17580389D02*
X9396253Y-17532770D01*
X9396253Y-17532770D02*
X9386729Y-17513722D01*
X9386729Y-17513722D02*
X9377205Y-17504198D01*
X9377205Y-17504198D02*
X9358158Y-17494674D01*
X9358158Y-17494674D02*
X9320063Y-17494674D01*
X9320063Y-17494674D02*
X9301015Y-17504198D01*
X9301015Y-17504198D02*
X9291491Y-17513722D01*
X9291491Y-17513722D02*
X9281967Y-17532770D01*
X9520063Y-17418484D02*
X9539110Y-17418484D01*
X9539110Y-17418484D02*
X9558158Y-17428008D01*
X9558158Y-17428008D02*
X9567682Y-17437531D01*
X9567682Y-17437531D02*
X9577205Y-17456579D01*
X9577205Y-17456579D02*
X9586729Y-17494674D01*
X9586729Y-17494674D02*
X9586729Y-17542293D01*
X9586729Y-17542293D02*
X9577205Y-17580389D01*
X9577205Y-17580389D02*
X9567682Y-17599436D01*
X9567682Y-17599436D02*
X9558158Y-17608960D01*
X9558158Y-17608960D02*
X9539110Y-17618484D01*
X9539110Y-17618484D02*
X9520063Y-17618484D01*
X9520063Y-17618484D02*
X9501015Y-17608960D01*
X9501015Y-17608960D02*
X9491491Y-17599436D01*
X9491491Y-17599436D02*
X9481967Y-17580389D01*
X9481967Y-17580389D02*
X9472444Y-17542293D01*
X9472444Y-17542293D02*
X9472444Y-17494674D01*
X9472444Y-17494674D02*
X9481967Y-17456579D01*
X9481967Y-17456579D02*
X9491491Y-17437531D01*
X9491491Y-17437531D02*
X9501015Y-17428008D01*
X9501015Y-17428008D02*
X9520063Y-17418484D01*
X9710539Y-17418484D02*
X9729586Y-17418484D01*
X9729586Y-17418484D02*
X9748634Y-17428008D01*
X9748634Y-17428008D02*
X9758158Y-17437531D01*
X9758158Y-17437531D02*
X9767682Y-17456579D01*
X9767682Y-17456579D02*
X9777205Y-17494674D01*
X9777205Y-17494674D02*
X9777205Y-17542293D01*
X9777205Y-17542293D02*
X9767682Y-17580389D01*
X9767682Y-17580389D02*
X9758158Y-17599436D01*
X9758158Y-17599436D02*
X9748634Y-17608960D01*
X9748634Y-17608960D02*
X9729586Y-17618484D01*
X9729586Y-17618484D02*
X9710539Y-17618484D01*
X9710539Y-17618484D02*
X9691491Y-17608960D01*
X9691491Y-17608960D02*
X9681967Y-17599436D01*
X9681967Y-17599436D02*
X9672444Y-17580389D01*
X9672444Y-17580389D02*
X9662920Y-17542293D01*
X9662920Y-17542293D02*
X9662920Y-17494674D01*
X9662920Y-17494674D02*
X9672444Y-17456579D01*
X9672444Y-17456579D02*
X9681967Y-17437531D01*
X9681967Y-17437531D02*
X9691491Y-17428008D01*
X9691491Y-17428008D02*
X9710539Y-17418484D01*
X9862920Y-17618484D02*
X9862920Y-17485150D01*
X9862920Y-17504198D02*
X9872444Y-17494674D01*
X9872444Y-17494674D02*
X9891491Y-17485150D01*
X9891491Y-17485150D02*
X9920063Y-17485150D01*
X9920063Y-17485150D02*
X9939110Y-17494674D01*
X9939110Y-17494674D02*
X9948634Y-17513722D01*
X9948634Y-17513722D02*
X9948634Y-17618484D01*
X9948634Y-17513722D02*
X9958158Y-17494674D01*
X9958158Y-17494674D02*
X9977205Y-17485150D01*
X9977205Y-17485150D02*
X10005777Y-17485150D01*
X10005777Y-17485150D02*
X10024825Y-17494674D01*
X10024825Y-17494674D02*
X10034348Y-17513722D01*
X10034348Y-17513722D02*
X10034348Y-17618484D01*
X10129586Y-17618484D02*
X10129586Y-17485150D01*
X10129586Y-17504198D02*
X10139110Y-17494674D01*
X10139110Y-17494674D02*
X10158158Y-17485150D01*
X10158158Y-17485150D02*
X10186729Y-17485150D01*
X10186729Y-17485150D02*
X10205777Y-17494674D01*
X10205777Y-17494674D02*
X10215301Y-17513722D01*
X10215301Y-17513722D02*
X10215301Y-17618484D01*
X10215301Y-17513722D02*
X10224825Y-17494674D01*
X10224825Y-17494674D02*
X10243872Y-17485150D01*
X10243872Y-17485150D02*
X10272444Y-17485150D01*
X10272444Y-17485150D02*
X10291491Y-17494674D01*
X10291491Y-17494674D02*
X10301015Y-17513722D01*
X10301015Y-17513722D02*
X10301015Y-17618484D01*
X10691491Y-17408960D02*
X10520063Y-17666103D01*
X10948634Y-17418484D02*
X10967682Y-17418484D01*
X10967682Y-17418484D02*
X10986729Y-17428008D01*
X10986729Y-17428008D02*
X10996253Y-17437531D01*
X10996253Y-17437531D02*
X11005777Y-17456579D01*
X11005777Y-17456579D02*
X11015301Y-17494674D01*
X11015301Y-17494674D02*
X11015301Y-17542293D01*
X11015301Y-17542293D02*
X11005777Y-17580389D01*
X11005777Y-17580389D02*
X10996253Y-17599436D01*
X10996253Y-17599436D02*
X10986729Y-17608960D01*
X10986729Y-17608960D02*
X10967682Y-17618484D01*
X10967682Y-17618484D02*
X10948634Y-17618484D01*
X10948634Y-17618484D02*
X10929587Y-17608960D01*
X10929587Y-17608960D02*
X10920063Y-17599436D01*
X10920063Y-17599436D02*
X10910539Y-17580389D01*
X10910539Y-17580389D02*
X10901015Y-17542293D01*
X10901015Y-17542293D02*
X10901015Y-17494674D01*
X10901015Y-17494674D02*
X10910539Y-17456579D01*
X10910539Y-17456579D02*
X10920063Y-17437531D01*
X10920063Y-17437531D02*
X10929587Y-17428008D01*
X10929587Y-17428008D02*
X10948634Y-17418484D01*
X11101015Y-17599436D02*
X11110539Y-17608960D01*
X11110539Y-17608960D02*
X11101015Y-17618484D01*
X11101015Y-17618484D02*
X11091491Y-17608960D01*
X11091491Y-17608960D02*
X11101015Y-17599436D01*
X11101015Y-17599436D02*
X11101015Y-17618484D01*
X11234348Y-17418484D02*
X11253396Y-17418484D01*
X11253396Y-17418484D02*
X11272444Y-17428008D01*
X11272444Y-17428008D02*
X11281967Y-17437531D01*
X11281967Y-17437531D02*
X11291491Y-17456579D01*
X11291491Y-17456579D02*
X11301015Y-17494674D01*
X11301015Y-17494674D02*
X11301015Y-17542293D01*
X11301015Y-17542293D02*
X11291491Y-17580389D01*
X11291491Y-17580389D02*
X11281967Y-17599436D01*
X11281967Y-17599436D02*
X11272444Y-17608960D01*
X11272444Y-17608960D02*
X11253396Y-17618484D01*
X11253396Y-17618484D02*
X11234348Y-17618484D01*
X11234348Y-17618484D02*
X11215301Y-17608960D01*
X11215301Y-17608960D02*
X11205777Y-17599436D01*
X11205777Y-17599436D02*
X11196253Y-17580389D01*
X11196253Y-17580389D02*
X11186729Y-17542293D01*
X11186729Y-17542293D02*
X11186729Y-17494674D01*
X11186729Y-17494674D02*
X11196253Y-17456579D01*
X11196253Y-17456579D02*
X11205777Y-17437531D01*
X11205777Y-17437531D02*
X11215301Y-17428008D01*
X11215301Y-17428008D02*
X11234348Y-17418484D01*
X11472444Y-17418484D02*
X11434348Y-17418484D01*
X11434348Y-17418484D02*
X11415301Y-17428008D01*
X11415301Y-17428008D02*
X11405777Y-17437531D01*
X11405777Y-17437531D02*
X11386729Y-17466103D01*
X11386729Y-17466103D02*
X11377206Y-17504198D01*
X11377206Y-17504198D02*
X11377206Y-17580389D01*
X11377206Y-17580389D02*
X11386729Y-17599436D01*
X11386729Y-17599436D02*
X11396253Y-17608960D01*
X11396253Y-17608960D02*
X11415301Y-17618484D01*
X11415301Y-17618484D02*
X11453396Y-17618484D01*
X11453396Y-17618484D02*
X11472444Y-17608960D01*
X11472444Y-17608960D02*
X11481967Y-17599436D01*
X11481967Y-17599436D02*
X11491491Y-17580389D01*
X11491491Y-17580389D02*
X11491491Y-17532770D01*
X11491491Y-17532770D02*
X11481967Y-17513722D01*
X11481967Y-17513722D02*
X11472444Y-17504198D01*
X11472444Y-17504198D02*
X11453396Y-17494674D01*
X11453396Y-17494674D02*
X11415301Y-17494674D01*
X11415301Y-17494674D02*
X11396253Y-17504198D01*
X11396253Y-17504198D02*
X11386729Y-17513722D01*
X11386729Y-17513722D02*
X11377206Y-17532770D01*
X11558158Y-17418484D02*
X11681967Y-17418484D01*
X11681967Y-17418484D02*
X11615301Y-17494674D01*
X11615301Y-17494674D02*
X11643872Y-17494674D01*
X11643872Y-17494674D02*
X11662920Y-17504198D01*
X11662920Y-17504198D02*
X11672444Y-17513722D01*
X11672444Y-17513722D02*
X11681967Y-17532770D01*
X11681967Y-17532770D02*
X11681967Y-17580389D01*
X11681967Y-17580389D02*
X11672444Y-17599436D01*
X11672444Y-17599436D02*
X11662920Y-17608960D01*
X11662920Y-17608960D02*
X11643872Y-17618484D01*
X11643872Y-17618484D02*
X11586729Y-17618484D01*
X11586729Y-17618484D02*
X11567682Y-17608960D01*
X11567682Y-17608960D02*
X11558158Y-17599436D01*
X11805777Y-17418484D02*
X11824825Y-17418484D01*
X11824825Y-17418484D02*
X11843872Y-17428008D01*
X11843872Y-17428008D02*
X11853396Y-17437531D01*
X11853396Y-17437531D02*
X11862920Y-17456579D01*
X11862920Y-17456579D02*
X11872444Y-17494674D01*
X11872444Y-17494674D02*
X11872444Y-17542293D01*
X11872444Y-17542293D02*
X11862920Y-17580389D01*
X11862920Y-17580389D02*
X11853396Y-17599436D01*
X11853396Y-17599436D02*
X11843872Y-17608960D01*
X11843872Y-17608960D02*
X11824825Y-17618484D01*
X11824825Y-17618484D02*
X11805777Y-17618484D01*
X11805777Y-17618484D02*
X11786729Y-17608960D01*
X11786729Y-17608960D02*
X11777206Y-17599436D01*
X11777206Y-17599436D02*
X11767682Y-17580389D01*
X11767682Y-17580389D02*
X11758158Y-17542293D01*
X11758158Y-17542293D02*
X11758158Y-17494674D01*
X11758158Y-17494674D02*
X11767682Y-17456579D01*
X11767682Y-17456579D02*
X11777206Y-17437531D01*
X11777206Y-17437531D02*
X11786729Y-17428008D01*
X11786729Y-17428008D02*
X11805777Y-17418484D01*
X11948634Y-17418484D02*
X11948634Y-17456579D01*
X12024825Y-17418484D02*
X12024825Y-17456579D01*
X12320063Y-17694674D02*
X12310539Y-17685150D01*
X12310539Y-17685150D02*
X12291491Y-17656579D01*
X12291491Y-17656579D02*
X12281968Y-17637531D01*
X12281968Y-17637531D02*
X12272444Y-17608960D01*
X12272444Y-17608960D02*
X12262920Y-17561341D01*
X12262920Y-17561341D02*
X12262920Y-17523246D01*
X12262920Y-17523246D02*
X12272444Y-17475627D01*
X12272444Y-17475627D02*
X12281968Y-17447055D01*
X12281968Y-17447055D02*
X12291491Y-17428008D01*
X12291491Y-17428008D02*
X12310539Y-17399436D01*
X12310539Y-17399436D02*
X12320063Y-17389912D01*
X12481968Y-17485150D02*
X12481968Y-17618484D01*
X12434348Y-17408960D02*
X12386729Y-17551817D01*
X12386729Y-17551817D02*
X12510539Y-17551817D01*
X12739110Y-17618484D02*
X12739110Y-17418484D01*
X12824825Y-17618484D02*
X12824825Y-17513722D01*
X12824825Y-17513722D02*
X12815301Y-17494674D01*
X12815301Y-17494674D02*
X12796253Y-17485150D01*
X12796253Y-17485150D02*
X12767682Y-17485150D01*
X12767682Y-17485150D02*
X12748634Y-17494674D01*
X12748634Y-17494674D02*
X12739110Y-17504198D01*
X12948634Y-17618484D02*
X12929587Y-17608960D01*
X12929587Y-17608960D02*
X12920063Y-17599436D01*
X12920063Y-17599436D02*
X12910539Y-17580389D01*
X12910539Y-17580389D02*
X12910539Y-17523246D01*
X12910539Y-17523246D02*
X12920063Y-17504198D01*
X12920063Y-17504198D02*
X12929587Y-17494674D01*
X12929587Y-17494674D02*
X12948634Y-17485150D01*
X12948634Y-17485150D02*
X12977206Y-17485150D01*
X12977206Y-17485150D02*
X12996253Y-17494674D01*
X12996253Y-17494674D02*
X13005777Y-17504198D01*
X13005777Y-17504198D02*
X13015301Y-17523246D01*
X13015301Y-17523246D02*
X13015301Y-17580389D01*
X13015301Y-17580389D02*
X13005777Y-17599436D01*
X13005777Y-17599436D02*
X12996253Y-17608960D01*
X12996253Y-17608960D02*
X12977206Y-17618484D01*
X12977206Y-17618484D02*
X12948634Y-17618484D01*
X13129587Y-17618484D02*
X13110539Y-17608960D01*
X13110539Y-17608960D02*
X13101015Y-17589912D01*
X13101015Y-17589912D02*
X13101015Y-17418484D01*
X13281968Y-17608960D02*
X13262920Y-17618484D01*
X13262920Y-17618484D02*
X13224825Y-17618484D01*
X13224825Y-17618484D02*
X13205777Y-17608960D01*
X13205777Y-17608960D02*
X13196253Y-17589912D01*
X13196253Y-17589912D02*
X13196253Y-17513722D01*
X13196253Y-17513722D02*
X13205777Y-17494674D01*
X13205777Y-17494674D02*
X13224825Y-17485150D01*
X13224825Y-17485150D02*
X13262920Y-17485150D01*
X13262920Y-17485150D02*
X13281968Y-17494674D01*
X13281968Y-17494674D02*
X13291491Y-17513722D01*
X13291491Y-17513722D02*
X13291491Y-17532770D01*
X13291491Y-17532770D02*
X13196253Y-17551817D01*
X13367682Y-17608960D02*
X13386730Y-17618484D01*
X13386730Y-17618484D02*
X13424825Y-17618484D01*
X13424825Y-17618484D02*
X13443872Y-17608960D01*
X13443872Y-17608960D02*
X13453396Y-17589912D01*
X13453396Y-17589912D02*
X13453396Y-17580389D01*
X13453396Y-17580389D02*
X13443872Y-17561341D01*
X13443872Y-17561341D02*
X13424825Y-17551817D01*
X13424825Y-17551817D02*
X13396253Y-17551817D01*
X13396253Y-17551817D02*
X13377206Y-17542293D01*
X13377206Y-17542293D02*
X13367682Y-17523246D01*
X13367682Y-17523246D02*
X13367682Y-17513722D01*
X13367682Y-17513722D02*
X13377206Y-17494674D01*
X13377206Y-17494674D02*
X13396253Y-17485150D01*
X13396253Y-17485150D02*
X13424825Y-17485150D01*
X13424825Y-17485150D02*
X13443872Y-17494674D01*
X13520063Y-17694674D02*
X13529587Y-17685150D01*
X13529587Y-17685150D02*
X13548634Y-17656579D01*
X13548634Y-17656579D02*
X13558158Y-17637531D01*
X13558158Y-17637531D02*
X13567682Y-17608960D01*
X13567682Y-17608960D02*
X13577206Y-17561341D01*
X13577206Y-17561341D02*
X13577206Y-17523246D01*
X13577206Y-17523246D02*
X13567682Y-17475627D01*
X13567682Y-17475627D02*
X13558158Y-17447055D01*
X13558158Y-17447055D02*
X13548634Y-17428008D01*
X13548634Y-17428008D02*
X13529587Y-17399436D01*
X13529587Y-17399436D02*
X13520063Y-17389912D01*
D21*
X8717103Y-17874353D02*
X8717103Y-17739647D01*
X8582397Y-17739647D01*
X8582397Y-17874353D01*
X8717103Y-17874353D01*
X8745000Y-17807000D02*
G75*
G03*
X8745000Y-17807000I-95250J0D01*
G01*
D10*
X9110539Y-17898484D02*
X8996253Y-17898484D01*
X9053396Y-17898484D02*
X9053396Y-17698484D01*
X9053396Y-17698484D02*
X9034348Y-17727055D01*
X9034348Y-17727055D02*
X9015301Y-17746103D01*
X9015301Y-17746103D02*
X8996253Y-17755627D01*
X9196253Y-17879436D02*
X9205777Y-17888960D01*
X9205777Y-17888960D02*
X9196253Y-17898484D01*
X9196253Y-17898484D02*
X9186729Y-17888960D01*
X9186729Y-17888960D02*
X9196253Y-17879436D01*
X9196253Y-17879436D02*
X9196253Y-17898484D01*
X9301015Y-17898484D02*
X9339110Y-17898484D01*
X9339110Y-17898484D02*
X9358158Y-17888960D01*
X9358158Y-17888960D02*
X9367682Y-17879436D01*
X9367682Y-17879436D02*
X9386729Y-17850865D01*
X9386729Y-17850865D02*
X9396253Y-17812770D01*
X9396253Y-17812770D02*
X9396253Y-17736579D01*
X9396253Y-17736579D02*
X9386729Y-17717531D01*
X9386729Y-17717531D02*
X9377205Y-17708008D01*
X9377205Y-17708008D02*
X9358158Y-17698484D01*
X9358158Y-17698484D02*
X9320063Y-17698484D01*
X9320063Y-17698484D02*
X9301015Y-17708008D01*
X9301015Y-17708008D02*
X9291491Y-17717531D01*
X9291491Y-17717531D02*
X9281967Y-17736579D01*
X9281967Y-17736579D02*
X9281967Y-17784198D01*
X9281967Y-17784198D02*
X9291491Y-17803246D01*
X9291491Y-17803246D02*
X9301015Y-17812770D01*
X9301015Y-17812770D02*
X9320063Y-17822293D01*
X9320063Y-17822293D02*
X9358158Y-17822293D01*
X9358158Y-17822293D02*
X9377205Y-17812770D01*
X9377205Y-17812770D02*
X9386729Y-17803246D01*
X9386729Y-17803246D02*
X9396253Y-17784198D01*
X9520063Y-17698484D02*
X9539110Y-17698484D01*
X9539110Y-17698484D02*
X9558158Y-17708008D01*
X9558158Y-17708008D02*
X9567682Y-17717531D01*
X9567682Y-17717531D02*
X9577205Y-17736579D01*
X9577205Y-17736579D02*
X9586729Y-17774674D01*
X9586729Y-17774674D02*
X9586729Y-17822293D01*
X9586729Y-17822293D02*
X9577205Y-17860389D01*
X9577205Y-17860389D02*
X9567682Y-17879436D01*
X9567682Y-17879436D02*
X9558158Y-17888960D01*
X9558158Y-17888960D02*
X9539110Y-17898484D01*
X9539110Y-17898484D02*
X9520063Y-17898484D01*
X9520063Y-17898484D02*
X9501015Y-17888960D01*
X9501015Y-17888960D02*
X9491491Y-17879436D01*
X9491491Y-17879436D02*
X9481967Y-17860389D01*
X9481967Y-17860389D02*
X9472444Y-17822293D01*
X9472444Y-17822293D02*
X9472444Y-17774674D01*
X9472444Y-17774674D02*
X9481967Y-17736579D01*
X9481967Y-17736579D02*
X9491491Y-17717531D01*
X9491491Y-17717531D02*
X9501015Y-17708008D01*
X9501015Y-17708008D02*
X9520063Y-17698484D01*
X9767682Y-17698484D02*
X9672444Y-17698484D01*
X9672444Y-17698484D02*
X9662920Y-17793722D01*
X9662920Y-17793722D02*
X9672444Y-17784198D01*
X9672444Y-17784198D02*
X9691491Y-17774674D01*
X9691491Y-17774674D02*
X9739110Y-17774674D01*
X9739110Y-17774674D02*
X9758158Y-17784198D01*
X9758158Y-17784198D02*
X9767682Y-17793722D01*
X9767682Y-17793722D02*
X9777205Y-17812770D01*
X9777205Y-17812770D02*
X9777205Y-17860389D01*
X9777205Y-17860389D02*
X9767682Y-17879436D01*
X9767682Y-17879436D02*
X9758158Y-17888960D01*
X9758158Y-17888960D02*
X9739110Y-17898484D01*
X9739110Y-17898484D02*
X9691491Y-17898484D01*
X9691491Y-17898484D02*
X9672444Y-17888960D01*
X9672444Y-17888960D02*
X9662920Y-17879436D01*
X9862920Y-17898484D02*
X9862920Y-17765150D01*
X9862920Y-17784198D02*
X9872444Y-17774674D01*
X9872444Y-17774674D02*
X9891491Y-17765150D01*
X9891491Y-17765150D02*
X9920063Y-17765150D01*
X9920063Y-17765150D02*
X9939110Y-17774674D01*
X9939110Y-17774674D02*
X9948634Y-17793722D01*
X9948634Y-17793722D02*
X9948634Y-17898484D01*
X9948634Y-17793722D02*
X9958158Y-17774674D01*
X9958158Y-17774674D02*
X9977205Y-17765150D01*
X9977205Y-17765150D02*
X10005777Y-17765150D01*
X10005777Y-17765150D02*
X10024825Y-17774674D01*
X10024825Y-17774674D02*
X10034348Y-17793722D01*
X10034348Y-17793722D02*
X10034348Y-17898484D01*
X10129586Y-17898484D02*
X10129586Y-17765150D01*
X10129586Y-17784198D02*
X10139110Y-17774674D01*
X10139110Y-17774674D02*
X10158158Y-17765150D01*
X10158158Y-17765150D02*
X10186729Y-17765150D01*
X10186729Y-17765150D02*
X10205777Y-17774674D01*
X10205777Y-17774674D02*
X10215301Y-17793722D01*
X10215301Y-17793722D02*
X10215301Y-17898484D01*
X10215301Y-17793722D02*
X10224825Y-17774674D01*
X10224825Y-17774674D02*
X10243872Y-17765150D01*
X10243872Y-17765150D02*
X10272444Y-17765150D01*
X10272444Y-17765150D02*
X10291491Y-17774674D01*
X10291491Y-17774674D02*
X10301015Y-17793722D01*
X10301015Y-17793722D02*
X10301015Y-17898484D01*
X10691491Y-17688960D02*
X10520063Y-17946103D01*
X10948634Y-17698484D02*
X10967682Y-17698484D01*
X10967682Y-17698484D02*
X10986729Y-17708008D01*
X10986729Y-17708008D02*
X10996253Y-17717531D01*
X10996253Y-17717531D02*
X11005777Y-17736579D01*
X11005777Y-17736579D02*
X11015301Y-17774674D01*
X11015301Y-17774674D02*
X11015301Y-17822293D01*
X11015301Y-17822293D02*
X11005777Y-17860389D01*
X11005777Y-17860389D02*
X10996253Y-17879436D01*
X10996253Y-17879436D02*
X10986729Y-17888960D01*
X10986729Y-17888960D02*
X10967682Y-17898484D01*
X10967682Y-17898484D02*
X10948634Y-17898484D01*
X10948634Y-17898484D02*
X10929587Y-17888960D01*
X10929587Y-17888960D02*
X10920063Y-17879436D01*
X10920063Y-17879436D02*
X10910539Y-17860389D01*
X10910539Y-17860389D02*
X10901015Y-17822293D01*
X10901015Y-17822293D02*
X10901015Y-17774674D01*
X10901015Y-17774674D02*
X10910539Y-17736579D01*
X10910539Y-17736579D02*
X10920063Y-17717531D01*
X10920063Y-17717531D02*
X10929587Y-17708008D01*
X10929587Y-17708008D02*
X10948634Y-17698484D01*
X11101015Y-17879436D02*
X11110539Y-17888960D01*
X11110539Y-17888960D02*
X11101015Y-17898484D01*
X11101015Y-17898484D02*
X11091491Y-17888960D01*
X11091491Y-17888960D02*
X11101015Y-17879436D01*
X11101015Y-17879436D02*
X11101015Y-17898484D01*
X11234348Y-17698484D02*
X11253396Y-17698484D01*
X11253396Y-17698484D02*
X11272444Y-17708008D01*
X11272444Y-17708008D02*
X11281967Y-17717531D01*
X11281967Y-17717531D02*
X11291491Y-17736579D01*
X11291491Y-17736579D02*
X11301015Y-17774674D01*
X11301015Y-17774674D02*
X11301015Y-17822293D01*
X11301015Y-17822293D02*
X11291491Y-17860389D01*
X11291491Y-17860389D02*
X11281967Y-17879436D01*
X11281967Y-17879436D02*
X11272444Y-17888960D01*
X11272444Y-17888960D02*
X11253396Y-17898484D01*
X11253396Y-17898484D02*
X11234348Y-17898484D01*
X11234348Y-17898484D02*
X11215301Y-17888960D01*
X11215301Y-17888960D02*
X11205777Y-17879436D01*
X11205777Y-17879436D02*
X11196253Y-17860389D01*
X11196253Y-17860389D02*
X11186729Y-17822293D01*
X11186729Y-17822293D02*
X11186729Y-17774674D01*
X11186729Y-17774674D02*
X11196253Y-17736579D01*
X11196253Y-17736579D02*
X11205777Y-17717531D01*
X11205777Y-17717531D02*
X11215301Y-17708008D01*
X11215301Y-17708008D02*
X11234348Y-17698484D01*
X11367682Y-17698484D02*
X11501015Y-17698484D01*
X11501015Y-17698484D02*
X11415301Y-17898484D01*
X11672444Y-17698484D02*
X11577206Y-17698484D01*
X11577206Y-17698484D02*
X11567682Y-17793722D01*
X11567682Y-17793722D02*
X11577206Y-17784198D01*
X11577206Y-17784198D02*
X11596253Y-17774674D01*
X11596253Y-17774674D02*
X11643872Y-17774674D01*
X11643872Y-17774674D02*
X11662920Y-17784198D01*
X11662920Y-17784198D02*
X11672444Y-17793722D01*
X11672444Y-17793722D02*
X11681967Y-17812770D01*
X11681967Y-17812770D02*
X11681967Y-17860389D01*
X11681967Y-17860389D02*
X11672444Y-17879436D01*
X11672444Y-17879436D02*
X11662920Y-17888960D01*
X11662920Y-17888960D02*
X11643872Y-17898484D01*
X11643872Y-17898484D02*
X11596253Y-17898484D01*
X11596253Y-17898484D02*
X11577206Y-17888960D01*
X11577206Y-17888960D02*
X11567682Y-17879436D01*
X11805777Y-17698484D02*
X11824825Y-17698484D01*
X11824825Y-17698484D02*
X11843872Y-17708008D01*
X11843872Y-17708008D02*
X11853396Y-17717531D01*
X11853396Y-17717531D02*
X11862920Y-17736579D01*
X11862920Y-17736579D02*
X11872444Y-17774674D01*
X11872444Y-17774674D02*
X11872444Y-17822293D01*
X11872444Y-17822293D02*
X11862920Y-17860389D01*
X11862920Y-17860389D02*
X11853396Y-17879436D01*
X11853396Y-17879436D02*
X11843872Y-17888960D01*
X11843872Y-17888960D02*
X11824825Y-17898484D01*
X11824825Y-17898484D02*
X11805777Y-17898484D01*
X11805777Y-17898484D02*
X11786729Y-17888960D01*
X11786729Y-17888960D02*
X11777206Y-17879436D01*
X11777206Y-17879436D02*
X11767682Y-17860389D01*
X11767682Y-17860389D02*
X11758158Y-17822293D01*
X11758158Y-17822293D02*
X11758158Y-17774674D01*
X11758158Y-17774674D02*
X11767682Y-17736579D01*
X11767682Y-17736579D02*
X11777206Y-17717531D01*
X11777206Y-17717531D02*
X11786729Y-17708008D01*
X11786729Y-17708008D02*
X11805777Y-17698484D01*
X11948634Y-17698484D02*
X11948634Y-17736579D01*
X12024825Y-17698484D02*
X12024825Y-17736579D01*
X12320063Y-17974674D02*
X12310539Y-17965150D01*
X12310539Y-17965150D02*
X12291491Y-17936579D01*
X12291491Y-17936579D02*
X12281968Y-17917531D01*
X12281968Y-17917531D02*
X12272444Y-17888960D01*
X12272444Y-17888960D02*
X12262920Y-17841341D01*
X12262920Y-17841341D02*
X12262920Y-17803246D01*
X12262920Y-17803246D02*
X12272444Y-17755627D01*
X12272444Y-17755627D02*
X12281968Y-17727055D01*
X12281968Y-17727055D02*
X12291491Y-17708008D01*
X12291491Y-17708008D02*
X12310539Y-17679436D01*
X12310539Y-17679436D02*
X12320063Y-17669912D01*
X12386729Y-17717531D02*
X12396253Y-17708008D01*
X12396253Y-17708008D02*
X12415301Y-17698484D01*
X12415301Y-17698484D02*
X12462920Y-17698484D01*
X12462920Y-17698484D02*
X12481968Y-17708008D01*
X12481968Y-17708008D02*
X12491491Y-17717531D01*
X12491491Y-17717531D02*
X12501015Y-17736579D01*
X12501015Y-17736579D02*
X12501015Y-17755627D01*
X12501015Y-17755627D02*
X12491491Y-17784198D01*
X12491491Y-17784198D02*
X12377206Y-17898484D01*
X12377206Y-17898484D02*
X12501015Y-17898484D01*
X12739110Y-17898484D02*
X12739110Y-17698484D01*
X12824825Y-17898484D02*
X12824825Y-17793722D01*
X12824825Y-17793722D02*
X12815301Y-17774674D01*
X12815301Y-17774674D02*
X12796253Y-17765150D01*
X12796253Y-17765150D02*
X12767682Y-17765150D01*
X12767682Y-17765150D02*
X12748634Y-17774674D01*
X12748634Y-17774674D02*
X12739110Y-17784198D01*
X12948634Y-17898484D02*
X12929587Y-17888960D01*
X12929587Y-17888960D02*
X12920063Y-17879436D01*
X12920063Y-17879436D02*
X12910539Y-17860389D01*
X12910539Y-17860389D02*
X12910539Y-17803246D01*
X12910539Y-17803246D02*
X12920063Y-17784198D01*
X12920063Y-17784198D02*
X12929587Y-17774674D01*
X12929587Y-17774674D02*
X12948634Y-17765150D01*
X12948634Y-17765150D02*
X12977206Y-17765150D01*
X12977206Y-17765150D02*
X12996253Y-17774674D01*
X12996253Y-17774674D02*
X13005777Y-17784198D01*
X13005777Y-17784198D02*
X13015301Y-17803246D01*
X13015301Y-17803246D02*
X13015301Y-17860389D01*
X13015301Y-17860389D02*
X13005777Y-17879436D01*
X13005777Y-17879436D02*
X12996253Y-17888960D01*
X12996253Y-17888960D02*
X12977206Y-17898484D01*
X12977206Y-17898484D02*
X12948634Y-17898484D01*
X13129587Y-17898484D02*
X13110539Y-17888960D01*
X13110539Y-17888960D02*
X13101015Y-17869912D01*
X13101015Y-17869912D02*
X13101015Y-17698484D01*
X13281968Y-17888960D02*
X13262920Y-17898484D01*
X13262920Y-17898484D02*
X13224825Y-17898484D01*
X13224825Y-17898484D02*
X13205777Y-17888960D01*
X13205777Y-17888960D02*
X13196253Y-17869912D01*
X13196253Y-17869912D02*
X13196253Y-17793722D01*
X13196253Y-17793722D02*
X13205777Y-17774674D01*
X13205777Y-17774674D02*
X13224825Y-17765150D01*
X13224825Y-17765150D02*
X13262920Y-17765150D01*
X13262920Y-17765150D02*
X13281968Y-17774674D01*
X13281968Y-17774674D02*
X13291491Y-17793722D01*
X13291491Y-17793722D02*
X13291491Y-17812770D01*
X13291491Y-17812770D02*
X13196253Y-17831817D01*
X13367682Y-17888960D02*
X13386730Y-17898484D01*
X13386730Y-17898484D02*
X13424825Y-17898484D01*
X13424825Y-17898484D02*
X13443872Y-17888960D01*
X13443872Y-17888960D02*
X13453396Y-17869912D01*
X13453396Y-17869912D02*
X13453396Y-17860389D01*
X13453396Y-17860389D02*
X13443872Y-17841341D01*
X13443872Y-17841341D02*
X13424825Y-17831817D01*
X13424825Y-17831817D02*
X13396253Y-17831817D01*
X13396253Y-17831817D02*
X13377206Y-17822293D01*
X13377206Y-17822293D02*
X13367682Y-17803246D01*
X13367682Y-17803246D02*
X13367682Y-17793722D01*
X13367682Y-17793722D02*
X13377206Y-17774674D01*
X13377206Y-17774674D02*
X13396253Y-17765150D01*
X13396253Y-17765150D02*
X13424825Y-17765150D01*
X13424825Y-17765150D02*
X13443872Y-17774674D01*
X13520063Y-17974674D02*
X13529587Y-17965150D01*
X13529587Y-17965150D02*
X13548634Y-17936579D01*
X13548634Y-17936579D02*
X13558158Y-17917531D01*
X13558158Y-17917531D02*
X13567682Y-17888960D01*
X13567682Y-17888960D02*
X13577206Y-17841341D01*
X13577206Y-17841341D02*
X13577206Y-17803246D01*
X13577206Y-17803246D02*
X13567682Y-17755627D01*
X13567682Y-17755627D02*
X13558158Y-17727055D01*
X13558158Y-17727055D02*
X13548634Y-17708008D01*
X13548634Y-17708008D02*
X13529587Y-17679436D01*
X13529587Y-17679436D02*
X13520063Y-17669912D01*
M02*
