G04 #@! TF.GenerationSoftware,KiCad,Pcbnew,7.0.7*
G04 #@! TF.CreationDate,2024-06-17T16:02:08-04:00*
G04 #@! TF.ProjectId,HVHF_IIB,48564846-5f49-4494-922e-6b696361645f,rev?*
G04 #@! TF.SameCoordinates,Original*
G04 #@! TF.FileFunction,Soldermask,Bot*
G04 #@! TF.FilePolarity,Negative*
%FSLAX46Y46*%
G04 Gerber Fmt 4.6, Leading zero omitted, Abs format (unit mm)*
G04 Created by KiCad (PCBNEW 7.0.7) date 2024-06-17 16:02:08*
%MOMM*%
%LPD*%
G01*
G04 APERTURE LIST*
%ADD10C,2.454000*%
%ADD11O,3.252000X1.728000*%
%ADD12R,3.200000X3.200000*%
%ADD13O,3.200000X3.200000*%
%ADD14C,1.498600*%
%ADD15C,2.304000*%
%ADD16R,1.574800X1.574800*%
%ADD17C,1.574800*%
%ADD18C,2.250000*%
%ADD19C,2.600000*%
%ADD20R,1.524000X1.524000*%
%ADD21C,1.524000*%
%ADD22C,1.320800*%
%ADD23R,1.320800X1.320800*%
%ADD24C,2.413000*%
G04 APERTURE END LIST*
D10*
X133080000Y-61000000D03*
X154920000Y-61000000D03*
D11*
X188020000Y-95899000D03*
X188020000Y-93613000D03*
X188020000Y-91327000D03*
D12*
X202000000Y-95620000D03*
D13*
X202000000Y-80380000D03*
D14*
X164391600Y-60620600D03*
X160891599Y-60620600D03*
D15*
X192000000Y-138840000D03*
D10*
X189450000Y-136290000D03*
X189450000Y-141390000D03*
X194550000Y-136290000D03*
X194550000Y-141390000D03*
D11*
X125770000Y-112899000D03*
X125770000Y-110613000D03*
X125770000Y-108327000D03*
X173020000Y-95899000D03*
X173020000Y-93613000D03*
X173020000Y-91327000D03*
X156770000Y-95899000D03*
X156770000Y-93613000D03*
X156770000Y-91327000D03*
D16*
X151000000Y-129000000D03*
D17*
X120774000Y-129000000D03*
D11*
X188020000Y-112899000D03*
X188020000Y-110613000D03*
X188020000Y-108327000D03*
X141770000Y-95899000D03*
X141770000Y-93613000D03*
X141770000Y-91327000D03*
D10*
X190250000Y-80420000D03*
X190250000Y-58580000D03*
D14*
X93000000Y-79650000D03*
X93000000Y-83150001D03*
D11*
X141770000Y-112899000D03*
X141770000Y-110613000D03*
X141770000Y-108327000D03*
D18*
X97540000Y-95000000D03*
X97540000Y-89920000D03*
X89920000Y-92460000D03*
D11*
X156770000Y-112899000D03*
X156770000Y-110613000D03*
X156770000Y-108327000D03*
D16*
X155000000Y-129000000D03*
D17*
X185226000Y-129000000D03*
D18*
X165800000Y-77113000D03*
X105800000Y-77113000D03*
D16*
X151000000Y-139000000D03*
D17*
X120774000Y-139000000D03*
D19*
X92000000Y-112000000D03*
D20*
X175500000Y-74027850D03*
D21*
X175500000Y-79031650D03*
D22*
X96780000Y-119000000D03*
X94240000Y-119000000D03*
D23*
X91700000Y-119000000D03*
D11*
X173020000Y-112899000D03*
X173020000Y-110613000D03*
X173020000Y-108327000D03*
D12*
X113380000Y-59000000D03*
D13*
X128620000Y-59000000D03*
D14*
X175750001Y-60500000D03*
X172250000Y-60500000D03*
D21*
X111000000Y-129750000D03*
D24*
X116080000Y-134830109D03*
D21*
X113540000Y-129750000D03*
D24*
X105920000Y-134830109D03*
D16*
X155000000Y-139000000D03*
D17*
X185226000Y-139000000D03*
D11*
X125770000Y-95899000D03*
X125770000Y-93613000D03*
X125770000Y-91327000D03*
M02*
