G04 #@! TF.GenerationSoftware,KiCad,Pcbnew,7.0.7*
G04 #@! TF.CreationDate,2024-05-31T20:17:07-04:00*
G04 #@! TF.ProjectId,HVHF_IIB,48564846-5f49-4494-922e-6b696361645f,rev?*
G04 #@! TF.SameCoordinates,Original*
G04 #@! TF.FileFunction,Copper,L3,Inr*
G04 #@! TF.FilePolarity,Positive*
%FSLAX46Y46*%
G04 Gerber Fmt 4.6, Leading zero omitted, Abs format (unit mm)*
G04 Created by KiCad (PCBNEW 7.0.7) date 2024-05-31 20:17:07*
%MOMM*%
%LPD*%
G01*
G04 APERTURE LIST*
G04 #@! TA.AperFunction,ComponentPad*
%ADD10O,1.524000X3.048000*%
G04 #@! TD*
G04 #@! TA.AperFunction,ComponentPad*
%ADD11C,1.498600*%
G04 #@! TD*
G04 #@! TA.AperFunction,ComponentPad*
%ADD12C,2.100000*%
G04 #@! TD*
G04 #@! TA.AperFunction,ComponentPad*
%ADD13C,2.250000*%
G04 #@! TD*
G04 #@! TA.AperFunction,ComponentPad*
%ADD14R,1.524000X1.524000*%
G04 #@! TD*
G04 #@! TA.AperFunction,ComponentPad*
%ADD15C,1.524000*%
G04 #@! TD*
G04 #@! TA.AperFunction,ComponentPad*
%ADD16C,1.320800*%
G04 #@! TD*
G04 #@! TA.AperFunction,ComponentPad*
%ADD17R,1.320800X1.320800*%
G04 #@! TD*
G04 #@! TA.AperFunction,ComponentPad*
%ADD18C,2.413000*%
G04 #@! TD*
G04 APERTURE END LIST*
D10*
X186286000Y-88730000D03*
X184000000Y-88730000D03*
X181714000Y-88730000D03*
D11*
X114620600Y-108608400D03*
X114620600Y-112108401D03*
D12*
X218840000Y-111000000D03*
D13*
X216290000Y-113550000D03*
X221390000Y-113550000D03*
X216290000Y-108450000D03*
X221390000Y-108450000D03*
D10*
X168286000Y-103730000D03*
X166000000Y-103730000D03*
X163714000Y-103730000D03*
X186286000Y-103730000D03*
X184000000Y-103730000D03*
X181714000Y-103730000D03*
X186286000Y-118730000D03*
X184000000Y-118730000D03*
X181714000Y-118730000D03*
X203286000Y-88730000D03*
X201000000Y-88730000D03*
X198714000Y-88730000D03*
X186286000Y-133730000D03*
X184000000Y-133730000D03*
X181714000Y-133730000D03*
X203286000Y-133730000D03*
X201000000Y-133730000D03*
X198714000Y-133730000D03*
D13*
X140040000Y-131960000D03*
X134960000Y-131960000D03*
X137500000Y-139580000D03*
D10*
X203286000Y-118730000D03*
X201000000Y-118730000D03*
X198714000Y-118730000D03*
D13*
X113000000Y-87000000D03*
X173000000Y-87000000D03*
D14*
X130000000Y-69000000D03*
D15*
X130000000Y-74003800D03*
D16*
X166000000Y-126920000D03*
X166000000Y-129460000D03*
D17*
X166000000Y-132000000D03*
D10*
X203286000Y-103730000D03*
X201000000Y-103730000D03*
X198714000Y-103730000D03*
D11*
X114000000Y-70499999D03*
X114000000Y-74000000D03*
D15*
X122000000Y-124000000D03*
X122000000Y-126540000D03*
D18*
X116919891Y-129080000D03*
X116919891Y-118920000D03*
D10*
X151286000Y-103730000D03*
X149000000Y-103730000D03*
X146714000Y-103730000D03*
G04 #@! TA.AperFunction,Conductor*
G36*
X223942539Y-63020185D02*
G01*
X223988294Y-63072989D01*
X223999500Y-63124500D01*
X223999500Y-141875500D01*
X223979815Y-141942539D01*
X223927011Y-141988294D01*
X223875500Y-141999500D01*
X107124500Y-141999500D01*
X107057461Y-141979815D01*
X107011706Y-141927011D01*
X107000500Y-141875500D01*
X107000500Y-139580000D01*
X135869975Y-139580000D01*
X135890042Y-139834989D01*
X135949752Y-140083702D01*
X136047634Y-140320012D01*
X136047636Y-140320015D01*
X136181275Y-140538095D01*
X136181286Y-140538110D01*
X136184533Y-140541911D01*
X136184535Y-140541911D01*
X136782331Y-139944114D01*
X136843654Y-139910629D01*
X136913345Y-139915613D01*
X136969279Y-139957484D01*
X136974707Y-139965350D01*
X136995187Y-139997620D01*
X136995188Y-139997621D01*
X137114902Y-140110039D01*
X137118273Y-140112489D01*
X137120274Y-140115084D01*
X137120590Y-140115381D01*
X137120542Y-140115431D01*
X137160937Y-140167821D01*
X137166913Y-140237435D01*
X137134305Y-140299228D01*
X137133065Y-140300486D01*
X136538087Y-140895464D01*
X136538087Y-140895465D01*
X136541888Y-140898712D01*
X136541898Y-140898719D01*
X136759984Y-141032363D01*
X136759987Y-141032365D01*
X136996297Y-141130247D01*
X137245011Y-141189957D01*
X137245010Y-141189957D01*
X137500000Y-141210024D01*
X137754989Y-141189957D01*
X138003702Y-141130247D01*
X138240012Y-141032365D01*
X138240015Y-141032363D01*
X138458103Y-140898719D01*
X138461912Y-140895464D01*
X137863234Y-140296787D01*
X137829749Y-140235464D01*
X137834733Y-140165773D01*
X137876604Y-140109839D01*
X137877949Y-140108847D01*
X137948492Y-140057595D01*
X138034871Y-139953180D01*
X138092768Y-139914074D01*
X138162620Y-139912478D01*
X138218094Y-139944541D01*
X138815464Y-140541912D01*
X138818719Y-140538103D01*
X138952363Y-140320015D01*
X138952365Y-140320012D01*
X139050247Y-140083702D01*
X139109957Y-139834989D01*
X139130024Y-139579999D01*
X139109957Y-139325010D01*
X139050247Y-139076297D01*
X138952365Y-138839987D01*
X138952363Y-138839984D01*
X138818719Y-138621898D01*
X138818712Y-138621888D01*
X138815465Y-138618087D01*
X138815464Y-138618087D01*
X138217667Y-139215884D01*
X138156344Y-139249369D01*
X138086652Y-139244385D01*
X138030719Y-139202513D01*
X138025290Y-139194646D01*
X138023771Y-139192252D01*
X138004814Y-139162381D01*
X137940942Y-139102402D01*
X137885097Y-139049960D01*
X137881732Y-139047515D01*
X137879731Y-139044920D01*
X137879410Y-139044619D01*
X137879458Y-139044567D01*
X137839064Y-138992187D01*
X137833082Y-138922574D01*
X137865685Y-138860778D01*
X137866932Y-138859513D01*
X138461911Y-138264535D01*
X138461911Y-138264533D01*
X138458110Y-138261286D01*
X138458095Y-138261275D01*
X138240015Y-138127636D01*
X138240012Y-138127634D01*
X138003702Y-138029752D01*
X137754988Y-137970042D01*
X137754989Y-137970042D01*
X137499999Y-137949975D01*
X137245010Y-137970042D01*
X136996297Y-138029752D01*
X136759987Y-138127634D01*
X136759984Y-138127636D01*
X136541897Y-138261280D01*
X136538087Y-138264534D01*
X137136765Y-138863212D01*
X137170250Y-138924535D01*
X137165266Y-138994227D01*
X137123394Y-139050160D01*
X137121970Y-139051210D01*
X137051510Y-139102402D01*
X137051508Y-139102405D01*
X136965130Y-139206818D01*
X136907230Y-139245925D01*
X136837378Y-139247521D01*
X136781905Y-139215458D01*
X136184534Y-138618087D01*
X136181280Y-138621897D01*
X136047636Y-138839984D01*
X136047634Y-138839987D01*
X135949752Y-139076297D01*
X135890042Y-139325010D01*
X135869975Y-139580000D01*
X107000500Y-139580000D01*
X107000500Y-134548695D01*
X180451500Y-134548695D01*
X180466767Y-134718340D01*
X180527221Y-134937392D01*
X180527227Y-134937407D01*
X180625824Y-135142146D01*
X180625828Y-135142154D01*
X180759399Y-135325999D01*
X180759405Y-135326007D01*
X180910916Y-135470866D01*
X180923662Y-135483052D01*
X181021322Y-135547517D01*
X181113319Y-135608244D01*
X181113321Y-135608245D01*
X181113323Y-135608246D01*
X181322289Y-135697562D01*
X181543846Y-135748131D01*
X181770871Y-135758327D01*
X181996068Y-135727822D01*
X182212200Y-135657596D01*
X182412319Y-135549908D01*
X182589993Y-135408217D01*
X182739512Y-135237078D01*
X182752045Y-135216101D01*
X182803324Y-135168650D01*
X182872121Y-135156453D01*
X182936591Y-135183388D01*
X182958809Y-135206817D01*
X183045399Y-135325999D01*
X183045405Y-135326007D01*
X183196916Y-135470866D01*
X183209662Y-135483052D01*
X183307322Y-135547516D01*
X183399319Y-135608244D01*
X183399321Y-135608245D01*
X183399323Y-135608246D01*
X183608289Y-135697562D01*
X183829846Y-135748131D01*
X184056871Y-135758327D01*
X184282068Y-135727822D01*
X184498200Y-135657596D01*
X184698319Y-135549908D01*
X184875993Y-135408217D01*
X185025512Y-135237078D01*
X185038045Y-135216101D01*
X185089324Y-135168650D01*
X185158121Y-135156453D01*
X185222591Y-135183388D01*
X185244809Y-135206817D01*
X185331399Y-135325999D01*
X185331405Y-135326007D01*
X185482916Y-135470866D01*
X185495662Y-135483052D01*
X185593322Y-135547517D01*
X185685319Y-135608244D01*
X185685321Y-135608245D01*
X185685323Y-135608246D01*
X185894289Y-135697562D01*
X186115846Y-135748131D01*
X186342871Y-135758327D01*
X186568068Y-135727822D01*
X186784200Y-135657596D01*
X186984319Y-135549908D01*
X187161993Y-135408217D01*
X187311512Y-135237078D01*
X187428071Y-135041992D01*
X187507922Y-134829229D01*
X187524153Y-134739788D01*
X187548500Y-134605630D01*
X187548500Y-134548695D01*
X197451500Y-134548695D01*
X197466767Y-134718340D01*
X197527221Y-134937392D01*
X197527227Y-134937407D01*
X197625824Y-135142146D01*
X197625828Y-135142154D01*
X197759399Y-135325999D01*
X197759405Y-135326007D01*
X197910916Y-135470866D01*
X197923662Y-135483052D01*
X198021322Y-135547516D01*
X198113319Y-135608244D01*
X198113321Y-135608245D01*
X198113323Y-135608246D01*
X198322289Y-135697562D01*
X198543846Y-135748131D01*
X198770871Y-135758327D01*
X198996068Y-135727822D01*
X199212200Y-135657596D01*
X199412319Y-135549908D01*
X199589993Y-135408217D01*
X199739512Y-135237078D01*
X199752045Y-135216101D01*
X199803324Y-135168650D01*
X199872121Y-135156453D01*
X199936591Y-135183388D01*
X199958809Y-135206817D01*
X200045399Y-135325999D01*
X200045405Y-135326007D01*
X200196916Y-135470866D01*
X200209662Y-135483052D01*
X200307322Y-135547516D01*
X200399319Y-135608244D01*
X200399321Y-135608245D01*
X200399323Y-135608246D01*
X200608289Y-135697562D01*
X200829846Y-135748131D01*
X201056871Y-135758327D01*
X201282068Y-135727822D01*
X201498200Y-135657596D01*
X201698319Y-135549908D01*
X201875993Y-135408217D01*
X202025512Y-135237078D01*
X202038324Y-135215633D01*
X202089603Y-135168183D01*
X202158400Y-135155986D01*
X202222870Y-135182921D01*
X202245088Y-135206350D01*
X202331780Y-135325672D01*
X202331784Y-135325677D01*
X202495976Y-135482659D01*
X202685560Y-135607803D01*
X202894439Y-135697083D01*
X202894448Y-135697086D01*
X203035998Y-135729393D01*
X203035999Y-135729393D01*
X203035999Y-134350383D01*
X203055684Y-134283344D01*
X203108488Y-134237589D01*
X203177645Y-134227645D01*
X203249666Y-134238000D01*
X203249669Y-134238000D01*
X203322331Y-134238000D01*
X203322334Y-134238000D01*
X203394353Y-134227645D01*
X203463510Y-134237589D01*
X203516314Y-134283343D01*
X203535999Y-134350383D01*
X203535999Y-135731659D01*
X203536000Y-135731660D01*
X203567952Y-135727333D01*
X203784003Y-135657134D01*
X203984039Y-135549490D01*
X203984042Y-135549488D01*
X204161646Y-135407854D01*
X204311100Y-135236789D01*
X204311107Y-135236781D01*
X204427615Y-135041781D01*
X204427619Y-135041773D01*
X204507438Y-134829095D01*
X204548000Y-134605585D01*
X204548000Y-133980000D01*
X203907684Y-133980000D01*
X203840645Y-133960315D01*
X203794890Y-133907511D01*
X203784946Y-133838353D01*
X203788707Y-133821064D01*
X203794000Y-133803038D01*
X203794000Y-133656961D01*
X203788707Y-133638936D01*
X203788706Y-133569067D01*
X203826480Y-133510288D01*
X203890036Y-133481262D01*
X203907684Y-133480000D01*
X204547999Y-133480000D01*
X204548000Y-132911330D01*
X204547999Y-132911327D01*
X204532738Y-132741749D01*
X204472307Y-132522782D01*
X204472302Y-132522769D01*
X204373743Y-132318108D01*
X204373737Y-132318098D01*
X204240219Y-132134327D01*
X204240215Y-132134322D01*
X204076023Y-131977340D01*
X203886439Y-131852196D01*
X203677559Y-131762916D01*
X203677550Y-131762913D01*
X203536000Y-131730605D01*
X203536000Y-133109616D01*
X203516315Y-133176655D01*
X203463511Y-133222410D01*
X203394355Y-133232354D01*
X203322337Y-133222000D01*
X203322334Y-133222000D01*
X203249666Y-133222000D01*
X203249662Y-133222000D01*
X203177645Y-133232354D01*
X203108487Y-133222410D01*
X203055684Y-133176654D01*
X203036000Y-133109616D01*
X203036000Y-131728339D01*
X203004040Y-131732669D01*
X203004038Y-131732669D01*
X202787996Y-131802865D01*
X202587960Y-131910509D01*
X202587957Y-131910511D01*
X202410353Y-132052145D01*
X202260899Y-132223210D01*
X202260896Y-132223214D01*
X202248275Y-132244338D01*
X202196991Y-132291791D01*
X202128194Y-132303985D01*
X202063725Y-132277049D01*
X202041510Y-132253622D01*
X201954600Y-132134000D01*
X201954594Y-132133992D01*
X201790339Y-131976949D01*
X201790338Y-131976948D01*
X201741507Y-131944715D01*
X201600680Y-131851755D01*
X201532208Y-131822489D01*
X201391711Y-131762438D01*
X201391704Y-131762436D01*
X201391700Y-131762435D01*
X201170159Y-131711870D01*
X201170155Y-131711869D01*
X201170154Y-131711869D01*
X201170153Y-131711868D01*
X201170148Y-131711868D01*
X200943132Y-131701673D01*
X200943131Y-131701673D01*
X200943129Y-131701673D01*
X200830530Y-131716925D01*
X200717929Y-131732178D01*
X200501797Y-131802405D01*
X200301679Y-131910093D01*
X200124006Y-132051782D01*
X199974493Y-132222915D01*
X199974490Y-132222918D01*
X199961954Y-132243900D01*
X199910669Y-132291352D01*
X199841872Y-132303545D01*
X199777404Y-132276608D01*
X199755194Y-132253187D01*
X199668596Y-132133995D01*
X199668594Y-132133993D01*
X199668594Y-132133992D01*
X199504339Y-131976949D01*
X199504338Y-131976948D01*
X199455507Y-131944715D01*
X199314680Y-131851755D01*
X199246208Y-131822489D01*
X199105711Y-131762438D01*
X199105704Y-131762436D01*
X199105700Y-131762435D01*
X198884159Y-131711870D01*
X198884155Y-131711869D01*
X198884154Y-131711869D01*
X198884153Y-131711868D01*
X198884148Y-131711868D01*
X198657132Y-131701673D01*
X198657131Y-131701673D01*
X198657129Y-131701673D01*
X198544530Y-131716925D01*
X198431929Y-131732178D01*
X198215797Y-131802405D01*
X198015679Y-131910093D01*
X197838006Y-132051782D01*
X197688493Y-132222915D01*
X197688487Y-132222923D01*
X197571932Y-132418001D01*
X197571930Y-132418006D01*
X197492077Y-132630771D01*
X197492077Y-132630772D01*
X197451500Y-132854369D01*
X197451500Y-134548695D01*
X187548500Y-134548695D01*
X187548500Y-132911306D01*
X187548500Y-132911301D01*
X187533232Y-132741661D01*
X187533232Y-132741659D01*
X187472778Y-132522607D01*
X187472772Y-132522592D01*
X187374175Y-132317853D01*
X187374171Y-132317845D01*
X187240600Y-132134000D01*
X187240594Y-132133992D01*
X187076339Y-131976949D01*
X187076338Y-131976948D01*
X187027507Y-131944715D01*
X186886680Y-131851755D01*
X186818208Y-131822489D01*
X186677711Y-131762438D01*
X186677704Y-131762436D01*
X186677700Y-131762435D01*
X186456159Y-131711870D01*
X186456155Y-131711869D01*
X186456154Y-131711869D01*
X186456153Y-131711868D01*
X186456148Y-131711868D01*
X186229132Y-131701673D01*
X186229131Y-131701673D01*
X186229129Y-131701673D01*
X186116530Y-131716925D01*
X186003929Y-131732178D01*
X185787797Y-131802405D01*
X185587679Y-131910093D01*
X185410006Y-132051782D01*
X185260493Y-132222915D01*
X185260490Y-132222918D01*
X185247954Y-132243900D01*
X185196669Y-132291352D01*
X185127872Y-132303545D01*
X185063404Y-132276608D01*
X185041194Y-132253187D01*
X184954596Y-132133995D01*
X184954594Y-132133993D01*
X184954594Y-132133992D01*
X184790339Y-131976949D01*
X184790338Y-131976948D01*
X184741507Y-131944715D01*
X184600680Y-131851755D01*
X184532208Y-131822489D01*
X184391711Y-131762438D01*
X184391704Y-131762436D01*
X184391700Y-131762435D01*
X184170159Y-131711870D01*
X184170155Y-131711869D01*
X184170154Y-131711869D01*
X184170153Y-131711868D01*
X184170148Y-131711868D01*
X183943132Y-131701673D01*
X183943131Y-131701673D01*
X183943129Y-131701673D01*
X183830530Y-131716925D01*
X183717929Y-131732178D01*
X183501797Y-131802405D01*
X183301679Y-131910093D01*
X183124006Y-132051782D01*
X182974493Y-132222915D01*
X182974490Y-132222918D01*
X182961954Y-132243900D01*
X182910669Y-132291352D01*
X182841872Y-132303545D01*
X182777404Y-132276608D01*
X182755194Y-132253187D01*
X182668596Y-132133995D01*
X182668594Y-132133993D01*
X182668594Y-132133992D01*
X182504339Y-131976949D01*
X182504338Y-131976948D01*
X182455507Y-131944715D01*
X182314680Y-131851755D01*
X182246208Y-131822489D01*
X182105711Y-131762438D01*
X182105704Y-131762436D01*
X182105700Y-131762435D01*
X181884159Y-131711870D01*
X181884155Y-131711869D01*
X181884154Y-131711869D01*
X181884153Y-131711868D01*
X181884148Y-131711868D01*
X181657132Y-131701673D01*
X181657131Y-131701673D01*
X181657129Y-131701673D01*
X181544530Y-131716925D01*
X181431929Y-131732178D01*
X181215797Y-131802405D01*
X181015679Y-131910093D01*
X180838006Y-132051782D01*
X180688493Y-132222915D01*
X180688487Y-132222923D01*
X180571932Y-132418001D01*
X180571930Y-132418006D01*
X180492077Y-132630771D01*
X180492077Y-132630772D01*
X180451500Y-132854369D01*
X180451500Y-134548695D01*
X107000500Y-134548695D01*
X107000500Y-134500000D01*
X137499458Y-134500000D01*
X137499617Y-134500383D01*
X137500000Y-134500542D01*
X137500383Y-134500383D01*
X137500542Y-134500000D01*
X137500383Y-134499617D01*
X137500000Y-134499458D01*
X137499617Y-134499617D01*
X137499458Y-134500000D01*
X107000500Y-134500000D01*
X107000500Y-131960000D01*
X133329474Y-131960000D01*
X133349547Y-132215064D01*
X133349547Y-132215067D01*
X133349548Y-132215070D01*
X133374283Y-132318098D01*
X133409279Y-132463864D01*
X133507188Y-132700239D01*
X133507190Y-132700242D01*
X133640875Y-132918396D01*
X133640878Y-132918401D01*
X133716200Y-133006591D01*
X133807044Y-133112956D01*
X133886580Y-133180886D01*
X134001598Y-133279121D01*
X134001600Y-133279122D01*
X134001601Y-133279123D01*
X134188917Y-133393910D01*
X134219757Y-133412809D01*
X134219760Y-133412811D01*
X134381970Y-133480000D01*
X134456140Y-133510722D01*
X134704930Y-133570452D01*
X134960000Y-133590526D01*
X135215070Y-133570452D01*
X135463860Y-133510722D01*
X135582051Y-133461765D01*
X135700239Y-133412811D01*
X135700240Y-133412810D01*
X135700243Y-133412809D01*
X135918399Y-133279123D01*
X135977001Y-133229072D01*
X136229072Y-133229072D01*
X136229616Y-133230382D01*
X136229617Y-133230383D01*
X136230000Y-133230542D01*
X136230383Y-133230383D01*
X136230542Y-133230000D01*
X136230383Y-133229617D01*
X136230382Y-133229616D01*
X136229072Y-133229072D01*
X135977001Y-133229072D01*
X136033421Y-133180885D01*
X136097180Y-133152315D01*
X136166001Y-133162711D01*
X136151251Y-133118277D01*
X136168585Y-133050591D01*
X136180881Y-133033425D01*
X136279123Y-132918399D01*
X136412809Y-132700243D01*
X136510722Y-132463860D01*
X136570452Y-132215070D01*
X136590526Y-131960000D01*
X138409474Y-131960000D01*
X138429547Y-132215064D01*
X138429547Y-132215067D01*
X138429548Y-132215070D01*
X138454283Y-132318098D01*
X138489279Y-132463864D01*
X138587188Y-132700239D01*
X138587190Y-132700242D01*
X138720875Y-132918396D01*
X138720878Y-132918401D01*
X138796200Y-133006591D01*
X138887044Y-133112956D01*
X138966580Y-133180886D01*
X139081598Y-133279121D01*
X139081600Y-133279122D01*
X139081601Y-133279123D01*
X139268917Y-133393910D01*
X139299757Y-133412809D01*
X139299760Y-133412811D01*
X139461970Y-133480000D01*
X139536140Y-133510722D01*
X139784930Y-133570452D01*
X140040000Y-133590526D01*
X140295070Y-133570452D01*
X140543860Y-133510722D01*
X140662051Y-133461765D01*
X140780239Y-133412811D01*
X140780240Y-133412810D01*
X140780243Y-133412809D01*
X140998399Y-133279123D01*
X141192956Y-133112956D01*
X141359123Y-132918399D01*
X141492809Y-132700243D01*
X141590722Y-132463860D01*
X141650452Y-132215070D01*
X141670526Y-131960000D01*
X141650452Y-131704930D01*
X141590722Y-131456140D01*
X141522632Y-131291755D01*
X141492811Y-131219760D01*
X141492809Y-131219757D01*
X141417898Y-131097513D01*
X141359123Y-131001601D01*
X141359122Y-131001600D01*
X141359121Y-131001598D01*
X141269144Y-130896249D01*
X141192956Y-130807044D01*
X141036547Y-130673458D01*
X140998401Y-130640878D01*
X140998396Y-130640875D01*
X140780242Y-130507190D01*
X140780239Y-130507188D01*
X140543864Y-130409279D01*
X140465174Y-130390387D01*
X140295070Y-130349548D01*
X140295067Y-130349547D01*
X140295064Y-130349547D01*
X140040000Y-130329474D01*
X139784935Y-130349547D01*
X139784931Y-130349547D01*
X139784930Y-130349548D01*
X139660534Y-130379412D01*
X139536135Y-130409279D01*
X139299760Y-130507188D01*
X139299757Y-130507190D01*
X139081603Y-130640875D01*
X139081598Y-130640878D01*
X138887044Y-130807044D01*
X138720878Y-131001598D01*
X138720875Y-131001603D01*
X138587190Y-131219757D01*
X138587188Y-131219760D01*
X138489279Y-131456135D01*
X138429547Y-131704935D01*
X138409474Y-131960000D01*
X136590526Y-131960000D01*
X136570452Y-131704930D01*
X136510722Y-131456140D01*
X136442632Y-131291755D01*
X136412811Y-131219760D01*
X136412809Y-131219757D01*
X136337898Y-131097513D01*
X136279123Y-131001601D01*
X136279122Y-131001600D01*
X136279121Y-131001598D01*
X136189144Y-130896249D01*
X136112956Y-130807044D01*
X135956547Y-130673458D01*
X135918401Y-130640878D01*
X135918396Y-130640875D01*
X135700242Y-130507190D01*
X135700239Y-130507188D01*
X135463864Y-130409279D01*
X135385174Y-130390387D01*
X135215070Y-130349548D01*
X135215067Y-130349547D01*
X135215064Y-130349547D01*
X134960000Y-130329474D01*
X134704935Y-130349547D01*
X134704931Y-130349547D01*
X134704930Y-130349548D01*
X134580534Y-130379412D01*
X134456135Y-130409279D01*
X134219760Y-130507188D01*
X134219757Y-130507190D01*
X134001603Y-130640875D01*
X134001598Y-130640878D01*
X133807044Y-130807044D01*
X133640878Y-131001598D01*
X133640875Y-131001603D01*
X133507190Y-131219757D01*
X133507188Y-131219760D01*
X133409279Y-131456135D01*
X133349547Y-131704935D01*
X133329474Y-131960000D01*
X107000500Y-131960000D01*
X107000500Y-129080004D01*
X115208104Y-129080004D01*
X115227221Y-129335119D01*
X115227222Y-129335124D01*
X115284150Y-129584544D01*
X115284152Y-129584553D01*
X115284154Y-129584558D01*
X115377624Y-129822717D01*
X115505546Y-130044284D01*
X115634386Y-130205844D01*
X115665065Y-130244315D01*
X115756846Y-130329474D01*
X115852609Y-130418329D01*
X116063998Y-130562451D01*
X116294505Y-130673458D01*
X116538983Y-130748869D01*
X116538984Y-130748869D01*
X116538987Y-130748870D01*
X116791961Y-130786999D01*
X116791966Y-130786999D01*
X116791969Y-130787000D01*
X116791970Y-130787000D01*
X117047812Y-130787000D01*
X117047813Y-130787000D01*
X117047820Y-130786999D01*
X117300794Y-130748870D01*
X117300795Y-130748869D01*
X117300799Y-130748869D01*
X117545277Y-130673458D01*
X117775785Y-130562451D01*
X117987173Y-130418329D01*
X118174720Y-130244311D01*
X118334236Y-130044284D01*
X118462158Y-129822717D01*
X118555628Y-129584558D01*
X118584058Y-129460000D01*
X164834127Y-129460000D01*
X164853977Y-129674228D01*
X164912855Y-129881159D01*
X164912860Y-129881172D01*
X165008751Y-130073746D01*
X165008753Y-130073749D01*
X165008755Y-130073753D01*
X165138409Y-130245444D01*
X165138412Y-130245446D01*
X165138414Y-130245449D01*
X165297402Y-130390385D01*
X165297404Y-130390386D01*
X165297405Y-130390387D01*
X165480326Y-130503647D01*
X165680944Y-130581367D01*
X165746983Y-130593712D01*
X165809263Y-130625379D01*
X165844536Y-130685692D01*
X165841602Y-130755500D01*
X165801393Y-130812640D01*
X165736675Y-130838971D01*
X165724197Y-130839600D01*
X165291755Y-130839600D01*
X165232227Y-130846001D01*
X165232220Y-130846003D01*
X165097513Y-130896245D01*
X165097506Y-130896249D01*
X164982412Y-130982409D01*
X164982409Y-130982412D01*
X164896249Y-131097506D01*
X164896245Y-131097513D01*
X164846003Y-131232220D01*
X164846001Y-131232227D01*
X164839600Y-131291755D01*
X164839600Y-131750000D01*
X165482945Y-131750000D01*
X165549984Y-131769685D01*
X165595739Y-131822489D01*
X165605683Y-131891647D01*
X165605418Y-131893398D01*
X165588534Y-131999998D01*
X165588534Y-132000001D01*
X165605418Y-132106602D01*
X165596464Y-132175895D01*
X165551467Y-132229347D01*
X165484716Y-132249987D01*
X165482945Y-132250000D01*
X164839600Y-132250000D01*
X164839600Y-132708244D01*
X164846001Y-132767772D01*
X164846003Y-132767779D01*
X164896245Y-132902486D01*
X164896249Y-132902493D01*
X164982409Y-133017587D01*
X164982412Y-133017590D01*
X165097506Y-133103750D01*
X165097513Y-133103754D01*
X165232220Y-133153996D01*
X165232227Y-133153998D01*
X165291755Y-133160399D01*
X165291772Y-133160400D01*
X165750000Y-133160400D01*
X165750000Y-132517055D01*
X165769685Y-132450016D01*
X165822489Y-132404261D01*
X165891647Y-132394317D01*
X165893397Y-132394582D01*
X165968014Y-132406400D01*
X165968015Y-132406400D01*
X166031985Y-132406400D01*
X166106603Y-132394582D01*
X166175896Y-132403537D01*
X166229348Y-132448533D01*
X166249987Y-132515285D01*
X166250000Y-132517055D01*
X166250000Y-133160400D01*
X166708228Y-133160400D01*
X166708244Y-133160399D01*
X166767772Y-133153998D01*
X166767779Y-133153996D01*
X166902486Y-133103754D01*
X166902493Y-133103750D01*
X167017587Y-133017590D01*
X167017590Y-133017587D01*
X167103750Y-132902493D01*
X167103754Y-132902486D01*
X167153996Y-132767779D01*
X167153998Y-132767772D01*
X167160399Y-132708244D01*
X167160400Y-132708227D01*
X167160400Y-132250000D01*
X166517055Y-132250000D01*
X166450016Y-132230315D01*
X166404261Y-132177511D01*
X166394317Y-132108353D01*
X166394582Y-132106602D01*
X166411466Y-132000001D01*
X166411466Y-131999998D01*
X166394582Y-131893398D01*
X166403536Y-131824105D01*
X166448533Y-131770653D01*
X166515284Y-131750013D01*
X166517055Y-131750000D01*
X167160400Y-131750000D01*
X167160400Y-131291772D01*
X167160399Y-131291755D01*
X167153998Y-131232227D01*
X167153996Y-131232220D01*
X167103754Y-131097513D01*
X167103750Y-131097506D01*
X167017590Y-130982412D01*
X167017587Y-130982409D01*
X166902493Y-130896249D01*
X166902486Y-130896245D01*
X166767779Y-130846003D01*
X166767772Y-130846001D01*
X166708244Y-130839600D01*
X166275803Y-130839600D01*
X166208764Y-130819915D01*
X166163009Y-130767111D01*
X166153065Y-130697953D01*
X166182090Y-130634397D01*
X166240868Y-130596623D01*
X166253005Y-130593713D01*
X166319056Y-130581367D01*
X166519674Y-130503647D01*
X166702595Y-130390387D01*
X166861591Y-130245444D01*
X166991245Y-130073753D01*
X167087144Y-129881162D01*
X167146022Y-129674229D01*
X167165873Y-129460000D01*
X167146022Y-129245771D01*
X167087144Y-129038838D01*
X166991245Y-128846247D01*
X166861591Y-128674556D01*
X166861587Y-128674552D01*
X166861585Y-128674550D01*
X166702597Y-128529614D01*
X166662811Y-128504979D01*
X166519674Y-128416353D01*
X166319056Y-128338633D01*
X166175983Y-128311888D01*
X166113704Y-128280221D01*
X166078431Y-128219908D01*
X166081365Y-128150100D01*
X166121574Y-128092960D01*
X166175982Y-128068111D01*
X166319056Y-128041367D01*
X166519674Y-127963647D01*
X166702595Y-127850387D01*
X166861591Y-127705444D01*
X166991245Y-127533753D01*
X167087144Y-127341162D01*
X167146022Y-127134229D01*
X167165873Y-126920000D01*
X167146022Y-126705771D01*
X167087144Y-126498838D01*
X167071271Y-126466961D01*
X166991248Y-126306253D01*
X166991247Y-126306252D01*
X166991245Y-126306247D01*
X166861591Y-126134556D01*
X166861587Y-126134552D01*
X166861585Y-126134550D01*
X166702597Y-125989614D01*
X166662811Y-125964979D01*
X166519674Y-125876353D01*
X166319056Y-125798633D01*
X166107573Y-125759100D01*
X165892427Y-125759100D01*
X165680944Y-125798633D01*
X165554075Y-125847782D01*
X165480328Y-125876352D01*
X165480327Y-125876352D01*
X165297402Y-125989614D01*
X165138414Y-126134550D01*
X165138407Y-126134558D01*
X165008760Y-126306239D01*
X165008751Y-126306253D01*
X164912860Y-126498827D01*
X164912855Y-126498840D01*
X164853977Y-126705771D01*
X164834127Y-126919999D01*
X164834127Y-126920000D01*
X164853977Y-127134228D01*
X164912855Y-127341159D01*
X164912860Y-127341172D01*
X165008751Y-127533746D01*
X165008753Y-127533749D01*
X165008755Y-127533753D01*
X165138409Y-127705444D01*
X165138412Y-127705446D01*
X165138414Y-127705449D01*
X165297402Y-127850385D01*
X165297404Y-127850386D01*
X165297405Y-127850387D01*
X165480326Y-127963647D01*
X165680944Y-128041367D01*
X165824015Y-128068111D01*
X165886295Y-128099779D01*
X165921568Y-128160092D01*
X165918634Y-128229900D01*
X165878425Y-128287040D01*
X165824015Y-128311888D01*
X165680944Y-128338633D01*
X165554075Y-128387782D01*
X165480328Y-128416352D01*
X165480327Y-128416352D01*
X165297402Y-128529614D01*
X165138414Y-128674550D01*
X165138407Y-128674558D01*
X165008760Y-128846239D01*
X165008751Y-128846253D01*
X164912860Y-129038827D01*
X164912855Y-129038840D01*
X164853977Y-129245771D01*
X164834127Y-129459999D01*
X164834127Y-129460000D01*
X118584058Y-129460000D01*
X118612559Y-129335129D01*
X118612560Y-129335119D01*
X118631678Y-129080004D01*
X118631678Y-129079995D01*
X118612560Y-128824880D01*
X118612559Y-128824875D01*
X118612559Y-128824871D01*
X118555628Y-128575442D01*
X118462158Y-128337283D01*
X118334236Y-128115716D01*
X118174720Y-127915689D01*
X118174719Y-127915688D01*
X118174716Y-127915684D01*
X117987173Y-127741671D01*
X117934033Y-127705441D01*
X117775785Y-127597549D01*
X117775781Y-127597547D01*
X117775778Y-127597545D01*
X117775776Y-127597544D01*
X117545279Y-127486543D01*
X117545281Y-127486543D01*
X117300800Y-127411131D01*
X117300794Y-127411129D01*
X117047820Y-127373000D01*
X117047813Y-127373000D01*
X116791969Y-127373000D01*
X116791961Y-127373000D01*
X116538987Y-127411129D01*
X116538981Y-127411131D01*
X116294504Y-127486542D01*
X116064001Y-127597547D01*
X116063997Y-127597549D01*
X115852611Y-127741669D01*
X115665065Y-127915684D01*
X115505546Y-128115716D01*
X115377624Y-128337282D01*
X115284156Y-128575436D01*
X115284150Y-128575455D01*
X115227222Y-128824875D01*
X115227221Y-128824880D01*
X115208104Y-129079995D01*
X115208104Y-129080004D01*
X107000500Y-129080004D01*
X107000500Y-124000002D01*
X120732677Y-124000002D01*
X120751929Y-124220062D01*
X120751930Y-124220070D01*
X120809104Y-124433445D01*
X120809105Y-124433447D01*
X120809106Y-124433450D01*
X120902466Y-124633661D01*
X120902466Y-124633662D01*
X120902468Y-124633666D01*
X121029170Y-124814615D01*
X121029175Y-124814621D01*
X121185378Y-124970824D01*
X121185384Y-124970829D01*
X121366333Y-125097531D01*
X121366335Y-125097532D01*
X121366338Y-125097534D01*
X121495781Y-125157894D01*
X121548220Y-125204066D01*
X121567372Y-125271260D01*
X121547156Y-125338141D01*
X121495781Y-125382658D01*
X121366586Y-125442903D01*
X121301812Y-125488257D01*
X121301811Y-125488258D01*
X121735115Y-125921562D01*
X121768600Y-125982885D01*
X121763616Y-126052577D01*
X121728637Y-126102955D01*
X121612133Y-126203907D01*
X121612129Y-126203912D01*
X121577257Y-126258174D01*
X121524453Y-126303929D01*
X121455294Y-126313872D01*
X121391739Y-126284847D01*
X121385261Y-126278815D01*
X120948258Y-125841811D01*
X120948257Y-125841812D01*
X120902903Y-125906586D01*
X120809579Y-126106720D01*
X120809575Y-126106729D01*
X120752426Y-126320013D01*
X120752424Y-126320023D01*
X120733179Y-126539999D01*
X120733179Y-126540000D01*
X120752424Y-126759976D01*
X120752426Y-126759986D01*
X120809575Y-126973270D01*
X120809580Y-126973284D01*
X120902899Y-127173407D01*
X120902900Y-127173409D01*
X120948258Y-127238187D01*
X121385260Y-126801184D01*
X121446583Y-126767699D01*
X121516274Y-126772683D01*
X121572208Y-126814554D01*
X121577256Y-126821825D01*
X121612129Y-126876087D01*
X121612133Y-126876092D01*
X121728636Y-126977044D01*
X121766410Y-127035822D01*
X121766410Y-127105692D01*
X121735114Y-127158437D01*
X121301811Y-127591740D01*
X121301811Y-127591741D01*
X121366582Y-127637094D01*
X121366592Y-127637100D01*
X121566715Y-127730419D01*
X121566729Y-127730424D01*
X121780013Y-127787573D01*
X121780023Y-127787575D01*
X121999999Y-127806821D01*
X122000001Y-127806821D01*
X122219976Y-127787575D01*
X122219986Y-127787573D01*
X122433270Y-127730424D01*
X122433284Y-127730419D01*
X122633408Y-127637100D01*
X122633420Y-127637093D01*
X122698186Y-127591742D01*
X122698187Y-127591740D01*
X122264884Y-127158437D01*
X122231399Y-127097114D01*
X122236383Y-127027422D01*
X122271362Y-126977043D01*
X122277465Y-126971753D01*
X122277470Y-126971752D01*
X122387869Y-126876090D01*
X122422742Y-126821825D01*
X122475544Y-126776071D01*
X122544702Y-126766127D01*
X122608258Y-126795151D01*
X122614738Y-126801184D01*
X123051741Y-127238187D01*
X123051742Y-127238186D01*
X123097093Y-127173420D01*
X123097100Y-127173408D01*
X123190419Y-126973284D01*
X123190424Y-126973270D01*
X123247573Y-126759986D01*
X123247575Y-126759976D01*
X123266821Y-126540000D01*
X123266821Y-126539999D01*
X123247575Y-126320023D01*
X123247573Y-126320013D01*
X123190424Y-126106729D01*
X123190420Y-126106720D01*
X123097098Y-125906590D01*
X123051740Y-125841811D01*
X122614738Y-126278814D01*
X122553415Y-126312299D01*
X122483723Y-126307315D01*
X122427790Y-126265443D01*
X122422742Y-126258173D01*
X122387870Y-126203911D01*
X122387865Y-126203907D01*
X122307824Y-126134550D01*
X122271361Y-126102954D01*
X122233588Y-126044176D01*
X122233588Y-125974306D01*
X122264884Y-125921561D01*
X122698187Y-125488258D01*
X122633409Y-125442900D01*
X122633407Y-125442899D01*
X122504219Y-125382658D01*
X122451779Y-125336486D01*
X122432627Y-125269293D01*
X122452843Y-125202411D01*
X122504219Y-125157894D01*
X122633662Y-125097534D01*
X122814620Y-124970826D01*
X122970826Y-124814620D01*
X123097534Y-124633662D01*
X123190894Y-124433450D01*
X123248070Y-124220068D01*
X123267323Y-124000000D01*
X123248070Y-123779932D01*
X123190894Y-123566550D01*
X123097534Y-123366339D01*
X122970826Y-123185380D01*
X122814620Y-123029174D01*
X122814616Y-123029171D01*
X122814615Y-123029170D01*
X122633666Y-122902468D01*
X122633662Y-122902466D01*
X122633660Y-122902465D01*
X122433450Y-122809106D01*
X122433447Y-122809105D01*
X122433445Y-122809104D01*
X122220070Y-122751930D01*
X122220062Y-122751929D01*
X122000002Y-122732677D01*
X121999998Y-122732677D01*
X121779937Y-122751929D01*
X121779929Y-122751930D01*
X121566554Y-122809104D01*
X121566548Y-122809107D01*
X121366340Y-122902465D01*
X121366338Y-122902466D01*
X121185377Y-123029175D01*
X121029175Y-123185377D01*
X120902466Y-123366338D01*
X120902465Y-123366340D01*
X120809107Y-123566548D01*
X120809104Y-123566554D01*
X120751930Y-123779929D01*
X120751929Y-123779937D01*
X120732677Y-123999997D01*
X120732677Y-124000002D01*
X107000500Y-124000002D01*
X107000500Y-118920004D01*
X115208104Y-118920004D01*
X115227221Y-119175119D01*
X115227222Y-119175124D01*
X115284150Y-119424544D01*
X115284152Y-119424553D01*
X115284154Y-119424558D01*
X115377624Y-119662717D01*
X115505546Y-119884284D01*
X115624313Y-120033213D01*
X115665065Y-120084315D01*
X115755958Y-120168650D01*
X115852609Y-120258329D01*
X116063998Y-120402451D01*
X116294505Y-120513458D01*
X116538983Y-120588869D01*
X116538984Y-120588869D01*
X116538987Y-120588870D01*
X116791961Y-120626999D01*
X116791966Y-120626999D01*
X116791969Y-120627000D01*
X116791970Y-120627000D01*
X117047812Y-120627000D01*
X117047813Y-120627000D01*
X117047820Y-120626999D01*
X117300794Y-120588870D01*
X117300795Y-120588869D01*
X117300799Y-120588869D01*
X117545277Y-120513458D01*
X117775785Y-120402451D01*
X117987173Y-120258329D01*
X118174720Y-120084311D01*
X118334236Y-119884284D01*
X118462158Y-119662717D01*
X118506908Y-119548695D01*
X180451500Y-119548695D01*
X180466767Y-119718340D01*
X180527221Y-119937392D01*
X180527227Y-119937407D01*
X180625824Y-120142146D01*
X180625828Y-120142154D01*
X180759399Y-120325999D01*
X180759405Y-120326007D01*
X180910916Y-120470866D01*
X180923662Y-120483052D01*
X181021322Y-120547517D01*
X181113319Y-120608244D01*
X181113321Y-120608245D01*
X181113323Y-120608246D01*
X181322289Y-120697562D01*
X181543846Y-120748131D01*
X181770871Y-120758327D01*
X181996068Y-120727822D01*
X182212200Y-120657596D01*
X182412319Y-120549908D01*
X182589993Y-120408217D01*
X182739512Y-120237078D01*
X182752045Y-120216101D01*
X182803324Y-120168650D01*
X182872121Y-120156453D01*
X182936591Y-120183388D01*
X182958809Y-120206817D01*
X183045399Y-120325999D01*
X183045405Y-120326007D01*
X183196916Y-120470866D01*
X183209662Y-120483052D01*
X183307322Y-120547517D01*
X183399319Y-120608244D01*
X183399321Y-120608245D01*
X183399323Y-120608246D01*
X183608289Y-120697562D01*
X183829846Y-120748131D01*
X184056871Y-120758327D01*
X184282068Y-120727822D01*
X184498200Y-120657596D01*
X184698319Y-120549908D01*
X184875993Y-120408217D01*
X185025512Y-120237078D01*
X185038045Y-120216101D01*
X185089324Y-120168650D01*
X185158121Y-120156453D01*
X185222591Y-120183388D01*
X185244809Y-120206817D01*
X185331399Y-120325999D01*
X185331405Y-120326007D01*
X185482916Y-120470866D01*
X185495662Y-120483052D01*
X185593322Y-120547516D01*
X185685319Y-120608244D01*
X185685321Y-120608245D01*
X185685323Y-120608246D01*
X185894289Y-120697562D01*
X186115846Y-120748131D01*
X186342871Y-120758327D01*
X186568068Y-120727822D01*
X186784200Y-120657596D01*
X186984319Y-120549908D01*
X187161993Y-120408217D01*
X187311512Y-120237078D01*
X187428071Y-120041992D01*
X187507922Y-119829229D01*
X187524153Y-119739788D01*
X187548500Y-119605630D01*
X187548500Y-119548695D01*
X197451500Y-119548695D01*
X197466767Y-119718340D01*
X197527221Y-119937392D01*
X197527227Y-119937407D01*
X197625824Y-120142146D01*
X197625828Y-120142154D01*
X197759399Y-120325999D01*
X197759405Y-120326007D01*
X197910916Y-120470866D01*
X197923662Y-120483052D01*
X198021322Y-120547516D01*
X198113319Y-120608244D01*
X198113321Y-120608245D01*
X198113323Y-120608246D01*
X198322289Y-120697562D01*
X198543846Y-120748131D01*
X198770871Y-120758327D01*
X198996068Y-120727822D01*
X199212200Y-120657596D01*
X199412319Y-120549908D01*
X199589993Y-120408217D01*
X199739512Y-120237078D01*
X199752045Y-120216101D01*
X199803324Y-120168650D01*
X199872121Y-120156453D01*
X199936591Y-120183388D01*
X199958809Y-120206817D01*
X200045399Y-120325999D01*
X200045405Y-120326007D01*
X200196916Y-120470866D01*
X200209662Y-120483052D01*
X200307322Y-120547516D01*
X200399319Y-120608244D01*
X200399321Y-120608245D01*
X200399323Y-120608246D01*
X200608289Y-120697562D01*
X200829846Y-120748131D01*
X201056871Y-120758327D01*
X201282068Y-120727822D01*
X201498200Y-120657596D01*
X201698319Y-120549908D01*
X201875993Y-120408217D01*
X202025512Y-120237078D01*
X202038324Y-120215633D01*
X202089603Y-120168183D01*
X202158400Y-120155986D01*
X202222870Y-120182921D01*
X202245088Y-120206350D01*
X202331780Y-120325672D01*
X202331784Y-120325677D01*
X202495976Y-120482659D01*
X202685560Y-120607803D01*
X202894439Y-120697083D01*
X202894448Y-120697086D01*
X203035998Y-120729393D01*
X203035999Y-120729393D01*
X203035999Y-119350383D01*
X203055684Y-119283344D01*
X203108488Y-119237589D01*
X203177645Y-119227645D01*
X203249666Y-119238000D01*
X203249669Y-119238000D01*
X203322331Y-119238000D01*
X203322334Y-119238000D01*
X203394353Y-119227645D01*
X203463510Y-119237589D01*
X203516314Y-119283343D01*
X203535999Y-119350383D01*
X203535999Y-120731659D01*
X203536000Y-120731660D01*
X203567952Y-120727333D01*
X203784003Y-120657134D01*
X203984039Y-120549490D01*
X203984042Y-120549488D01*
X204161646Y-120407854D01*
X204311100Y-120236789D01*
X204311107Y-120236781D01*
X204427615Y-120041781D01*
X204427619Y-120041773D01*
X204507438Y-119829095D01*
X204548000Y-119605585D01*
X204548000Y-118980000D01*
X203907684Y-118980000D01*
X203840645Y-118960315D01*
X203794890Y-118907511D01*
X203784946Y-118838353D01*
X203788707Y-118821064D01*
X203794000Y-118803038D01*
X203794000Y-118656961D01*
X203788707Y-118638936D01*
X203788706Y-118569067D01*
X203826480Y-118510288D01*
X203890036Y-118481262D01*
X203907684Y-118480000D01*
X204547999Y-118480000D01*
X204548000Y-117911330D01*
X204547999Y-117911327D01*
X204532738Y-117741749D01*
X204472307Y-117522782D01*
X204472302Y-117522769D01*
X204373743Y-117318108D01*
X204373737Y-117318098D01*
X204240219Y-117134327D01*
X204240215Y-117134322D01*
X204076023Y-116977340D01*
X203886439Y-116852196D01*
X203677559Y-116762916D01*
X203677550Y-116762913D01*
X203536000Y-116730605D01*
X203536000Y-118109616D01*
X203516315Y-118176655D01*
X203463511Y-118222410D01*
X203394355Y-118232354D01*
X203322337Y-118222000D01*
X203322334Y-118222000D01*
X203249666Y-118222000D01*
X203249662Y-118222000D01*
X203177645Y-118232354D01*
X203108487Y-118222410D01*
X203055684Y-118176654D01*
X203036000Y-118109616D01*
X203036000Y-116728339D01*
X203004040Y-116732669D01*
X203004038Y-116732669D01*
X202787996Y-116802865D01*
X202587960Y-116910509D01*
X202587957Y-116910511D01*
X202410353Y-117052145D01*
X202260899Y-117223210D01*
X202260896Y-117223214D01*
X202248275Y-117244338D01*
X202196991Y-117291791D01*
X202128194Y-117303985D01*
X202063725Y-117277049D01*
X202041510Y-117253622D01*
X201954600Y-117134000D01*
X201954594Y-117133992D01*
X201790339Y-116976949D01*
X201790338Y-116976948D01*
X201741507Y-116944715D01*
X201600680Y-116851755D01*
X201548807Y-116829584D01*
X201391711Y-116762438D01*
X201391704Y-116762436D01*
X201391700Y-116762435D01*
X201170159Y-116711870D01*
X201170155Y-116711869D01*
X201170154Y-116711869D01*
X201170153Y-116711868D01*
X201170148Y-116711868D01*
X200943132Y-116701673D01*
X200943131Y-116701673D01*
X200943129Y-116701673D01*
X200830530Y-116716925D01*
X200717929Y-116732178D01*
X200501797Y-116802405D01*
X200301679Y-116910093D01*
X200124006Y-117051782D01*
X199974493Y-117222915D01*
X199974490Y-117222918D01*
X199961954Y-117243900D01*
X199910669Y-117291352D01*
X199841872Y-117303545D01*
X199777404Y-117276608D01*
X199755194Y-117253187D01*
X199668596Y-117133995D01*
X199668594Y-117133993D01*
X199668594Y-117133992D01*
X199504339Y-116976949D01*
X199504338Y-116976948D01*
X199455507Y-116944715D01*
X199314680Y-116851755D01*
X199262807Y-116829584D01*
X199105711Y-116762438D01*
X199105704Y-116762436D01*
X199105700Y-116762435D01*
X198884159Y-116711870D01*
X198884155Y-116711869D01*
X198884154Y-116711869D01*
X198884153Y-116711868D01*
X198884148Y-116711868D01*
X198657132Y-116701673D01*
X198657131Y-116701673D01*
X198657129Y-116701673D01*
X198544530Y-116716925D01*
X198431929Y-116732178D01*
X198215797Y-116802405D01*
X198015679Y-116910093D01*
X197838006Y-117051782D01*
X197688493Y-117222915D01*
X197688487Y-117222923D01*
X197571932Y-117418001D01*
X197571930Y-117418006D01*
X197492077Y-117630771D01*
X197492077Y-117630772D01*
X197451500Y-117854369D01*
X197451500Y-119548695D01*
X187548500Y-119548695D01*
X187548500Y-117911306D01*
X187548500Y-117911301D01*
X187533232Y-117741661D01*
X187533232Y-117741659D01*
X187472778Y-117522607D01*
X187472772Y-117522592D01*
X187374175Y-117317853D01*
X187374171Y-117317845D01*
X187240600Y-117134000D01*
X187240594Y-117133992D01*
X187076339Y-116976949D01*
X187076338Y-116976948D01*
X187027507Y-116944715D01*
X186886680Y-116851755D01*
X186834807Y-116829584D01*
X186677711Y-116762438D01*
X186677704Y-116762436D01*
X186677700Y-116762435D01*
X186456159Y-116711870D01*
X186456155Y-116711869D01*
X186456154Y-116711869D01*
X186456153Y-116711868D01*
X186456148Y-116711868D01*
X186229132Y-116701673D01*
X186229131Y-116701673D01*
X186229129Y-116701673D01*
X186116530Y-116716925D01*
X186003929Y-116732178D01*
X185787797Y-116802405D01*
X185587679Y-116910093D01*
X185410006Y-117051782D01*
X185260493Y-117222915D01*
X185260490Y-117222918D01*
X185247954Y-117243900D01*
X185196669Y-117291352D01*
X185127872Y-117303545D01*
X185063404Y-117276608D01*
X185041194Y-117253187D01*
X184954596Y-117133995D01*
X184954594Y-117133993D01*
X184954594Y-117133992D01*
X184790339Y-116976949D01*
X184790338Y-116976948D01*
X184741507Y-116944715D01*
X184600680Y-116851755D01*
X184548807Y-116829584D01*
X184391711Y-116762438D01*
X184391704Y-116762436D01*
X184391700Y-116762435D01*
X184170159Y-116711870D01*
X184170155Y-116711869D01*
X184170154Y-116711869D01*
X184170153Y-116711868D01*
X184170148Y-116711868D01*
X183943132Y-116701673D01*
X183943131Y-116701673D01*
X183943129Y-116701673D01*
X183830530Y-116716925D01*
X183717929Y-116732178D01*
X183501797Y-116802405D01*
X183301679Y-116910093D01*
X183124006Y-117051782D01*
X182974493Y-117222915D01*
X182974490Y-117222918D01*
X182961954Y-117243900D01*
X182910669Y-117291352D01*
X182841872Y-117303545D01*
X182777404Y-117276608D01*
X182755194Y-117253187D01*
X182668596Y-117133995D01*
X182668594Y-117133993D01*
X182668594Y-117133992D01*
X182504339Y-116976949D01*
X182504338Y-116976948D01*
X182455507Y-116944715D01*
X182314680Y-116851755D01*
X182262807Y-116829584D01*
X182105711Y-116762438D01*
X182105704Y-116762436D01*
X182105700Y-116762435D01*
X181884159Y-116711870D01*
X181884155Y-116711869D01*
X181884154Y-116711869D01*
X181884153Y-116711868D01*
X181884148Y-116711868D01*
X181657132Y-116701673D01*
X181657131Y-116701673D01*
X181657129Y-116701673D01*
X181544530Y-116716925D01*
X181431929Y-116732178D01*
X181215797Y-116802405D01*
X181015679Y-116910093D01*
X180838006Y-117051782D01*
X180688493Y-117222915D01*
X180688487Y-117222923D01*
X180571932Y-117418001D01*
X180571930Y-117418006D01*
X180492077Y-117630771D01*
X180492077Y-117630772D01*
X180451500Y-117854369D01*
X180451500Y-119548695D01*
X118506908Y-119548695D01*
X118555628Y-119424558D01*
X118612559Y-119175129D01*
X118612560Y-119175119D01*
X118631678Y-118920004D01*
X118631678Y-118919995D01*
X118612560Y-118664880D01*
X118612559Y-118664875D01*
X118612559Y-118664871D01*
X118555628Y-118415442D01*
X118462158Y-118177283D01*
X118334236Y-117955716D01*
X118174720Y-117755689D01*
X118174719Y-117755688D01*
X118174716Y-117755684D01*
X117987173Y-117581671D01*
X117987170Y-117581669D01*
X117775785Y-117437549D01*
X117775781Y-117437547D01*
X117775778Y-117437545D01*
X117775776Y-117437544D01*
X117545279Y-117326543D01*
X117545281Y-117326543D01*
X117300800Y-117251131D01*
X117300794Y-117251129D01*
X117047820Y-117213000D01*
X117047813Y-117213000D01*
X116791969Y-117213000D01*
X116791961Y-117213000D01*
X116538987Y-117251129D01*
X116538981Y-117251131D01*
X116294504Y-117326542D01*
X116064001Y-117437547D01*
X116063997Y-117437549D01*
X115852611Y-117581669D01*
X115665065Y-117755684D01*
X115505546Y-117955716D01*
X115377624Y-118177282D01*
X115284156Y-118415436D01*
X115284150Y-118415455D01*
X115227222Y-118664875D01*
X115227221Y-118664880D01*
X115208104Y-118919995D01*
X115208104Y-118920004D01*
X107000500Y-118920004D01*
X107000500Y-113550000D01*
X214659975Y-113550000D01*
X214680042Y-113804989D01*
X214739752Y-114053702D01*
X214837634Y-114290012D01*
X214837636Y-114290015D01*
X214971275Y-114508095D01*
X214971286Y-114508110D01*
X214974533Y-114511911D01*
X214974535Y-114511911D01*
X215501667Y-113984778D01*
X215562990Y-113951293D01*
X215632681Y-113956277D01*
X215688615Y-113998148D01*
X215688811Y-113998411D01*
X215740756Y-114068185D01*
X215846223Y-114156683D01*
X215884925Y-114214854D01*
X215886033Y-114284715D01*
X215854198Y-114339353D01*
X215328087Y-114865464D01*
X215328087Y-114865465D01*
X215331888Y-114868712D01*
X215331898Y-114868719D01*
X215549984Y-115002363D01*
X215549987Y-115002365D01*
X215786297Y-115100247D01*
X216035011Y-115159957D01*
X216035010Y-115159957D01*
X216290000Y-115180024D01*
X216544989Y-115159957D01*
X216793702Y-115100247D01*
X217030012Y-115002365D01*
X217030015Y-115002363D01*
X217248103Y-114868719D01*
X217251912Y-114865464D01*
X216725875Y-114339428D01*
X216692390Y-114278105D01*
X216697374Y-114208414D01*
X216739245Y-114152480D01*
X216745398Y-114148159D01*
X216775373Y-114128445D01*
X216895688Y-114000918D01*
X216895687Y-114000918D01*
X216900645Y-113995664D01*
X216901841Y-113996792D01*
X216950641Y-113960049D01*
X217020319Y-113954870D01*
X217081735Y-113988183D01*
X217605464Y-114511912D01*
X217608719Y-114508103D01*
X217742363Y-114290015D01*
X217742365Y-114290012D01*
X217840247Y-114053702D01*
X217899957Y-113804989D01*
X217920024Y-113550000D01*
X219759975Y-113550000D01*
X219780042Y-113804989D01*
X219839752Y-114053702D01*
X219937634Y-114290012D01*
X219937636Y-114290015D01*
X220071275Y-114508095D01*
X220071286Y-114508110D01*
X220074533Y-114511911D01*
X220074535Y-114511911D01*
X220601667Y-113984778D01*
X220662990Y-113951293D01*
X220732681Y-113956277D01*
X220788615Y-113998148D01*
X220788811Y-113998411D01*
X220840756Y-114068185D01*
X220946223Y-114156683D01*
X220984925Y-114214854D01*
X220986033Y-114284715D01*
X220954198Y-114339353D01*
X220428087Y-114865464D01*
X220428087Y-114865465D01*
X220431888Y-114868712D01*
X220431898Y-114868719D01*
X220649984Y-115002363D01*
X220649987Y-115002365D01*
X220886297Y-115100247D01*
X221135011Y-115159957D01*
X221135010Y-115159957D01*
X221390000Y-115180024D01*
X221644989Y-115159957D01*
X221893702Y-115100247D01*
X222130012Y-115002365D01*
X222130015Y-115002363D01*
X222348103Y-114868719D01*
X222351912Y-114865464D01*
X221825875Y-114339428D01*
X221792390Y-114278105D01*
X221797374Y-114208414D01*
X221839245Y-114152480D01*
X221845398Y-114148159D01*
X221875373Y-114128445D01*
X221995688Y-114000918D01*
X221995687Y-114000918D01*
X222000645Y-113995664D01*
X222001841Y-113996792D01*
X222050641Y-113960049D01*
X222120319Y-113954870D01*
X222181735Y-113988183D01*
X222705464Y-114511912D01*
X222708719Y-114508103D01*
X222842363Y-114290015D01*
X222842365Y-114290012D01*
X222940247Y-114053702D01*
X222999957Y-113804989D01*
X223020024Y-113550000D01*
X222999957Y-113295010D01*
X222940247Y-113046297D01*
X222842365Y-112809987D01*
X222842363Y-112809984D01*
X222708719Y-112591898D01*
X222708712Y-112591888D01*
X222705465Y-112588087D01*
X222705464Y-112588087D01*
X222178331Y-113115220D01*
X222117008Y-113148705D01*
X222047316Y-113143721D01*
X221991383Y-113101849D01*
X221991291Y-113101726D01*
X221939244Y-113031815D01*
X221939243Y-113031814D01*
X221833775Y-112943315D01*
X221795073Y-112885143D01*
X221793965Y-112815283D01*
X221825800Y-112760645D01*
X222351911Y-112234535D01*
X222351911Y-112234533D01*
X222348110Y-112231286D01*
X222348095Y-112231275D01*
X222130015Y-112097636D01*
X222130012Y-112097634D01*
X221893702Y-111999752D01*
X221644988Y-111940042D01*
X221644989Y-111940042D01*
X221390000Y-111919975D01*
X221135010Y-111940042D01*
X220886297Y-111999752D01*
X220649987Y-112097634D01*
X220649984Y-112097636D01*
X220431897Y-112231280D01*
X220428087Y-112234534D01*
X220954124Y-112760571D01*
X220987609Y-112821894D01*
X220982625Y-112891586D01*
X220940753Y-112947519D01*
X220934583Y-112951852D01*
X220904627Y-112971554D01*
X220779355Y-113104335D01*
X220778163Y-113103210D01*
X220729324Y-113139962D01*
X220659646Y-113145122D01*
X220598238Y-113111791D01*
X220074534Y-112588087D01*
X220071280Y-112591897D01*
X219937636Y-112809984D01*
X219937634Y-112809987D01*
X219839752Y-113046297D01*
X219780042Y-113295010D01*
X219759975Y-113550000D01*
X217920024Y-113550000D01*
X217899957Y-113295010D01*
X217840247Y-113046297D01*
X217742365Y-112809987D01*
X217742363Y-112809984D01*
X217608719Y-112591898D01*
X217608712Y-112591888D01*
X217605465Y-112588087D01*
X217605464Y-112588087D01*
X217078331Y-113115220D01*
X217017008Y-113148705D01*
X216947316Y-113143721D01*
X216891383Y-113101849D01*
X216891291Y-113101726D01*
X216839244Y-113031815D01*
X216839243Y-113031814D01*
X216733775Y-112943315D01*
X216695073Y-112885143D01*
X216693965Y-112815283D01*
X216725800Y-112760645D01*
X217251911Y-112234535D01*
X217251911Y-112234533D01*
X217248110Y-112231286D01*
X217248095Y-112231275D01*
X217030015Y-112097636D01*
X217030012Y-112097634D01*
X216793702Y-111999752D01*
X216544988Y-111940042D01*
X216544989Y-111940042D01*
X216290000Y-111919975D01*
X216035010Y-111940042D01*
X215786297Y-111999752D01*
X215549987Y-112097634D01*
X215549984Y-112097636D01*
X215331897Y-112231280D01*
X215328087Y-112234534D01*
X215854124Y-112760571D01*
X215887609Y-112821894D01*
X215882625Y-112891586D01*
X215840753Y-112947519D01*
X215834583Y-112951852D01*
X215804627Y-112971554D01*
X215679355Y-113104335D01*
X215678163Y-113103210D01*
X215629324Y-113139962D01*
X215559646Y-113145122D01*
X215498238Y-113111791D01*
X214974534Y-112588087D01*
X214971280Y-112591897D01*
X214837636Y-112809984D01*
X214837634Y-112809987D01*
X214739752Y-113046297D01*
X214680042Y-113295010D01*
X214659975Y-113550000D01*
X107000500Y-113550000D01*
X107000500Y-112108402D01*
X113366528Y-112108402D01*
X113385579Y-112326162D01*
X113385581Y-112326172D01*
X113442155Y-112537311D01*
X113442159Y-112537320D01*
X113534544Y-112735440D01*
X113577976Y-112797469D01*
X113577977Y-112797470D01*
X114015051Y-112360395D01*
X114076374Y-112326910D01*
X114146065Y-112331894D01*
X114201999Y-112373765D01*
X114207047Y-112381036D01*
X114242426Y-112436086D01*
X114242428Y-112436089D01*
X114350067Y-112529358D01*
X114356770Y-112535166D01*
X114354650Y-112537611D01*
X114390026Y-112578429D01*
X114399977Y-112647586D01*
X114370958Y-112711145D01*
X114364918Y-112717633D01*
X113931529Y-113151021D01*
X113931530Y-113151023D01*
X113993560Y-113194456D01*
X114191680Y-113286841D01*
X114191689Y-113286845D01*
X114402828Y-113343419D01*
X114402838Y-113343421D01*
X114620598Y-113362473D01*
X114620602Y-113362473D01*
X114838361Y-113343421D01*
X114838371Y-113343419D01*
X115049510Y-113286845D01*
X115049519Y-113286841D01*
X115247635Y-113194458D01*
X115309669Y-113151022D01*
X114876280Y-112717634D01*
X114842795Y-112656311D01*
X114847779Y-112586620D01*
X114885431Y-112536321D01*
X114884430Y-112535166D01*
X114891133Y-112529358D01*
X114998772Y-112436089D01*
X115034151Y-112381036D01*
X115086952Y-112335283D01*
X115156111Y-112325338D01*
X115219667Y-112354362D01*
X115226147Y-112360395D01*
X115663221Y-112797470D01*
X115706657Y-112735436D01*
X115799040Y-112537320D01*
X115799044Y-112537311D01*
X115855618Y-112326172D01*
X115855620Y-112326162D01*
X115874672Y-112108402D01*
X115874672Y-112108399D01*
X115855620Y-111890639D01*
X115855618Y-111890629D01*
X115799044Y-111679490D01*
X115799040Y-111679481D01*
X115706655Y-111481361D01*
X115663222Y-111419331D01*
X115663221Y-111419330D01*
X115226147Y-111856405D01*
X115164824Y-111889890D01*
X115095132Y-111884906D01*
X115039199Y-111843034D01*
X115034150Y-111835763D01*
X114998772Y-111780713D01*
X114891133Y-111687444D01*
X114891132Y-111687443D01*
X114884430Y-111681636D01*
X114886548Y-111679191D01*
X114851169Y-111638368D01*
X114841221Y-111569210D01*
X114870241Y-111505652D01*
X114876279Y-111499167D01*
X115309669Y-111065778D01*
X115309668Y-111065777D01*
X115247639Y-111022345D01*
X115199720Y-111000000D01*
X217284706Y-111000000D01*
X217303853Y-111243297D01*
X217303853Y-111243300D01*
X217303854Y-111243302D01*
X217346115Y-111419331D01*
X217360830Y-111480619D01*
X217454222Y-111706089D01*
X217581737Y-111914173D01*
X217581738Y-111914176D01*
X217581741Y-111914179D01*
X217740241Y-112099759D01*
X217883897Y-112222453D01*
X217925823Y-112258261D01*
X217925826Y-112258262D01*
X218133910Y-112385777D01*
X218359381Y-112479169D01*
X218359378Y-112479169D01*
X218359384Y-112479170D01*
X218359388Y-112479172D01*
X218596698Y-112536146D01*
X218840000Y-112555294D01*
X219083302Y-112536146D01*
X219320612Y-112479172D01*
X219546089Y-112385777D01*
X219754179Y-112258259D01*
X219939759Y-112099759D01*
X220098259Y-111914179D01*
X220225777Y-111706089D01*
X220319172Y-111480612D01*
X220376146Y-111243302D01*
X220395294Y-111000000D01*
X220376146Y-110756698D01*
X220319172Y-110519388D01*
X220225777Y-110293911D01*
X220225777Y-110293910D01*
X220098262Y-110085826D01*
X220098261Y-110085823D01*
X220025172Y-110000247D01*
X219939759Y-109900241D01*
X219785758Y-109768712D01*
X219754176Y-109741738D01*
X219754173Y-109741737D01*
X219546089Y-109614222D01*
X219320618Y-109520830D01*
X219320621Y-109520830D01*
X219214992Y-109495470D01*
X219083302Y-109463854D01*
X219083300Y-109463853D01*
X219083297Y-109463853D01*
X218840000Y-109444706D01*
X218596702Y-109463853D01*
X218359380Y-109520830D01*
X218133910Y-109614222D01*
X217925826Y-109741737D01*
X217925823Y-109741738D01*
X217740241Y-109900241D01*
X217581738Y-110085823D01*
X217581737Y-110085826D01*
X217454222Y-110293910D01*
X217360830Y-110519380D01*
X217303853Y-110756702D01*
X217284706Y-111000000D01*
X115199720Y-111000000D01*
X115049519Y-110929960D01*
X115049510Y-110929956D01*
X114838371Y-110873382D01*
X114838361Y-110873380D01*
X114620602Y-110854329D01*
X114620598Y-110854329D01*
X114402838Y-110873380D01*
X114402828Y-110873382D01*
X114191689Y-110929956D01*
X114191680Y-110929960D01*
X113993564Y-111022343D01*
X113931530Y-111065778D01*
X114364919Y-111499167D01*
X114398404Y-111560490D01*
X114393420Y-111630182D01*
X114355767Y-111680478D01*
X114356770Y-111681636D01*
X114350067Y-111687443D01*
X114350067Y-111687444D01*
X114328550Y-111706089D01*
X114242426Y-111780715D01*
X114242424Y-111780717D01*
X114207048Y-111835764D01*
X114154244Y-111881519D01*
X114085086Y-111891463D01*
X114021530Y-111862438D01*
X114015052Y-111856406D01*
X113577977Y-111419331D01*
X113534542Y-111481365D01*
X113442159Y-111679481D01*
X113442155Y-111679490D01*
X113385581Y-111890629D01*
X113385579Y-111890639D01*
X113366528Y-112108399D01*
X113366528Y-112108402D01*
X107000500Y-112108402D01*
X107000500Y-108608400D01*
X113366026Y-108608400D01*
X113385085Y-108826249D01*
X113385087Y-108826259D01*
X113441683Y-109037482D01*
X113441685Y-109037486D01*
X113441686Y-109037490D01*
X113477762Y-109114854D01*
X113534106Y-109235686D01*
X113534107Y-109235687D01*
X113659541Y-109414825D01*
X113814175Y-109569459D01*
X113993313Y-109694893D01*
X114191510Y-109787314D01*
X114402746Y-109843914D01*
X114577029Y-109859161D01*
X114620599Y-109862974D01*
X114620600Y-109862974D01*
X114620601Y-109862974D01*
X114656909Y-109859797D01*
X114838454Y-109843914D01*
X115049690Y-109787314D01*
X115247887Y-109694893D01*
X115427025Y-109569459D01*
X115581659Y-109414825D01*
X115707093Y-109235687D01*
X115799514Y-109037490D01*
X115856114Y-108826254D01*
X115875174Y-108608400D01*
X115861316Y-108450000D01*
X214659975Y-108450000D01*
X214680042Y-108704989D01*
X214739752Y-108953702D01*
X214837634Y-109190012D01*
X214837636Y-109190015D01*
X214971275Y-109408095D01*
X214971286Y-109408110D01*
X214974533Y-109411911D01*
X214974535Y-109411911D01*
X215501667Y-108884778D01*
X215562990Y-108851293D01*
X215632681Y-108856277D01*
X215688615Y-108898148D01*
X215688811Y-108898411D01*
X215740756Y-108968185D01*
X215846223Y-109056683D01*
X215884925Y-109114854D01*
X215886033Y-109184715D01*
X215854198Y-109239353D01*
X215328087Y-109765464D01*
X215328087Y-109765465D01*
X215331888Y-109768712D01*
X215331898Y-109768719D01*
X215549984Y-109902363D01*
X215549987Y-109902365D01*
X215786297Y-110000247D01*
X216035011Y-110059957D01*
X216035010Y-110059957D01*
X216290000Y-110080024D01*
X216544989Y-110059957D01*
X216793702Y-110000247D01*
X217030012Y-109902365D01*
X217030015Y-109902363D01*
X217248103Y-109768719D01*
X217251912Y-109765464D01*
X216725875Y-109239428D01*
X216692390Y-109178105D01*
X216697374Y-109108414D01*
X216739245Y-109052480D01*
X216745398Y-109048159D01*
X216775373Y-109028445D01*
X216895688Y-108900918D01*
X216895687Y-108900918D01*
X216900645Y-108895664D01*
X216901841Y-108896792D01*
X216950641Y-108860049D01*
X217020319Y-108854870D01*
X217081735Y-108888183D01*
X217605464Y-109411912D01*
X217608719Y-109408103D01*
X217742363Y-109190015D01*
X217742365Y-109190012D01*
X217840247Y-108953702D01*
X217899957Y-108704989D01*
X217920024Y-108450000D01*
X219759975Y-108450000D01*
X219780042Y-108704989D01*
X219839752Y-108953702D01*
X219937634Y-109190012D01*
X219937636Y-109190015D01*
X220071275Y-109408095D01*
X220071286Y-109408110D01*
X220074533Y-109411911D01*
X220074535Y-109411911D01*
X220601667Y-108884778D01*
X220662990Y-108851293D01*
X220732681Y-108856277D01*
X220788615Y-108898148D01*
X220788811Y-108898411D01*
X220840756Y-108968185D01*
X220946223Y-109056683D01*
X220984925Y-109114854D01*
X220986033Y-109184715D01*
X220954198Y-109239353D01*
X220428087Y-109765464D01*
X220428087Y-109765465D01*
X220431888Y-109768712D01*
X220431898Y-109768719D01*
X220649984Y-109902363D01*
X220649987Y-109902365D01*
X220886297Y-110000247D01*
X221135011Y-110059957D01*
X221135010Y-110059957D01*
X221390000Y-110080024D01*
X221644989Y-110059957D01*
X221893702Y-110000247D01*
X222130012Y-109902365D01*
X222130015Y-109902363D01*
X222348103Y-109768719D01*
X222351912Y-109765464D01*
X221825875Y-109239428D01*
X221792390Y-109178105D01*
X221797374Y-109108414D01*
X221839245Y-109052480D01*
X221845398Y-109048159D01*
X221875373Y-109028445D01*
X221995688Y-108900918D01*
X221995687Y-108900918D01*
X222000645Y-108895664D01*
X222001841Y-108896792D01*
X222050641Y-108860049D01*
X222120319Y-108854870D01*
X222181735Y-108888183D01*
X222705464Y-109411912D01*
X222708719Y-109408103D01*
X222842363Y-109190015D01*
X222842365Y-109190012D01*
X222940247Y-108953702D01*
X222999957Y-108704989D01*
X223020024Y-108450000D01*
X222999957Y-108195010D01*
X222940247Y-107946297D01*
X222842365Y-107709987D01*
X222842363Y-107709984D01*
X222708719Y-107491898D01*
X222708712Y-107491888D01*
X222705465Y-107488087D01*
X222705464Y-107488087D01*
X222178331Y-108015220D01*
X222117008Y-108048705D01*
X222047316Y-108043721D01*
X221991383Y-108001849D01*
X221991291Y-108001726D01*
X221939244Y-107931815D01*
X221939243Y-107931814D01*
X221833775Y-107843315D01*
X221795073Y-107785143D01*
X221793965Y-107715283D01*
X221825800Y-107660645D01*
X222351911Y-107134535D01*
X222351911Y-107134533D01*
X222348110Y-107131286D01*
X222348095Y-107131275D01*
X222130015Y-106997636D01*
X222130012Y-106997634D01*
X221893702Y-106899752D01*
X221644988Y-106840042D01*
X221644989Y-106840042D01*
X221390000Y-106819975D01*
X221135010Y-106840042D01*
X220886297Y-106899752D01*
X220649987Y-106997634D01*
X220649984Y-106997636D01*
X220431897Y-107131280D01*
X220428087Y-107134534D01*
X220954124Y-107660571D01*
X220987609Y-107721894D01*
X220982625Y-107791586D01*
X220940753Y-107847519D01*
X220934583Y-107851852D01*
X220904627Y-107871554D01*
X220779355Y-108004335D01*
X220778163Y-108003210D01*
X220729324Y-108039962D01*
X220659646Y-108045122D01*
X220598238Y-108011791D01*
X220074534Y-107488087D01*
X220071280Y-107491897D01*
X219937636Y-107709984D01*
X219937634Y-107709987D01*
X219839752Y-107946297D01*
X219780042Y-108195010D01*
X219759975Y-108450000D01*
X217920024Y-108450000D01*
X217899957Y-108195010D01*
X217840247Y-107946297D01*
X217742365Y-107709987D01*
X217742363Y-107709984D01*
X217608719Y-107491898D01*
X217608712Y-107491888D01*
X217605465Y-107488087D01*
X217605464Y-107488087D01*
X217078331Y-108015220D01*
X217017008Y-108048705D01*
X216947316Y-108043721D01*
X216891383Y-108001849D01*
X216891291Y-108001726D01*
X216839244Y-107931815D01*
X216839243Y-107931814D01*
X216733775Y-107843315D01*
X216695073Y-107785143D01*
X216693965Y-107715283D01*
X216725800Y-107660645D01*
X217251911Y-107134535D01*
X217251911Y-107134533D01*
X217248110Y-107131286D01*
X217248095Y-107131275D01*
X217030015Y-106997636D01*
X217030012Y-106997634D01*
X216793702Y-106899752D01*
X216544988Y-106840042D01*
X216544989Y-106840042D01*
X216290000Y-106819975D01*
X216035010Y-106840042D01*
X215786297Y-106899752D01*
X215549987Y-106997634D01*
X215549984Y-106997636D01*
X215331897Y-107131280D01*
X215328087Y-107134534D01*
X215854124Y-107660571D01*
X215887609Y-107721894D01*
X215882625Y-107791586D01*
X215840753Y-107847519D01*
X215834583Y-107851852D01*
X215804627Y-107871554D01*
X215679355Y-108004335D01*
X215678163Y-108003210D01*
X215629324Y-108039962D01*
X215559646Y-108045122D01*
X215498238Y-108011791D01*
X214974534Y-107488087D01*
X214971280Y-107491897D01*
X214837636Y-107709984D01*
X214837634Y-107709987D01*
X214739752Y-107946297D01*
X214680042Y-108195010D01*
X214659975Y-108450000D01*
X115861316Y-108450000D01*
X115856114Y-108390546D01*
X115799514Y-108179310D01*
X115707093Y-107981113D01*
X115581659Y-107801975D01*
X115427025Y-107647341D01*
X115247887Y-107521907D01*
X115247888Y-107521907D01*
X115247886Y-107521906D01*
X115148788Y-107475696D01*
X115049690Y-107429486D01*
X115049686Y-107429485D01*
X115049682Y-107429483D01*
X114838459Y-107372887D01*
X114838449Y-107372885D01*
X114620601Y-107353826D01*
X114620599Y-107353826D01*
X114402750Y-107372885D01*
X114402740Y-107372887D01*
X114191517Y-107429483D01*
X114191508Y-107429487D01*
X113993313Y-107521906D01*
X113873801Y-107605590D01*
X113814175Y-107647341D01*
X113814173Y-107647342D01*
X113814170Y-107647345D01*
X113659545Y-107801970D01*
X113659542Y-107801973D01*
X113659541Y-107801975D01*
X113627651Y-107847519D01*
X113534106Y-107981113D01*
X113441687Y-108179308D01*
X113441683Y-108179317D01*
X113385087Y-108390540D01*
X113385085Y-108390550D01*
X113366026Y-108608399D01*
X113366026Y-108608400D01*
X107000500Y-108608400D01*
X107000500Y-104548695D01*
X145451500Y-104548695D01*
X145466767Y-104718340D01*
X145527221Y-104937392D01*
X145527227Y-104937407D01*
X145625824Y-105142146D01*
X145625828Y-105142154D01*
X145759399Y-105325999D01*
X145759405Y-105326007D01*
X145910916Y-105470866D01*
X145923662Y-105483052D01*
X146021322Y-105547516D01*
X146113319Y-105608244D01*
X146113321Y-105608245D01*
X146113323Y-105608246D01*
X146322289Y-105697562D01*
X146543846Y-105748131D01*
X146770871Y-105758327D01*
X146996068Y-105727822D01*
X147212200Y-105657596D01*
X147412319Y-105549908D01*
X147589993Y-105408217D01*
X147739512Y-105237078D01*
X147752045Y-105216101D01*
X147803324Y-105168650D01*
X147872121Y-105156453D01*
X147936591Y-105183388D01*
X147958809Y-105206817D01*
X148045399Y-105325999D01*
X148045405Y-105326007D01*
X148196916Y-105470866D01*
X148209662Y-105483052D01*
X148307322Y-105547516D01*
X148399319Y-105608244D01*
X148399321Y-105608245D01*
X148399323Y-105608246D01*
X148608289Y-105697562D01*
X148829846Y-105748131D01*
X149056871Y-105758327D01*
X149282068Y-105727822D01*
X149498200Y-105657596D01*
X149698319Y-105549908D01*
X149875993Y-105408217D01*
X150025512Y-105237078D01*
X150038045Y-105216101D01*
X150089324Y-105168650D01*
X150158121Y-105156453D01*
X150222591Y-105183388D01*
X150244809Y-105206817D01*
X150331399Y-105325999D01*
X150331405Y-105326007D01*
X150482916Y-105470866D01*
X150495662Y-105483052D01*
X150593322Y-105547516D01*
X150685319Y-105608244D01*
X150685321Y-105608245D01*
X150685323Y-105608246D01*
X150894289Y-105697562D01*
X151115846Y-105748131D01*
X151342871Y-105758327D01*
X151568068Y-105727822D01*
X151784200Y-105657596D01*
X151984319Y-105549908D01*
X152161993Y-105408217D01*
X152311512Y-105237078D01*
X152428071Y-105041992D01*
X152507922Y-104829229D01*
X152524153Y-104739788D01*
X152548500Y-104605630D01*
X152548500Y-104548695D01*
X162451500Y-104548695D01*
X162466767Y-104718340D01*
X162527221Y-104937392D01*
X162527227Y-104937407D01*
X162625824Y-105142146D01*
X162625828Y-105142154D01*
X162759399Y-105325999D01*
X162759405Y-105326007D01*
X162910916Y-105470866D01*
X162923662Y-105483052D01*
X163021322Y-105547516D01*
X163113319Y-105608244D01*
X163113321Y-105608245D01*
X163113323Y-105608246D01*
X163322289Y-105697562D01*
X163543846Y-105748131D01*
X163770871Y-105758327D01*
X163996068Y-105727822D01*
X164212200Y-105657596D01*
X164412319Y-105549908D01*
X164589993Y-105408217D01*
X164739512Y-105237078D01*
X164752045Y-105216101D01*
X164803324Y-105168650D01*
X164872121Y-105156453D01*
X164936591Y-105183388D01*
X164958809Y-105206817D01*
X165045399Y-105325999D01*
X165045405Y-105326007D01*
X165196916Y-105470866D01*
X165209662Y-105483052D01*
X165307322Y-105547516D01*
X165399319Y-105608244D01*
X165399321Y-105608245D01*
X165399323Y-105608246D01*
X165608289Y-105697562D01*
X165829846Y-105748131D01*
X166056871Y-105758327D01*
X166282068Y-105727822D01*
X166498200Y-105657596D01*
X166698319Y-105549908D01*
X166875993Y-105408217D01*
X167025512Y-105237078D01*
X167038045Y-105216101D01*
X167089324Y-105168650D01*
X167158121Y-105156453D01*
X167222591Y-105183388D01*
X167244809Y-105206817D01*
X167331399Y-105325999D01*
X167331405Y-105326007D01*
X167482916Y-105470866D01*
X167495662Y-105483052D01*
X167593322Y-105547516D01*
X167685319Y-105608244D01*
X167685321Y-105608245D01*
X167685323Y-105608246D01*
X167894289Y-105697562D01*
X168115846Y-105748131D01*
X168342871Y-105758327D01*
X168568068Y-105727822D01*
X168784200Y-105657596D01*
X168984319Y-105549908D01*
X169161993Y-105408217D01*
X169311512Y-105237078D01*
X169428071Y-105041992D01*
X169507922Y-104829229D01*
X169524153Y-104739788D01*
X169548500Y-104605630D01*
X169548500Y-104548695D01*
X180451500Y-104548695D01*
X180466767Y-104718340D01*
X180527221Y-104937392D01*
X180527227Y-104937407D01*
X180625824Y-105142146D01*
X180625828Y-105142154D01*
X180759399Y-105325999D01*
X180759405Y-105326007D01*
X180910916Y-105470866D01*
X180923662Y-105483052D01*
X181021322Y-105547517D01*
X181113319Y-105608244D01*
X181113321Y-105608245D01*
X181113323Y-105608246D01*
X181322289Y-105697562D01*
X181543846Y-105748131D01*
X181770871Y-105758327D01*
X181996068Y-105727822D01*
X182212200Y-105657596D01*
X182412319Y-105549908D01*
X182589993Y-105408217D01*
X182739512Y-105237078D01*
X182752045Y-105216101D01*
X182803324Y-105168650D01*
X182872121Y-105156453D01*
X182936591Y-105183388D01*
X182958809Y-105206817D01*
X183045399Y-105325999D01*
X183045405Y-105326007D01*
X183196916Y-105470866D01*
X183209662Y-105483052D01*
X183307322Y-105547516D01*
X183399319Y-105608244D01*
X183399321Y-105608245D01*
X183399323Y-105608246D01*
X183608289Y-105697562D01*
X183829846Y-105748131D01*
X184056871Y-105758327D01*
X184282068Y-105727822D01*
X184498200Y-105657596D01*
X184698319Y-105549908D01*
X184875993Y-105408217D01*
X185025512Y-105237078D01*
X185038045Y-105216101D01*
X185089324Y-105168650D01*
X185158121Y-105156453D01*
X185222591Y-105183388D01*
X185244809Y-105206817D01*
X185331399Y-105325999D01*
X185331405Y-105326007D01*
X185482916Y-105470866D01*
X185495662Y-105483052D01*
X185593322Y-105547517D01*
X185685319Y-105608244D01*
X185685321Y-105608245D01*
X185685323Y-105608246D01*
X185894289Y-105697562D01*
X186115846Y-105748131D01*
X186342871Y-105758327D01*
X186568068Y-105727822D01*
X186784200Y-105657596D01*
X186984319Y-105549908D01*
X187161993Y-105408217D01*
X187311512Y-105237078D01*
X187428071Y-105041992D01*
X187507922Y-104829229D01*
X187524153Y-104739788D01*
X187548500Y-104605630D01*
X187548500Y-104548695D01*
X197451500Y-104548695D01*
X197466767Y-104718340D01*
X197527221Y-104937392D01*
X197527227Y-104937407D01*
X197625824Y-105142146D01*
X197625828Y-105142154D01*
X197759399Y-105325999D01*
X197759405Y-105326007D01*
X197910916Y-105470866D01*
X197923662Y-105483052D01*
X198021322Y-105547517D01*
X198113319Y-105608244D01*
X198113321Y-105608245D01*
X198113323Y-105608246D01*
X198322289Y-105697562D01*
X198543846Y-105748131D01*
X198770871Y-105758327D01*
X198996068Y-105727822D01*
X199212200Y-105657596D01*
X199412319Y-105549908D01*
X199589993Y-105408217D01*
X199739512Y-105237078D01*
X199752045Y-105216101D01*
X199803324Y-105168650D01*
X199872121Y-105156453D01*
X199936591Y-105183388D01*
X199958809Y-105206817D01*
X200045399Y-105325999D01*
X200045405Y-105326007D01*
X200196916Y-105470866D01*
X200209662Y-105483052D01*
X200307322Y-105547516D01*
X200399319Y-105608244D01*
X200399321Y-105608245D01*
X200399323Y-105608246D01*
X200608289Y-105697562D01*
X200829846Y-105748131D01*
X201056871Y-105758327D01*
X201282068Y-105727822D01*
X201498200Y-105657596D01*
X201698319Y-105549908D01*
X201875993Y-105408217D01*
X202025512Y-105237078D01*
X202038324Y-105215633D01*
X202089603Y-105168183D01*
X202158400Y-105155986D01*
X202222870Y-105182921D01*
X202245088Y-105206350D01*
X202331780Y-105325672D01*
X202331784Y-105325677D01*
X202495976Y-105482659D01*
X202685560Y-105607803D01*
X202894439Y-105697083D01*
X202894448Y-105697086D01*
X203035998Y-105729393D01*
X203035999Y-105729393D01*
X203035999Y-104350383D01*
X203055684Y-104283344D01*
X203108488Y-104237589D01*
X203177645Y-104227645D01*
X203249666Y-104238000D01*
X203249669Y-104238000D01*
X203322331Y-104238000D01*
X203322334Y-104238000D01*
X203394353Y-104227645D01*
X203463510Y-104237589D01*
X203516314Y-104283343D01*
X203535999Y-104350383D01*
X203535999Y-105731659D01*
X203536000Y-105731660D01*
X203567952Y-105727333D01*
X203784003Y-105657134D01*
X203984039Y-105549490D01*
X203984042Y-105549488D01*
X204161646Y-105407854D01*
X204311100Y-105236789D01*
X204311107Y-105236781D01*
X204427615Y-105041781D01*
X204427619Y-105041773D01*
X204507438Y-104829095D01*
X204548000Y-104605585D01*
X204548000Y-103980000D01*
X203907684Y-103980000D01*
X203840645Y-103960315D01*
X203794890Y-103907511D01*
X203784946Y-103838353D01*
X203788707Y-103821064D01*
X203794000Y-103803038D01*
X203794000Y-103656961D01*
X203788707Y-103638936D01*
X203788706Y-103569067D01*
X203826480Y-103510288D01*
X203890036Y-103481262D01*
X203907684Y-103480000D01*
X204547999Y-103480000D01*
X204548000Y-102911330D01*
X204547999Y-102911327D01*
X204532738Y-102741749D01*
X204472307Y-102522782D01*
X204472302Y-102522769D01*
X204373743Y-102318108D01*
X204373737Y-102318098D01*
X204240219Y-102134327D01*
X204240215Y-102134322D01*
X204076023Y-101977340D01*
X203886439Y-101852196D01*
X203677559Y-101762916D01*
X203677550Y-101762913D01*
X203536000Y-101730605D01*
X203536000Y-103109616D01*
X203516315Y-103176655D01*
X203463511Y-103222410D01*
X203394355Y-103232354D01*
X203322337Y-103222000D01*
X203322334Y-103222000D01*
X203249666Y-103222000D01*
X203249662Y-103222000D01*
X203177645Y-103232354D01*
X203108487Y-103222410D01*
X203055684Y-103176654D01*
X203036000Y-103109616D01*
X203036000Y-101728339D01*
X203004040Y-101732669D01*
X203004038Y-101732669D01*
X202787996Y-101802865D01*
X202587960Y-101910509D01*
X202587957Y-101910511D01*
X202410353Y-102052145D01*
X202260899Y-102223210D01*
X202260896Y-102223214D01*
X202248275Y-102244338D01*
X202196991Y-102291791D01*
X202128194Y-102303985D01*
X202063725Y-102277049D01*
X202041510Y-102253622D01*
X201954600Y-102134000D01*
X201954594Y-102133992D01*
X201790339Y-101976949D01*
X201790338Y-101976948D01*
X201741507Y-101944715D01*
X201600680Y-101851755D01*
X201548807Y-101829584D01*
X201391711Y-101762438D01*
X201391704Y-101762436D01*
X201391700Y-101762435D01*
X201170159Y-101711870D01*
X201170155Y-101711869D01*
X201170154Y-101711869D01*
X201170153Y-101711868D01*
X201170148Y-101711868D01*
X200943132Y-101701673D01*
X200943131Y-101701673D01*
X200943129Y-101701673D01*
X200830530Y-101716925D01*
X200717929Y-101732178D01*
X200501797Y-101802405D01*
X200301679Y-101910093D01*
X200124006Y-102051782D01*
X199974493Y-102222915D01*
X199974490Y-102222918D01*
X199961954Y-102243900D01*
X199910669Y-102291352D01*
X199841872Y-102303545D01*
X199777404Y-102276608D01*
X199755194Y-102253187D01*
X199668596Y-102133995D01*
X199668594Y-102133993D01*
X199668594Y-102133992D01*
X199504339Y-101976949D01*
X199504338Y-101976948D01*
X199455507Y-101944715D01*
X199314680Y-101851755D01*
X199262807Y-101829584D01*
X199105711Y-101762438D01*
X199105704Y-101762436D01*
X199105700Y-101762435D01*
X198884159Y-101711870D01*
X198884155Y-101711869D01*
X198884154Y-101711869D01*
X198884153Y-101711868D01*
X198884148Y-101711868D01*
X198657132Y-101701673D01*
X198657131Y-101701673D01*
X198657129Y-101701673D01*
X198544530Y-101716925D01*
X198431929Y-101732178D01*
X198215797Y-101802405D01*
X198015679Y-101910093D01*
X197838006Y-102051782D01*
X197688493Y-102222915D01*
X197688487Y-102222923D01*
X197571932Y-102418001D01*
X197571930Y-102418006D01*
X197492077Y-102630771D01*
X197492077Y-102630772D01*
X197451500Y-102854369D01*
X197451500Y-104548695D01*
X187548500Y-104548695D01*
X187548500Y-102911306D01*
X187548500Y-102911301D01*
X187533232Y-102741661D01*
X187533232Y-102741659D01*
X187472778Y-102522607D01*
X187472772Y-102522592D01*
X187374175Y-102317853D01*
X187374171Y-102317845D01*
X187240600Y-102134000D01*
X187240594Y-102133992D01*
X187076339Y-101976949D01*
X187076338Y-101976948D01*
X187027507Y-101944715D01*
X186886680Y-101851755D01*
X186834807Y-101829584D01*
X186677711Y-101762438D01*
X186677704Y-101762436D01*
X186677700Y-101762435D01*
X186456159Y-101711870D01*
X186456155Y-101711869D01*
X186456154Y-101711869D01*
X186456153Y-101711868D01*
X186456148Y-101711868D01*
X186229132Y-101701673D01*
X186229131Y-101701673D01*
X186229129Y-101701673D01*
X186116530Y-101716925D01*
X186003929Y-101732178D01*
X185787797Y-101802405D01*
X185587679Y-101910093D01*
X185410006Y-102051782D01*
X185260493Y-102222915D01*
X185260490Y-102222918D01*
X185247954Y-102243900D01*
X185196669Y-102291352D01*
X185127872Y-102303545D01*
X185063404Y-102276608D01*
X185041194Y-102253187D01*
X184954596Y-102133995D01*
X184954594Y-102133993D01*
X184954594Y-102133992D01*
X184790339Y-101976949D01*
X184790338Y-101976948D01*
X184741507Y-101944715D01*
X184600680Y-101851755D01*
X184548807Y-101829584D01*
X184391711Y-101762438D01*
X184391704Y-101762436D01*
X184391700Y-101762435D01*
X184170159Y-101711870D01*
X184170155Y-101711869D01*
X184170154Y-101711869D01*
X184170153Y-101711868D01*
X184170148Y-101711868D01*
X183943132Y-101701673D01*
X183943131Y-101701673D01*
X183943129Y-101701673D01*
X183830530Y-101716925D01*
X183717929Y-101732178D01*
X183501797Y-101802405D01*
X183301679Y-101910093D01*
X183124006Y-102051782D01*
X182974493Y-102222915D01*
X182974490Y-102222918D01*
X182961954Y-102243900D01*
X182910669Y-102291352D01*
X182841872Y-102303545D01*
X182777404Y-102276608D01*
X182755194Y-102253187D01*
X182668596Y-102133995D01*
X182668594Y-102133993D01*
X182668594Y-102133992D01*
X182504339Y-101976949D01*
X182504338Y-101976948D01*
X182455507Y-101944715D01*
X182314680Y-101851755D01*
X182262807Y-101829584D01*
X182105711Y-101762438D01*
X182105704Y-101762436D01*
X182105700Y-101762435D01*
X181884159Y-101711870D01*
X181884155Y-101711869D01*
X181884154Y-101711869D01*
X181884153Y-101711868D01*
X181884148Y-101711868D01*
X181657132Y-101701673D01*
X181657131Y-101701673D01*
X181657129Y-101701673D01*
X181544530Y-101716925D01*
X181431929Y-101732178D01*
X181215797Y-101802405D01*
X181015679Y-101910093D01*
X180838006Y-102051782D01*
X180688493Y-102222915D01*
X180688487Y-102222923D01*
X180571932Y-102418001D01*
X180571930Y-102418006D01*
X180492077Y-102630771D01*
X180492077Y-102630772D01*
X180451500Y-102854369D01*
X180451500Y-104548695D01*
X169548500Y-104548695D01*
X169548500Y-102911306D01*
X169548500Y-102911301D01*
X169533232Y-102741661D01*
X169533232Y-102741659D01*
X169472778Y-102522607D01*
X169472772Y-102522592D01*
X169374175Y-102317853D01*
X169374171Y-102317845D01*
X169240600Y-102134000D01*
X169240594Y-102133992D01*
X169076339Y-101976949D01*
X169076338Y-101976948D01*
X169027507Y-101944715D01*
X168886680Y-101851755D01*
X168834807Y-101829584D01*
X168677711Y-101762438D01*
X168677704Y-101762436D01*
X168677700Y-101762435D01*
X168456159Y-101711870D01*
X168456155Y-101711869D01*
X168456154Y-101711869D01*
X168456153Y-101711868D01*
X168456148Y-101711868D01*
X168229132Y-101701673D01*
X168229131Y-101701673D01*
X168229129Y-101701673D01*
X168116530Y-101716925D01*
X168003929Y-101732178D01*
X167787797Y-101802405D01*
X167587679Y-101910093D01*
X167410006Y-102051782D01*
X167260493Y-102222915D01*
X167260490Y-102222918D01*
X167247954Y-102243900D01*
X167196669Y-102291352D01*
X167127872Y-102303545D01*
X167063404Y-102276608D01*
X167041194Y-102253187D01*
X166954596Y-102133995D01*
X166954594Y-102133993D01*
X166954594Y-102133992D01*
X166790339Y-101976949D01*
X166790338Y-101976948D01*
X166741507Y-101944715D01*
X166600680Y-101851755D01*
X166548807Y-101829584D01*
X166391711Y-101762438D01*
X166391704Y-101762436D01*
X166391700Y-101762435D01*
X166170159Y-101711870D01*
X166170155Y-101711869D01*
X166170154Y-101711869D01*
X166170153Y-101711868D01*
X166170148Y-101711868D01*
X165943132Y-101701673D01*
X165943131Y-101701673D01*
X165943129Y-101701673D01*
X165830530Y-101716925D01*
X165717929Y-101732178D01*
X165501797Y-101802405D01*
X165301679Y-101910093D01*
X165124006Y-102051782D01*
X164974493Y-102222915D01*
X164974490Y-102222918D01*
X164961954Y-102243900D01*
X164910669Y-102291352D01*
X164841872Y-102303545D01*
X164777404Y-102276608D01*
X164755194Y-102253187D01*
X164668596Y-102133995D01*
X164668594Y-102133993D01*
X164668594Y-102133992D01*
X164504339Y-101976949D01*
X164504338Y-101976948D01*
X164455507Y-101944715D01*
X164314680Y-101851755D01*
X164262807Y-101829584D01*
X164105711Y-101762438D01*
X164105704Y-101762436D01*
X164105700Y-101762435D01*
X163884159Y-101711870D01*
X163884155Y-101711869D01*
X163884154Y-101711869D01*
X163884153Y-101711868D01*
X163884148Y-101711868D01*
X163657132Y-101701673D01*
X163657131Y-101701673D01*
X163657129Y-101701673D01*
X163544530Y-101716925D01*
X163431929Y-101732178D01*
X163215797Y-101802405D01*
X163015679Y-101910093D01*
X162838006Y-102051782D01*
X162688493Y-102222915D01*
X162688487Y-102222923D01*
X162571932Y-102418001D01*
X162571930Y-102418006D01*
X162492077Y-102630771D01*
X162492077Y-102630772D01*
X162451500Y-102854369D01*
X162451500Y-104548695D01*
X152548500Y-104548695D01*
X152548500Y-102911306D01*
X152548500Y-102911301D01*
X152533232Y-102741661D01*
X152533232Y-102741659D01*
X152472778Y-102522607D01*
X152472772Y-102522592D01*
X152374175Y-102317853D01*
X152374171Y-102317845D01*
X152240600Y-102134000D01*
X152240594Y-102133992D01*
X152076339Y-101976949D01*
X152076338Y-101976948D01*
X152027507Y-101944715D01*
X151886680Y-101851755D01*
X151834807Y-101829584D01*
X151677711Y-101762438D01*
X151677704Y-101762436D01*
X151677700Y-101762435D01*
X151456159Y-101711870D01*
X151456155Y-101711869D01*
X151456154Y-101711869D01*
X151456153Y-101711868D01*
X151456148Y-101711868D01*
X151229132Y-101701673D01*
X151229131Y-101701673D01*
X151229129Y-101701673D01*
X151116530Y-101716925D01*
X151003929Y-101732178D01*
X150787797Y-101802405D01*
X150587679Y-101910093D01*
X150410006Y-102051782D01*
X150260493Y-102222915D01*
X150260490Y-102222918D01*
X150247954Y-102243900D01*
X150196669Y-102291352D01*
X150127872Y-102303545D01*
X150063404Y-102276608D01*
X150041194Y-102253187D01*
X149954596Y-102133995D01*
X149954594Y-102133993D01*
X149954594Y-102133992D01*
X149790339Y-101976949D01*
X149790338Y-101976948D01*
X149741507Y-101944715D01*
X149600680Y-101851755D01*
X149548807Y-101829584D01*
X149391711Y-101762438D01*
X149391704Y-101762436D01*
X149391700Y-101762435D01*
X149170159Y-101711870D01*
X149170155Y-101711869D01*
X149170154Y-101711869D01*
X149170153Y-101711868D01*
X149170148Y-101711868D01*
X148943132Y-101701673D01*
X148943131Y-101701673D01*
X148943129Y-101701673D01*
X148830530Y-101716925D01*
X148717929Y-101732178D01*
X148501797Y-101802405D01*
X148301679Y-101910093D01*
X148124006Y-102051782D01*
X147974493Y-102222915D01*
X147974490Y-102222918D01*
X147961954Y-102243900D01*
X147910669Y-102291352D01*
X147841872Y-102303545D01*
X147777404Y-102276608D01*
X147755194Y-102253187D01*
X147668596Y-102133995D01*
X147668594Y-102133993D01*
X147668594Y-102133992D01*
X147504339Y-101976949D01*
X147504338Y-101976948D01*
X147455507Y-101944715D01*
X147314680Y-101851755D01*
X147262807Y-101829584D01*
X147105711Y-101762438D01*
X147105704Y-101762436D01*
X147105700Y-101762435D01*
X146884159Y-101711870D01*
X146884155Y-101711869D01*
X146884154Y-101711869D01*
X146884153Y-101711868D01*
X146884148Y-101711868D01*
X146657132Y-101701673D01*
X146657131Y-101701673D01*
X146657129Y-101701673D01*
X146544530Y-101716925D01*
X146431929Y-101732178D01*
X146215797Y-101802405D01*
X146015679Y-101910093D01*
X145838006Y-102051782D01*
X145688493Y-102222915D01*
X145688487Y-102222923D01*
X145571932Y-102418001D01*
X145571930Y-102418006D01*
X145492077Y-102630771D01*
X145492077Y-102630772D01*
X145451500Y-102854369D01*
X145451500Y-104548695D01*
X107000500Y-104548695D01*
X107000500Y-89548695D01*
X180451500Y-89548695D01*
X180466767Y-89718340D01*
X180527221Y-89937392D01*
X180527227Y-89937407D01*
X180625824Y-90142146D01*
X180625828Y-90142154D01*
X180759399Y-90325999D01*
X180759405Y-90326007D01*
X180910916Y-90470866D01*
X180923662Y-90483052D01*
X181021322Y-90547517D01*
X181113319Y-90608244D01*
X181113321Y-90608245D01*
X181113323Y-90608246D01*
X181322289Y-90697562D01*
X181543846Y-90748131D01*
X181770871Y-90758327D01*
X181996068Y-90727822D01*
X182212200Y-90657596D01*
X182412319Y-90549908D01*
X182589993Y-90408217D01*
X182739512Y-90237078D01*
X182752045Y-90216101D01*
X182803324Y-90168650D01*
X182872121Y-90156453D01*
X182936591Y-90183388D01*
X182958809Y-90206817D01*
X183045399Y-90325999D01*
X183045405Y-90326007D01*
X183196916Y-90470866D01*
X183209662Y-90483052D01*
X183307322Y-90547516D01*
X183399319Y-90608244D01*
X183399321Y-90608245D01*
X183399323Y-90608246D01*
X183608289Y-90697562D01*
X183829846Y-90748131D01*
X184056871Y-90758327D01*
X184282068Y-90727822D01*
X184498200Y-90657596D01*
X184698319Y-90549908D01*
X184875993Y-90408217D01*
X185025512Y-90237078D01*
X185038045Y-90216101D01*
X185089324Y-90168650D01*
X185158121Y-90156453D01*
X185222591Y-90183388D01*
X185244809Y-90206817D01*
X185331399Y-90325999D01*
X185331405Y-90326007D01*
X185482916Y-90470866D01*
X185495662Y-90483052D01*
X185593322Y-90547517D01*
X185685319Y-90608244D01*
X185685321Y-90608245D01*
X185685323Y-90608246D01*
X185894289Y-90697562D01*
X186115846Y-90748131D01*
X186342871Y-90758327D01*
X186568068Y-90727822D01*
X186784200Y-90657596D01*
X186984319Y-90549908D01*
X187161993Y-90408217D01*
X187311512Y-90237078D01*
X187428071Y-90041992D01*
X187507922Y-89829229D01*
X187524153Y-89739788D01*
X187548500Y-89605630D01*
X187548500Y-89548695D01*
X197451500Y-89548695D01*
X197466767Y-89718340D01*
X197527221Y-89937392D01*
X197527227Y-89937407D01*
X197625824Y-90142146D01*
X197625828Y-90142154D01*
X197759399Y-90325999D01*
X197759405Y-90326007D01*
X197910916Y-90470866D01*
X197923662Y-90483052D01*
X198021322Y-90547517D01*
X198113319Y-90608244D01*
X198113321Y-90608245D01*
X198113323Y-90608246D01*
X198322289Y-90697562D01*
X198543846Y-90748131D01*
X198770871Y-90758327D01*
X198996068Y-90727822D01*
X199212200Y-90657596D01*
X199412319Y-90549908D01*
X199589993Y-90408217D01*
X199739512Y-90237078D01*
X199752045Y-90216101D01*
X199803324Y-90168650D01*
X199872121Y-90156453D01*
X199936591Y-90183388D01*
X199958809Y-90206817D01*
X200045399Y-90325999D01*
X200045405Y-90326007D01*
X200196916Y-90470866D01*
X200209662Y-90483052D01*
X200307322Y-90547516D01*
X200399319Y-90608244D01*
X200399321Y-90608245D01*
X200399323Y-90608246D01*
X200608289Y-90697562D01*
X200829846Y-90748131D01*
X201056871Y-90758327D01*
X201282068Y-90727822D01*
X201498200Y-90657596D01*
X201698319Y-90549908D01*
X201875993Y-90408217D01*
X202025512Y-90237078D01*
X202038324Y-90215633D01*
X202089603Y-90168183D01*
X202158400Y-90155986D01*
X202222870Y-90182921D01*
X202245088Y-90206350D01*
X202331780Y-90325672D01*
X202331784Y-90325677D01*
X202495976Y-90482659D01*
X202685560Y-90607803D01*
X202894439Y-90697083D01*
X202894448Y-90697086D01*
X203035998Y-90729393D01*
X203035999Y-90729393D01*
X203035999Y-89350383D01*
X203055684Y-89283344D01*
X203108488Y-89237589D01*
X203177645Y-89227645D01*
X203249666Y-89238000D01*
X203249669Y-89238000D01*
X203322331Y-89238000D01*
X203322334Y-89238000D01*
X203394353Y-89227645D01*
X203463510Y-89237589D01*
X203516314Y-89283343D01*
X203535999Y-89350383D01*
X203535999Y-90731659D01*
X203536000Y-90731660D01*
X203567952Y-90727333D01*
X203784003Y-90657134D01*
X203984039Y-90549490D01*
X203984042Y-90549488D01*
X204161646Y-90407854D01*
X204311100Y-90236789D01*
X204311107Y-90236781D01*
X204427615Y-90041781D01*
X204427619Y-90041773D01*
X204507438Y-89829095D01*
X204548000Y-89605585D01*
X204548000Y-88980000D01*
X203907684Y-88980000D01*
X203840645Y-88960315D01*
X203794890Y-88907511D01*
X203784946Y-88838353D01*
X203788707Y-88821064D01*
X203794000Y-88803038D01*
X203794000Y-88656961D01*
X203788707Y-88638936D01*
X203788706Y-88569067D01*
X203826480Y-88510288D01*
X203890036Y-88481262D01*
X203907684Y-88480000D01*
X204547999Y-88480000D01*
X204548000Y-87911330D01*
X204547999Y-87911327D01*
X204532738Y-87741749D01*
X204472307Y-87522782D01*
X204472302Y-87522769D01*
X204373743Y-87318108D01*
X204373737Y-87318098D01*
X204240219Y-87134327D01*
X204240215Y-87134322D01*
X204076023Y-86977340D01*
X203886439Y-86852196D01*
X203677559Y-86762916D01*
X203677550Y-86762913D01*
X203536000Y-86730605D01*
X203536000Y-88109616D01*
X203516315Y-88176655D01*
X203463511Y-88222410D01*
X203394355Y-88232354D01*
X203322337Y-88222000D01*
X203322334Y-88222000D01*
X203249666Y-88222000D01*
X203249662Y-88222000D01*
X203177645Y-88232354D01*
X203108487Y-88222410D01*
X203055684Y-88176654D01*
X203036000Y-88109616D01*
X203036000Y-86728339D01*
X203004040Y-86732669D01*
X203004038Y-86732669D01*
X202787996Y-86802865D01*
X202587960Y-86910509D01*
X202587957Y-86910511D01*
X202410353Y-87052145D01*
X202260899Y-87223210D01*
X202260896Y-87223214D01*
X202248275Y-87244338D01*
X202196991Y-87291791D01*
X202128194Y-87303985D01*
X202063725Y-87277049D01*
X202041510Y-87253622D01*
X201954600Y-87134000D01*
X201954594Y-87133992D01*
X201790339Y-86976949D01*
X201790338Y-86976948D01*
X201741507Y-86944715D01*
X201600680Y-86851755D01*
X201548807Y-86829584D01*
X201391711Y-86762438D01*
X201391704Y-86762436D01*
X201391700Y-86762435D01*
X201170159Y-86711870D01*
X201170155Y-86711869D01*
X201170154Y-86711869D01*
X201170153Y-86711868D01*
X201170148Y-86711868D01*
X200943132Y-86701673D01*
X200943131Y-86701673D01*
X200943129Y-86701673D01*
X200830530Y-86716925D01*
X200717929Y-86732178D01*
X200501797Y-86802405D01*
X200301679Y-86910093D01*
X200124006Y-87051782D01*
X199974493Y-87222915D01*
X199974490Y-87222918D01*
X199961954Y-87243900D01*
X199910669Y-87291352D01*
X199841872Y-87303545D01*
X199777404Y-87276608D01*
X199755194Y-87253187D01*
X199668596Y-87133995D01*
X199668594Y-87133993D01*
X199668594Y-87133992D01*
X199504339Y-86976949D01*
X199504338Y-86976948D01*
X199455507Y-86944715D01*
X199314680Y-86851755D01*
X199262807Y-86829584D01*
X199105711Y-86762438D01*
X199105704Y-86762436D01*
X199105700Y-86762435D01*
X198884159Y-86711870D01*
X198884155Y-86711869D01*
X198884154Y-86711869D01*
X198884153Y-86711868D01*
X198884148Y-86711868D01*
X198657132Y-86701673D01*
X198657131Y-86701673D01*
X198657129Y-86701673D01*
X198544530Y-86716925D01*
X198431929Y-86732178D01*
X198215797Y-86802405D01*
X198015679Y-86910093D01*
X197838006Y-87051782D01*
X197688493Y-87222915D01*
X197688487Y-87222923D01*
X197571932Y-87418001D01*
X197571930Y-87418006D01*
X197492077Y-87630771D01*
X197492077Y-87630772D01*
X197451500Y-87854369D01*
X197451500Y-89548695D01*
X187548500Y-89548695D01*
X187548500Y-87911306D01*
X187548500Y-87911301D01*
X187533232Y-87741661D01*
X187533232Y-87741659D01*
X187472778Y-87522607D01*
X187472772Y-87522592D01*
X187374175Y-87317853D01*
X187374171Y-87317845D01*
X187240600Y-87134000D01*
X187240594Y-87133992D01*
X187076339Y-86976949D01*
X187076338Y-86976948D01*
X187027507Y-86944715D01*
X186886680Y-86851755D01*
X186834807Y-86829584D01*
X186677711Y-86762438D01*
X186677704Y-86762436D01*
X186677700Y-86762435D01*
X186456159Y-86711870D01*
X186456155Y-86711869D01*
X186456154Y-86711869D01*
X186456153Y-86711868D01*
X186456148Y-86711868D01*
X186229132Y-86701673D01*
X186229131Y-86701673D01*
X186229129Y-86701673D01*
X186116530Y-86716925D01*
X186003929Y-86732178D01*
X185787797Y-86802405D01*
X185587679Y-86910093D01*
X185410006Y-87051782D01*
X185260493Y-87222915D01*
X185260490Y-87222918D01*
X185247954Y-87243900D01*
X185196669Y-87291352D01*
X185127872Y-87303545D01*
X185063404Y-87276608D01*
X185041194Y-87253187D01*
X184954596Y-87133995D01*
X184954594Y-87133993D01*
X184954594Y-87133992D01*
X184790339Y-86976949D01*
X184790338Y-86976948D01*
X184741507Y-86944715D01*
X184600680Y-86851755D01*
X184548807Y-86829584D01*
X184391711Y-86762438D01*
X184391704Y-86762436D01*
X184391700Y-86762435D01*
X184170159Y-86711870D01*
X184170155Y-86711869D01*
X184170154Y-86711869D01*
X184170153Y-86711868D01*
X184170148Y-86711868D01*
X183943132Y-86701673D01*
X183943131Y-86701673D01*
X183943129Y-86701673D01*
X183830530Y-86716925D01*
X183717929Y-86732178D01*
X183501797Y-86802405D01*
X183301679Y-86910093D01*
X183124006Y-87051782D01*
X182974493Y-87222915D01*
X182974490Y-87222918D01*
X182961954Y-87243900D01*
X182910669Y-87291352D01*
X182841872Y-87303545D01*
X182777404Y-87276608D01*
X182755194Y-87253187D01*
X182668596Y-87133995D01*
X182668594Y-87133993D01*
X182668594Y-87133992D01*
X182504339Y-86976949D01*
X182504338Y-86976948D01*
X182455507Y-86944715D01*
X182314680Y-86851755D01*
X182262807Y-86829584D01*
X182105711Y-86762438D01*
X182105704Y-86762436D01*
X182105700Y-86762435D01*
X181884159Y-86711870D01*
X181884155Y-86711869D01*
X181884154Y-86711869D01*
X181884153Y-86711868D01*
X181884148Y-86711868D01*
X181657132Y-86701673D01*
X181657131Y-86701673D01*
X181657129Y-86701673D01*
X181544530Y-86716925D01*
X181431929Y-86732178D01*
X181215797Y-86802405D01*
X181015679Y-86910093D01*
X180838006Y-87051782D01*
X180688493Y-87222915D01*
X180688487Y-87222923D01*
X180571932Y-87418001D01*
X180571930Y-87418006D01*
X180492077Y-87630771D01*
X180492077Y-87630772D01*
X180451500Y-87854369D01*
X180451500Y-89548695D01*
X107000500Y-89548695D01*
X107000500Y-87000000D01*
X111369474Y-87000000D01*
X111389547Y-87255064D01*
X111389547Y-87255067D01*
X111389548Y-87255070D01*
X111430774Y-87426786D01*
X111449279Y-87503864D01*
X111547188Y-87740239D01*
X111547190Y-87740242D01*
X111680875Y-87958396D01*
X111680878Y-87958401D01*
X111756200Y-88046591D01*
X111847044Y-88152956D01*
X111946109Y-88237565D01*
X112041598Y-88319121D01*
X112041600Y-88319122D01*
X112041601Y-88319123D01*
X112259757Y-88452809D01*
X112259760Y-88452811D01*
X112496135Y-88550720D01*
X112496140Y-88550722D01*
X112744930Y-88610452D01*
X113000000Y-88630526D01*
X113255070Y-88610452D01*
X113503860Y-88550722D01*
X113622051Y-88501765D01*
X113740239Y-88452811D01*
X113740240Y-88452810D01*
X113740243Y-88452809D01*
X113958399Y-88319123D01*
X114152956Y-88152956D01*
X114319123Y-87958399D01*
X114452809Y-87740243D01*
X114550722Y-87503860D01*
X114610452Y-87255070D01*
X114630526Y-87000000D01*
X171369474Y-87000000D01*
X171389547Y-87255064D01*
X171389547Y-87255067D01*
X171389548Y-87255070D01*
X171430774Y-87426786D01*
X171449279Y-87503864D01*
X171547188Y-87740239D01*
X171547190Y-87740242D01*
X171680875Y-87958396D01*
X171680878Y-87958401D01*
X171756200Y-88046591D01*
X171847044Y-88152956D01*
X171946109Y-88237565D01*
X172041598Y-88319121D01*
X172041600Y-88319122D01*
X172041601Y-88319123D01*
X172259757Y-88452809D01*
X172259760Y-88452811D01*
X172496135Y-88550720D01*
X172496140Y-88550722D01*
X172744930Y-88610452D01*
X173000000Y-88630526D01*
X173255070Y-88610452D01*
X173503860Y-88550722D01*
X173622051Y-88501765D01*
X173740239Y-88452811D01*
X173740240Y-88452810D01*
X173740243Y-88452809D01*
X173958399Y-88319123D01*
X174152956Y-88152956D01*
X174319123Y-87958399D01*
X174452809Y-87740243D01*
X174550722Y-87503860D01*
X174610452Y-87255070D01*
X174630526Y-87000000D01*
X174610452Y-86744930D01*
X174550722Y-86496140D01*
X174550720Y-86496135D01*
X174452811Y-86259760D01*
X174452809Y-86259757D01*
X174319124Y-86041603D01*
X174319121Y-86041598D01*
X174259319Y-85971579D01*
X174152956Y-85847044D01*
X174046591Y-85756200D01*
X173958401Y-85680878D01*
X173958396Y-85680875D01*
X173740242Y-85547190D01*
X173740239Y-85547188D01*
X173503864Y-85449279D01*
X173503860Y-85449278D01*
X173255070Y-85389548D01*
X173255067Y-85389547D01*
X173255064Y-85389547D01*
X173000000Y-85369474D01*
X172744935Y-85389547D01*
X172744931Y-85389547D01*
X172744930Y-85389548D01*
X172620535Y-85419413D01*
X172496135Y-85449279D01*
X172259760Y-85547188D01*
X172259757Y-85547190D01*
X172041603Y-85680875D01*
X172041598Y-85680878D01*
X171847044Y-85847044D01*
X171680878Y-86041598D01*
X171680875Y-86041603D01*
X171547190Y-86259757D01*
X171547188Y-86259760D01*
X171449279Y-86496135D01*
X171389547Y-86744935D01*
X171369474Y-87000000D01*
X114630526Y-87000000D01*
X114610452Y-86744930D01*
X114550722Y-86496140D01*
X114550720Y-86496135D01*
X114452811Y-86259760D01*
X114452809Y-86259757D01*
X114319124Y-86041603D01*
X114319121Y-86041598D01*
X114259319Y-85971579D01*
X114152956Y-85847044D01*
X114046591Y-85756200D01*
X113958401Y-85680878D01*
X113958396Y-85680875D01*
X113740242Y-85547190D01*
X113740239Y-85547188D01*
X113503864Y-85449279D01*
X113503860Y-85449278D01*
X113255070Y-85389548D01*
X113255067Y-85389547D01*
X113255064Y-85389547D01*
X113000000Y-85369474D01*
X112744935Y-85389547D01*
X112744931Y-85389547D01*
X112744930Y-85389548D01*
X112620535Y-85419413D01*
X112496135Y-85449279D01*
X112259760Y-85547188D01*
X112259757Y-85547190D01*
X112041603Y-85680875D01*
X112041598Y-85680878D01*
X111847044Y-85847044D01*
X111680878Y-86041598D01*
X111680875Y-86041603D01*
X111547190Y-86259757D01*
X111547188Y-86259760D01*
X111449279Y-86496135D01*
X111389547Y-86744935D01*
X111369474Y-87000000D01*
X107000500Y-87000000D01*
X107000500Y-74000001D01*
X112745928Y-74000001D01*
X112764979Y-74217761D01*
X112764981Y-74217771D01*
X112821555Y-74428910D01*
X112821559Y-74428919D01*
X112913944Y-74627039D01*
X112957376Y-74689068D01*
X112957377Y-74689069D01*
X113394451Y-74251994D01*
X113455774Y-74218509D01*
X113525465Y-74223493D01*
X113581399Y-74265364D01*
X113586447Y-74272635D01*
X113594797Y-74285627D01*
X113621828Y-74327688D01*
X113729467Y-74420957D01*
X113736170Y-74426765D01*
X113734050Y-74429210D01*
X113769426Y-74470028D01*
X113779377Y-74539185D01*
X113750358Y-74602744D01*
X113744318Y-74609232D01*
X113310929Y-75042620D01*
X113310930Y-75042622D01*
X113372960Y-75086055D01*
X113571080Y-75178440D01*
X113571089Y-75178444D01*
X113782228Y-75235018D01*
X113782238Y-75235020D01*
X113999998Y-75254072D01*
X114000002Y-75254072D01*
X114217761Y-75235020D01*
X114217771Y-75235018D01*
X114428910Y-75178444D01*
X114428919Y-75178440D01*
X114627035Y-75086057D01*
X114689069Y-75042621D01*
X114255680Y-74609233D01*
X114222195Y-74547910D01*
X114227179Y-74478219D01*
X114264831Y-74427920D01*
X114263830Y-74426765D01*
X114270533Y-74420957D01*
X114378172Y-74327688D01*
X114413551Y-74272635D01*
X114466352Y-74226882D01*
X114535511Y-74216937D01*
X114599067Y-74245961D01*
X114605547Y-74251994D01*
X115042621Y-74689069D01*
X115086057Y-74627035D01*
X115178440Y-74428919D01*
X115178444Y-74428910D01*
X115235018Y-74217771D01*
X115235020Y-74217761D01*
X115253740Y-74003800D01*
X128733179Y-74003800D01*
X128752424Y-74223776D01*
X128752426Y-74223786D01*
X128809575Y-74437070D01*
X128809580Y-74437084D01*
X128902899Y-74637207D01*
X128902900Y-74637209D01*
X128948258Y-74701987D01*
X129385260Y-74264984D01*
X129446583Y-74231499D01*
X129516274Y-74236483D01*
X129572208Y-74278354D01*
X129577256Y-74285625D01*
X129612129Y-74339887D01*
X129612133Y-74339892D01*
X129728636Y-74440844D01*
X129766410Y-74499622D01*
X129766410Y-74569492D01*
X129735114Y-74622237D01*
X129301811Y-75055540D01*
X129301811Y-75055541D01*
X129366582Y-75100894D01*
X129366592Y-75100900D01*
X129566715Y-75194219D01*
X129566729Y-75194224D01*
X129780013Y-75251373D01*
X129780023Y-75251375D01*
X129999999Y-75270621D01*
X130000001Y-75270621D01*
X130219976Y-75251375D01*
X130219986Y-75251373D01*
X130433270Y-75194224D01*
X130433284Y-75194219D01*
X130633408Y-75100900D01*
X130633420Y-75100893D01*
X130698186Y-75055542D01*
X130698187Y-75055540D01*
X130264884Y-74622237D01*
X130231399Y-74560914D01*
X130236383Y-74491222D01*
X130271362Y-74440843D01*
X130277465Y-74435553D01*
X130277470Y-74435552D01*
X130387869Y-74339890D01*
X130422742Y-74285625D01*
X130475544Y-74239871D01*
X130544702Y-74229927D01*
X130608258Y-74258951D01*
X130614738Y-74264984D01*
X131051741Y-74701987D01*
X131051742Y-74701986D01*
X131097093Y-74637220D01*
X131097100Y-74637208D01*
X131190419Y-74437084D01*
X131190424Y-74437070D01*
X131247573Y-74223786D01*
X131247575Y-74223776D01*
X131266821Y-74003800D01*
X131266821Y-74003799D01*
X131247575Y-73783823D01*
X131247573Y-73783813D01*
X131190424Y-73570529D01*
X131190420Y-73570520D01*
X131097098Y-73370390D01*
X131051740Y-73305611D01*
X130614738Y-73742614D01*
X130553415Y-73776099D01*
X130483723Y-73771115D01*
X130427790Y-73729243D01*
X130422742Y-73721973D01*
X130387870Y-73667711D01*
X130387865Y-73667707D01*
X130278840Y-73573235D01*
X130271361Y-73566754D01*
X130233588Y-73507976D01*
X130233588Y-73438106D01*
X130264884Y-73385361D01*
X130698187Y-72952058D01*
X130633409Y-72906700D01*
X130633407Y-72906699D01*
X130433284Y-72813380D01*
X130433270Y-72813375D01*
X130219986Y-72756226D01*
X130219976Y-72756224D01*
X130000001Y-72736979D01*
X129999999Y-72736979D01*
X129780023Y-72756224D01*
X129780013Y-72756226D01*
X129566729Y-72813375D01*
X129566720Y-72813379D01*
X129366586Y-72906703D01*
X129301812Y-72952057D01*
X129301811Y-72952058D01*
X129735115Y-73385362D01*
X129768600Y-73446685D01*
X129763616Y-73516377D01*
X129728637Y-73566755D01*
X129612133Y-73667707D01*
X129612129Y-73667712D01*
X129577257Y-73721974D01*
X129524453Y-73767729D01*
X129455294Y-73777672D01*
X129391739Y-73748647D01*
X129385261Y-73742615D01*
X128948258Y-73305611D01*
X128948257Y-73305612D01*
X128902903Y-73370386D01*
X128809579Y-73570520D01*
X128809575Y-73570529D01*
X128752426Y-73783813D01*
X128752424Y-73783823D01*
X128733179Y-74003799D01*
X128733179Y-74003800D01*
X115253740Y-74003800D01*
X115254072Y-74000001D01*
X115254072Y-73999998D01*
X115235020Y-73782238D01*
X115235018Y-73782228D01*
X115178444Y-73571089D01*
X115178440Y-73571080D01*
X115086055Y-73372960D01*
X115042622Y-73310930D01*
X115042621Y-73310929D01*
X114605547Y-73748004D01*
X114544224Y-73781489D01*
X114474532Y-73776505D01*
X114418599Y-73734633D01*
X114413550Y-73727362D01*
X114378172Y-73672312D01*
X114270533Y-73579043D01*
X114270532Y-73579042D01*
X114263830Y-73573235D01*
X114265948Y-73570790D01*
X114230569Y-73529967D01*
X114220621Y-73460809D01*
X114249641Y-73397251D01*
X114255679Y-73390766D01*
X114689069Y-72957377D01*
X114689068Y-72957376D01*
X114627039Y-72913944D01*
X114428919Y-72821559D01*
X114428910Y-72821555D01*
X114217771Y-72764981D01*
X114217761Y-72764979D01*
X114000002Y-72745928D01*
X113999998Y-72745928D01*
X113782238Y-72764979D01*
X113782228Y-72764981D01*
X113571089Y-72821555D01*
X113571080Y-72821559D01*
X113372964Y-72913942D01*
X113310930Y-72957377D01*
X113744319Y-73390766D01*
X113777804Y-73452089D01*
X113772820Y-73521781D01*
X113735167Y-73572077D01*
X113736170Y-73573235D01*
X113729467Y-73579042D01*
X113729467Y-73579043D01*
X113627143Y-73667707D01*
X113621826Y-73672314D01*
X113621824Y-73672316D01*
X113586448Y-73727363D01*
X113533644Y-73773118D01*
X113464486Y-73783062D01*
X113400930Y-73754037D01*
X113394452Y-73748005D01*
X112957377Y-73310930D01*
X112913942Y-73372964D01*
X112821559Y-73571080D01*
X112821555Y-73571089D01*
X112764981Y-73782228D01*
X112764979Y-73782238D01*
X112745928Y-73999998D01*
X112745928Y-74000001D01*
X107000500Y-74000001D01*
X107000500Y-70499999D01*
X112745426Y-70499999D01*
X112764485Y-70717848D01*
X112764487Y-70717858D01*
X112821083Y-70929081D01*
X112821085Y-70929085D01*
X112821086Y-70929089D01*
X112867296Y-71028187D01*
X112913506Y-71127285D01*
X112913507Y-71127286D01*
X113038941Y-71306424D01*
X113193575Y-71461058D01*
X113372713Y-71586492D01*
X113570910Y-71678913D01*
X113782146Y-71735513D01*
X113956429Y-71750760D01*
X113999999Y-71754573D01*
X114000000Y-71754573D01*
X114000001Y-71754573D01*
X114036309Y-71751396D01*
X114217854Y-71735513D01*
X114429090Y-71678913D01*
X114627287Y-71586492D01*
X114806425Y-71461058D01*
X114961059Y-71306424D01*
X115086493Y-71127286D01*
X115178914Y-70929089D01*
X115235514Y-70717853D01*
X115254574Y-70499999D01*
X115235514Y-70282145D01*
X115178914Y-70070909D01*
X115086493Y-69872712D01*
X115042490Y-69809870D01*
X128737500Y-69809870D01*
X128737501Y-69809876D01*
X128743908Y-69869483D01*
X128794202Y-70004328D01*
X128794206Y-70004335D01*
X128880452Y-70119544D01*
X128880455Y-70119547D01*
X128995664Y-70205793D01*
X128995671Y-70205797D01*
X129130517Y-70256091D01*
X129130516Y-70256091D01*
X129137444Y-70256835D01*
X129190127Y-70262500D01*
X130809872Y-70262499D01*
X130869483Y-70256091D01*
X131004331Y-70205796D01*
X131119546Y-70119546D01*
X131205796Y-70004331D01*
X131256091Y-69869483D01*
X131262500Y-69809873D01*
X131262499Y-68190128D01*
X131256091Y-68130517D01*
X131205796Y-67995669D01*
X131205795Y-67995668D01*
X131205793Y-67995664D01*
X131119547Y-67880455D01*
X131119544Y-67880452D01*
X131004335Y-67794206D01*
X131004328Y-67794202D01*
X130869482Y-67743908D01*
X130869483Y-67743908D01*
X130809883Y-67737501D01*
X130809881Y-67737500D01*
X130809873Y-67737500D01*
X130809864Y-67737500D01*
X129190129Y-67737500D01*
X129190123Y-67737501D01*
X129130516Y-67743908D01*
X128995671Y-67794202D01*
X128995664Y-67794206D01*
X128880455Y-67880452D01*
X128880452Y-67880455D01*
X128794206Y-67995664D01*
X128794202Y-67995671D01*
X128743908Y-68130517D01*
X128737501Y-68190116D01*
X128737501Y-68190123D01*
X128737500Y-68190135D01*
X128737500Y-69809870D01*
X115042490Y-69809870D01*
X114961059Y-69693574D01*
X114806425Y-69538940D01*
X114627287Y-69413506D01*
X114627288Y-69413506D01*
X114627286Y-69413505D01*
X114528188Y-69367295D01*
X114429090Y-69321085D01*
X114429086Y-69321084D01*
X114429082Y-69321082D01*
X114217859Y-69264486D01*
X114217849Y-69264484D01*
X114000001Y-69245425D01*
X113999999Y-69245425D01*
X113782150Y-69264484D01*
X113782140Y-69264486D01*
X113570917Y-69321082D01*
X113570908Y-69321086D01*
X113372713Y-69413505D01*
X113253201Y-69497189D01*
X113193575Y-69538940D01*
X113193573Y-69538941D01*
X113193570Y-69538944D01*
X113038945Y-69693569D01*
X112913506Y-69872712D01*
X112821087Y-70070907D01*
X112821083Y-70070916D01*
X112764487Y-70282139D01*
X112764485Y-70282149D01*
X112745426Y-70499998D01*
X112745426Y-70499999D01*
X107000500Y-70499999D01*
X107000500Y-63124500D01*
X107020185Y-63057461D01*
X107072989Y-63011706D01*
X107124500Y-63000500D01*
X223875500Y-63000500D01*
X223942539Y-63020185D01*
G37*
G04 #@! TD.AperFunction*
M02*
