M48
; DRILL file {KiCad 7.0.7} date Fri May 31 20:18:50 2024
; FORMAT={-:-/ absolute / metric / decimal}
; #@! TF.CreationDate,2024-05-31T20:18:50-04:00
; #@! TF.GenerationSoftware,Kicad,Pcbnew,7.0.7
; #@! TF.FileFunction,Plated,1,4,PTH
FMAT,2
METRIC
; #@! TA.AperFunction,Plated,PTH,ComponentDrill
T1C0.813
; #@! TA.AperFunction,Plated,PTH,ComponentDrill
T2C0.991
; #@! TA.AperFunction,Plated,PTH,ComponentDrill
T3C1.016
; #@! TA.AperFunction,Plated,PTH,ComponentDrill
T4C1.300
; #@! TA.AperFunction,Plated,PTH,ComponentDrill
T5C1.400
; #@! TA.AperFunction,Plated,PTH,ComponentDrill
T6C1.500
; #@! TA.AperFunction,Plated,PTH,ComponentDrill
T7C1.905
%
G90
G05
T1
X166.0Y-126.92
X166.0Y-129.46
X166.0Y-132.0
T2
X114.0Y-70.5
X114.0Y-74.0
X114.621Y-108.608
X114.621Y-112.108
T3
X122.0Y-124.0
X122.0Y-126.54
X130.0Y-69.0
X130.0Y-74.004
X146.714Y-103.73
X149.0Y-103.73
X151.286Y-103.73
X163.714Y-103.73
X166.0Y-103.73
X168.286Y-103.73
X181.714Y-88.73
X181.714Y-103.73
X181.714Y-118.73
X181.714Y-133.73
X184.0Y-88.73
X184.0Y-103.73
X184.0Y-118.73
X184.0Y-133.73
X186.286Y-88.73
X186.286Y-103.73
X186.286Y-118.73
X186.286Y-133.73
X198.714Y-88.73
X198.714Y-103.73
X198.714Y-118.73
X198.714Y-133.73
X201.0Y-88.73
X201.0Y-103.73
X201.0Y-118.73
X201.0Y-133.73
X203.286Y-88.73
X203.286Y-103.73
X203.286Y-118.73
X203.286Y-133.73
T4
X113.0Y-87.0
X134.96Y-131.96
X137.5Y-139.58
X140.04Y-131.96
X173.0Y-87.0
T5
X218.84Y-111.0
T6
X216.29Y-108.45
X216.29Y-113.55
X221.39Y-108.45
X221.39Y-113.55
T7
X116.92Y-118.92
X116.92Y-129.08
T0
M30
