G04 #@! TF.GenerationSoftware,KiCad,Pcbnew,7.0.7*
G04 #@! TF.CreationDate,2024-05-31T20:17:07-04:00*
G04 #@! TF.ProjectId,HVHF_IIB,48564846-5f49-4494-922e-6b696361645f,rev?*
G04 #@! TF.SameCoordinates,Original*
G04 #@! TF.FileFunction,Copper,L1,Top*
G04 #@! TF.FilePolarity,Positive*
%FSLAX46Y46*%
G04 Gerber Fmt 4.6, Leading zero omitted, Abs format (unit mm)*
G04 Created by KiCad (PCBNEW 7.0.7) date 2024-05-31 20:17:07*
%MOMM*%
%LPD*%
G01*
G04 APERTURE LIST*
G04 Aperture macros list*
%AMRoundRect*
0 Rectangle with rounded corners*
0 $1 Rounding radius*
0 $2 $3 $4 $5 $6 $7 $8 $9 X,Y pos of 4 corners*
0 Add a 4 corners polygon primitive as box body*
4,1,4,$2,$3,$4,$5,$6,$7,$8,$9,$2,$3,0*
0 Add four circle primitives for the rounded corners*
1,1,$1+$1,$2,$3*
1,1,$1+$1,$4,$5*
1,1,$1+$1,$6,$7*
1,1,$1+$1,$8,$9*
0 Add four rect primitives between the rounded corners*
20,1,$1+$1,$2,$3,$4,$5,0*
20,1,$1+$1,$4,$5,$6,$7,0*
20,1,$1+$1,$6,$7,$8,$9,0*
20,1,$1+$1,$8,$9,$2,$3,0*%
G04 Aperture macros list end*
G04 #@! TA.AperFunction,SMDPad,CuDef*
%ADD10RoundRect,0.250000X-0.475000X0.337500X-0.475000X-0.337500X0.475000X-0.337500X0.475000X0.337500X0*%
G04 #@! TD*
G04 #@! TA.AperFunction,SMDPad,CuDef*
%ADD11RoundRect,0.250000X-0.450000X0.350000X-0.450000X-0.350000X0.450000X-0.350000X0.450000X0.350000X0*%
G04 #@! TD*
G04 #@! TA.AperFunction,ComponentPad*
%ADD12O,1.524000X3.048000*%
G04 #@! TD*
G04 #@! TA.AperFunction,ComponentPad*
%ADD13C,1.498600*%
G04 #@! TD*
G04 #@! TA.AperFunction,ComponentPad*
%ADD14C,2.100000*%
G04 #@! TD*
G04 #@! TA.AperFunction,ComponentPad*
%ADD15C,2.250000*%
G04 #@! TD*
G04 #@! TA.AperFunction,SMDPad,CuDef*
%ADD16RoundRect,0.250000X0.350000X0.450000X-0.350000X0.450000X-0.350000X-0.450000X0.350000X-0.450000X0*%
G04 #@! TD*
G04 #@! TA.AperFunction,SMDPad,CuDef*
%ADD17RoundRect,0.225000X-0.225000X-0.375000X0.225000X-0.375000X0.225000X0.375000X-0.225000X0.375000X0*%
G04 #@! TD*
G04 #@! TA.AperFunction,SMDPad,CuDef*
%ADD18RoundRect,0.250000X-0.337500X-0.475000X0.337500X-0.475000X0.337500X0.475000X-0.337500X0.475000X0*%
G04 #@! TD*
G04 #@! TA.AperFunction,SMDPad,CuDef*
%ADD19R,0.304800X0.304800*%
G04 #@! TD*
G04 #@! TA.AperFunction,SMDPad,CuDef*
%ADD20RoundRect,0.150000X0.587500X0.150000X-0.587500X0.150000X-0.587500X-0.150000X0.587500X-0.150000X0*%
G04 #@! TD*
G04 #@! TA.AperFunction,SMDPad,CuDef*
%ADD21RoundRect,0.250000X-0.650000X0.412500X-0.650000X-0.412500X0.650000X-0.412500X0.650000X0.412500X0*%
G04 #@! TD*
G04 #@! TA.AperFunction,SMDPad,CuDef*
%ADD22RoundRect,0.250000X0.450000X-0.350000X0.450000X0.350000X-0.450000X0.350000X-0.450000X-0.350000X0*%
G04 #@! TD*
G04 #@! TA.AperFunction,SMDPad,CuDef*
%ADD23RoundRect,0.250000X-0.362500X-1.425000X0.362500X-1.425000X0.362500X1.425000X-0.362500X1.425000X0*%
G04 #@! TD*
G04 #@! TA.AperFunction,SMDPad,CuDef*
%ADD24RoundRect,0.150000X-0.150000X0.512500X-0.150000X-0.512500X0.150000X-0.512500X0.150000X0.512500X0*%
G04 #@! TD*
G04 #@! TA.AperFunction,SMDPad,CuDef*
%ADD25RoundRect,0.250000X-0.350000X-0.450000X0.350000X-0.450000X0.350000X0.450000X-0.350000X0.450000X0*%
G04 #@! TD*
G04 #@! TA.AperFunction,ComponentPad*
%ADD26R,1.524000X1.524000*%
G04 #@! TD*
G04 #@! TA.AperFunction,ComponentPad*
%ADD27C,1.524000*%
G04 #@! TD*
G04 #@! TA.AperFunction,ComponentPad*
%ADD28C,1.320800*%
G04 #@! TD*
G04 #@! TA.AperFunction,ComponentPad*
%ADD29R,1.320800X1.320800*%
G04 #@! TD*
G04 #@! TA.AperFunction,SMDPad,CuDef*
%ADD30RoundRect,0.250000X0.362500X1.425000X-0.362500X1.425000X-0.362500X-1.425000X0.362500X-1.425000X0*%
G04 #@! TD*
G04 #@! TA.AperFunction,SMDPad,CuDef*
%ADD31R,1.500000X2.000000*%
G04 #@! TD*
G04 #@! TA.AperFunction,SMDPad,CuDef*
%ADD32R,3.800000X2.000000*%
G04 #@! TD*
G04 #@! TA.AperFunction,SMDPad,CuDef*
%ADD33R,0.800000X0.600000*%
G04 #@! TD*
G04 #@! TA.AperFunction,SMDPad,CuDef*
%ADD34R,0.800000X0.900000*%
G04 #@! TD*
G04 #@! TA.AperFunction,ComponentPad*
%ADD35C,2.413000*%
G04 #@! TD*
G04 APERTURE END LIST*
D10*
X157000000Y-126462500D03*
X157000000Y-128537500D03*
D11*
X166000000Y-119970000D03*
X166000000Y-121970000D03*
D12*
X186286000Y-88730000D03*
X184000000Y-88730000D03*
X181714000Y-88730000D03*
D13*
X114620600Y-108608400D03*
X114620600Y-112108401D03*
D14*
X218840000Y-111000000D03*
D15*
X216290000Y-113550000D03*
X221390000Y-113550000D03*
X216290000Y-108450000D03*
X221390000Y-108450000D03*
D12*
X168286000Y-103730000D03*
X166000000Y-103730000D03*
X163714000Y-103730000D03*
X186286000Y-103730000D03*
X184000000Y-103730000D03*
X181714000Y-103730000D03*
X186286000Y-118730000D03*
X184000000Y-118730000D03*
X181714000Y-118730000D03*
D16*
X213000000Y-134625000D03*
X211000000Y-134625000D03*
D12*
X203286000Y-88730000D03*
X201000000Y-88730000D03*
X198714000Y-88730000D03*
D17*
X130300000Y-125805000D03*
X133600000Y-125805000D03*
D12*
X186286000Y-133730000D03*
X184000000Y-133730000D03*
X181714000Y-133730000D03*
D18*
X130950000Y-121805000D03*
X133025000Y-121805000D03*
D11*
X161500000Y-109037500D03*
X161500000Y-111037500D03*
X139000000Y-119000000D03*
X139000000Y-121000000D03*
D19*
X158800100Y-109000000D03*
X157199900Y-109000000D03*
D10*
X145000000Y-128925000D03*
X145000000Y-131000000D03*
D11*
X138000000Y-99000000D03*
X138000000Y-101000000D03*
D12*
X203286000Y-133730000D03*
X201000000Y-133730000D03*
X198714000Y-133730000D03*
D20*
X163437500Y-121870000D03*
X163437500Y-119970000D03*
X161562500Y-120920000D03*
D16*
X193000000Y-124000000D03*
X191000000Y-124000000D03*
D21*
X134000000Y-98875000D03*
X134000000Y-102000000D03*
D22*
X154500000Y-114500000D03*
X154500000Y-112500000D03*
D15*
X140040000Y-131960000D03*
X134960000Y-131960000D03*
X137500000Y-139580000D03*
D11*
X147000000Y-124080000D03*
X147000000Y-126080000D03*
D23*
X142575000Y-110500000D03*
X148500000Y-110500000D03*
D12*
X203286000Y-118730000D03*
X201000000Y-118730000D03*
X198714000Y-118730000D03*
D16*
X213000000Y-89000000D03*
X211000000Y-89000000D03*
D24*
X138950000Y-123725000D03*
X137050000Y-123725000D03*
X138000000Y-126000000D03*
D22*
X141000000Y-125500000D03*
X141000000Y-123500000D03*
D15*
X113000000Y-87000000D03*
X173000000Y-87000000D03*
D25*
X191000000Y-139000000D03*
X193000000Y-139000000D03*
X191000000Y-109000000D03*
X193000000Y-109000000D03*
D22*
X149500000Y-121000000D03*
X149500000Y-119000000D03*
D16*
X213000000Y-119000000D03*
X211000000Y-119000000D03*
D25*
X191000000Y-94000000D03*
X193000000Y-94000000D03*
D10*
X152000000Y-126425000D03*
X152000000Y-128500000D03*
D11*
X137000000Y-119000000D03*
X137000000Y-121000000D03*
X126950000Y-123805000D03*
X126950000Y-125805000D03*
D10*
X164500000Y-109000000D03*
X164500000Y-111075000D03*
D26*
X130000000Y-69000000D03*
D27*
X130000000Y-74003800D03*
D28*
X166000000Y-126920000D03*
X166000000Y-129460000D03*
D29*
X166000000Y-132000000D03*
D30*
X148462500Y-115000000D03*
X142537500Y-115000000D03*
D21*
X125000000Y-108437500D03*
X125000000Y-111562500D03*
D12*
X203286000Y-103730000D03*
X201000000Y-103730000D03*
X198714000Y-103730000D03*
D31*
X152200000Y-123650000D03*
X154500000Y-123650000D03*
X156800000Y-123650000D03*
D32*
X154500000Y-117350000D03*
D22*
X141500000Y-121000000D03*
X141500000Y-119000000D03*
D33*
X146800000Y-120575000D03*
D34*
X146800000Y-119425000D03*
D33*
X145200000Y-119275000D03*
X145200000Y-120575000D03*
D13*
X114000000Y-70499999D03*
X114000000Y-74000000D03*
D27*
X122000000Y-124000000D03*
X122000000Y-126540000D03*
D35*
X116919891Y-129080000D03*
X116919891Y-118920000D03*
D11*
X144000000Y-124000000D03*
X144000000Y-126000000D03*
D16*
X213000000Y-104000000D03*
X211000000Y-104000000D03*
D12*
X151286000Y-103730000D03*
X149000000Y-103730000D03*
X146714000Y-103730000D03*
M02*
